<svg width="458" height="175" viewBox="0 0 458 175" fill="none" xmlns="http://www.w3.org/2000/svg">
<path d="M60.4646 132.802L42.3047 120.087L62.056 130.154L63.4341 130.855L61.7315 133.689L60.4646 132.802Z" fill="white"/>
<path d="M63.9415 127.2L43.1211 111.87L65.6225 124.607L66.9697 125.371L65.1868 128.118L63.9415 127.2Z" fill="white"/>
<path d="M67.569 121.697L37.5898 98.9233L69.3365 119.163L70.6405 119.994L68.7988 122.633L67.569 121.697Z" fill="white"/>
<path d="M71.3441 116.292L42.8203 93.0214L73.195 113.817L74.4712 114.692L72.543 117.269L71.3441 116.292Z" fill="white"/>
<path d="M75.384 111.076L51.3809 89.8448L77.3152 108.666L78.5698 109.574L76.5427 112.102L75.384 111.076Z" fill="white"/>
<path d="M79.5616 105.978L61.9609 88.822L81.5732 103.632L82.8092 104.566L80.6678 107.056L79.5616 105.978Z" fill="white"/>
<path d="M83.8738 100.99L67.1445 83.5165L85.9657 98.7132L87.1708 99.6865L84.946 102.106L83.8738 100.99Z" fill="white"/>
<path d="M88.3885 96.1793L84.2324 89.9252L90.5546 93.9762L91.8864 94.829L89.263 97.4957L88.3885 96.1793Z" fill="white"/>
<path d="M93.0731 91.535L86.5254 82.4103L95.3103 89.406L96.5308 90.3794L93.9816 92.805L93.0731 91.535Z" fill="white"/>
<path d="M97.8785 87.0206L86.4238 71.8116L100.187 84.9688L101.308 86.0379L98.8116 88.2597L97.8785 87.0206Z" fill="white"/>
<path d="M102.828 82.6606L80.7656 53.6826L105.204 80.6861L106.243 81.8325L103.764 83.8935L102.828 82.6606Z" fill="white"/>
<path d="M107.965 78.5262L103.283 69.9638L110.409 76.632L111.549 77.7012L108.715 79.8982L107.965 78.5262Z" fill="white"/>
<path d="M113.212 74.5308L94.1465 45.5157L115.715 72.7231L116.676 73.9344L114.062 75.8255L113.212 74.5308Z" fill="white"/>
<path d="M118.562 70.6807L105.896 49.0785L121.127 68.9564L122.066 70.1863L119.344 72.0155L118.562 70.6807Z" fill="white"/>
<path d="M124.085 67.0808L121.576 60.1469L126.709 65.4462L127.806 66.5802L124.623 68.5671L124.085 67.0808Z" fill="white"/>
<path d="M129.714 63.654L117.543 39.5304L132.387 62.1059L133.237 63.4006L130.41 65.0352L129.714 63.654Z" fill="white"/>
<path d="M135.432 60.3786L127.07 41.4462L138.157 58.9232L138.988 60.2303L136.059 61.7938L135.432 60.3786Z" fill="white"/>
<path d="M141.275 57.3288L139.609 50.4319L144.047 55.9661L145.039 57.199L141.646 58.8645L141.275 57.3288Z" fill="white"/>
<path d="M147.226 54.5014L145.805 47.5829L150.041 53.2345L150.993 54.5014L147.541 56.0526L147.226 54.5014Z" fill="white"/>
<path d="M153.247 51.8378L142.908 22.5199L156.106 50.6667L156.764 52.0665L153.763 53.2963L153.247 51.8378Z" fill="white"/>
<path d="M159.357 49.372L148.48 15.552L162.256 48.2967L162.855 49.7243L159.83 50.8429L159.357 49.372Z" fill="white"/>
<path d="M165.569 47.1812L158.826 21.9792L168.501 46.2079L169.076 47.6447L165.967 48.6768L165.569 47.1812Z" fill="white"/>
<path d="M171.835 45.1542L164.719 15.5396L174.798 44.2828L175.311 45.7413L172.197 46.659L171.835 45.1542Z" fill="white"/>
<path d="M178.153 43.3002L177.949 36.3199L181.147 42.5277L181.87 43.9367L178.203 44.8853L178.153 43.3002Z" fill="white"/>
<path d="M184.562 41.7675L180.588 16.7478L187.577 41.097L188.004 42.5864L184.803 43.2971L184.562 41.7675Z" fill="white"/>
<path d="M191.004 40.3987L186.57 8.21631L194.042 39.8332L194.397 41.338L191.215 41.9313L191.004 40.3987Z" fill="white"/>
<path d="M197.485 39.1966L197.266 27.4608L200.538 38.7331L200.974 40.2287L197.513 40.754L197.485 39.1966Z" fill="white"/>
<path d="M204.016 38.316L202.227 9.81384L207.084 37.9576L207.347 39.4809L204.111 39.861L204.016 38.316Z" fill="white"/>
<path d="M210.57 37.6146L209.062 0.889923L213.651 37.3581L213.843 38.8907L210.635 39.1596L210.57 37.6146Z" fill="white"/>
<path d="M217.146 37.0676L218.296 29.0275L220.233 36.9131L220.607 38.4427L216.924 38.625L217.146 37.0676Z" fill="white"/>
<path d="M223.747 36.8544L224.998 18.8614L226.834 36.805L226.994 38.3469L223.639 38.3994L223.747 36.8544Z" fill="white"/>
<path d="M41.964 174.789L18.3008 165.748L42.891 171.841L44.3927 172.215L43.4101 175.342L41.964 174.789Z" fill="white"/>
<path d="M44.0317 168.535L13.9258 156.317L45.0544 165.621L46.5376 166.063L45.4623 169.116L44.0317 168.535Z" fill="white"/>
<path d="M46.2821 162.346L36.0078 156.678L47.4068 159.469L48.9209 159.84L47.6478 163.099L46.2821 162.346Z" fill="white"/>
<path d="M48.6985 156.218L23.1133 143.534L49.9221 153.381L51.3713 153.913L50.0859 156.907L48.6985 156.218Z" fill="white"/>
<path d="M51.3682 150.196L18.8027 133.151L52.6846 147.399L54.1091 147.999L52.7371 150.913L51.3682 150.196Z" fill="white"/>
<path d="M54.2484 144.269L47.8613 139.257L55.6605 141.522L57.1715 141.961L55.4875 145.242L54.2484 144.269Z" fill="white"/>
<path d="M57.2912 138.426L42.3418 128.337L58.793 135.725L60.2082 136.362L58.5767 139.294L57.2912 138.426Z" fill="white"/>
<path d="M398.254 135.725L418.33 126.319L399.756 138.426L398.458 139.272L396.852 136.383L398.254 135.725Z" fill="white"/>
<path d="M401.388 141.522L425.057 131.115L402.797 144.269L401.465 145.057L399.973 142.143L401.388 141.522Z" fill="white"/>
<path d="M404.362 147.399L439.053 132.771L405.678 150.196L404.309 150.909L402.938 147.999L404.362 147.399Z" fill="white"/>
<path d="M407.128 153.381L441.523 140.271L408.345 156.218L406.952 156.889L405.682 153.931L407.128 153.381Z" fill="white"/>
<path d="M409.64 159.469L440.021 149.272L410.765 162.346L409.353 162.976L408.176 159.96L409.64 159.469Z" fill="white"/>
<path d="M411.991 165.621L435.645 158.943L413.014 168.535L411.59 169.14L410.502 166.041L411.991 165.621Z" fill="white"/>
<path d="M414.156 171.841L437.655 166.091L415.08 174.789L413.637 175.345L412.654 172.209L414.156 171.841Z" fill="white"/>
<path d="M230.214 36.805L232.118 14.7177L233.301 36.8544L233.384 38.3994L230.078 38.3469L230.214 36.805Z" fill="white"/>
<path d="M236.813 36.9131L239.634 11.2136L239.9 37.0676L239.916 38.6157L236.646 38.452L236.813 36.9131Z" fill="white"/>
<path d="M243.395 37.3581L248.058 0L246.475 37.6146L246.411 39.1596L243.203 38.8907L243.395 37.3581Z" fill="white"/>
<path d="M249.961 37.9576L255.779 1.60989L253.029 38.316L252.915 39.8579L249.717 39.484L249.961 37.9576Z" fill="white"/>
<path d="M256.509 38.7331L262.837 7.31711L259.562 39.1966L259.404 40.7324L256.203 40.2472L256.509 38.7331Z" fill="white"/>
<path d="M263.005 39.8332L269.024 16.0031L266.043 40.3987L265.854 41.9375L262.625 41.3349L263.005 39.8332Z" fill="white"/>
<path d="M269.469 41.097L276.208 17.8633L272.484 41.7675L272.246 43.2971L269.039 42.5833L269.469 41.097Z" fill="white"/>
<path d="M275.899 42.5277L279.234 35.8007L278.894 43.3002L278.82 44.8791L275.201 43.9429L275.899 42.5277Z" fill="white"/>
<path d="M282.25 44.2828L286.876 34.0456L285.213 45.1542L284.982 46.6992L281.607 45.7042L282.25 44.2828Z" fill="white"/>
<path d="M288.547 46.2079L295.994 28.6814L291.479 47.1812L291.112 48.6861L287.941 47.6324L288.547 46.2079Z" fill="white"/>
<path d="M294.792 48.2967L308.879 14.7115L297.69 49.372L297.214 50.8429L294.195 49.7243L294.792 48.2967Z" fill="white"/>
<path d="M300.941 50.6667L306.021 42.3361L303.799 51.8378L303.444 53.3612L300.125 52.0047L300.941 50.6667Z" fill="white"/>
<path d="M307.004 53.2345L322.645 22.2387L309.822 54.5014L309.253 55.9414L306.309 54.6158L307.004 53.2345Z" fill="white"/>
<path d="M313.002 55.9661L325.411 34.2156L315.774 57.3288L315.177 58.7564L312.232 57.3102L313.002 55.9661Z" fill="white"/>
<path d="M318.891 58.9232L323.652 53.2901L321.616 60.3786L321.18 61.8958L317.871 60.1283L318.891 58.9232Z" fill="white"/>
<path d="M324.66 62.1059L339.505 39.5304L327.333 63.654L326.638 65.0352L323.811 63.4006L324.66 62.1059Z" fill="white"/>
<path d="M330.342 65.4462L342.584 48.7602L332.962 67.0808L332.239 68.4528L329.424 66.6946L330.342 65.4462Z" fill="white"/>
<path d="M335.92 68.9564L341.068 64.0742L338.485 70.6806L337.91 72.1546L334.773 70.0472L335.92 68.9564Z" fill="white"/>
<path d="M341.333 72.7232L346.623 68.0418L343.836 74.5308L343.212 75.9862L340.146 73.7707L341.333 72.7232Z" fill="white"/>
<path d="M346.638 76.632L366.887 53.0399L349.082 78.5262L348.196 79.7931L345.631 77.8062L346.638 76.632Z" fill="white"/>
<path d="M351.842 80.6861L375.709 54.3716L354.218 82.6606L353.282 83.8935L350.801 81.8325L351.842 80.6861Z" fill="white"/>
<path d="M356.861 84.9688L375.317 66.5339L359.169 87.0206L358.211 88.238L355.764 86.0627L356.861 84.9688Z" fill="white"/>
<path d="M361.737 89.4061L383.821 68.4312L363.974 91.5351L362.967 92.7093L360.615 90.4721L361.737 89.4061Z" fill="white"/>
<path d="M366.491 93.9761L372.43 90.3021L368.657 96.1793L367.798 97.5142L365.141 94.8104L366.491 93.9761Z" fill="white"/>
<path d="M371.081 98.7132L390.743 82.741L373.173 100.991L372.098 102.103L369.879 99.6896L371.081 98.7132Z" fill="white"/>
<path d="M375.474 103.632L401.097 83.6617L377.486 105.978L376.361 107.038L374.254 104.584L375.474 103.632Z" fill="white"/>
<path d="M379.733 108.666L389.776 102.594L381.665 111.076L380.589 112.204L378.398 109.473L379.733 108.666Z" fill="white"/>
<path d="M383.851 113.817L407.61 97.9716L385.702 116.292L384.515 117.284L382.562 114.676L383.851 113.817Z" fill="white"/>
<path d="M387.71 119.163L418.725 99.4331L389.478 121.697L388.248 122.633L386.406 119.991L387.71 119.163Z" fill="white"/>
<path d="M391.425 124.607L398.959 121.57L393.106 127.2L391.972 128.291L389.967 125.198L391.425 124.607Z" fill="white"/>
<path d="M394.991 130.154L411.189 122.222L396.583 132.802L395.328 133.71L393.598 130.834L394.991 130.154Z" fill="white"/>
</svg>
