<svg width="142" height="16" viewBox="0 0 142 16" fill="none" xmlns="http://www.w3.org/2000/svg">
<path d="M27.8854 15.8398H26.37L21.8151 7.07675L21.7918 15.8398H20.2852V4.11206H21.8005L26.3554 12.8605L26.3788 4.11206H27.8854V15.8398Z" fill="white"/>
<path d="M37.3156 10.42H32.4139V14.5758H38.1287V15.8398H30.9219V4.11206H38.0558V5.38472H32.4139V9.1532H37.3156V10.4171V10.42Z" fill="white"/>
<path d="M49.1002 5.38472H45.472V15.8398H44.0208V5.38472H40.3926V4.11206H49.0973V5.38472H49.1002Z" fill="white"/>
<path d="M57.6543 12.875C57.6543 12.5139 57.5698 12.211 57.4037 11.9635C57.2434 11.716 57.0336 11.5063 56.7743 11.3345C56.5149 11.1685 56.2322 11.0287 55.9204 10.9151C55.6144 10.8015 55.3201 10.6996 55.0345 10.6093C54.6207 10.4753 54.1981 10.3152 53.7697 10.1259C53.3443 9.93365 52.9596 9.70067 52.6099 9.43274C52.2543 9.15898 51.9658 8.83573 51.7385 8.46587C51.517 8.09018 51.4092 7.65043 51.4092 7.1437C51.4092 6.63696 51.52 6.18847 51.7385 5.78949C51.9629 5.39342 52.2573 5.0556 52.6157 4.78185C52.9771 4.5081 53.3851 4.30132 53.8397 4.16154C54.2972 4.01592 54.7547 3.94312 55.2181 3.94312C55.7281 3.94312 56.2206 4.03048 56.6927 4.20231C57.1648 4.36831 57.5844 4.6042 57.9516 4.90999C58.3159 5.21577 58.6102 5.58563 58.8288 6.02247C59.0503 6.4564 59.1639 6.94275 59.1756 7.48152H57.6427C57.599 7.1437 57.5174 6.83791 57.3921 6.56416C57.2697 6.28458 57.1036 6.04577 56.8996 5.84774C56.6956 5.6497 56.4508 5.49535 56.1652 5.3876C55.8854 5.27402 55.5678 5.21869 55.2152 5.21869C54.9296 5.21869 54.6498 5.25946 54.3759 5.33809C54.1078 5.41963 53.8688 5.53904 53.659 5.69921C53.4433 5.85939 53.2714 6.06033 53.1432 6.29623C53.0208 6.53212 52.9567 6.80587 52.9567 7.11749C52.9625 7.45531 53.047 7.74363 53.2131 7.97952C53.3792 8.20959 53.592 8.40762 53.8513 8.5678C54.1049 8.72797 54.3788 8.86193 54.6731 8.96969C54.9733 9.07744 55.256 9.17064 55.5183 9.25218C55.9525 9.38614 56.3896 9.54923 56.8238 9.74435C57.258 9.93365 57.6573 10.1754 58.0157 10.4695C58.3713 10.7433 58.6539 11.0782 58.8696 11.4772C59.0911 11.8732 59.1989 12.3334 59.1989 12.8547C59.1989 13.3759 59.0794 13.839 58.8433 14.2322C58.6131 14.6253 58.3101 14.9486 57.94 15.2078C57.5698 15.4699 57.1502 15.6708 56.681 15.8048C56.2147 15.9329 55.7456 15.997 55.2793 15.997C54.7198 15.997 54.169 15.9038 53.6269 15.7145C53.0907 15.5252 52.6215 15.2544 52.2252 14.902C51.8697 14.5962 51.5899 14.238 51.3801 13.8303C51.1761 13.4167 51.0654 12.9566 51.0508 12.4528H52.5749C52.6244 12.8168 52.7235 13.143 52.8722 13.4284C53.0237 13.7079 53.216 13.9438 53.4521 14.1361C53.6881 14.3341 53.9591 14.4855 54.2651 14.5875C54.577 14.6836 54.915 14.7331 55.2793 14.7331C55.5707 14.7331 55.8534 14.6981 56.1331 14.6282C56.4187 14.5525 56.6693 14.4389 56.8908 14.2817C57.1123 14.1302 57.2901 13.9409 57.43 13.7109C57.5698 13.475 57.6398 13.1954 57.6398 12.8721L57.6543 12.875Z" fill="white"/>
<path d="M63.4686 11.1365V15.8398H61.9766V4.11206H65.7796C66.3071 4.12371 66.8025 4.20525 67.2717 4.36252C67.7438 4.51687 68.1576 4.74402 68.5131 5.03816C68.8686 5.3323 69.1484 5.69925 69.3524 6.13318C69.5622 6.5671 69.6671 7.06801 69.6671 7.63008C69.6671 8.19215 69.5622 8.69306 69.3524 9.12699C69.1484 9.558 68.8686 9.91912 68.5131 10.2133C68.1576 10.5074 67.7438 10.7346 67.2717 10.8889C66.8054 11.0433 66.3071 11.1248 65.7796 11.1306H63.4657L63.4686 11.1365ZM63.4686 9.91039H65.7825C66.1264 9.90456 66.444 9.85214 66.7325 9.75021C67.024 9.64246 67.2746 9.49393 67.4902 9.29881C67.7059 9.1066 67.872 8.87071 67.9886 8.59695C68.111 8.31737 68.1751 7.99994 68.1751 7.64755C68.1751 7.29517 68.1139 6.97482 67.9886 6.68942C67.8691 6.40401 67.7059 6.1623 67.4961 5.96426C67.2804 5.76623 67.0269 5.61188 66.7296 5.50412C66.4382 5.39637 66.1235 5.34104 65.7796 5.33521H63.4657V9.91039H63.4686Z" fill="white"/>
<path d="M72.1641 4.11206H79.2572V5.40802H76.445V14.5496H79.2572V15.8398H72.1641V14.5496H74.9121V5.40802H72.1641V4.11206Z" fill="white"/>
<path d="M86.3761 11.0549H84.0302V15.8398H82.5469V4.11206H85.9885C86.5364 4.12371 87.0522 4.19943 87.536 4.34504C88.0197 4.49066 88.4452 4.70616 88.8095 4.99739C89.1708 5.28861 89.4506 5.65265 89.6546 6.0924C89.8644 6.52633 89.9693 7.03889 89.9693 7.63008C89.9693 8.01159 89.914 8.36106 89.8003 8.6785C89.6925 8.99593 89.5439 9.28134 89.3486 9.54053C89.1563 9.79681 88.9231 10.0269 88.655 10.2249C88.3869 10.4229 88.0897 10.5919 87.7691 10.7316L90.2607 15.7407L90.252 15.8369H88.6813L86.3761 11.052V11.0549ZM84.0302 9.83176H86.0293C86.3615 9.82593 86.6763 9.77642 86.9735 9.67741C87.2679 9.57548 87.5302 9.42986 87.7545 9.24348C87.976 9.05418 88.1509 8.82702 88.2791 8.55909C88.4073 8.28534 88.4714 7.97082 88.4714 7.61552C88.4714 7.23984 88.4102 6.91075 88.2849 6.63409C88.1625 6.34868 87.9906 6.10988 87.7691 5.91767C87.5476 5.72837 87.2854 5.58858 86.9794 5.48956C86.6792 5.39346 86.347 5.34104 85.9885 5.33521H84.0302V9.82884V9.83176Z" fill="white"/>
<path d="M99.2707 10.42H94.369V14.5758H100.084V15.8398H92.877V4.11206H100.011V5.38472H94.369V9.1532H99.2707V10.4171V10.42Z" fill="white"/>
<path d="M113.314 15.8398V4.11206H116.03C116.488 4.11789 116.916 4.16448 117.319 4.25767C117.727 4.34504 118.102 4.46735 118.446 4.62753C118.924 4.84886 119.347 5.13718 119.711 5.4983C120.081 5.8536 120.378 6.26422 120.597 6.73019C120.795 7.12626 120.947 7.5631 121.049 8.03489C121.157 8.50667 121.212 9.01341 121.218 9.54926V10.4113C121.218 10.9268 121.165 11.416 121.063 11.8762C120.967 12.3392 120.824 12.7615 120.635 13.1488C120.443 13.5507 120.198 13.9177 119.901 14.2438C119.606 14.57 119.274 14.8496 118.91 15.0826C118.522 15.3243 118.085 15.5107 117.595 15.6388C117.112 15.767 116.587 15.8339 116.025 15.8398H113.309H113.314ZM114.83 5.33812V14.6253H116.03C116.459 14.6195 116.849 14.5671 117.199 14.4652C117.555 14.3632 117.869 14.2176 118.143 14.0312C118.435 13.839 118.682 13.6002 118.892 13.3236C119.108 13.0382 119.277 12.7207 119.399 12.3742C119.507 12.0888 119.589 11.783 119.641 11.4568C119.694 11.1248 119.726 10.7782 119.729 10.4171V9.54053C119.723 9.1765 119.691 8.82702 119.632 8.49211C119.58 8.15429 119.495 7.83976 119.382 7.54854C119.236 7.17286 119.041 6.83503 118.793 6.53507C118.551 6.22928 118.254 5.98174 117.898 5.79535C117.645 5.65556 117.365 5.54781 117.053 5.47209C116.742 5.39055 116.401 5.34977 116.03 5.34395H114.83V5.33812Z" fill="white"/>
<path d="M130.253 10.42H125.351V14.5758H131.066V15.8398H123.859V4.11206H130.993V5.38472H125.351V9.1532H130.253V10.4171V10.42Z" fill="white"/>
<path d="M136.998 15.8397L133.291 4.11205H134.888L137.467 12.8663L137.636 13.4371L137.814 12.8489L140.41 4.10913H141.999L138.298 15.8368H137.001L136.998 15.8397Z" fill="white"/>
<path d="M4.58111 16L0 15.9942L6.39957 0L10.9807 0.00582356L4.58111 16Z" fill="#FF4500"/>
<path d="M7.32554 15.9971L5.55078 14.1856L11.9096 2.48413L14.544 4.13247L7.32554 15.9971Z" fill="#FF4500"/>
<path d="M10.0692 15.9999L8.94727 13.9555L14.4813 7.04761L16.6029 9.28132L10.0692 15.9999Z" fill="#FF4500"/>
<path d="M12.81 15.9971L12.1602 14.3924L15.6718 11.7161L17.3853 15.9942L12.81 15.9971Z" fill="#FF4500"/>
</svg>
