<svg width="1440" height="145" viewBox="0 0 1440 145" fill="none" xmlns="http://www.w3.org/2000/svg">
<g clip-path="url(#clip0_2003_1386)">
<rect width="1440" height="145" fill="#0D0D0D"/>
<g opacity="0.5">
<path opacity="0.99" d="M33.1602 241V41" stroke="#E25319" stroke-width="0.86" stroke-linecap="round" stroke-linejoin="round"/>
<path opacity="0.99" d="M94.4492 241V41" stroke="#E25319" stroke-width="0.86" stroke-linecap="round" stroke-linejoin="round"/>
<path opacity="0.99" d="M155.74 241V41" stroke="#E25319" stroke-width="0.86" stroke-linecap="round" stroke-linejoin="round"/>
<path opacity="0.99" d="M217.029 241V41" stroke="#E25319" stroke-width="0.86" stroke-linecap="round" stroke-linejoin="round"/>
<path opacity="0.99" d="M278.32 241V41" stroke="#E25319" stroke-width="0.86" stroke-linecap="round" stroke-linejoin="round"/>
<path opacity="0.99" d="M339.609 241V41" stroke="#E25319" stroke-width="0.86" stroke-linecap="round" stroke-linejoin="round"/>
<path opacity="0.99" d="M400.9 241V41" stroke="#E25319" stroke-width="0.86" stroke-linecap="round" stroke-linejoin="round"/>
<path opacity="0.99" d="M462.189 241V41" stroke="#E25319" stroke-width="0.86" stroke-linecap="round" stroke-linejoin="round"/>
<path opacity="0.99" d="M523.48 241V41" stroke="#E25319" stroke-width="0.86" stroke-linecap="round" stroke-linejoin="round"/>
<path opacity="0.99" d="M584.77 241V41" stroke="#E25319" stroke-width="0.86" stroke-linecap="round" stroke-linejoin="round"/>
<path opacity="0.99" d="M646.061 241V41" stroke="#E25319" stroke-width="0.86" stroke-linecap="round" stroke-linejoin="round"/>
<path opacity="0.99" d="M707.35 241V41" stroke="#E25319" stroke-width="0.86" stroke-linecap="round" stroke-linejoin="round"/>
<path opacity="0.99" d="M768.65 241V41" stroke="#E25319" stroke-width="0.86" stroke-linecap="round" stroke-linejoin="round"/>
<path opacity="0.99" d="M829.939 241V41" stroke="#E25319" stroke-width="0.86" stroke-linecap="round" stroke-linejoin="round"/>
<path opacity="0.99" d="M891.23 241V41" stroke="#E25319" stroke-width="0.86" stroke-linecap="round" stroke-linejoin="round"/>
<path opacity="0.99" d="M952.52 241V41" stroke="#E25319" stroke-width="0.86" stroke-linecap="round" stroke-linejoin="round"/>
<path opacity="0.99" d="M1013.81 241V41" stroke="#E25319" stroke-width="0.86" stroke-linecap="round" stroke-linejoin="round"/>
<path opacity="0.99" d="M1075.1 241V41" stroke="#E25319" stroke-width="0.86" stroke-linecap="round" stroke-linejoin="round"/>
<path opacity="0.99" d="M1136.39 241V41" stroke="#E25319" stroke-width="0.86" stroke-linecap="round" stroke-linejoin="round"/>
<path opacity="0.99" d="M1197.68 241V41" stroke="#E25319" stroke-width="0.86" stroke-linecap="round" stroke-linejoin="round"/>
<path opacity="0.99" d="M1258.97 241V41" stroke="#E25319" stroke-width="0.86" stroke-linecap="round" stroke-linejoin="round"/>
<path opacity="0.99" d="M1320.26 241V41" stroke="#E25319" stroke-width="0.86" stroke-linecap="round" stroke-linejoin="round"/>
<path opacity="0.99" d="M1381.55 241V41" stroke="#E25319" stroke-width="0.86" stroke-linecap="round" stroke-linejoin="round"/>
</g>
<path d="M62.041 71.6104H61.2305L64.1992 63.8906H65.0049L62.041 71.6104ZM68.2469 71.6104H67.4363L70.4051 63.8906H71.2107L68.2469 71.6104ZM83.1879 69.2031C83.1879 68.985 83.1374 68.8011 83.0365 68.6514C82.9389 68.5016 82.8119 68.3747 82.6557 68.2705C82.4994 68.1696 82.3269 68.085 82.1381 68.0166C81.9525 67.9482 81.7735 67.8864 81.601 67.8311C81.3503 67.7497 81.0948 67.652 80.8344 67.5381C80.5772 67.4209 80.3428 67.2809 80.1313 67.1182C79.9164 66.9521 79.7406 66.7568 79.6039 66.5322C79.4704 66.3044 79.4037 66.0374 79.4037 65.7314C79.4037 65.4255 79.4704 65.152 79.6039 64.9111C79.7406 64.6702 79.918 64.4668 80.1361 64.3008C80.3542 64.1348 80.6016 64.0094 80.8783 63.9248C81.155 63.8369 81.4333 63.793 81.7133 63.793C82.0225 63.793 82.3204 63.8451 82.6068 63.9492C82.8933 64.0501 83.1472 64.1934 83.3686 64.3789C83.5899 64.5645 83.7673 64.7891 83.9008 65.0527C84.0342 65.3164 84.1042 65.611 84.1107 65.9365H83.183C83.157 65.7314 83.1065 65.5459 83.0316 65.3799C82.9568 65.2106 82.8575 65.0658 82.7338 64.9453C82.6101 64.8249 82.462 64.7321 82.2895 64.667C82.1202 64.5986 81.9281 64.5645 81.7133 64.5645C81.5408 64.5645 81.3715 64.5889 81.2055 64.6377C81.0427 64.6865 80.8979 64.7598 80.7709 64.8574C80.6407 64.9551 80.5365 65.0755 80.4584 65.2188C80.3835 65.362 80.3461 65.528 80.3461 65.7168C80.3493 65.9219 80.4014 66.096 80.5023 66.2393C80.6033 66.3792 80.7318 66.498 80.8881 66.5957C81.0411 66.6934 81.2071 66.7747 81.3861 66.8398C81.5684 66.9049 81.7393 66.9619 81.8988 67.0107C82.1625 67.0921 82.4262 67.1914 82.6898 67.3086C82.9535 67.4225 83.1944 67.569 83.4125 67.748C83.6273 67.9141 83.7999 68.1175 83.9301 68.3584C84.0635 68.5993 84.1303 68.8776 84.1303 69.1934C84.1303 69.5124 84.0587 69.7907 83.9154 70.0283C83.7755 70.266 83.5932 70.4629 83.3686 70.6191C83.1439 70.7786 82.89 70.8991 82.6068 70.9805C82.3236 71.0586 82.0404 71.0977 81.7572 71.0977C81.4187 71.0977 81.085 71.0407 80.7563 70.9268C80.4307 70.8128 80.1475 70.6484 79.9066 70.4336C79.6918 70.248 79.5209 70.0316 79.3939 69.7842C79.2702 69.5335 79.2035 69.2552 79.1938 68.9492H80.1166C80.1459 69.1706 80.2061 69.3675 80.2973 69.54C80.3884 69.7093 80.5056 69.8525 80.6488 69.9697C80.7921 70.0902 80.9564 70.1813 81.142 70.2432C81.3308 70.3018 81.5359 70.3311 81.7572 70.3311C81.933 70.3311 82.1055 70.3099 82.2748 70.2676C82.4473 70.222 82.6003 70.152 82.7338 70.0576C82.8673 69.9665 82.9763 69.8509 83.0609 69.7109C83.1456 69.5677 83.1879 69.3984 83.1879 69.2031ZM85.673 63.8906H89.9699V64.6768H88.2658V70.2188H89.9699V71H85.673V70.2188H87.3381V64.6768H85.673V63.8906ZM96.6738 64.6621H94.4766V71H93.5977V64.6621H91.4004V63.8906H96.6738V64.6621ZM101.996 67.7139H99.0271V70.2334H102.489V71H98.1238V63.8906H102.445V64.6621H99.0271V66.9473H101.996V67.7139Z" fill="#FF4500"/>
<rect x="60" y="84" width="1320" height="1" fill="white" fill-opacity="0.25"/>
</g>
<defs>
<clipPath id="clip0_2003_1386">
<rect width="1440" height="145" fill="white"/>
</clipPath>
</defs>
</svg>
