<svg width="1440" height="85" viewBox="0 0 1440 85" fill="none" xmlns="http://www.w3.org/2000/svg">
<g clip-path="url(#clip0_52_3723)">
<rect width="1440" height="25" fill="#1A0800"/>
<path d="M61.128 17V8.6H66.216V9.536H62.136V12.32H66.144V13.256H62.136V16.064H66.288V17H61.128ZM67.8997 17V8.6H69.8197L70.9477 16.568H71.0917L72.2197 8.6H74.1397V17H73.2037V9.032H73.0597L71.9317 17H70.1077L68.9797 9.032H68.8357V17H67.8997ZM74.8753 17L77.4193 8.6H79.3153L81.8593 17H80.7793L80.1673 14.912H76.5673L75.9553 17H74.8753ZM76.8433 13.976H79.8913L78.4393 9.032H78.2953L76.8433 13.976ZM83.051 17V16.064H85.211V9.536H83.051V8.6H88.379V9.536H86.219V16.064H88.379V17H83.051ZM90.4346 17V8.6H91.4426V16.064H95.8346V17H90.4346Z" fill="white"/>
<path d="M108.02 17V8.6H111.02C111.596 8.6 112.072 8.708 112.448 8.924C112.832 9.132 113.116 9.408 113.3 9.752C113.492 10.096 113.588 10.472 113.588 10.88V11.24C113.588 11.648 113.492 12.028 113.3 12.38C113.108 12.732 112.82 13.016 112.436 13.232C112.06 13.44 111.588 13.544 111.02 13.544H109.028V17H108.02ZM109.028 12.608H110.9C112.02 12.608 112.58 12.128 112.58 11.168V10.952C112.58 10.528 112.44 10.188 112.16 9.932C111.888 9.668 111.468 9.536 110.9 9.536H109.028V12.608ZM115.224 17V8.6H116.232V12.32H119.808V8.6H120.816V17H119.808V13.256H116.232V17H115.224ZM125.367 17.168C124.447 17.168 123.723 16.876 123.195 16.292C122.675 15.7 122.415 14.848 122.415 13.736V11.864C122.415 10.784 122.675 9.944 123.195 9.344C123.723 8.736 124.447 8.432 125.367 8.432C126.295 8.432 127.019 8.736 127.539 9.344C128.059 9.944 128.319 10.784 128.319 11.864V13.736C128.319 14.848 128.059 15.7 127.539 16.292C127.019 16.876 126.295 17.168 125.367 17.168ZM125.367 16.232C126.015 16.232 126.499 16.008 126.819 15.56C127.147 15.112 127.311 14.48 127.311 13.664V11.936C127.311 11.168 127.147 10.548 126.819 10.076C126.499 9.604 126.015 9.368 125.367 9.368C124.719 9.368 124.231 9.604 123.903 10.076C123.583 10.548 123.423 11.168 123.423 11.936V13.664C123.423 14.48 123.583 15.112 123.903 15.56C124.231 16.008 124.719 16.232 125.367 16.232ZM129.919 17V8.6H131.935L134.359 16.568H134.503V8.6H135.511V17H133.495L131.071 9.032H130.927V17H129.919ZM137.519 17V8.6H142.607V9.536H138.527V12.32H142.535V13.256H138.527V16.064H142.679V17H137.519ZM151.962 17V8.6H153.978L156.402 16.568H156.546V8.6H157.554V17H155.538L153.114 9.032H152.97V17H151.962ZM162.106 17.168C161.218 17.168 160.514 16.912 159.994 16.4C159.482 15.88 159.226 15.136 159.226 14.168V8.6H160.234V14.168C160.234 14.84 160.394 15.352 160.714 15.704C161.034 16.056 161.498 16.232 162.106 16.232C162.722 16.232 163.186 16.056 163.498 15.704C163.818 15.352 163.978 14.84 163.978 14.168V8.6H164.986V14.168C164.986 15.136 164.726 15.88 164.206 16.4C163.694 16.912 162.994 17.168 162.106 17.168ZM166.333 17V8.6H168.253L169.381 16.568H169.525L170.653 8.6H172.573V17H171.637V9.032H171.493L170.365 17H168.541L167.413 9.032H167.269V17H166.333ZM173.813 17V16.064H174.533V9.536H173.813V8.6H177.209C178.017 8.6 178.633 8.808 179.057 9.224C179.481 9.64 179.693 10.16 179.693 10.784V10.928C179.693 11.384 179.557 11.768 179.285 12.08C179.013 12.392 178.677 12.604 178.277 12.716V12.86C178.677 12.964 179.013 13.18 179.285 13.508C179.557 13.828 179.693 14.212 179.693 14.66V14.804C179.693 15.436 179.481 15.96 179.057 16.376C178.633 16.792 178.017 17 177.209 17H173.813ZM175.541 12.32H177.173C177.653 12.32 178.033 12.196 178.313 11.948C178.593 11.7 178.733 11.36 178.733 10.928V10.856C178.733 10.448 178.585 10.128 178.289 9.896C177.993 9.656 177.609 9.536 177.137 9.536H175.541V12.32ZM175.541 16.064H177.137C177.609 16.064 177.993 15.948 178.289 15.716C178.585 15.476 178.733 15.148 178.733 14.732V14.66C178.733 14.236 178.593 13.896 178.313 13.64C178.033 13.384 177.653 13.256 177.173 13.256H175.541V16.064ZM181.605 17V8.6H186.693V9.536H182.613V12.32H186.621V13.256H182.613V16.064H186.765V17H181.605ZM188.844 17V8.6H191.844C192.42 8.6 192.896 8.708 193.272 8.924C193.656 9.132 193.94 9.408 194.124 9.752C194.316 10.096 194.412 10.472 194.412 10.88V11.24C194.412 11.552 194.324 11.864 194.148 12.176C193.98 12.488 193.716 12.728 193.356 12.896V13.04C193.596 13.072 193.784 13.168 193.92 13.328C194.056 13.48 194.124 13.696 194.124 13.976V17H193.116V14.192C193.116 13.984 193.068 13.824 192.972 13.712C192.876 13.6 192.708 13.544 192.468 13.544H189.852V17H188.844ZM189.852 12.608H191.724C192.844 12.608 193.404 12.128 193.404 11.168V10.952C193.404 10.528 193.264 10.188 192.984 9.932C192.712 9.668 192.292 9.536 191.724 9.536H189.852V12.608Z" fill="white"/>
<g clip-path="url(#clip1_52_3723)">
<path d="M1111.14 17V8.6H1116.3V9.536H1112.15V12.32H1116.23V13.256H1112.15V17H1111.14ZM1120.7 17.168C1120.18 17.168 1119.7 17.052 1119.28 16.82C1118.86 16.58 1118.53 16.236 1118.28 15.788C1118.04 15.332 1117.91 14.776 1117.91 14.12V13.928C1117.91 13.28 1118.04 12.728 1118.28 12.272C1118.53 11.816 1118.86 11.472 1119.28 11.24C1119.7 11 1120.17 10.88 1120.67 10.88C1121.08 10.88 1121.45 10.972 1121.78 11.156C1122.11 11.332 1122.38 11.608 1122.57 11.984H1122.71V11.048H1123.65V15.776C1123.65 16.016 1123.76 16.136 1123.97 16.136H1124.27V17H1123.64C1123.39 17 1123.17 16.92 1122.99 16.76C1122.8 16.6 1122.71 16.344 1122.71 15.992H1122.57C1122.38 16.384 1122.11 16.68 1121.76 16.88C1121.43 17.072 1121.07 17.168 1120.7 17.168ZM1120.79 16.28C1121.35 16.28 1121.81 16.08 1122.17 15.68C1122.53 15.28 1122.71 14.752 1122.71 14.096V13.952C1122.71 13.528 1122.63 13.152 1122.46 12.824C1122.29 12.496 1122.06 12.24 1121.78 12.056C1121.49 11.864 1121.16 11.768 1120.79 11.768C1120.42 11.768 1120.1 11.86 1119.81 12.044C1119.52 12.22 1119.29 12.472 1119.12 12.8C1118.96 13.12 1118.87 13.496 1118.87 13.928V14.12C1118.87 14.792 1119.05 15.32 1119.41 15.704C1119.77 16.088 1120.23 16.28 1120.79 16.28ZM1128.48 17.168C1127.92 17.168 1127.42 17.052 1126.95 16.82C1126.49 16.58 1126.11 16.232 1125.82 15.776C1125.54 15.32 1125.4 14.768 1125.4 14.12V13.976C1125.4 13.336 1125.54 12.784 1125.82 12.32C1126.11 11.856 1126.49 11.5 1126.95 11.252C1127.42 11.004 1127.92 10.88 1128.48 10.88C1128.98 10.88 1129.43 10.98 1129.82 11.18C1130.22 11.372 1130.54 11.64 1130.79 11.984C1131.05 12.328 1131.21 12.72 1131.28 13.16L1130.35 13.376C1130.32 13.096 1130.22 12.836 1130.07 12.596C1129.92 12.348 1129.71 12.148 1129.44 11.996C1129.17 11.844 1128.84 11.768 1128.45 11.768C1128.07 11.768 1127.72 11.864 1127.4 12.056C1127.08 12.24 1126.83 12.5 1126.64 12.836C1126.46 13.164 1126.36 13.544 1126.36 13.976V14.12C1126.36 14.568 1126.46 14.956 1126.64 15.284C1126.83 15.604 1127.09 15.852 1127.41 16.028C1127.73 16.196 1128.08 16.28 1128.48 16.28C1128.87 16.28 1129.2 16.204 1129.46 16.052C1129.73 15.892 1129.94 15.692 1130.08 15.452C1130.24 15.204 1130.33 14.944 1130.37 14.672L1131.31 14.888C1131.23 15.328 1131.06 15.72 1130.82 16.064C1130.57 16.408 1130.24 16.68 1129.84 16.88C1129.45 17.072 1129 17.168 1128.48 17.168ZM1135.74 17.168C1135.17 17.168 1134.67 17.04 1134.23 16.784C1133.79 16.52 1133.45 16.16 1133.21 15.704C1132.96 15.24 1132.83 14.704 1132.83 14.096V13.808C1132.83 13.248 1132.96 12.748 1133.22 12.308C1133.47 11.868 1133.82 11.52 1134.26 11.264C1134.71 11.008 1135.21 10.88 1135.76 10.88C1136.25 10.88 1136.67 10.968 1137.02 11.144C1137.38 11.32 1137.67 11.544 1137.9 11.816C1138.13 12.088 1138.3 12.38 1138.4 12.692C1138.51 12.996 1138.57 13.28 1138.57 13.544V14.312H1133.77C1133.79 14.896 1133.98 15.372 1134.32 15.74C1134.67 16.1 1135.15 16.28 1135.76 16.28C1136.33 16.28 1136.75 16.16 1137.03 15.92C1137.31 15.68 1137.51 15.392 1137.61 15.056L1138.5 15.296C1138.33 15.848 1138.02 16.3 1137.56 16.652C1137.11 16.996 1136.51 17.168 1135.74 17.168ZM1133.79 13.448H1137.63C1137.62 13.104 1137.52 12.808 1137.33 12.56C1137.16 12.304 1136.93 12.108 1136.65 11.972C1136.37 11.836 1136.07 11.768 1135.76 11.768C1135.23 11.768 1134.79 11.928 1134.43 12.248C1134.07 12.568 1133.86 12.968 1133.79 13.448ZM1143.34 17.168C1142.95 17.168 1142.57 17.08 1142.19 16.904C1141.8 16.72 1141.51 16.448 1141.3 16.088H1141.15V17H1140.22V8.6H1141.15V11.984H1141.3C1141.51 11.624 1141.79 11.352 1142.16 11.168C1142.53 10.976 1142.93 10.88 1143.36 10.88C1143.85 10.88 1144.3 11 1144.72 11.24C1145.13 11.472 1145.47 11.816 1145.71 12.272C1145.97 12.72 1146.1 13.264 1146.1 13.904V14.144C1146.1 14.792 1145.97 15.34 1145.73 15.788C1145.48 16.236 1145.14 16.58 1144.72 16.82C1144.3 17.052 1143.84 17.168 1143.34 17.168ZM1143.15 16.28C1143.71 16.28 1144.19 16.088 1144.56 15.704C1144.95 15.32 1145.14 14.8 1145.14 14.144V13.904C1145.14 13.48 1145.05 13.108 1144.87 12.788C1144.7 12.468 1144.46 12.22 1144.15 12.044C1143.86 11.86 1143.52 11.768 1143.15 11.768C1142.78 11.768 1142.44 11.864 1142.14 12.056C1141.84 12.24 1141.6 12.496 1141.42 12.824C1141.24 13.152 1141.15 13.528 1141.15 13.952V14.096C1141.15 14.536 1141.24 14.92 1141.42 15.248C1141.59 15.576 1141.83 15.832 1142.14 16.016C1142.44 16.192 1142.78 16.28 1143.15 16.28ZM1150.41 17.168C1149.88 17.168 1149.39 17.048 1148.93 16.808C1148.49 16.568 1148.12 16.22 1147.84 15.764C1147.56 15.308 1147.42 14.752 1147.42 14.096V13.952C1147.42 13.304 1147.56 12.752 1147.84 12.296C1148.12 11.832 1148.49 11.48 1148.93 11.24C1149.39 11 1149.88 10.88 1150.41 10.88C1150.94 10.88 1151.43 11 1151.87 11.24C1152.33 11.48 1152.7 11.832 1152.98 12.296C1153.26 12.752 1153.4 13.304 1153.4 13.952V14.096C1153.4 14.752 1153.26 15.308 1152.98 15.764C1152.7 16.22 1152.33 16.568 1151.87 16.808C1151.43 17.048 1150.94 17.168 1150.41 17.168ZM1150.41 16.28C1150.79 16.28 1151.14 16.192 1151.44 16.016C1151.75 15.84 1151.99 15.588 1152.16 15.26C1152.35 14.932 1152.44 14.544 1152.44 14.096V13.952C1152.44 13.52 1152.35 13.14 1152.16 12.812C1151.99 12.484 1151.74 12.228 1151.43 12.044C1151.13 11.86 1150.79 11.768 1150.41 11.768C1150.03 11.768 1149.69 11.86 1149.38 12.044C1149.07 12.228 1148.83 12.484 1148.65 12.812C1148.47 13.14 1148.38 13.52 1148.38 13.952V14.096C1148.38 14.544 1148.47 14.932 1148.65 15.26C1148.83 15.588 1149.07 15.84 1149.38 16.016C1149.69 16.192 1150.03 16.28 1150.41 16.28ZM1157.76 17.168C1157.23 17.168 1156.74 17.048 1156.28 16.808C1155.83 16.568 1155.47 16.22 1155.19 15.764C1154.91 15.308 1154.77 14.752 1154.77 14.096V13.952C1154.77 13.304 1154.91 12.752 1155.19 12.296C1155.47 11.832 1155.83 11.48 1156.28 11.24C1156.74 11 1157.23 10.88 1157.76 10.88C1158.29 10.88 1158.77 11 1159.22 11.24C1159.68 11.48 1160.05 11.832 1160.33 12.296C1160.61 12.752 1160.75 13.304 1160.75 13.952V14.096C1160.75 14.752 1160.61 15.308 1160.33 15.764C1160.05 16.22 1159.68 16.568 1159.22 16.808C1158.77 17.048 1158.29 17.168 1157.76 17.168ZM1157.76 16.28C1158.14 16.28 1158.49 16.192 1158.79 16.016C1159.09 15.84 1159.33 15.588 1159.51 15.26C1159.69 14.932 1159.79 14.544 1159.79 14.096V13.952C1159.79 13.52 1159.69 13.14 1159.51 12.812C1159.33 12.484 1159.09 12.228 1158.78 12.044C1158.47 11.86 1158.13 11.768 1157.76 11.768C1157.38 11.768 1157.04 11.86 1156.73 12.044C1156.42 12.228 1156.18 12.484 1155.99 12.812C1155.82 13.14 1155.73 13.52 1155.73 13.952V14.096C1155.73 14.544 1155.82 14.932 1155.99 15.26C1156.18 15.588 1156.42 15.84 1156.73 16.016C1157.04 16.192 1157.38 16.28 1157.76 16.28ZM1163.08 17V8.6H1164.01V13.52H1164.22L1166.49 11.048H1167.64V11.12L1165.17 13.844V14.06L1167.93 16.928V17H1166.77L1164.24 14.384H1164.01V17H1163.08Z" fill="white" fill-opacity="0.5"/>
<path d="M1182.33 15.1666L1187.67 9.83325M1187.67 9.83325H1183.67M1187.67 9.83325V13.8333" stroke="white" stroke-opacity="0.5" stroke-linecap="round" stroke-linejoin="round"/>
<path d="M1226.01 17V16.064H1228.17V9.536H1226.01V8.6H1231.34V9.536H1229.18V16.064H1231.34V17H1226.01ZM1233.39 17V11.048H1234.33V12.056H1234.47C1234.84 11.272 1235.48 10.88 1236.39 10.88C1237.08 10.88 1237.63 11.096 1238.04 11.528C1238.44 11.952 1238.65 12.592 1238.65 13.448V17H1237.71V13.64C1237.71 13.016 1237.57 12.548 1237.29 12.236C1237.01 11.924 1236.63 11.768 1236.15 11.768C1235.59 11.768 1235.15 11.964 1234.82 12.356C1234.49 12.74 1234.33 13.256 1234.33 13.904V17H1233.39ZM1243.46 17.168C1242.85 17.168 1242.34 17.064 1241.95 16.856C1241.56 16.64 1241.27 16.368 1241.08 16.04C1240.88 15.704 1240.78 15.36 1240.75 15.008L1241.64 14.792C1241.68 15.248 1241.86 15.616 1242.17 15.896C1242.49 16.168 1242.9 16.304 1243.42 16.304C1243.86 16.304 1244.21 16.22 1244.47 16.052C1244.74 15.876 1244.88 15.632 1244.88 15.32C1244.88 14.984 1244.75 14.744 1244.48 14.6C1244.22 14.456 1243.79 14.364 1243.2 14.324C1242.52 14.276 1241.99 14.116 1241.62 13.844C1241.25 13.564 1241.06 13.168 1241.06 12.656V12.584C1241.06 12.208 1241.17 11.896 1241.38 11.648C1241.58 11.392 1241.85 11.2 1242.18 11.072C1242.51 10.944 1242.86 10.88 1243.22 10.88C1243.75 10.88 1244.19 10.972 1244.53 11.156C1244.88 11.332 1245.15 11.564 1245.34 11.852C1245.52 12.132 1245.63 12.424 1245.67 12.728L1244.78 12.944C1244.75 12.56 1244.6 12.26 1244.33 12.044C1244.06 11.828 1243.7 11.72 1243.27 11.72C1242.94 11.72 1242.64 11.792 1242.37 11.936C1242.11 12.08 1241.98 12.296 1241.98 12.584C1241.98 12.872 1242.1 13.092 1242.34 13.244C1242.58 13.396 1243.03 13.496 1243.68 13.544C1244.37 13.6 1244.9 13.768 1245.26 14.048C1245.63 14.32 1245.82 14.72 1245.82 15.248V15.32C1245.82 15.896 1245.6 16.348 1245.16 16.676C1244.72 17.004 1244.16 17.168 1243.46 17.168ZM1250.68 17C1250.41 17 1250.18 16.912 1250.01 16.736C1249.84 16.56 1249.75 16.336 1249.75 16.064V11.912H1247.88V11.048H1249.75V8.6H1250.69V11.048H1252.99V11.912H1250.69V15.776C1250.69 16.016 1250.8 16.136 1251.01 16.136H1252.71V17H1250.68ZM1257.74 17.168C1257.22 17.168 1256.75 17.052 1256.32 16.82C1255.91 16.58 1255.57 16.236 1255.33 15.788C1255.08 15.332 1254.95 14.776 1254.95 14.12V13.928C1254.95 13.28 1255.08 12.728 1255.33 12.272C1255.57 11.816 1255.91 11.472 1256.32 11.24C1256.75 11 1257.21 10.88 1257.71 10.88C1258.12 10.88 1258.49 10.972 1258.82 11.156C1259.15 11.332 1259.42 11.608 1259.61 11.984H1259.75V11.048H1260.69V15.776C1260.69 16.016 1260.8 16.136 1261.01 16.136H1261.31V17H1260.68C1260.43 17 1260.21 16.92 1260.03 16.76C1259.85 16.6 1259.75 16.344 1259.75 15.992H1259.61C1259.42 16.384 1259.15 16.68 1258.81 16.88C1258.47 17.072 1258.11 17.168 1257.74 17.168ZM1257.83 16.28C1258.39 16.28 1258.85 16.08 1259.21 15.68C1259.57 15.28 1259.75 14.752 1259.75 14.096V13.952C1259.75 13.528 1259.67 13.152 1259.5 12.824C1259.33 12.496 1259.11 12.24 1258.82 12.056C1258.53 11.864 1258.2 11.768 1257.83 11.768C1257.47 11.768 1257.14 11.86 1256.85 12.044C1256.56 12.22 1256.33 12.472 1256.17 12.8C1256 13.12 1255.91 13.496 1255.91 13.928V14.12C1255.91 14.792 1256.09 15.32 1256.45 15.704C1256.81 16.088 1257.27 16.28 1257.83 16.28ZM1263.44 19.4V18.536H1266.98C1267.2 18.536 1267.31 18.416 1267.31 18.176V16.088H1267.16C1266.97 16.448 1266.71 16.72 1266.37 16.904C1266.04 17.08 1265.68 17.168 1265.29 17.168C1264.76 17.168 1264.27 17.052 1263.83 16.82C1263.39 16.58 1263.03 16.232 1262.76 15.776C1262.49 15.32 1262.36 14.768 1262.36 14.12V13.928C1262.36 13.28 1262.5 12.732 1262.77 12.284C1263.04 11.828 1263.4 11.48 1263.84 11.24C1264.28 11 1264.75 10.88 1265.27 10.88C1265.7 10.88 1266.08 10.976 1266.41 11.168C1266.73 11.352 1266.99 11.624 1267.16 11.984H1267.31V11.048H1268.24V18.464C1268.24 18.736 1268.15 18.96 1267.98 19.136C1267.81 19.312 1267.59 19.4 1267.32 19.4H1263.44ZM1265.31 16.28C1265.69 16.28 1266.03 16.192 1266.32 16.016C1266.63 15.832 1266.87 15.576 1267.04 15.248C1267.22 14.92 1267.31 14.536 1267.31 14.096V13.952C1267.31 13.528 1267.21 13.152 1267.03 12.824C1266.85 12.496 1266.61 12.24 1266.31 12.056C1266.01 11.864 1265.68 11.768 1265.31 11.768C1264.94 11.768 1264.6 11.86 1264.29 12.044C1264 12.22 1263.76 12.472 1263.59 12.8C1263.41 13.12 1263.32 13.496 1263.32 13.928V14.12C1263.32 14.56 1263.41 14.944 1263.57 15.272C1263.75 15.592 1263.99 15.84 1264.28 16.016C1264.59 16.192 1264.93 16.28 1265.31 16.28ZM1269.65 17V16.136H1271.02V11.912H1269.79V11.048H1271.95V11.84H1272.1C1272.25 11.512 1272.47 11.272 1272.75 11.12C1273.03 10.96 1273.35 10.88 1273.71 10.88C1274.3 10.88 1274.78 11.076 1275.15 11.468C1275.52 11.86 1275.72 12.432 1275.75 13.184L1274.76 13.328C1274.76 12.776 1274.63 12.38 1274.37 12.14C1274.1 11.892 1273.78 11.768 1273.39 11.768C1272.91 11.768 1272.54 11.948 1272.3 12.308C1272.07 12.66 1271.95 13.096 1271.95 13.616V16.136H1273.47V17H1269.65ZM1279.78 17.168C1279.26 17.168 1278.79 17.052 1278.37 16.82C1277.95 16.58 1277.62 16.236 1277.37 15.788C1277.12 15.332 1277 14.776 1277 14.12V13.928C1277 13.28 1277.12 12.728 1277.37 12.272C1277.62 11.816 1277.95 11.472 1278.37 11.24C1278.79 11 1279.25 10.88 1279.76 10.88C1280.17 10.88 1280.53 10.972 1280.86 11.156C1281.2 11.332 1281.46 11.608 1281.65 11.984H1281.8V11.048H1282.73V15.776C1282.73 16.016 1282.84 16.136 1283.06 16.136H1283.36V17H1282.72C1282.47 17 1282.26 16.92 1282.07 16.76C1281.89 16.6 1281.8 16.344 1281.8 15.992H1281.65C1281.46 16.384 1281.19 16.68 1280.85 16.88C1280.51 17.072 1280.16 17.168 1279.78 17.168ZM1279.88 16.28C1280.44 16.28 1280.9 16.08 1281.26 15.68C1281.62 15.28 1281.8 14.752 1281.8 14.096V13.952C1281.8 13.528 1281.71 13.152 1281.55 12.824C1281.38 12.496 1281.15 12.24 1280.86 12.056C1280.57 11.864 1280.25 11.768 1279.88 11.768C1279.51 11.768 1279.18 11.86 1278.89 12.044C1278.61 12.22 1278.38 12.472 1278.21 12.8C1278.04 13.12 1277.96 13.496 1277.96 13.928V14.12C1277.96 14.792 1278.14 15.32 1278.5 15.704C1278.86 16.088 1279.32 16.28 1279.88 16.28ZM1284.36 17V11.048H1285.29V11.696H1285.44C1285.54 11.416 1285.69 11.212 1285.89 11.084C1286.09 10.948 1286.33 10.88 1286.6 10.88C1286.89 10.88 1287.13 10.956 1287.31 11.108C1287.5 11.26 1287.63 11.456 1287.71 11.696H1287.85C1288.12 11.152 1288.55 10.88 1289.15 10.88C1289.59 10.88 1289.94 11.024 1290.18 11.312C1290.43 11.592 1290.55 11.96 1290.55 12.416V17H1289.61V12.728C1289.61 12.448 1289.55 12.22 1289.42 12.044C1289.29 11.86 1289.09 11.768 1288.81 11.768C1288.55 11.768 1288.33 11.868 1288.16 12.068C1288 12.268 1287.92 12.568 1287.92 12.968V17H1286.99V12.68C1286.99 12.416 1286.91 12.2 1286.77 12.032C1286.63 11.856 1286.43 11.768 1286.19 11.768C1285.91 11.768 1285.68 11.872 1285.52 12.08C1285.37 12.288 1285.29 12.56 1285.29 12.896V17H1284.36Z" fill="white" fill-opacity="0.5"/>
<path d="M1305.33 15.1666L1310.67 9.83325M1310.67 9.83325H1306.67M1310.67 9.83325V13.8333" stroke="white" stroke-opacity="0.5" stroke-linecap="round" stroke-linejoin="round"/>
<path d="M1348.58 17L1350.68 12.86V12.716L1348.58 8.6H1349.68L1351.56 12.32H1351.78L1353.66 8.6H1354.77L1352.67 12.716V12.86L1354.77 17H1353.66L1351.78 13.256H1351.56L1349.68 17H1348.58Z" fill="white" fill-opacity="0.5"/>
<path d="M1369.33 15.1666L1374.67 9.83325M1374.67 9.83325H1370.67M1374.67 9.83325V13.8333" stroke="white" stroke-opacity="0.5" stroke-linecap="round" stroke-linejoin="round"/>
</g>
<rect width="1440" height="60" transform="translate(0 25)" fill="white"/>
<path d="M67.4238 60H66.1387L62.2764 52.5625L62.2559 60H60.9775V50.0469H62.2627L66.125 57.4707L66.1455 50.0469H67.4238V60ZM75.4232 55.3994H71.267V58.9268H76.1137V60H70.0023V50.0469H76.0521V51.127H71.267V54.3262H75.4232V55.3994ZM85.4188 51.127H82.3426V60H81.1121V51.127H78.0359V50.0469H85.4188V51.127ZM92.673 57.4844C92.673 57.179 92.6024 56.9215 92.4611 56.7119C92.3244 56.5023 92.1467 56.3245 91.9279 56.1787C91.7092 56.0374 91.4676 55.9189 91.2033 55.8232C90.9436 55.7275 90.6929 55.641 90.4514 55.5635C90.1005 55.4495 89.7427 55.3128 89.3781 55.1533C89.0181 54.9893 88.69 54.7933 88.3937 54.5654C88.093 54.333 87.8469 54.0596 87.6555 53.7451C87.4686 53.4261 87.3752 53.0524 87.3752 52.624C87.3752 52.1956 87.4686 51.8128 87.6555 51.4756C87.8469 51.1383 88.0952 50.8535 88.4006 50.6211C88.7059 50.3887 89.0523 50.2132 89.4396 50.0947C89.827 49.9717 90.2167 49.9102 90.6086 49.9102C91.0415 49.9102 91.4585 49.9831 91.8596 50.1289C92.2606 50.2702 92.6161 50.4707 92.926 50.7305C93.2359 50.9902 93.4842 51.3047 93.6711 51.6738C93.8579 52.043 93.9559 52.4554 93.965 52.9111H92.6662C92.6298 52.624 92.5591 52.3643 92.4543 52.1318C92.3495 51.8949 92.2105 51.6921 92.0373 51.5234C91.8641 51.3548 91.6568 51.2249 91.4152 51.1338C91.1783 51.0381 90.9094 50.9902 90.6086 50.9902C90.3671 50.9902 90.1301 51.0244 89.8977 51.0928C89.6698 51.1611 89.467 51.2637 89.2893 51.4004C89.107 51.5371 88.9611 51.7057 88.8518 51.9062C88.7469 52.1068 88.6945 52.3392 88.6945 52.6035C88.6991 52.8906 88.772 53.1344 88.9133 53.335C89.0546 53.5309 89.2346 53.6973 89.4533 53.834C89.6675 53.9707 89.8999 54.0846 90.1506 54.1758C90.4058 54.2669 90.6451 54.3467 90.8684 54.415C91.2375 54.529 91.6066 54.668 91.9758 54.832C92.3449 54.9915 92.6822 55.1966 92.9875 55.4473C93.2883 55.6797 93.5298 55.9645 93.7121 56.3018C93.899 56.639 93.9924 57.0286 93.9924 57.4707C93.9924 57.9173 93.8921 58.307 93.6916 58.6396C93.4956 58.9723 93.2404 59.248 92.926 59.4668C92.6115 59.6901 92.2561 59.8587 91.8596 59.9727C91.4631 60.082 91.0666 60.1367 90.6701 60.1367C90.1962 60.1367 89.729 60.057 89.2687 59.8975C88.813 59.738 88.4165 59.5078 88.0793 59.207C87.7785 58.9473 87.5393 58.6442 87.3615 58.2979C87.1883 57.9469 87.0949 57.5573 87.0812 57.1289H88.3732C88.4143 57.4388 88.4986 57.7145 88.6262 57.9561C88.7538 58.193 88.9178 58.3936 89.1184 58.5576C89.3189 58.7262 89.549 58.8538 89.8088 58.9404C90.0731 59.0225 90.3602 59.0635 90.6701 59.0635C90.9162 59.0635 91.1577 59.0339 91.3947 58.9746C91.6363 58.9108 91.8505 58.8128 92.0373 58.6807C92.2242 58.5531 92.3768 58.3913 92.4953 58.1953C92.6138 57.9948 92.673 57.7578 92.673 57.4844ZM97.6031 56.0078V60H96.3385V50.0469H99.565C100.012 50.056 100.433 50.1266 100.83 50.2588C101.231 50.391 101.582 50.5824 101.882 50.833C102.183 51.0837 102.42 51.3936 102.593 51.7627C102.771 52.1318 102.86 52.5557 102.86 53.0342C102.86 53.5127 102.771 53.9365 102.593 54.3057C102.42 54.6702 102.183 54.9779 101.882 55.2285C101.582 55.4792 101.231 55.6706 100.83 55.8027C100.433 55.9349 100.012 56.0033 99.565 56.0078H97.6031ZM97.6031 54.9688H99.565C99.8567 54.9642 100.126 54.9186 100.372 54.832C100.618 54.7409 100.832 54.6133 101.014 54.4492C101.197 54.2852 101.338 54.0869 101.438 53.8545C101.543 53.6175 101.595 53.3486 101.595 53.0479C101.595 52.7471 101.543 52.4759 101.438 52.2344C101.338 51.9928 101.199 51.7878 101.021 51.6191C100.839 51.4505 100.622 51.3206 100.372 51.2295C100.126 51.1383 99.8567 51.0905 99.565 51.0859H97.6031V54.9688ZM104.98 50.0469H110.996V51.1475H108.61V58.9062H110.996V60H104.98V58.9062H107.312V51.1475H104.98V50.0469ZM117.034 55.9395H115.044V60H113.787V50.0469H116.705C117.17 50.056 117.608 50.1221 118.018 50.2451C118.428 50.3682 118.788 50.5527 119.098 50.7988C119.403 51.0449 119.643 51.3548 119.816 51.7285C119.994 52.0977 120.082 52.5329 120.082 53.0342C120.082 53.3577 120.035 53.654 119.939 53.9229C119.848 54.1917 119.72 54.4355 119.556 54.6543C119.392 54.873 119.196 55.0667 118.968 55.2354C118.74 55.404 118.49 55.5475 118.216 55.666L120.329 59.918L120.322 60H118.989L117.034 55.9395ZM115.044 54.9004H116.74C117.022 54.8958 117.289 54.8525 117.539 54.7705C117.79 54.6839 118.011 54.5609 118.203 54.4014C118.389 54.2419 118.537 54.0482 118.647 53.8203C118.756 53.5879 118.811 53.3213 118.811 53.0205C118.811 52.7015 118.759 52.4235 118.654 52.1865C118.549 51.945 118.403 51.7422 118.216 51.5781C118.029 51.4186 117.806 51.2979 117.546 51.2158C117.291 51.1338 117.011 51.0905 116.705 51.0859H115.044V54.9004ZM127.972 55.3994H123.816V58.9268H128.663V60H122.552V50.0469H128.601V51.127H123.816V54.3262H127.972V55.3994ZM139.883 60V50.0469H142.187C142.574 50.0514 142.939 50.0924 143.281 50.1699C143.627 50.2428 143.946 50.3477 144.238 50.4844C144.643 50.6712 145.001 50.9173 145.311 51.2227C145.626 51.5234 145.876 51.8721 146.063 52.2686C146.232 52.6058 146.359 52.9749 146.446 53.376C146.537 53.777 146.585 54.2054 146.589 54.6611V55.3926C146.589 55.8301 146.546 56.2448 146.46 56.6367C146.378 57.0286 146.257 57.3887 146.097 57.7168C145.933 58.0586 145.726 58.3685 145.475 58.6465C145.225 58.9245 144.944 59.1615 144.634 59.3574C144.306 59.5625 143.935 59.7197 143.52 59.8291C143.11 59.9385 142.666 59.9954 142.187 60H139.883ZM141.169 51.0859V58.9678H142.187C142.552 58.9632 142.882 58.9176 143.178 58.8311C143.479 58.7445 143.746 58.6214 143.978 58.4619C144.224 58.2979 144.436 58.0973 144.614 57.8604C144.796 57.6188 144.94 57.3499 145.045 57.0537C145.136 56.8122 145.204 56.5524 145.25 56.2744C145.295 55.9919 145.32 55.6979 145.325 55.3926V54.6475C145.32 54.3376 145.293 54.0413 145.243 53.7588C145.197 53.4717 145.127 53.2051 145.031 52.959C144.908 52.64 144.741 52.3529 144.532 52.0977C144.327 51.8379 144.074 51.6283 143.773 51.4688C143.559 51.3503 143.32 51.2591 143.055 51.1953C142.791 51.127 142.502 51.0905 142.187 51.0859H141.169ZM154.247 55.3994H150.091V58.9268H154.938V60H148.826V50.0469H154.876V51.127H150.091V54.3262H154.247V55.3994ZM159.97 60L156.826 50.0469H158.179L160.367 57.4775L160.51 57.9629L160.661 57.4639L162.862 50.0469H164.208L161.071 60H159.97Z" fill="#FF4500"/>
<g clip-path="url(#clip2_52_3723)">
<path d="M375.876 59.5V51.1H376.884V54.82H380.46V51.1H381.468V59.5H380.46V55.756H376.884V59.5H375.876ZM386.02 59.668C385.492 59.668 385 59.548 384.544 59.308C384.096 59.068 383.732 58.72 383.452 58.264C383.172 57.808 383.032 57.252 383.032 56.596V56.452C383.032 55.804 383.172 55.252 383.452 54.796C383.732 54.332 384.096 53.98 384.544 53.74C385 53.5 385.492 53.38 386.02 53.38C386.548 53.38 387.036 53.5 387.484 53.74C387.94 53.98 388.308 54.332 388.588 54.796C388.868 55.252 389.008 55.804 389.008 56.452V56.596C389.008 57.252 388.868 57.808 388.588 58.264C388.308 58.72 387.94 59.068 387.484 59.308C387.036 59.548 386.548 59.668 386.02 59.668ZM386.02 58.78C386.404 58.78 386.748 58.692 387.052 58.516C387.356 58.34 387.596 58.088 387.772 57.76C387.956 57.432 388.048 57.044 388.048 56.596V56.452C388.048 56.02 387.956 55.64 387.772 55.312C387.596 54.984 387.352 54.728 387.04 54.544C386.736 54.36 386.396 54.268 386.02 54.268C385.644 54.268 385.3 54.36 384.988 54.544C384.684 54.728 384.44 54.984 384.256 55.312C384.08 55.64 383.992 56.02 383.992 56.452V56.596C383.992 57.044 384.08 57.432 384.256 57.76C384.44 58.088 384.684 58.34 384.988 58.516C385.3 58.692 385.644 58.78 386.02 58.78ZM390.271 59.5V53.548H391.207V54.196H391.351C391.455 53.916 391.607 53.712 391.807 53.584C392.007 53.448 392.243 53.38 392.515 53.38C392.803 53.38 393.039 53.456 393.223 53.608C393.415 53.76 393.547 53.956 393.619 54.196H393.763C394.035 53.652 394.467 53.38 395.059 53.38C395.507 53.38 395.851 53.524 396.091 53.812C396.339 54.092 396.463 54.46 396.463 54.916V59.5H395.527V55.228C395.527 54.948 395.463 54.72 395.335 54.544C395.207 54.36 395.003 54.268 394.723 54.268C394.459 54.268 394.243 54.368 394.075 54.568C393.915 54.768 393.835 55.068 393.835 55.468V59.5H392.899V55.18C392.899 54.916 392.827 54.7 392.683 54.532C392.539 54.356 392.347 54.268 392.107 54.268C391.819 54.268 391.595 54.372 391.435 54.58C391.283 54.788 391.207 55.06 391.207 55.396V59.5H390.271ZM400.739 59.668C400.171 59.668 399.667 59.54 399.227 59.284C398.795 59.02 398.455 58.66 398.207 58.204C397.959 57.74 397.835 57.204 397.835 56.596V56.308C397.835 55.748 397.963 55.248 398.219 54.808C398.475 54.368 398.823 54.02 399.263 53.764C399.711 53.508 400.211 53.38 400.763 53.38C401.251 53.38 401.671 53.468 402.023 53.644C402.383 53.82 402.675 54.044 402.899 54.316C403.131 54.588 403.299 54.88 403.403 55.192C403.515 55.496 403.571 55.78 403.571 56.044V56.812H398.771C398.795 57.396 398.979 57.872 399.323 58.24C399.675 58.6 400.155 58.78 400.763 58.78C401.331 58.78 401.755 58.66 402.035 58.42C402.315 58.18 402.507 57.892 402.611 57.556L403.499 57.796C403.331 58.348 403.019 58.8 402.563 59.152C402.115 59.496 401.507 59.668 400.739 59.668ZM398.795 55.948H402.635C402.619 55.604 402.519 55.308 402.335 55.06C402.159 54.804 401.931 54.608 401.651 54.472C401.371 54.336 401.075 54.268 400.763 54.268C400.235 54.268 399.791 54.428 399.431 54.748C399.071 55.068 398.859 55.468 398.795 55.948Z" fill="#0D0D0D"/>
<path d="M437.984 59.5L437.132 51.1H438.044L438.848 59.068H438.992L439.748 51.1H441.596L442.352 59.068H442.496L443.3 51.1H444.212L443.36 59.5H441.524L440.744 51.532H440.6L439.82 59.5H437.984ZM445.392 59.5V51.1H446.328V54.628H446.472C446.656 54.244 446.912 53.94 447.24 53.716C447.576 53.492 447.984 53.38 448.464 53.38C449.112 53.38 449.636 53.596 450.036 54.028C450.444 54.452 450.648 55.092 450.648 55.948V59.5H449.712V56.14C449.712 55.516 449.572 55.048 449.292 54.736C449.012 54.424 448.632 54.268 448.152 54.268C447.592 54.268 447.148 54.464 446.82 54.856C446.492 55.24 446.328 55.756 446.328 56.404V59.5H445.392ZM455.043 59.668C454.523 59.668 454.051 59.552 453.627 59.32C453.211 59.08 452.879 58.736 452.631 58.288C452.383 57.832 452.259 57.276 452.259 56.62V56.428C452.259 55.78 452.383 55.228 452.631 54.772C452.879 54.316 453.211 53.972 453.627 53.74C454.051 53.5 454.515 53.38 455.019 53.38C455.427 53.38 455.795 53.472 456.123 53.656C456.459 53.832 456.723 54.108 456.915 54.484H457.059V53.548H457.995V58.276C457.995 58.516 458.103 58.636 458.319 58.636H458.619V59.5H457.983C457.735 59.5 457.519 59.42 457.335 59.26C457.151 59.1 457.059 58.844 457.059 58.492H456.915C456.723 58.884 456.455 59.18 456.111 59.38C455.775 59.572 455.419 59.668 455.043 59.668ZM455.139 58.78C455.699 58.78 456.159 58.58 456.519 58.18C456.879 57.78 457.059 57.252 457.059 56.596V56.452C457.059 56.028 456.975 55.652 456.807 55.324C456.639 54.996 456.411 54.74 456.123 54.556C455.835 54.364 455.507 54.268 455.139 54.268C454.771 54.268 454.443 54.36 454.155 54.544C453.867 54.72 453.639 54.972 453.471 55.3C453.303 55.62 453.219 55.996 453.219 56.428V56.62C453.219 57.292 453.399 57.82 453.759 58.204C454.119 58.588 454.579 58.78 455.139 58.78ZM462.679 59.5C462.407 59.5 462.183 59.412 462.007 59.236C461.839 59.06 461.755 58.836 461.755 58.564V54.412H459.883V53.548H461.755V51.1H462.691V53.548H464.995V54.412H462.691V58.276C462.691 58.516 462.799 58.636 463.015 58.636H464.707V59.5H462.679ZM474.722 59.5L473.87 51.1H474.782L475.586 59.068H475.73L476.486 51.1H478.334L479.09 59.068H479.234L480.038 51.1H480.95L480.098 59.5H478.262L477.482 51.532H477.338L476.558 59.5H474.722ZM484.782 59.668C484.214 59.668 483.71 59.54 483.27 59.284C482.838 59.02 482.498 58.66 482.25 58.204C482.002 57.74 481.878 57.204 481.878 56.596V56.308C481.878 55.748 482.006 55.248 482.262 54.808C482.518 54.368 482.866 54.02 483.306 53.764C483.754 53.508 484.254 53.38 484.806 53.38C485.294 53.38 485.714 53.468 486.066 53.644C486.426 53.82 486.718 54.044 486.942 54.316C487.174 54.588 487.342 54.88 487.446 55.192C487.558 55.496 487.614 55.78 487.614 56.044V56.812H482.814C482.838 57.396 483.022 57.872 483.366 58.24C483.718 58.6 484.198 58.78 484.806 58.78C485.374 58.78 485.798 58.66 486.078 58.42C486.358 58.18 486.55 57.892 486.654 57.556L487.542 57.796C487.374 58.348 487.062 58.8 486.606 59.152C486.158 59.496 485.55 59.668 484.782 59.668ZM482.838 55.948H486.678C486.662 55.604 486.562 55.308 486.378 55.06C486.202 54.804 485.974 54.608 485.694 54.472C485.414 54.336 485.118 54.268 484.806 54.268C484.278 54.268 483.834 54.428 483.474 54.748C483.114 55.068 482.902 55.468 482.838 55.948ZM496.465 59.5V58.564H497.185V52.036H496.465V51.1H499.861C500.669 51.1 501.285 51.308 501.709 51.724C502.133 52.14 502.345 52.66 502.345 53.284V53.428C502.345 53.884 502.209 54.268 501.937 54.58C501.665 54.892 501.329 55.104 500.929 55.216V55.36C501.329 55.464 501.665 55.68 501.937 56.008C502.209 56.328 502.345 56.712 502.345 57.16V57.304C502.345 57.936 502.133 58.46 501.709 58.876C501.285 59.292 500.669 59.5 499.861 59.5H496.465ZM498.193 54.82H499.825C500.305 54.82 500.685 54.696 500.965 54.448C501.245 54.2 501.385 53.86 501.385 53.428V53.356C501.385 52.948 501.237 52.628 500.941 52.396C500.645 52.156 500.261 52.036 499.789 52.036H498.193V54.82ZM498.193 58.564H499.789C500.261 58.564 500.645 58.448 500.941 58.216C501.237 57.976 501.385 57.648 501.385 57.232V57.16C501.385 56.736 501.245 56.396 500.965 56.14C500.685 55.884 500.305 55.756 499.825 55.756H498.193V58.564ZM506.333 59.668C505.677 59.668 505.141 59.452 504.725 59.02C504.309 58.588 504.101 57.948 504.101 57.1V53.548H505.037V56.98C505.037 57.604 505.165 58.06 505.421 58.348C505.677 58.636 506.069 58.78 506.597 58.78C507.165 58.78 507.609 58.588 507.929 58.204C508.257 57.812 508.421 57.292 508.421 56.644V53.548H509.357V59.5H508.421V58.42H508.277C508.085 58.804 507.833 59.108 507.521 59.332C507.209 59.556 506.813 59.668 506.333 59.668ZM514.209 52.612C513.985 52.612 513.789 52.528 513.621 52.36C513.453 52.192 513.369 51.996 513.369 51.772C513.369 51.54 513.453 51.344 513.621 51.184C513.789 51.016 513.985 50.932 514.209 50.932C514.441 50.932 514.637 51.016 514.797 51.184C514.965 51.344 515.049 51.54 515.049 51.772C515.049 51.996 514.965 52.192 514.797 52.36C514.637 52.528 514.441 52.612 514.209 52.612ZM511.665 59.5V58.636H513.753V54.412H511.881V53.548H514.689V58.636H516.633V59.5H511.665ZM518.868 59.5V58.636H521.028V51.964H518.94V51.1H521.964V58.636H524.124V59.5H518.868ZM528.736 59.668C528.208 59.668 527.728 59.552 527.296 59.32C526.864 59.08 526.52 58.732 526.264 58.276C526.008 57.82 525.88 57.268 525.88 56.62V56.428C525.88 55.78 526.008 55.232 526.264 54.784C526.528 54.328 526.872 53.98 527.296 53.74C527.728 53.5 528.2 53.38 528.712 53.38C529.12 53.38 529.5 53.472 529.852 53.656C530.212 53.832 530.488 54.108 530.68 54.484H530.824V51.1H531.76V59.5H530.824V58.588H530.68C530.488 58.956 530.204 59.228 529.828 59.404C529.46 59.58 529.096 59.668 528.736 59.668ZM528.832 58.78C529.208 58.78 529.544 58.692 529.84 58.516C530.144 58.332 530.384 58.076 530.56 57.748C530.736 57.42 530.824 57.036 530.824 56.596V56.452C530.824 56.028 530.732 55.652 530.548 55.324C530.372 54.996 530.132 54.74 529.828 54.556C529.532 54.364 529.2 54.268 528.832 54.268C528.456 54.268 528.116 54.36 527.812 54.544C527.516 54.72 527.28 54.972 527.104 55.3C526.928 55.62 526.84 55.996 526.84 56.428V56.62C526.84 57.06 526.924 57.444 527.092 57.772C527.268 58.092 527.508 58.34 527.812 58.516C528.116 58.692 528.456 58.78 528.832 58.78Z" fill="#0D0D0D"/>
<path d="M566.128 59.5V51.1H571.216V52.036H567.136V54.82H571.144V55.756H567.136V58.564H571.288V59.5H566.128ZM573.392 59.5V53.548H574.328V54.556H574.472C574.84 53.772 575.48 53.38 576.392 53.38C577.08 53.38 577.628 53.596 578.036 54.028C578.444 54.452 578.648 55.092 578.648 55.948V59.5H577.712V56.14C577.712 55.516 577.572 55.048 577.292 54.736C577.012 54.424 576.632 54.268 576.152 54.268C575.592 54.268 575.148 54.464 574.82 54.856C574.492 55.24 574.328 55.756 574.328 56.404V59.5H573.392ZM581.399 61.9V61.036H584.939C585.155 61.036 585.263 60.916 585.263 60.676V58.588H585.119C584.927 58.948 584.663 59.22 584.327 59.404C583.999 59.58 583.639 59.668 583.247 59.668C582.719 59.668 582.231 59.552 581.783 59.32C581.343 59.08 580.987 58.732 580.715 58.276C580.451 57.82 580.319 57.268 580.319 56.62V56.428C580.319 55.78 580.455 55.232 580.727 54.784C580.999 54.328 581.355 53.98 581.795 53.74C582.235 53.5 582.711 53.38 583.223 53.38C583.655 53.38 584.035 53.476 584.363 53.668C584.691 53.852 584.943 54.124 585.119 54.484H585.263V53.548H586.199V60.964C586.199 61.236 586.111 61.46 585.935 61.636C585.767 61.812 585.547 61.9 585.275 61.9H581.399ZM583.271 58.78C583.647 58.78 583.983 58.692 584.279 58.516C584.583 58.332 584.823 58.076 584.999 57.748C585.175 57.42 585.263 57.036 585.263 56.596V56.452C585.263 56.028 585.171 55.652 584.987 55.324C584.811 54.996 584.571 54.74 584.267 54.556C583.971 54.364 583.639 54.268 583.271 54.268C582.895 54.268 582.555 54.36 582.251 54.544C581.955 54.72 581.719 54.972 581.543 55.3C581.367 55.62 581.279 55.996 581.279 56.428V56.62C581.279 57.06 581.363 57.444 581.531 57.772C581.707 58.092 581.943 58.34 582.239 58.516C582.543 58.692 582.887 58.78 583.271 58.78ZM590.391 59.668C589.871 59.668 589.399 59.552 588.975 59.32C588.559 59.08 588.227 58.736 587.979 58.288C587.731 57.832 587.607 57.276 587.607 56.62V56.428C587.607 55.78 587.731 55.228 587.979 54.772C588.227 54.316 588.559 53.972 588.975 53.74C589.399 53.5 589.863 53.38 590.367 53.38C590.775 53.38 591.143 53.472 591.471 53.656C591.807 53.832 592.071 54.108 592.263 54.484H592.407V53.548H593.343V58.276C593.343 58.516 593.451 58.636 593.667 58.636H593.967V59.5H593.331C593.083 59.5 592.867 59.42 592.683 59.26C592.499 59.1 592.407 58.844 592.407 58.492H592.263C592.071 58.884 591.803 59.18 591.459 59.38C591.123 59.572 590.767 59.668 590.391 59.668ZM590.487 58.78C591.047 58.78 591.507 58.58 591.867 58.18C592.227 57.78 592.407 57.252 592.407 56.596V56.452C592.407 56.028 592.323 55.652 592.155 55.324C591.987 54.996 591.759 54.74 591.471 54.556C591.183 54.364 590.855 54.268 590.487 54.268C590.119 54.268 589.791 54.36 589.503 54.544C589.215 54.72 588.987 54.972 588.819 55.3C588.651 55.62 588.567 55.996 588.567 56.428V56.62C588.567 57.292 588.747 57.82 589.107 58.204C589.467 58.588 589.927 58.78 590.487 58.78ZM596.095 61.9V61.036H599.635C599.851 61.036 599.959 60.916 599.959 60.676V58.588H599.815C599.623 58.948 599.359 59.22 599.023 59.404C598.695 59.58 598.335 59.668 597.943 59.668C597.415 59.668 596.927 59.552 596.479 59.32C596.039 59.08 595.683 58.732 595.411 58.276C595.147 57.82 595.015 57.268 595.015 56.62V56.428C595.015 55.78 595.151 55.232 595.423 54.784C595.695 54.328 596.051 53.98 596.491 53.74C596.931 53.5 597.407 53.38 597.919 53.38C598.351 53.38 598.731 53.476 599.059 53.668C599.387 53.852 599.639 54.124 599.815 54.484H599.959V53.548H600.895V60.964C600.895 61.236 600.807 61.46 600.631 61.636C600.463 61.812 600.243 61.9 599.971 61.9H596.095ZM597.967 58.78C598.343 58.78 598.679 58.692 598.975 58.516C599.279 58.332 599.519 58.076 599.695 57.748C599.871 57.42 599.959 57.036 599.959 56.596V56.452C599.959 56.028 599.867 55.652 599.683 55.324C599.507 54.996 599.267 54.74 598.963 54.556C598.667 54.364 598.335 54.268 597.967 54.268C597.591 54.268 597.251 54.36 596.947 54.544C596.651 54.72 596.415 54.972 596.239 55.3C596.063 55.62 595.975 55.996 595.975 56.428V56.62C595.975 57.06 596.059 57.444 596.227 57.772C596.403 58.092 596.639 58.34 596.935 58.516C597.239 58.692 597.583 58.78 597.967 58.78ZM605.434 59.668C604.866 59.668 604.362 59.54 603.922 59.284C603.49 59.02 603.15 58.66 602.902 58.204C602.654 57.74 602.53 57.204 602.53 56.596V56.308C602.53 55.748 602.658 55.248 602.914 54.808C603.17 54.368 603.518 54.02 603.958 53.764C604.406 53.508 604.906 53.38 605.458 53.38C605.946 53.38 606.366 53.468 606.718 53.644C607.078 53.82 607.37 54.044 607.594 54.316C607.826 54.588 607.994 54.88 608.098 55.192C608.21 55.496 608.266 55.78 608.266 56.044V56.812H603.466C603.49 57.396 603.674 57.872 604.018 58.24C604.37 58.6 604.85 58.78 605.458 58.78C606.026 58.78 606.45 58.66 606.73 58.42C607.01 58.18 607.202 57.892 607.306 57.556L608.194 57.796C608.026 58.348 607.714 58.8 607.258 59.152C606.81 59.496 606.202 59.668 605.434 59.668ZM603.49 55.948H607.33C607.314 55.604 607.214 55.308 607.03 55.06C606.854 54.804 606.626 54.608 606.346 54.472C606.066 54.336 605.77 54.268 605.458 54.268C604.93 54.268 604.486 54.428 604.126 54.748C603.766 55.068 603.554 55.468 603.49 55.948ZM609.662 59.5V53.548H610.598V54.196H610.742C610.846 53.916 610.998 53.712 611.198 53.584C611.398 53.448 611.634 53.38 611.906 53.38C612.194 53.38 612.43 53.456 612.614 53.608C612.806 53.76 612.938 53.956 613.01 54.196H613.154C613.426 53.652 613.858 53.38 614.45 53.38C614.898 53.38 615.242 53.524 615.482 53.812C615.73 54.092 615.854 54.46 615.854 54.916V59.5H614.918V55.228C614.918 54.948 614.854 54.72 614.726 54.544C614.598 54.36 614.394 54.268 614.114 54.268C613.85 54.268 613.634 54.368 613.466 54.568C613.306 54.768 613.226 55.068 613.226 55.468V59.5H612.29V55.18C612.29 54.916 612.218 54.7 612.074 54.532C611.93 54.356 611.738 54.268 611.498 54.268C611.21 54.268 610.986 54.372 610.826 54.58C610.674 54.788 610.598 55.06 610.598 55.396V59.5H609.662ZM620.13 59.668C619.562 59.668 619.058 59.54 618.618 59.284C618.186 59.02 617.846 58.66 617.598 58.204C617.35 57.74 617.226 57.204 617.226 56.596V56.308C617.226 55.748 617.354 55.248 617.61 54.808C617.866 54.368 618.214 54.02 618.654 53.764C619.102 53.508 619.602 53.38 620.154 53.38C620.642 53.38 621.062 53.468 621.414 53.644C621.774 53.82 622.066 54.044 622.29 54.316C622.522 54.588 622.69 54.88 622.794 55.192C622.906 55.496 622.962 55.78 622.962 56.044V56.812H618.162C618.186 57.396 618.37 57.872 618.714 58.24C619.066 58.6 619.546 58.78 620.154 58.78C620.722 58.78 621.146 58.66 621.426 58.42C621.706 58.18 621.898 57.892 622.002 57.556L622.89 57.796C622.722 58.348 622.41 58.8 621.954 59.152C621.506 59.496 620.898 59.668 620.13 59.668ZM618.186 55.948H622.026C622.01 55.604 621.91 55.308 621.726 55.06C621.55 54.804 621.322 54.608 621.042 54.472C620.762 54.336 620.466 54.268 620.154 54.268C619.626 54.268 619.182 54.428 618.822 54.748C618.462 55.068 618.25 55.468 618.186 55.948ZM624.825 59.5V53.548H625.761V54.556H625.905C626.273 53.772 626.913 53.38 627.825 53.38C628.513 53.38 629.061 53.596 629.469 54.028C629.877 54.452 630.081 55.092 630.081 55.948V59.5H629.145V56.14C629.145 55.516 629.005 55.048 628.725 54.736C628.445 54.424 628.065 54.268 627.585 54.268C627.025 54.268 626.581 54.464 626.253 54.856C625.925 55.24 625.761 55.756 625.761 56.404V59.5H624.825ZM634.765 59.5C634.493 59.5 634.269 59.412 634.093 59.236C633.925 59.06 633.841 58.836 633.841 58.564V54.412H631.969V53.548H633.841V51.1H634.777V53.548H637.081V54.412H634.777V58.276C634.777 58.516 634.885 58.636 635.101 58.636H636.793V59.5H634.765ZM646.844 59.5V51.1H649.844C650.42 51.1 650.896 51.208 651.272 51.424C651.656 51.632 651.94 51.908 652.124 52.252C652.316 52.596 652.412 52.972 652.412 53.38V53.74C652.412 54.148 652.316 54.528 652.124 54.88C651.932 55.232 651.644 55.516 651.26 55.732C650.884 55.94 650.412 56.044 649.844 56.044H647.852V59.5H646.844ZM647.852 55.108H649.724C650.844 55.108 651.404 54.628 651.404 53.668V53.452C651.404 53.028 651.264 52.688 650.984 52.432C650.712 52.168 650.292 52.036 649.724 52.036H647.852V55.108ZM654.216 59.5V58.636H656.376V51.964H654.288V51.1H657.312V58.636H659.472V59.5H654.216ZM663.868 59.668C663.348 59.668 662.876 59.552 662.452 59.32C662.036 59.08 661.704 58.736 661.456 58.288C661.208 57.832 661.084 57.276 661.084 56.62V56.428C661.084 55.78 661.208 55.228 661.456 54.772C661.704 54.316 662.036 53.972 662.452 53.74C662.876 53.5 663.34 53.38 663.844 53.38C664.252 53.38 664.62 53.472 664.948 53.656C665.284 53.832 665.548 54.108 665.74 54.484H665.884V53.548H666.82V58.276C666.82 58.516 666.928 58.636 667.144 58.636H667.444V59.5H666.808C666.56 59.5 666.344 59.42 666.16 59.26C665.976 59.1 665.884 58.844 665.884 58.492H665.74C665.548 58.884 665.28 59.18 664.936 59.38C664.6 59.572 664.244 59.668 663.868 59.668ZM663.964 58.78C664.524 58.78 664.984 58.58 665.344 58.18C665.704 57.78 665.884 57.252 665.884 56.596V56.452C665.884 56.028 665.8 55.652 665.632 55.324C665.464 54.996 665.236 54.74 664.948 54.556C664.66 54.364 664.332 54.268 663.964 54.268C663.596 54.268 663.268 54.36 662.98 54.544C662.692 54.72 662.464 54.972 662.296 55.3C662.128 55.62 662.044 55.996 662.044 56.428V56.62C662.044 57.292 662.224 57.82 662.584 58.204C662.944 58.588 663.404 58.78 663.964 58.78ZM668.911 59.5V53.548H669.847V54.556H669.991C670.359 53.772 670.999 53.38 671.911 53.38C672.599 53.38 673.147 53.596 673.555 54.028C673.963 54.452 674.167 55.092 674.167 55.948V59.5H673.231V56.14C673.231 55.516 673.091 55.048 672.811 54.736C672.531 54.424 672.151 54.268 671.671 54.268C671.111 54.268 670.667 54.464 670.339 54.856C670.011 55.24 669.847 55.756 669.847 56.404V59.5H668.911ZM678.983 59.668C678.367 59.668 677.863 59.564 677.471 59.356C677.079 59.14 676.787 58.868 676.595 58.54C676.403 58.204 676.295 57.86 676.271 57.508L677.159 57.292C677.199 57.748 677.375 58.116 677.687 58.396C678.007 58.668 678.423 58.804 678.935 58.804C679.375 58.804 679.727 58.72 679.991 58.552C680.263 58.376 680.399 58.132 680.399 57.82C680.399 57.484 680.267 57.244 680.003 57.1C679.739 56.956 679.311 56.864 678.719 56.824C678.039 56.776 677.511 56.616 677.135 56.344C676.767 56.064 676.583 55.668 676.583 55.156V55.084C676.583 54.708 676.687 54.396 676.895 54.148C677.103 53.892 677.371 53.7 677.699 53.572C678.027 53.444 678.375 53.38 678.743 53.38C679.271 53.38 679.707 53.472 680.051 53.656C680.403 53.832 680.671 54.064 680.855 54.352C681.039 54.632 681.151 54.924 681.191 55.228L680.303 55.444C680.271 55.06 680.119 54.76 679.847 54.544C679.575 54.328 679.223 54.22 678.791 54.22C678.455 54.22 678.155 54.292 677.891 54.436C677.627 54.58 677.495 54.796 677.495 55.084C677.495 55.372 677.615 55.592 677.855 55.744C678.103 55.896 678.551 55.996 679.199 56.044C679.887 56.1 680.415 56.268 680.783 56.548C681.151 56.82 681.335 57.22 681.335 57.748V57.82C681.335 58.396 681.115 58.848 680.675 59.176C680.243 59.504 679.679 59.668 678.983 59.668Z" fill="#0D0D0D"/>
<path d="M718.84 59.668C718.12 59.668 717.516 59.536 717.028 59.272C716.54 59 716.168 58.632 715.912 58.168C715.664 57.704 715.54 57.18 715.54 56.596V56.236H716.548V56.524C716.548 57.252 716.752 57.804 717.16 58.18C717.568 58.548 718.128 58.732 718.84 58.732C719.464 58.732 719.932 58.592 720.244 58.312C720.564 58.032 720.724 57.668 720.724 57.22V57.148C720.724 56.708 720.56 56.372 720.232 56.14C719.912 55.908 719.388 55.74 718.66 55.636C717.82 55.516 717.148 55.28 716.644 54.928C716.148 54.568 715.9 54.028 715.9 53.308V53.164C715.9 52.724 716.016 52.34 716.248 52.012C716.488 51.676 716.816 51.412 717.232 51.22C717.648 51.028 718.128 50.932 718.672 50.932C719.304 50.932 719.84 51.048 720.28 51.28C720.728 51.512 721.068 51.82 721.3 52.204C721.54 52.58 721.66 52.996 721.66 53.452V53.956H720.652V53.524C720.652 53.156 720.56 52.852 720.376 52.612C720.192 52.364 719.948 52.18 719.644 52.06C719.34 51.932 719.012 51.868 718.66 51.868C718.356 51.868 718.068 51.92 717.796 52.024C717.532 52.128 717.316 52.28 717.148 52.48C716.988 52.672 716.908 52.912 716.908 53.2V53.272C716.908 53.736 717.096 54.076 717.472 54.292C717.848 54.5 718.412 54.66 719.164 54.772C720.044 54.9 720.692 55.156 721.108 55.54C721.524 55.924 721.732 56.436 721.732 57.076V57.22C721.732 57.948 721.484 58.54 720.988 58.996C720.5 59.444 719.784 59.668 718.84 59.668ZM726.044 59.668C725.476 59.668 724.972 59.54 724.532 59.284C724.1 59.02 723.76 58.66 723.512 58.204C723.264 57.74 723.14 57.204 723.14 56.596V56.308C723.14 55.748 723.268 55.248 723.524 54.808C723.78 54.368 724.128 54.02 724.568 53.764C725.016 53.508 725.516 53.38 726.068 53.38C726.556 53.38 726.976 53.468 727.328 53.644C727.688 53.82 727.98 54.044 728.204 54.316C728.436 54.588 728.604 54.88 728.708 55.192C728.82 55.496 728.876 55.78 728.876 56.044V56.812H724.076C724.1 57.396 724.284 57.872 724.628 58.24C724.98 58.6 725.46 58.78 726.068 58.78C726.636 58.78 727.06 58.66 727.34 58.42C727.62 58.18 727.812 57.892 727.916 57.556L728.804 57.796C728.636 58.348 728.324 58.8 727.868 59.152C727.42 59.496 726.812 59.668 726.044 59.668ZM724.1 55.948H727.94C727.924 55.604 727.824 55.308 727.64 55.06C727.464 54.804 727.236 54.608 726.956 54.472C726.676 54.336 726.38 54.268 726.068 54.268C725.54 54.268 725.096 54.428 724.736 54.748C724.376 55.068 724.164 55.468 724.1 55.948ZM730.739 59.5V58.636H732.899V51.964H730.811V51.1H733.835V58.636H735.995V59.5H730.739ZM740.739 59.668C740.171 59.668 739.667 59.54 739.227 59.284C738.795 59.02 738.455 58.66 738.207 58.204C737.959 57.74 737.835 57.204 737.835 56.596V56.308C737.835 55.748 737.963 55.248 738.219 54.808C738.475 54.368 738.823 54.02 739.263 53.764C739.711 53.508 740.211 53.38 740.763 53.38C741.251 53.38 741.671 53.468 742.023 53.644C742.383 53.82 742.675 54.044 742.899 54.316C743.131 54.588 743.299 54.88 743.403 55.192C743.515 55.496 743.571 55.78 743.571 56.044V56.812H738.771C738.795 57.396 738.979 57.872 739.323 58.24C739.675 58.6 740.155 58.78 740.763 58.78C741.331 58.78 741.755 58.66 742.035 58.42C742.315 58.18 742.507 57.892 742.611 57.556L743.499 57.796C743.331 58.348 743.019 58.8 742.563 59.152C742.115 59.496 741.507 59.668 740.739 59.668ZM738.795 55.948H742.635C742.619 55.604 742.519 55.308 742.335 55.06C742.159 54.804 741.931 54.608 741.651 54.472C741.371 54.336 741.075 54.268 740.763 54.268C740.235 54.268 739.791 54.428 739.431 54.748C739.071 55.068 738.859 55.468 738.795 55.948ZM748.171 59.668C747.619 59.668 747.111 59.552 746.647 59.32C746.183 59.08 745.807 58.732 745.519 58.276C745.239 57.82 745.099 57.268 745.099 56.62V56.476C745.099 55.836 745.239 55.284 745.519 54.82C745.807 54.356 746.183 54 746.647 53.752C747.111 53.504 747.619 53.38 748.171 53.38C748.675 53.38 749.123 53.48 749.515 53.68C749.915 53.872 750.239 54.14 750.487 54.484C750.743 54.828 750.907 55.22 750.979 55.66L750.043 55.876C750.011 55.596 749.919 55.336 749.767 55.096C749.615 54.848 749.403 54.648 749.131 54.496C748.867 54.344 748.539 54.268 748.147 54.268C747.763 54.268 747.411 54.364 747.091 54.556C746.779 54.74 746.527 55 746.335 55.336C746.151 55.664 746.059 56.044 746.059 56.476V56.62C746.059 57.068 746.151 57.456 746.335 57.784C746.527 58.104 746.783 58.352 747.103 58.528C747.423 58.696 747.779 58.78 748.171 58.78C748.563 58.78 748.891 58.704 749.155 58.552C749.427 58.392 749.635 58.192 749.779 57.952C749.931 57.704 750.027 57.444 750.067 57.172L751.003 57.388C750.923 57.828 750.759 58.22 750.511 58.564C750.263 58.908 749.939 59.18 749.539 59.38C749.147 59.572 748.691 59.668 748.171 59.668ZM755.374 59.5C755.102 59.5 754.878 59.412 754.702 59.236C754.534 59.06 754.45 58.836 754.45 58.564V54.412H752.578V53.548H754.45V51.1H755.386V53.548H757.69V54.412H755.386V58.276C755.386 58.516 755.494 58.636 755.71 58.636H757.402V59.5H755.374ZM762.782 59.668C762.214 59.668 761.71 59.54 761.27 59.284C760.838 59.02 760.498 58.66 760.25 58.204C760.002 57.74 759.878 57.204 759.878 56.596V56.308C759.878 55.748 760.006 55.248 760.262 54.808C760.518 54.368 760.866 54.02 761.306 53.764C761.754 53.508 762.254 53.38 762.806 53.38C763.294 53.38 763.714 53.468 764.066 53.644C764.426 53.82 764.718 54.044 764.942 54.316C765.174 54.588 765.342 54.88 765.446 55.192C765.558 55.496 765.614 55.78 765.614 56.044V56.812H760.814C760.838 57.396 761.022 57.872 761.366 58.24C761.718 58.6 762.198 58.78 762.806 58.78C763.374 58.78 763.798 58.66 764.078 58.42C764.358 58.18 764.55 57.892 764.654 57.556L765.542 57.796C765.374 58.348 765.062 58.8 764.606 59.152C764.158 59.496 763.55 59.668 762.782 59.668ZM760.838 55.948H764.678C764.662 55.604 764.562 55.308 764.378 55.06C764.202 54.804 763.974 54.608 763.694 54.472C763.414 54.336 763.118 54.268 762.806 54.268C762.278 54.268 761.834 54.428 761.474 54.748C761.114 55.068 760.902 55.468 760.838 55.948ZM769.998 59.668C769.47 59.668 768.99 59.552 768.558 59.32C768.126 59.08 767.782 58.732 767.526 58.276C767.27 57.82 767.142 57.268 767.142 56.62V56.428C767.142 55.78 767.27 55.232 767.526 54.784C767.79 54.328 768.134 53.98 768.558 53.74C768.99 53.5 769.462 53.38 769.974 53.38C770.382 53.38 770.762 53.472 771.114 53.656C771.474 53.832 771.75 54.108 771.942 54.484H772.086V51.1H773.022V59.5H772.086V58.588H771.942C771.75 58.956 771.466 59.228 771.09 59.404C770.722 59.58 770.358 59.668 769.998 59.668ZM770.094 58.78C770.47 58.78 770.806 58.692 771.102 58.516C771.406 58.332 771.646 58.076 771.822 57.748C771.998 57.42 772.086 57.036 772.086 56.596V56.452C772.086 56.028 771.994 55.652 771.81 55.324C771.634 54.996 771.394 54.74 771.09 54.556C770.794 54.364 770.462 54.268 770.094 54.268C769.718 54.268 769.378 54.36 769.074 54.544C768.778 54.72 768.542 54.972 768.366 55.3C768.19 55.62 768.102 55.996 768.102 56.428V56.62C768.102 57.06 768.186 57.444 768.354 57.772C768.53 58.092 768.77 58.34 769.074 58.516C769.378 58.692 769.718 58.78 770.094 58.78ZM782.113 59.5L781.261 51.1H782.173L782.977 59.068H783.121L783.877 51.1H785.725L786.481 59.068H786.625L787.429 51.1H788.341L787.489 59.5H785.653L784.873 51.532H784.729L783.949 59.5H782.113ZM792.149 59.668C791.621 59.668 791.129 59.548 790.673 59.308C790.225 59.068 789.861 58.72 789.581 58.264C789.301 57.808 789.161 57.252 789.161 56.596V56.452C789.161 55.804 789.301 55.252 789.581 54.796C789.861 54.332 790.225 53.98 790.673 53.74C791.129 53.5 791.621 53.38 792.149 53.38C792.677 53.38 793.165 53.5 793.613 53.74C794.069 53.98 794.437 54.332 794.717 54.796C794.997 55.252 795.137 55.804 795.137 56.452V56.596C795.137 57.252 794.997 57.808 794.717 58.264C794.437 58.72 794.069 59.068 793.613 59.308C793.165 59.548 792.677 59.668 792.149 59.668ZM792.149 58.78C792.533 58.78 792.877 58.692 793.181 58.516C793.485 58.34 793.725 58.088 793.901 57.76C794.085 57.432 794.177 57.044 794.177 56.596V56.452C794.177 56.02 794.085 55.64 793.901 55.312C793.725 54.984 793.481 54.728 793.169 54.544C792.865 54.36 792.525 54.268 792.149 54.268C791.773 54.268 791.429 54.36 791.117 54.544C790.813 54.728 790.569 54.984 790.385 55.312C790.209 55.64 790.121 56.02 790.121 56.452V56.596C790.121 57.044 790.209 57.432 790.385 57.76C790.569 58.088 790.813 58.34 791.117 58.516C791.429 58.692 791.773 58.78 792.149 58.78ZM796.388 59.5V58.636H797.756V54.412H796.532V53.548H798.692V54.34H798.836C798.988 54.012 799.204 53.772 799.484 53.62C799.772 53.46 800.092 53.38 800.444 53.38C801.036 53.38 801.516 53.576 801.884 53.968C802.26 54.36 802.46 54.932 802.484 55.684L801.5 55.828C801.5 55.276 801.368 54.88 801.104 54.64C800.84 54.392 800.516 54.268 800.132 54.268C799.644 54.268 799.28 54.448 799.04 54.808C798.808 55.16 798.692 55.596 798.692 56.116V58.636H800.204V59.5H796.388ZM804.816 59.5V51.1H805.752V56.02H805.956L808.224 53.548H809.376V53.62L806.904 56.344V56.56L809.664 59.428V59.5H808.512L805.98 56.884H805.752V59.5H804.816Z" fill="#0D0D0D"/>
<path d="M846.672 59.668C845.752 59.668 845.028 59.376 844.5 58.792C843.98 58.2 843.72 57.348 843.72 56.236V54.364C843.72 53.284 843.98 52.444 844.5 51.844C845.028 51.236 845.752 50.932 846.672 50.932C847.6 50.932 848.324 51.236 848.844 51.844C849.364 52.444 849.624 53.284 849.624 54.364V56.236C849.624 57.348 849.364 58.2 848.844 58.792C848.324 59.376 847.6 59.668 846.672 59.668ZM846.672 58.732C847.32 58.732 847.804 58.508 848.124 58.06C848.452 57.612 848.616 56.98 848.616 56.164V54.436C848.616 53.668 848.452 53.048 848.124 52.576C847.804 52.104 847.32 51.868 846.672 51.868C846.024 51.868 845.536 52.104 845.208 52.576C844.888 53.048 844.728 53.668 844.728 54.436V56.164C844.728 56.98 844.888 57.612 845.208 58.06C845.536 58.508 846.024 58.732 846.672 58.732ZM853.552 59.668C852.896 59.668 852.36 59.452 851.944 59.02C851.528 58.588 851.32 57.948 851.32 57.1V53.548H852.256V56.98C852.256 57.604 852.384 58.06 852.64 58.348C852.896 58.636 853.288 58.78 853.816 58.78C854.384 58.78 854.828 58.588 855.148 58.204C855.476 57.812 855.64 57.292 855.64 56.644V53.548H856.576V59.5H855.64V58.42H855.496C855.304 58.804 855.052 59.108 854.74 59.332C854.428 59.556 854.032 59.668 853.552 59.668ZM858.259 59.5V58.636H859.627V54.412H858.403V53.548H860.563V54.34H860.707C860.859 54.012 861.075 53.772 861.355 53.62C861.643 53.46 861.963 53.38 862.315 53.38C862.907 53.38 863.387 53.576 863.755 53.968C864.131 54.36 864.331 54.932 864.355 55.684L863.371 55.828C863.371 55.276 863.239 54.88 862.975 54.64C862.711 54.392 862.387 54.268 862.003 54.268C861.515 54.268 861.151 54.448 860.911 54.808C860.679 55.16 860.563 55.596 860.563 56.116V58.636H862.075V59.5H858.259ZM872.571 59.5L875.115 51.1H877.011L879.555 59.5H878.475L877.863 57.412H874.263L873.651 59.5H872.571ZM874.539 56.476H877.587L876.135 51.532H875.991L874.539 56.476ZM880.566 61.9V53.548H881.502V54.484H881.646C881.854 54.124 882.142 53.852 882.51 53.668C882.878 53.476 883.278 53.38 883.71 53.38C884.198 53.38 884.65 53.5 885.066 53.74C885.482 53.972 885.814 54.316 886.062 54.772C886.318 55.22 886.446 55.764 886.446 56.404V56.644C886.446 57.292 886.322 57.84 886.074 58.288C885.826 58.736 885.49 59.08 885.066 59.32C884.65 59.552 884.19 59.668 883.686 59.668C883.302 59.668 882.918 59.58 882.534 59.404C882.15 59.22 881.854 58.948 881.646 58.588H881.502V61.9H880.566ZM883.494 58.78C884.062 58.78 884.534 58.588 884.91 58.204C885.294 57.82 885.486 57.3 885.486 56.644V56.404C885.486 55.98 885.398 55.608 885.222 55.288C885.046 54.968 884.806 54.72 884.502 54.544C884.206 54.36 883.87 54.268 883.494 54.268C883.126 54.268 882.79 54.364 882.486 54.556C882.19 54.74 881.95 54.996 881.766 55.324C881.59 55.652 881.502 56.028 881.502 56.452V56.596C881.502 57.036 881.59 57.42 881.766 57.748C881.942 58.076 882.182 58.332 882.486 58.516C882.79 58.692 883.126 58.78 883.494 58.78ZM887.914 61.9V53.548H888.85V54.484H888.994C889.202 54.124 889.49 53.852 889.858 53.668C890.226 53.476 890.626 53.38 891.058 53.38C891.546 53.38 891.998 53.5 892.414 53.74C892.83 53.972 893.162 54.316 893.41 54.772C893.666 55.22 893.794 55.764 893.794 56.404V56.644C893.794 57.292 893.67 57.84 893.422 58.288C893.174 58.736 892.838 59.08 892.414 59.32C891.998 59.552 891.538 59.668 891.034 59.668C890.65 59.668 890.266 59.58 889.882 59.404C889.498 59.22 889.202 58.948 888.994 58.588H888.85V61.9H887.914ZM890.842 58.78C891.41 58.78 891.882 58.588 892.258 58.204C892.642 57.82 892.834 57.3 892.834 56.644V56.404C892.834 55.98 892.746 55.608 892.57 55.288C892.394 54.968 892.154 54.72 891.85 54.544C891.554 54.36 891.218 54.268 890.842 54.268C890.474 54.268 890.138 54.364 889.834 54.556C889.538 54.74 889.298 54.996 889.114 55.324C888.938 55.652 888.85 56.028 888.85 56.452V56.596C888.85 57.036 888.938 57.42 889.114 57.748C889.29 58.076 889.53 58.332 889.834 58.516C890.138 58.692 890.474 58.78 890.842 58.78ZM894.998 59.5V58.636H896.366V54.412H895.142V53.548H897.302V54.34H897.446C897.598 54.012 897.814 53.772 898.094 53.62C898.382 53.46 898.702 53.38 899.054 53.38C899.646 53.38 900.126 53.576 900.494 53.968C900.87 54.36 901.07 54.932 901.094 55.684L900.11 55.828C900.11 55.276 899.978 54.88 899.714 54.64C899.45 54.392 899.126 54.268 898.742 54.268C898.254 54.268 897.89 54.448 897.65 54.808C897.418 55.16 897.302 55.596 897.302 56.116V58.636H898.814V59.5H894.998ZM905.453 59.668C904.925 59.668 904.433 59.548 903.977 59.308C903.529 59.068 903.165 58.72 902.885 58.264C902.605 57.808 902.465 57.252 902.465 56.596V56.452C902.465 55.804 902.605 55.252 902.885 54.796C903.165 54.332 903.529 53.98 903.977 53.74C904.433 53.5 904.925 53.38 905.453 53.38C905.981 53.38 906.469 53.5 906.917 53.74C907.373 53.98 907.741 54.332 908.021 54.796C908.301 55.252 908.441 55.804 908.441 56.452V56.596C908.441 57.252 908.301 57.808 908.021 58.264C907.741 58.72 907.373 59.068 906.917 59.308C906.469 59.548 905.981 59.668 905.453 59.668ZM905.453 58.78C905.837 58.78 906.181 58.692 906.485 58.516C906.789 58.34 907.029 58.088 907.205 57.76C907.389 57.432 907.481 57.044 907.481 56.596V56.452C907.481 56.02 907.389 55.64 907.205 55.312C907.029 54.984 906.785 54.728 906.473 54.544C906.169 54.36 905.829 54.268 905.453 54.268C905.077 54.268 904.733 54.36 904.421 54.544C904.117 54.728 903.873 54.984 903.689 55.312C903.513 55.64 903.425 56.02 903.425 56.452V56.596C903.425 57.044 903.513 57.432 903.689 57.76C903.873 58.088 904.117 58.34 904.421 58.516C904.733 58.692 905.077 58.78 905.453 58.78ZM912.477 59.668C911.957 59.668 911.485 59.552 911.061 59.32C910.645 59.08 910.313 58.736 910.065 58.288C909.817 57.832 909.693 57.276 909.693 56.62V56.428C909.693 55.78 909.817 55.228 910.065 54.772C910.313 54.316 910.645 53.972 911.061 53.74C911.485 53.5 911.949 53.38 912.453 53.38C912.861 53.38 913.229 53.472 913.557 53.656C913.893 53.832 914.157 54.108 914.349 54.484H914.493V53.548H915.429V58.276C915.429 58.516 915.537 58.636 915.753 58.636H916.053V59.5H915.417C915.169 59.5 914.953 59.42 914.769 59.26C914.585 59.1 914.493 58.844 914.493 58.492H914.349C914.157 58.884 913.889 59.18 913.545 59.38C913.209 59.572 912.853 59.668 912.477 59.668ZM912.573 58.78C913.133 58.78 913.593 58.58 913.953 58.18C914.313 57.78 914.493 57.252 914.493 56.596V56.452C914.493 56.028 914.409 55.652 914.241 55.324C914.073 54.996 913.845 54.74 913.557 54.556C913.269 54.364 912.941 54.268 912.573 54.268C912.205 54.268 911.877 54.36 911.589 54.544C911.301 54.72 911.073 54.972 910.905 55.3C910.737 55.62 910.653 55.996 910.653 56.428V56.62C910.653 57.292 910.833 57.82 911.193 58.204C911.553 58.588 912.013 58.78 912.573 58.78ZM920.257 59.668C919.705 59.668 919.197 59.552 918.733 59.32C918.269 59.08 917.893 58.732 917.605 58.276C917.325 57.82 917.185 57.268 917.185 56.62V56.476C917.185 55.836 917.325 55.284 917.605 54.82C917.893 54.356 918.269 54 918.733 53.752C919.197 53.504 919.705 53.38 920.257 53.38C920.761 53.38 921.209 53.48 921.601 53.68C922.001 53.872 922.325 54.14 922.573 54.484C922.829 54.828 922.993 55.22 923.065 55.66L922.129 55.876C922.097 55.596 922.005 55.336 921.853 55.096C921.701 54.848 921.489 54.648 921.217 54.496C920.953 54.344 920.625 54.268 920.233 54.268C919.849 54.268 919.497 54.364 919.177 54.556C918.865 54.74 918.613 55 918.421 55.336C918.237 55.664 918.145 56.044 918.145 56.476V56.62C918.145 57.068 918.237 57.456 918.421 57.784C918.613 58.104 918.869 58.352 919.189 58.528C919.509 58.696 919.865 58.78 920.257 58.78C920.649 58.78 920.977 58.704 921.241 58.552C921.513 58.392 921.721 58.192 921.865 57.952C922.017 57.704 922.113 57.444 922.153 57.172L923.089 57.388C923.009 57.828 922.845 58.22 922.597 58.564C922.349 58.908 922.025 59.18 921.625 59.38C921.233 59.572 920.777 59.668 920.257 59.668ZM924.868 59.5V51.1H925.804V54.628H925.948C926.132 54.244 926.388 53.94 926.716 53.716C927.052 53.492 927.46 53.38 927.94 53.38C928.588 53.38 929.112 53.596 929.512 54.028C929.92 54.452 930.124 55.092 930.124 55.948V59.5H929.188V56.14C929.188 55.516 929.048 55.048 928.768 54.736C928.488 54.424 928.108 54.268 927.628 54.268C927.068 54.268 926.624 54.464 926.296 54.856C925.968 55.24 925.804 55.756 925.804 56.404V59.5H924.868Z" fill="#0D0D0D"/>
<path d="M965.008 59.5V58.564H967.168V52.036H965.008V51.1H970.336V52.036H968.176V58.564H970.336V59.5H965.008ZM972.392 59.5V53.548H973.328V54.556H973.472C973.84 53.772 974.48 53.38 975.392 53.38C976.08 53.38 976.628 53.596 977.036 54.028C977.444 54.452 977.648 55.092 977.648 55.948V59.5H976.712V56.14C976.712 55.516 976.572 55.048 976.292 54.736C976.012 54.424 975.632 54.268 975.152 54.268C974.592 54.268 974.148 54.464 973.82 54.856C973.492 55.24 973.328 55.756 973.328 56.404V59.5H972.392ZM982.463 59.668C981.847 59.668 981.343 59.564 980.951 59.356C980.559 59.14 980.267 58.868 980.075 58.54C979.883 58.204 979.775 57.86 979.751 57.508L980.639 57.292C980.679 57.748 980.855 58.116 981.167 58.396C981.487 58.668 981.903 58.804 982.415 58.804C982.855 58.804 983.207 58.72 983.471 58.552C983.743 58.376 983.879 58.132 983.879 57.82C983.879 57.484 983.747 57.244 983.483 57.1C983.219 56.956 982.791 56.864 982.199 56.824C981.519 56.776 980.991 56.616 980.615 56.344C980.247 56.064 980.063 55.668 980.063 55.156V55.084C980.063 54.708 980.167 54.396 980.375 54.148C980.583 53.892 980.851 53.7 981.179 53.572C981.507 53.444 981.855 53.38 982.223 53.38C982.751 53.38 983.187 53.472 983.531 53.656C983.883 53.832 984.151 54.064 984.335 54.352C984.519 54.632 984.631 54.924 984.671 55.228L983.783 55.444C983.751 55.06 983.599 54.76 983.327 54.544C983.055 54.328 982.703 54.22 982.271 54.22C981.935 54.22 981.635 54.292 981.371 54.436C981.107 54.58 980.975 54.796 980.975 55.084C980.975 55.372 981.095 55.592 981.335 55.744C981.583 55.896 982.031 55.996 982.679 56.044C983.367 56.1 983.895 56.268 984.263 56.548C984.631 56.82 984.815 57.22 984.815 57.748V57.82C984.815 58.396 984.595 58.848 984.155 59.176C983.723 59.504 983.159 59.668 982.463 59.668ZM989.775 52.612C989.551 52.612 989.355 52.528 989.187 52.36C989.019 52.192 988.935 51.996 988.935 51.772C988.935 51.54 989.019 51.344 989.187 51.184C989.355 51.016 989.551 50.932 989.775 50.932C990.007 50.932 990.203 51.016 990.363 51.184C990.531 51.344 990.615 51.54 990.615 51.772C990.615 51.996 990.531 52.192 990.363 52.36C990.203 52.528 990.007 52.612 989.775 52.612ZM987.231 59.5V58.636H989.319V54.412H987.447V53.548H990.255V58.636H992.199V59.5H987.231ZM995.095 61.9V61.036H998.635C998.851 61.036 998.959 60.916 998.959 60.676V58.588H998.815C998.623 58.948 998.359 59.22 998.023 59.404C997.695 59.58 997.335 59.668 996.943 59.668C996.415 59.668 995.927 59.552 995.479 59.32C995.039 59.08 994.683 58.732 994.411 58.276C994.147 57.82 994.015 57.268 994.015 56.62V56.428C994.015 55.78 994.151 55.232 994.423 54.784C994.695 54.328 995.051 53.98 995.491 53.74C995.931 53.5 996.407 53.38 996.919 53.38C997.351 53.38 997.731 53.476 998.059 53.668C998.387 53.852 998.639 54.124 998.815 54.484H998.959V53.548H999.895V60.964C999.895 61.236 999.807 61.46 999.631 61.636C999.463 61.812 999.243 61.9 998.971 61.9H995.095ZM996.967 58.78C997.343 58.78 997.679 58.692 997.975 58.516C998.279 58.332 998.519 58.076 998.695 57.748C998.871 57.42 998.959 57.036 998.959 56.596V56.452C998.959 56.028 998.867 55.652 998.683 55.324C998.507 54.996 998.267 54.74 997.963 54.556C997.667 54.364 997.335 54.268 996.967 54.268C996.591 54.268 996.251 54.36 995.947 54.544C995.651 54.72 995.415 54.972 995.239 55.3C995.063 55.62 994.975 55.996 994.975 56.428V56.62C994.975 57.06 995.059 57.444 995.227 57.772C995.403 58.092 995.639 58.34 995.935 58.516C996.239 58.692 996.583 58.78 996.967 58.78ZM1001.78 59.5V51.1H1002.72V54.628H1002.86C1003.05 54.244 1003.3 53.94 1003.63 53.716C1003.97 53.492 1004.37 53.38 1004.85 53.38C1005.5 53.38 1006.03 53.596 1006.43 54.028C1006.83 54.452 1007.04 55.092 1007.04 55.948V59.5H1006.1V56.14C1006.1 55.516 1005.96 55.048 1005.68 54.736C1005.4 54.424 1005.02 54.268 1004.54 54.268C1003.98 54.268 1003.54 54.464 1003.21 54.856C1002.88 55.24 1002.72 55.756 1002.72 56.404V59.5H1001.78ZM1011.72 59.5C1011.45 59.5 1011.23 59.412 1011.05 59.236C1010.88 59.06 1010.8 58.836 1010.8 58.564V54.412H1008.93V53.548H1010.8V51.1H1011.73V53.548H1014.04V54.412H1011.73V58.276C1011.73 58.516 1011.84 58.636 1012.06 58.636H1013.75V59.5H1011.72ZM1019.2 59.668C1018.59 59.668 1018.08 59.564 1017.69 59.356C1017.3 59.14 1017.01 58.868 1016.81 58.54C1016.62 58.204 1016.51 57.86 1016.49 57.508L1017.38 57.292C1017.42 57.748 1017.59 58.116 1017.91 58.396C1018.23 58.668 1018.64 58.804 1019.15 58.804C1019.59 58.804 1019.95 58.72 1020.21 58.552C1020.48 58.376 1020.62 58.132 1020.62 57.82C1020.62 57.484 1020.49 57.244 1020.22 57.1C1019.96 56.956 1019.53 56.864 1018.94 56.824C1018.26 56.776 1017.73 56.616 1017.35 56.344C1016.99 56.064 1016.8 55.668 1016.8 55.156V55.084C1016.8 54.708 1016.91 54.396 1017.11 54.148C1017.32 53.892 1017.59 53.7 1017.92 53.572C1018.25 53.444 1018.59 53.38 1018.96 53.38C1019.49 53.38 1019.93 53.472 1020.27 53.656C1020.62 53.832 1020.89 54.064 1021.07 54.352C1021.26 54.632 1021.37 54.924 1021.41 55.228L1020.52 55.444C1020.49 55.06 1020.34 54.76 1020.07 54.544C1019.79 54.328 1019.44 54.22 1019.01 54.22C1018.67 54.22 1018.37 54.292 1018.11 54.436C1017.85 54.58 1017.71 54.796 1017.71 55.084C1017.71 55.372 1017.83 55.592 1018.07 55.744C1018.32 55.896 1018.77 55.996 1019.42 56.044C1020.11 56.1 1020.63 56.268 1021 56.548C1021.37 56.82 1021.55 57.22 1021.55 57.748V57.82C1021.55 58.396 1021.33 58.848 1020.89 59.176C1020.46 59.504 1019.9 59.668 1019.2 59.668Z" fill="#0D0D0D"/>
</g>
<rect x="1233" y="33" width="147" height="44" rx="2" fill="#FF4500"/>
<path d="M1260.01 59.14C1259.26 59.14 1258.67 58.8967 1258.24 58.41C1257.81 57.9167 1257.59 57.2067 1257.59 56.28V54.72C1257.59 53.82 1257.81 53.12 1258.24 52.62C1258.68 52.1133 1259.28 51.86 1260.05 51.86C1260.58 51.86 1261.03 51.9733 1261.4 52.2C1261.77 52.4267 1262.04 52.7333 1262.23 53.12C1262.42 53.5 1262.51 53.9267 1262.51 54.4V54.52H1261.67V54.4C1261.67 54.0933 1261.61 53.8067 1261.5 53.54C1261.39 53.2733 1261.22 53.0567 1260.98 52.89C1260.74 52.7233 1260.43 52.64 1260.05 52.64C1259.51 52.64 1259.1 52.8367 1258.83 53.23C1258.56 53.6233 1258.43 54.14 1258.43 54.78V56.22C1258.43 56.9 1258.57 57.4267 1258.84 57.8C1259.11 58.1733 1259.52 58.36 1260.07 58.36C1260.56 58.36 1260.95 58.2 1261.24 57.88C1261.53 57.5533 1261.67 57.1067 1261.67 56.54V56.42H1259.39V55.64H1262.51V59H1261.73V58.16H1261.61C1261.5 58.4467 1261.3 58.6833 1261.01 58.87C1260.72 59.05 1260.39 59.14 1260.01 59.14ZM1264.16 59V52H1268.4V52.78H1265V55.1H1268.34V55.88H1265V58.22H1268.46V59H1264.16ZM1272.09 59V52.78H1270.05V52H1274.97V52.78H1272.93V59H1272.09ZM1282.73 59V58.22H1284.53V52.78H1282.73V52H1287.17V52.78H1285.37V58.22H1287.17V59H1282.73ZM1288.85 59V52H1290.53L1292.55 58.64H1292.67V52H1293.51V59H1291.83L1289.81 52.36H1289.69V59H1288.85ZM1303.2 59V52.78H1301.16V52H1306.08V52.78H1304.04V59H1303.2ZM1309.84 59.14C1309.08 59.14 1308.47 58.8967 1308.03 58.41C1307.6 57.9167 1307.38 57.2067 1307.38 56.28V54.72C1307.38 53.82 1307.6 53.12 1308.03 52.62C1308.47 52.1133 1309.08 51.86 1309.84 51.86C1310.62 51.86 1311.22 52.1133 1311.65 52.62C1312.09 53.12 1312.3 53.82 1312.3 54.72V56.28C1312.3 57.2067 1312.09 57.9167 1311.65 58.41C1311.22 58.8967 1310.62 59.14 1309.84 59.14ZM1309.84 58.36C1310.38 58.36 1310.79 58.1733 1311.05 57.8C1311.33 57.4267 1311.46 56.9 1311.46 56.22V54.78C1311.46 54.14 1311.33 53.6233 1311.05 53.23C1310.79 52.8367 1310.38 52.64 1309.84 52.64C1309.3 52.64 1308.9 52.8367 1308.62 53.23C1308.36 53.6233 1308.22 54.14 1308.22 54.78V56.22C1308.22 56.9 1308.36 57.4267 1308.62 57.8C1308.9 58.1733 1309.3 58.36 1309.84 58.36ZM1316.07 59.14C1315.33 59.14 1314.74 58.9267 1314.31 58.5C1313.88 58.0667 1313.67 57.4467 1313.67 56.64V52H1314.51V56.64C1314.51 57.2 1314.64 57.6267 1314.91 57.92C1315.17 58.2133 1315.56 58.36 1316.07 58.36C1316.58 58.36 1316.97 58.2133 1317.23 57.92C1317.49 57.6267 1317.63 57.2 1317.63 56.64V52H1318.47V56.64C1318.47 57.4467 1318.25 58.0667 1317.82 58.5C1317.39 58.9267 1316.81 59.14 1316.07 59.14ZM1322.33 59.14C1321.56 59.14 1320.96 58.8967 1320.52 58.41C1320.09 57.9167 1319.87 57.2067 1319.87 56.28V54.72C1319.87 53.82 1320.09 53.12 1320.52 52.62C1320.96 52.1133 1321.56 51.86 1322.33 51.86C1322.86 51.86 1323.31 51.9733 1323.68 52.2C1324.05 52.4267 1324.32 52.7333 1324.51 53.12C1324.7 53.5 1324.79 53.9267 1324.79 54.4V54.52H1323.95V54.4C1323.94 54.0933 1323.88 53.8067 1323.77 53.54C1323.66 53.2733 1323.49 53.0567 1323.25 52.89C1323.02 52.7233 1322.71 52.64 1322.33 52.64C1321.79 52.64 1321.38 52.8367 1321.11 53.23C1320.84 53.6233 1320.71 54.14 1320.71 54.78V56.22C1320.71 56.9 1320.84 57.4267 1321.11 57.8C1321.38 58.1733 1321.79 58.36 1322.33 58.36C1322.71 58.36 1323.02 58.2767 1323.26 58.11C1323.5 57.9433 1323.67 57.7267 1323.78 57.46C1323.89 57.1933 1323.95 56.9067 1323.95 56.6V56.48H1324.79V56.6C1324.79 57.0733 1324.7 57.5033 1324.51 57.89C1324.32 58.27 1324.05 58.5733 1323.68 58.8C1323.31 59.0267 1322.86 59.14 1322.33 59.14ZM1326.18 59V52H1327.02V55.1H1330V52H1330.84V59H1330V55.88H1327.02V59H1326.18Z" fill="white"/>
<path d="M1344 55H1348M1348 55H1352M1348 55V59M1348 55V51" stroke="white" stroke-linecap="round" stroke-linejoin="round"/>
</g>
<defs>
<clipPath id="clip0_52_3723">
<rect width="1440" height="85" fill="white"/>
</clipPath>
<clipPath id="clip1_52_3723">
<rect width="270" height="17" fill="white" transform="translate(1110 4)"/>
</clipPath>
<clipPath id="clip2_52_3723">
<rect width="648" height="17" fill="white" transform="translate(375 46.5)"/>
</clipPath>
</defs>
</svg>
