<svg width="617" height="399" viewBox="0 0 617 399" fill="none" xmlns="http://www.w3.org/2000/svg">
<path d="M308.5 614.5C477.499 614.5 614.5 477.499 614.5 308.5C614.5 139.501 477.499 2.5 308.5 2.5C139.501 2.5 2.5 139.501 2.5 308.5C2.5 477.499 139.501 614.5 308.5 614.5Z" stroke="black" stroke-opacity="0.25" stroke-width="5" stroke-linecap="round" stroke-linejoin="round"/>
<path d="M284.533 312.768L230.506 261.205L235.675 299.079L284.533 312.768Z" stroke="black" stroke-opacity="0.25" stroke-linecap="round" stroke-linejoin="round"/>
<path d="M284.533 312.768L281.049 236.525L230.506 261.205L284.533 312.768Z" stroke="black" stroke-opacity="0.25" stroke-linecap="round" stroke-linejoin="round"/>
<path d="M327.606 370.39L284.533 312.768L289.482 388.725L327.606 370.39Z" stroke="black" stroke-opacity="0.25" stroke-linecap="round" stroke-linejoin="round"/>
<path d="M330.086 332.291L332.216 293.812L284.533 312.768L330.086 332.291Z" stroke="black" stroke-opacity="0.25" stroke-linecap="round" stroke-linejoin="round"/>
<path d="M289.483 388.725L284.534 312.768L241.992 337.097L289.483 388.725Z" stroke="black" stroke-opacity="0.25" stroke-linecap="round" stroke-linejoin="round"/>
<path d="M327.606 370.39L330.086 332.291L284.533 312.768L327.606 370.39Z" stroke="black" stroke-opacity="0.25" stroke-linecap="round" stroke-linejoin="round"/>
<path d="M332.216 293.812L281.049 236.525L284.533 312.768L332.216 293.812Z" stroke="black" stroke-opacity="0.25" stroke-linecap="round" stroke-linejoin="round"/>
<path d="M284.534 312.768L235.676 299.079L241.992 337.097L284.534 312.768Z" stroke="black" stroke-opacity="0.25" stroke-linecap="round" stroke-linejoin="round"/>
<path d="M370.19 355.636L332.218 293.812L330.088 332.291L370.19 355.636Z" stroke="black" stroke-opacity="0.25" stroke-linecap="round" stroke-linejoin="round"/>
<path d="M332.216 293.812L333.958 255.558L281.049 236.525L332.216 293.812Z" stroke="black" stroke-opacity="0.25" stroke-linecap="round" stroke-linejoin="round"/>
<path d="M370.189 355.636L382.788 279.846L332.217 293.812L370.189 355.636Z" stroke="black" stroke-opacity="0.25" stroke-linecap="round" stroke-linejoin="round"/>
<path d="M382.788 279.846L333.959 255.558L332.217 293.812L382.788 279.846Z" stroke="black" stroke-opacity="0.25" stroke-linecap="round" stroke-linejoin="round"/>
<path d="M370.19 355.636L330.088 332.291L327.607 370.39L370.19 355.636Z" stroke="black" stroke-opacity="0.25" stroke-linecap="round" stroke-linejoin="round"/>
<path d="M382.788 279.846L335.293 218.136L333.959 255.558L382.788 279.846Z" stroke="black" stroke-opacity="0.25" stroke-linecap="round" stroke-linejoin="round"/>
<path d="M333.958 255.558L335.292 218.136L281.049 236.525L333.958 255.558Z" stroke="black" stroke-opacity="0.25" stroke-linecap="round" stroke-linejoin="round"/>
<path d="M324.815 407.505L327.606 370.39L289.482 388.725L324.815 407.505Z" stroke="black" stroke-opacity="0.25" stroke-linecap="round" stroke-linejoin="round"/>
<path d="M324.816 407.505L370.19 355.636L327.607 370.389L324.816 407.505Z" stroke="black" stroke-opacity="0.25" stroke-linecap="round" stroke-linejoin="round"/>
<path d="M289.483 388.725L241.992 337.097L253.473 392.919L289.483 388.725Z" stroke="black" stroke-opacity="0.25" stroke-linecap="round" stroke-linejoin="round"/>
<path d="M241.992 337.097L185.949 290.593L206.447 364.571L241.992 337.097Z" stroke="black" stroke-opacity="0.25" stroke-linecap="round" stroke-linejoin="round"/>
<path d="M241.992 337.097L235.676 299.079L185.949 290.593L241.992 337.097Z" stroke="black" stroke-opacity="0.25" stroke-linecap="round" stroke-linejoin="round"/>
<path d="M253.473 392.919L241.992 337.097L206.447 364.571L253.473 392.919Z" stroke="black" stroke-opacity="0.25" stroke-linecap="round" stroke-linejoin="round"/>
<path d="M235.676 299.079L230.507 261.205L185.949 290.593L235.676 299.079Z" stroke="black" stroke-opacity="0.25" stroke-linecap="round" stroke-linejoin="round"/>
<path d="M335.292 218.136L298.409 181.449L281.049 236.525L335.292 218.136Z" stroke="black" stroke-opacity="0.25" stroke-linecap="round" stroke-linejoin="round"/>
<path d="M281.05 236.525L298.41 181.449L223.885 188.266L281.05 236.525Z" stroke="black" stroke-opacity="0.25" stroke-linecap="round" stroke-linejoin="round"/>
<path d="M281.049 236.525L226.553 224.073L230.506 261.205L281.049 236.525Z" stroke="black" stroke-opacity="0.25" stroke-linecap="round" stroke-linejoin="round"/>
<path d="M281.05 236.525L223.885 188.266L226.553 224.073L281.05 236.525Z" stroke="black" stroke-opacity="0.25" stroke-linecap="round" stroke-linejoin="round"/>
<path d="M415.065 346.546L382.788 279.846L370.189 355.636L415.065 346.546Z" stroke="#E25319" stroke-linecap="round" stroke-linejoin="round"/>
<path d="M396.375 400.72L415.065 346.546L370.189 355.636L396.375 400.72Z" stroke="black" stroke-opacity="0.25" stroke-linecap="round" stroke-linejoin="round"/>
<path d="M396.376 400.72L370.19 355.636L324.816 407.505L396.376 400.72Z" stroke="black" stroke-opacity="0.25" stroke-linecap="round" stroke-linejoin="round"/>
<path d="M433.752 272.298L406.592 227.341L382.789 279.846L433.752 272.298Z" stroke="black" stroke-opacity="0.25" stroke-linecap="round" stroke-linejoin="round"/>
<path d="M382.788 279.846L406.591 227.341L335.293 218.136L382.788 279.846Z" stroke="black" stroke-opacity="0.25" stroke-linecap="round" stroke-linejoin="round"/>
<path d="M425.335 309.43L433.752 272.298L382.789 279.846L425.335 309.43Z" stroke="black" stroke-opacity="0.25" stroke-linecap="round" stroke-linejoin="round"/>
<path d="M415.066 346.546L425.335 309.43L382.789 279.846L415.066 346.546Z" stroke="black" stroke-opacity="0.25" stroke-linecap="round" stroke-linejoin="round"/>
<path d="M321.76 443.058L289.483 388.725L266.676 446.065L321.76 443.058Z" stroke="black" stroke-opacity="0.25" stroke-linecap="round" stroke-linejoin="round"/>
<path d="M266.676 446.065L289.483 388.725L253.473 392.919L266.676 446.065Z" stroke="black" stroke-opacity="0.25" stroke-linecap="round" stroke-linejoin="round"/>
<path d="M321.759 443.058L324.815 407.505L289.482 388.725L321.759 443.058Z" stroke="black" stroke-opacity="0.25" stroke-linecap="round" stroke-linejoin="round"/>
<path d="M230.507 261.205L226.553 224.073L173.113 217.72L230.507 261.205Z" stroke="black" stroke-opacity="0.25" stroke-linecap="round" stroke-linejoin="round"/>
<path d="M230.507 261.205L173.113 217.72L185.949 290.593L230.507 261.205Z" stroke="black" stroke-opacity="0.25" stroke-linecap="round" stroke-linejoin="round"/>
<path d="M406.591 227.341L355.428 166.165L335.293 218.136L406.591 227.341Z" stroke="black" stroke-opacity="0.25" stroke-linecap="round" stroke-linejoin="round"/>
<path d="M335.293 218.136L355.428 166.165L298.41 181.449L335.293 218.136Z" stroke="black" stroke-opacity="0.25" stroke-linecap="round" stroke-linejoin="round"/>
<path d="M253.473 392.919L206.447 364.572L197.463 428.872L253.473 392.919Z" stroke="black" stroke-opacity="0.25" stroke-linecap="round" stroke-linejoin="round"/>
<path d="M266.676 446.065L253.473 392.919L197.463 428.872L266.676 446.065Z" stroke="black" stroke-opacity="0.25" stroke-linecap="round" stroke-linejoin="round"/>
<path d="M427.591 411.895L415.065 346.546L396.375 400.72L427.591 411.895Z" stroke="black" stroke-opacity="0.25" stroke-linecap="round" stroke-linejoin="round"/>
<path d="M459.82 342.176L425.336 309.43L415.066 346.546L459.82 342.176Z" stroke="black" stroke-opacity="0.25" stroke-linecap="round" stroke-linejoin="round"/>
<path d="M427.592 411.895L459.82 342.176L415.066 346.546L427.592 411.895Z" stroke="black" stroke-opacity="0.25" stroke-linecap="round" stroke-linejoin="round"/>
<path d="M206.446 364.571L149.277 324.502L163.145 360.296L206.446 364.571Z" stroke="black" stroke-opacity="0.25" stroke-linecap="round" stroke-linejoin="round"/>
<path d="M206.448 364.572L163.146 360.296L179.291 395.269L206.448 364.572Z" stroke="black" stroke-opacity="0.25" stroke-linecap="round" stroke-linejoin="round"/>
<path d="M206.446 364.571L185.948 290.593L149.277 324.502L206.446 364.571Z" stroke="black" stroke-opacity="0.25" stroke-linecap="round" stroke-linejoin="round"/>
<path d="M197.463 428.872L206.447 364.572L179.291 395.269L197.463 428.872Z" stroke="#E25319" stroke-linecap="round" stroke-linejoin="round"/>
<path d="M226.553 224.073L223.885 188.266L173.113 217.72L226.553 224.073Z" stroke="black" stroke-opacity="0.25" stroke-linecap="round" stroke-linejoin="round"/>
<path d="M459.818 342.176L433.751 272.298L425.334 309.43L459.818 342.176Z" stroke="black" stroke-opacity="0.25" stroke-linecap="round" stroke-linejoin="round"/>
<path d="M185.949 290.593L173.113 217.72L129.232 252.706L185.949 290.593Z" stroke="black" stroke-opacity="0.25" stroke-linecap="round" stroke-linejoin="round"/>
<path d="M185.949 290.593L129.232 252.706L137.915 288.447L185.949 290.593Z" stroke="black" stroke-opacity="0.25" stroke-linecap="round" stroke-linejoin="round"/>
<path d="M185.95 290.593L137.916 288.447L149.279 324.502L185.95 290.593Z" stroke="black" stroke-opacity="0.25" stroke-linecap="round" stroke-linejoin="round"/>
<path d="M298.41 181.449L241.017 135.504L223.885 188.266L298.41 181.449Z" stroke="black" stroke-opacity="0.25" stroke-linecap="round" stroke-linejoin="round"/>
<path d="M298.411 181.449L298.26 147.426L241.018 135.504L298.411 181.449Z" stroke="black" stroke-opacity="0.25" stroke-linecap="round" stroke-linejoin="round"/>
<path d="M355.429 166.165L298.26 147.426L298.411 181.449L355.429 166.165Z" stroke="#E25319" stroke-linecap="round" stroke-linejoin="round"/>
<path d="M458.963 222.906L409.835 191.641L406.592 227.341L458.963 222.906Z" stroke="black" stroke-opacity="0.25" stroke-linecap="round" stroke-linejoin="round"/>
<path d="M406.591 227.341L409.835 191.641L355.428 166.165L406.591 227.341Z" stroke="black" stroke-opacity="0.25" stroke-linecap="round" stroke-linejoin="round"/>
<path d="M433.752 272.298L458.963 222.906L406.592 227.341L433.752 272.298Z" stroke="black" stroke-opacity="0.25" stroke-linecap="round" stroke-linejoin="round"/>
<path d="M459.819 342.176L491.239 294.856L433.752 272.298L459.819 342.176Z" stroke="black" stroke-opacity="0.25" stroke-linecap="round" stroke-linejoin="round"/>
<path d="M491.239 294.857L458.962 222.906L433.752 272.298L491.239 294.857Z" stroke="black" stroke-opacity="0.25" stroke-linecap="round" stroke-linejoin="round"/>
<path d="M223.885 188.266L241.017 135.504L186.398 161.861L223.885 188.266Z" stroke="black" stroke-opacity="0.25" stroke-linecap="round" stroke-linejoin="round"/>
<path d="M223.885 188.266L186.398 161.861L173.113 217.72L223.885 188.266Z" stroke="black" stroke-opacity="0.25" stroke-linecap="round" stroke-linejoin="round"/>
<path d="M411.467 157.777L374.583 120.102L355.428 166.165L411.467 157.777Z" stroke="black" stroke-opacity="0.25" stroke-linecap="round" stroke-linejoin="round"/>
<path d="M355.429 166.165L374.584 120.102L298.26 115.936L355.429 166.165Z" stroke="black" stroke-opacity="0.25" stroke-linecap="round" stroke-linejoin="round"/>
<path d="M409.835 191.641L411.467 157.777L355.428 166.165L409.835 191.641Z" stroke="black" stroke-opacity="0.25" stroke-linecap="round" stroke-linejoin="round"/>
<path d="M355.429 166.165L298.26 115.936V147.426L355.429 166.165Z" stroke="black" stroke-opacity="0.25" stroke-linecap="round" stroke-linejoin="round"/>
<path d="M163.145 360.296L149.278 324.502L121.893 360.618L163.145 360.296Z" stroke="black" stroke-opacity="0.25" stroke-linecap="round" stroke-linejoin="round"/>
<path d="M179.29 395.269L163.145 360.296L121.893 360.618L179.29 395.269Z" stroke="black" stroke-opacity="0.25" stroke-linecap="round" stroke-linejoin="round"/>
<path d="M179.29 395.269L121.893 360.618L161.338 426.428L179.29 395.269Z" stroke="black" stroke-opacity="0.25" stroke-linecap="round" stroke-linejoin="round"/>
<path d="M197.462 428.872L179.29 395.269L161.338 426.428L197.462 428.872Z" stroke="black" stroke-opacity="0.25" stroke-linecap="round" stroke-linejoin="round"/>
<path d="M458.963 222.906L411.468 157.777L409.836 191.641L458.963 222.906Z" stroke="black" stroke-opacity="0.25" stroke-linecap="round" stroke-linejoin="round"/>
<path d="M465.226 410.879L459.82 342.176L427.592 411.895L465.226 410.879Z" stroke="black" stroke-opacity="0.25" stroke-linecap="round" stroke-linejoin="round"/>
<path d="M484.984 377.864L514.674 330.189L459.818 342.176L484.984 377.864Z" stroke="black" stroke-opacity="0.25" stroke-linecap="round" stroke-linejoin="round"/>
<path d="M465.224 410.879L484.984 377.864L459.818 342.176L465.224 410.879Z" stroke="black" stroke-opacity="0.25" stroke-linecap="round" stroke-linejoin="round"/>
<path d="M514.674 330.189L491.238 294.856L459.818 342.176L514.674 330.189Z" stroke="black" stroke-opacity="0.25" stroke-linecap="round" stroke-linejoin="round"/>
<path d="M149.278 324.502L137.915 288.447L94.1367 291.519L149.278 324.502Z" stroke="black" stroke-opacity="0.25" stroke-linecap="round" stroke-linejoin="round"/>
<path d="M149.278 324.502L94.1367 291.519L121.893 360.618L149.278 324.502Z" stroke="black" stroke-opacity="0.25" stroke-linecap="round" stroke-linejoin="round"/>
<path d="M298.26 147.426V115.936L241.018 135.504L298.26 147.426Z" stroke="black" stroke-opacity="0.25" stroke-linecap="round" stroke-linejoin="round"/>
<path d="M173.113 217.72L123.365 217.838L129.232 252.706L173.113 217.72Z" stroke="black" stroke-opacity="0.25" stroke-linecap="round" stroke-linejoin="round"/>
<path d="M173.113 217.72L186.398 161.861L120.412 184.399L173.113 217.72Z" stroke="black" stroke-opacity="0.25" stroke-linecap="round" stroke-linejoin="round"/>
<path d="M173.113 217.72L120.412 184.399L123.366 217.838L173.113 217.72Z" stroke="#E25319" stroke-linecap="round" stroke-linejoin="round"/>
<path d="M137.915 288.447L129.233 252.706L94.1367 291.519L137.915 288.447Z" stroke="black" stroke-opacity="0.25" stroke-linecap="round" stroke-linejoin="round"/>
<path d="M506.936 224.799L479.779 177.875L458.963 222.906L506.936 224.799Z" stroke="black" stroke-opacity="0.25" stroke-linecap="round" stroke-linejoin="round"/>
<path d="M458.962 222.906L479.778 177.875L411.467 157.777L458.962 222.906Z" stroke="black" stroke-opacity="0.25" stroke-linecap="round" stroke-linejoin="round"/>
<path d="M500.607 259.442L506.936 224.799L458.963 222.906L500.607 259.442Z" stroke="black" stroke-opacity="0.25" stroke-linecap="round" stroke-linejoin="round"/>
<path d="M491.24 294.857L500.607 259.442L458.963 222.906L491.24 294.857Z" stroke="black" stroke-opacity="0.25" stroke-linecap="round" stroke-linejoin="round"/>
<path d="M479.778 177.875L446.718 135.096L411.467 157.777L479.778 177.875Z" stroke="black" stroke-opacity="0.25" stroke-linecap="round" stroke-linejoin="round"/>
<path d="M411.467 157.777L446.718 135.096L374.584 120.102L411.467 157.777Z" stroke="black" stroke-opacity="0.25" stroke-linecap="round" stroke-linejoin="round"/>
<path d="M514.674 330.189L500.606 259.442L491.238 294.857L514.674 330.189Z" stroke="black" stroke-opacity="0.25" stroke-linecap="round" stroke-linejoin="round"/>
<path d="M241.017 135.504L186.398 130.371V161.861L241.017 135.504Z" stroke="black" stroke-opacity="0.25" stroke-linecap="round" stroke-linejoin="round"/>
<path d="M241.016 135.504L260.775 89.5305L205.695 97.3437L241.016 135.504Z" stroke="black" stroke-opacity="0.25" stroke-linecap="round" stroke-linejoin="round"/>
<path d="M298.26 115.936L260.777 89.5305L241.018 135.504L298.26 115.936Z" stroke="black" stroke-opacity="0.25" stroke-linecap="round" stroke-linejoin="round"/>
<path d="M241.017 135.504L205.697 97.3438L186.398 130.371L241.017 135.504Z" stroke="black" stroke-opacity="0.25" stroke-linecap="round" stroke-linejoin="round"/>
<path d="M129.234 252.706L79.8086 223.465L94.1376 291.519L129.234 252.706Z" stroke="black" stroke-opacity="0.25" stroke-linecap="round" stroke-linejoin="round"/>
<path d="M129.234 252.706L123.367 217.838L79.8086 223.465L129.234 252.706Z" stroke="black" stroke-opacity="0.25" stroke-linecap="round" stroke-linejoin="round"/>
<path d="M500.149 413.846L484.984 377.864L465.225 410.879L500.149 413.846Z" stroke="black" stroke-opacity="0.25" stroke-linecap="round" stroke-linejoin="round"/>
<path d="M161.339 426.428L121.894 360.618L104.623 398.623L161.339 426.428Z" stroke="black" stroke-opacity="0.25" stroke-linecap="round" stroke-linejoin="round"/>
<path d="M161.339 426.428L104.623 398.623L127.3 429.321L161.339 426.428Z" stroke="black" stroke-opacity="0.25" stroke-linecap="round" stroke-linejoin="round"/>
<path d="M500.15 413.846L514.674 330.189L484.984 377.864L500.15 413.846Z" stroke="black" stroke-opacity="0.25" stroke-linecap="round" stroke-linejoin="round"/>
<path d="M186.398 161.861L135.614 146.1L120.412 184.399L186.398 161.861Z" stroke="black" stroke-opacity="0.25" stroke-linecap="round" stroke-linejoin="round"/>
<path d="M186.397 161.861V130.371L135.613 146.1L186.397 161.861Z" stroke="black" stroke-opacity="0.25" stroke-linecap="round" stroke-linejoin="round"/>
<path d="M298.258 115.936L336.194 88.1636L260.775 89.5304L298.258 115.936Z" stroke="black" stroke-opacity="0.25" stroke-linecap="round" stroke-linejoin="round"/>
<path d="M374.584 120.102L336.196 88.1636L298.26 115.936L374.584 120.102Z" stroke="black" stroke-opacity="0.25" stroke-linecap="round" stroke-linejoin="round"/>
<path d="M121.893 360.618L69.1953 333.457L85.1522 366.501L121.893 360.618Z" stroke="black" stroke-opacity="0.25" stroke-linecap="round" stroke-linejoin="round"/>
<path d="M121.893 360.618L94.1364 291.519L69.1953 333.457L121.893 360.618Z" stroke="black" stroke-opacity="0.25" stroke-linecap="round" stroke-linejoin="round"/>
<path d="M121.893 360.618L85.1523 366.501L104.622 398.623L121.893 360.618Z" stroke="black" stroke-opacity="0.25" stroke-linecap="round" stroke-linejoin="round"/>
<path d="M542.407 265.383L506.936 224.799L500.607 259.442L542.407 265.383Z" stroke="black" stroke-opacity="0.25" stroke-linecap="round" stroke-linejoin="round"/>
<path d="M514.675 330.189L542.407 265.383L500.607 259.442L514.675 330.189Z" stroke="black" stroke-opacity="0.25" stroke-linecap="round" stroke-linejoin="round"/>
<path d="M374.584 120.102L390.676 81.3706L336.195 88.1638L374.584 120.102Z" stroke="black" stroke-opacity="0.25" stroke-linecap="round" stroke-linejoin="round"/>
<path d="M446.718 135.096L390.676 81.3706L374.584 120.102L446.718 135.096Z" stroke="black" stroke-opacity="0.25" stroke-linecap="round" stroke-linejoin="round"/>
<path d="M123.367 217.838L120.413 184.399L79.8086 223.465L123.367 217.838Z" stroke="black" stroke-opacity="0.25" stroke-linecap="round" stroke-linejoin="round"/>
<path d="M538.407 374.727L554.927 342.27L514.674 330.189L538.407 374.727Z" stroke="black" stroke-opacity="0.25" stroke-linecap="round" stroke-linejoin="round"/>
<path d="M500.15 413.846L538.409 374.727L514.675 330.189L500.15 413.846Z" stroke="black" stroke-opacity="0.25" stroke-linecap="round" stroke-linejoin="round"/>
<path d="M554.927 342.27L542.406 265.383L514.674 330.189L554.927 342.27Z" stroke="black" stroke-opacity="0.25" stroke-linecap="round" stroke-linejoin="round"/>
<path d="M94.1362 291.519L57 300.014L69.1951 333.457L94.1362 291.519Z" stroke="black" stroke-opacity="0.25" stroke-linecap="round" stroke-linejoin="round"/>
<path d="M94.1373 291.519L79.8084 223.465L48.7637 266.7L94.1373 291.519Z" stroke="black" stroke-opacity="0.25" stroke-linecap="round" stroke-linejoin="round"/>
<path d="M94.1373 291.519L48.7637 266.7L57.0012 300.014L94.1373 291.519Z" stroke="black" stroke-opacity="0.25" stroke-linecap="round" stroke-linejoin="round"/>
<path d="M186.398 130.371L205.696 97.3438L154.635 111.599L186.398 130.371Z" stroke="black" stroke-opacity="0.25" stroke-linecap="round" stroke-linejoin="round"/>
<path d="M186.397 130.371L154.634 111.599L135.613 146.1L186.397 130.371Z" stroke="black" stroke-opacity="0.25" stroke-linecap="round" stroke-linejoin="round"/>
<path d="M479.779 177.875L494.21 138.115L446.719 135.096L479.779 177.875Z" stroke="black" stroke-opacity="0.25" stroke-linecap="round" stroke-linejoin="round"/>
<path d="M506.936 224.799L524.561 198.817L479.779 177.875L506.936 224.799Z" stroke="black" stroke-opacity="0.25" stroke-linecap="round" stroke-linejoin="round"/>
<path d="M524.561 198.817L494.21 138.115L479.779 177.875L524.561 198.817Z" stroke="black" stroke-opacity="0.25" stroke-linecap="round" stroke-linejoin="round"/>
<path d="M542.407 265.383L524.561 198.817L506.936 224.799L542.407 265.383Z" stroke="black" stroke-opacity="0.25" stroke-linecap="round" stroke-linejoin="round"/>
<path d="M127.299 429.321L104.622 398.623L74.5977 406.8L127.299 429.321Z" stroke="black" stroke-opacity="0.25" stroke-linecap="round" stroke-linejoin="round"/>
<path d="M530.032 421.847L538.409 374.727L500.15 413.846L530.032 421.847Z" stroke="#E25319" stroke-linecap="round" stroke-linejoin="round"/>
<path d="M390.675 81.3705L335.293 63.1655L336.195 88.1637L390.675 81.3705Z" stroke="black" stroke-opacity="0.25" stroke-linecap="round" stroke-linejoin="round"/>
<path d="M336.194 88.1636L281.049 52.2759L260.775 89.5304L336.194 88.1636Z" stroke="black" stroke-opacity="0.25" stroke-linecap="round" stroke-linejoin="round"/>
<path d="M336.194 88.1636L335.292 63.1654L281.049 52.2759L336.194 88.1636Z" stroke="black" stroke-opacity="0.25" stroke-linecap="round" stroke-linejoin="round"/>
<path d="M494.21 138.115L444.527 106.336L446.718 135.096L494.21 138.115Z" stroke="black" stroke-opacity="0.25" stroke-linecap="round" stroke-linejoin="round"/>
<path d="M446.719 135.096L444.528 106.336L390.676 81.3706L446.719 135.096Z" stroke="black" stroke-opacity="0.25" stroke-linecap="round" stroke-linejoin="round"/>
<path d="M104.622 398.623L85.1526 366.501L74.5977 406.799L104.622 398.623Z" stroke="black" stroke-opacity="0.25" stroke-linecap="round" stroke-linejoin="round"/>
<path d="M260.775 89.5304L226.552 69.1018L205.695 97.3436L260.775 89.5304Z" stroke="black" stroke-opacity="0.25" stroke-linecap="round" stroke-linejoin="round"/>
<path d="M260.776 89.5304L281.049 52.2759L226.553 69.1018L260.776 89.5304Z" stroke="black" stroke-opacity="0.25" stroke-linecap="round" stroke-linejoin="round"/>
<path d="M120.413 184.399L91.5998 167.573L79.8086 223.465L120.413 184.399Z" stroke="black" stroke-opacity="0.25" stroke-linecap="round" stroke-linejoin="round"/>
<path d="M120.413 184.399L135.615 146.1L91.5996 167.573L120.413 184.399Z" stroke="black" stroke-opacity="0.25" stroke-linecap="round" stroke-linejoin="round"/>
<path d="M85.153 366.501L69.1961 333.457L39.7793 344.592L85.153 366.501Z" stroke="black" stroke-opacity="0.25" stroke-linecap="round" stroke-linejoin="round"/>
<path d="M85.153 366.501L39.7793 344.592L74.598 406.799L85.153 366.501Z" stroke="black" stroke-opacity="0.25" stroke-linecap="round" stroke-linejoin="round"/>
<path d="M205.696 97.3436L226.553 69.1018L159.506 85.8543L205.696 97.3436Z" stroke="black" stroke-opacity="0.25" stroke-linecap="round" stroke-linejoin="round"/>
<path d="M205.696 97.3438L159.506 85.8545L154.635 111.599L205.696 97.3438Z" stroke="black" stroke-opacity="0.25" stroke-linecap="round" stroke-linejoin="round"/>
<path d="M135.614 146.1L154.635 111.599L95.0098 138.303L135.614 146.1Z" stroke="black" stroke-opacity="0.25" stroke-linecap="round" stroke-linejoin="round"/>
<path d="M135.615 146.1L95.0105 138.303L91.5996 167.573L135.615 146.1Z" stroke="black" stroke-opacity="0.25" stroke-linecap="round" stroke-linejoin="round"/>
<path d="M576.078 276.272L560.819 224.676L542.406 265.383L576.078 276.272Z" stroke="black" stroke-opacity="0.25" stroke-linecap="round" stroke-linejoin="round"/>
<path d="M542.406 265.383L560.82 224.676L524.561 198.817L542.406 265.383Z" stroke="black" stroke-opacity="0.25" stroke-linecap="round" stroke-linejoin="round"/>
<path d="M567.555 309.279L576.078 276.272L542.406 265.383L567.555 309.279Z" stroke="black" stroke-opacity="0.25" stroke-linecap="round" stroke-linejoin="round"/>
<path d="M554.928 342.27L567.555 309.279L542.406 265.383L554.928 342.27Z" stroke="black" stroke-opacity="0.25" stroke-linecap="round" stroke-linejoin="round"/>
<path d="M530.031 421.847L565.752 385.498L538.408 374.727L530.031 421.847Z" stroke="black" stroke-opacity="0.25" stroke-linecap="round" stroke-linejoin="round"/>
<path d="M565.752 385.498L554.928 342.27L538.408 374.727L565.752 385.498Z" stroke="black" stroke-opacity="0.25" stroke-linecap="round" stroke-linejoin="round"/>
<path d="M69.1961 333.457L57.001 300.014L39.7793 344.592L69.1961 333.457Z" stroke="black" stroke-opacity="0.25" stroke-linecap="round" stroke-linejoin="round"/>
<path d="M390.675 81.3706L333.959 42.0312L335.293 63.1656L390.675 81.3706Z" stroke="black" stroke-opacity="0.25" stroke-linecap="round" stroke-linejoin="round"/>
<path d="M390.675 81.3706L382.788 38.7305L333.959 42.0312L390.675 81.3706Z" stroke="black" stroke-opacity="0.25" stroke-linecap="round" stroke-linejoin="round"/>
<path d="M444.528 106.336L440.182 80.7625L390.676 81.3704L444.528 106.336Z" stroke="black" stroke-opacity="0.25" stroke-linecap="round" stroke-linejoin="round"/>
<path d="M440.182 80.7626L382.789 38.7305L390.676 81.3706L440.182 80.7626Z" stroke="black" stroke-opacity="0.25" stroke-linecap="round" stroke-linejoin="round"/>
<path d="M524.56 198.817L537.286 175.663L494.209 138.115L524.56 198.817Z" stroke="#E25319" stroke-linecap="round" stroke-linejoin="round"/>
<path d="M560.82 224.676L537.286 175.663L524.561 198.817L560.82 224.676Z" stroke="black" stroke-opacity="0.25" stroke-linecap="round" stroke-linejoin="round"/>
<path d="M79.8075 223.465L44.6094 234.044L48.7628 266.7L79.8075 223.465Z" stroke="black" stroke-opacity="0.25" stroke-linecap="round" stroke-linejoin="round"/>
<path d="M79.8075 223.465L91.5987 167.573L44.6094 202.555L79.8075 223.465Z" stroke="black" stroke-opacity="0.25" stroke-linecap="round" stroke-linejoin="round"/>
<path d="M79.8075 223.465L44.6094 202.555V234.044L79.8075 223.465Z" stroke="black" stroke-opacity="0.25" stroke-linecap="round" stroke-linejoin="round"/>
<path d="M494.209 138.115L440.182 80.7625L444.527 106.336L494.209 138.115Z" stroke="black" stroke-opacity="0.25" stroke-linecap="round" stroke-linejoin="round"/>
<path d="M335.292 63.1656L333.958 42.0312L281.049 52.2761L335.292 63.1656Z" stroke="black" stroke-opacity="0.25" stroke-linecap="round" stroke-linejoin="round"/>
<path d="M154.634 111.599L159.506 85.8545L114.744 104.223L154.634 111.599Z" stroke="black" stroke-opacity="0.25" stroke-linecap="round" stroke-linejoin="round"/>
<path d="M154.635 111.599L114.745 104.223L95.0098 138.303L154.635 111.599Z" stroke="black" stroke-opacity="0.25" stroke-linecap="round" stroke-linejoin="round"/>
<path d="M542.944 455.201L565.752 385.498L530.031 421.847L542.944 455.201Z" stroke="black" stroke-opacity="0.25" stroke-linecap="round" stroke-linejoin="round"/>
<path d="M565.752 385.498L567.555 309.279L554.928 342.27L565.752 385.498Z" stroke="black" stroke-opacity="0.25" stroke-linecap="round" stroke-linejoin="round"/>
<path d="M57.0007 300.014L21.8066 280.095L39.779 344.592L57.0007 300.014Z" stroke="black" stroke-opacity="0.25" stroke-linecap="round" stroke-linejoin="round"/>
<path d="M57.0007 300.014L48.7632 266.7L21.8066 280.095L57.0007 300.014Z" stroke="black" stroke-opacity="0.25" stroke-linecap="round" stroke-linejoin="round"/>
<path d="M494.209 138.115L482.499 86.0705L440.182 80.7625L494.209 138.115Z" stroke="black" stroke-opacity="0.25" stroke-linecap="round" stroke-linejoin="round"/>
<path d="M537.286 175.663L533.667 146.263L494.209 138.115L537.286 175.663Z" stroke="black" stroke-opacity="0.25" stroke-linecap="round" stroke-linejoin="round"/>
<path d="M533.667 146.263L482.5 86.0706L494.21 138.115L533.667 146.263Z" stroke="black" stroke-opacity="0.25" stroke-linecap="round" stroke-linejoin="round"/>
<path d="M226.553 69.1018L230.507 47.6777L185.949 49.4729L226.553 69.1018Z" stroke="black" stroke-opacity="0.25" stroke-linecap="round" stroke-linejoin="round"/>
<path d="M226.553 69.102L185.948 49.4731L159.506 85.8545L226.553 69.102Z" stroke="black" stroke-opacity="0.25" stroke-linecap="round" stroke-linejoin="round"/>
<path d="M281.049 52.2759L230.506 47.6777L226.553 69.1018L281.049 52.2759Z" stroke="#E25319" stroke-linecap="round" stroke-linejoin="round"/>
<path d="M74.5983 406.799L39.7796 344.592L33.9941 389.912L74.5983 406.799Z" stroke="#E25319" stroke-linecap="round" stroke-linejoin="round"/>
<path d="M74.5983 406.799L33.9941 389.912L52.3052 419.182L74.5983 406.799Z" stroke="black" stroke-opacity="0.25" stroke-linecap="round" stroke-linejoin="round"/>
<path d="M281.049 52.2759L291.959 18.4446L235.676 30.3663L281.049 52.2759Z" stroke="black" stroke-opacity="0.25" stroke-linecap="round" stroke-linejoin="round"/>
<path d="M281.049 52.2761L235.675 30.3665L230.506 47.6779L281.049 52.2761Z" stroke="black" stroke-opacity="0.25" stroke-linecap="round" stroke-linejoin="round"/>
<path d="M333.958 42.0311L291.959 18.4446L281.049 52.2759L333.958 42.0311Z" stroke="black" stroke-opacity="0.25" stroke-linecap="round" stroke-linejoin="round"/>
<path d="M91.5996 167.573L95.0105 138.303L48.7637 172.73L91.5996 167.573Z" stroke="black" stroke-opacity="0.25" stroke-linecap="round" stroke-linejoin="round"/>
<path d="M91.5987 167.573L48.7628 172.73L44.6094 202.555L91.5987 167.573Z" stroke="black" stroke-opacity="0.25" stroke-linecap="round" stroke-linejoin="round"/>
<path d="M565.752 385.498L592.9 322.617L567.555 309.279L565.752 385.498Z" stroke="black" stroke-opacity="0.25" stroke-linecap="round" stroke-linejoin="round"/>
<path d="M592.9 322.617L576.078 276.272L567.555 309.279L592.9 322.617Z" stroke="black" stroke-opacity="0.25" stroke-linecap="round" stroke-linejoin="round"/>
<path d="M48.7632 266.7L44.6098 234.044L21.8066 280.095L48.7632 266.7Z" stroke="black" stroke-opacity="0.25" stroke-linecap="round" stroke-linejoin="round"/>
<path d="M440.182 80.7626L433.752 58.7714L382.789 38.7305L440.182 80.7626Z" stroke="black" stroke-opacity="0.25" stroke-linecap="round" stroke-linejoin="round"/>
<path d="M482.5 86.0708L433.752 58.7715L440.182 80.7627L482.5 86.0708Z" stroke="black" stroke-opacity="0.25" stroke-linecap="round" stroke-linejoin="round"/>
<path d="M569.556 187.467L533.668 146.263L537.287 175.663L569.556 187.467Z" stroke="black" stroke-opacity="0.25" stroke-linecap="round" stroke-linejoin="round"/>
<path d="M560.819 224.676L569.554 187.467L537.285 175.663L560.819 224.676Z" stroke="black" stroke-opacity="0.25" stroke-linecap="round" stroke-linejoin="round"/>
<path d="M576.079 276.272L589.119 253.665L560.82 224.676L576.079 276.272Z" stroke="black" stroke-opacity="0.25" stroke-linecap="round" stroke-linejoin="round"/>
<path d="M589.119 253.665L569.556 187.467L560.82 224.676L589.119 253.665Z" stroke="black" stroke-opacity="0.25" stroke-linecap="round" stroke-linejoin="round"/>
<path d="M159.507 85.8545L185.95 49.4731L137.916 74.9201L159.507 85.8545Z" stroke="black" stroke-opacity="0.25" stroke-linecap="round" stroke-linejoin="round"/>
<path d="M159.506 85.8543L137.914 74.9199L114.744 104.222L159.506 85.8543Z" stroke="black" stroke-opacity="0.25" stroke-linecap="round" stroke-linejoin="round"/>
<path d="M382.788 38.7303L332.217 25.095L333.959 42.0311L382.788 38.7303Z" stroke="black" stroke-opacity="0.25" stroke-linecap="round" stroke-linejoin="round"/>
<path d="M333.959 42.0311L332.216 25.095L291.959 18.4446L333.959 42.0311Z" stroke="black" stroke-opacity="0.25" stroke-linecap="round" stroke-linejoin="round"/>
<path d="M583.916 399.892L592.9 322.617L565.752 385.498L583.916 399.892Z" stroke="black" stroke-opacity="0.25" stroke-linecap="round" stroke-linejoin="round"/>
<path d="M565.459 428.497L583.917 399.892L565.753 385.498L565.459 428.497Z" stroke="black" stroke-opacity="0.25" stroke-linecap="round" stroke-linejoin="round"/>
<path d="M542.945 455.201L565.459 428.497L565.753 385.498L542.945 455.201Z" stroke="black" stroke-opacity="0.25" stroke-linecap="round" stroke-linejoin="round"/>
<path d="M592.9 322.617L589.118 253.665L576.078 276.272L592.9 322.617Z" stroke="#E25319" stroke-linecap="round" stroke-linejoin="round"/>
<path d="M39.7799 344.592L21.8075 280.095L10.5508 327.994L39.7799 344.592Z" stroke="black" stroke-opacity="0.25" stroke-linecap="round" stroke-linejoin="round"/>
<path d="M39.7797 344.592L20.0039 359.357L33.9942 389.912L39.7797 344.592Z" stroke="black" stroke-opacity="0.25" stroke-linecap="round" stroke-linejoin="round"/>
<path d="M39.7799 344.592L10.5508 327.994L20.0041 359.357L39.7799 344.592Z" stroke="black" stroke-opacity="0.25" stroke-linecap="round" stroke-linejoin="round"/>
<path d="M230.507 47.6779L235.676 30.3665L185.949 49.4731L230.507 47.6779Z" stroke="black" stroke-opacity="0.25" stroke-linecap="round" stroke-linejoin="round"/>
<path d="M95.0102 138.303L114.745 104.223L77.5723 127.564L95.0102 138.303Z" stroke="black" stroke-opacity="0.25" stroke-linecap="round" stroke-linejoin="round"/>
<path d="M95.0105 138.303L77.5725 127.564L48.7637 172.73L95.0105 138.303Z" stroke="black" stroke-opacity="0.25" stroke-linecap="round" stroke-linejoin="round"/>
<path d="M44.609 234.044V202.555L14.1641 243.183L44.609 234.044Z" stroke="#E25319" stroke-linecap="round" stroke-linejoin="round"/>
<path d="M44.609 234.044L14.1641 243.183L21.8059 280.095L44.609 234.044Z" stroke="black" stroke-opacity="0.25" stroke-linecap="round" stroke-linejoin="round"/>
<path d="M533.667 146.263L526.487 119.416L482.5 86.0706L533.667 146.263Z" stroke="black" stroke-opacity="0.25" stroke-linecap="round" stroke-linejoin="round"/>
<path d="M569.555 187.467L526.486 119.417L533.667 146.263L569.555 187.467Z" stroke="black" stroke-opacity="0.25" stroke-linecap="round" stroke-linejoin="round"/>
<path d="M52.3053 419.182L33.9943 389.912L23.0762 405.49L52.3053 419.182Z" stroke="black" stroke-opacity="0.25" stroke-linecap="round" stroke-linejoin="round"/>
<path d="M433.752 58.7714L425.335 40.7174L382.789 38.7305L433.752 58.7714Z" stroke="#E25319" stroke-linecap="round" stroke-linejoin="round"/>
<path d="M482.499 86.0706L425.334 40.7173L433.751 58.7713L482.499 86.0706Z" stroke="black" stroke-opacity="0.25" stroke-linecap="round" stroke-linejoin="round"/>
<path d="M382.789 38.7303L329.672 8.7627L332.218 25.0949L382.789 38.7303Z" stroke="black" stroke-opacity="0.25" stroke-linecap="round" stroke-linejoin="round"/>
<path d="M382.789 38.7303L387.853 20.0806L329.672 8.7627L382.789 38.7303Z" stroke="black" stroke-opacity="0.25" stroke-linecap="round" stroke-linejoin="round"/>
<path d="M425.335 40.7175L387.852 20.0808L382.789 38.7305L425.335 40.7175Z" stroke="black" stroke-opacity="0.25" stroke-linecap="round" stroke-linejoin="round"/>
<path d="M114.745 104.222L137.915 74.9199L88.7676 103.3L114.745 104.222Z" stroke="#E25319" stroke-linecap="round" stroke-linejoin="round"/>
<path d="M114.745 104.223L88.7678 103.301L77.5723 127.564L114.745 104.223Z" stroke="black" stroke-opacity="0.25" stroke-linecap="round" stroke-linejoin="round"/>
<path d="M482.499 86.0706L465.391 50.8194L425.334 40.7173L482.499 86.0706Z" stroke="black" stroke-opacity="0.25" stroke-linecap="round" stroke-linejoin="round"/>
<path d="M526.487 119.416L515.862 95.5484L482.5 86.0706L526.487 119.416Z" stroke="black" stroke-opacity="0.25" stroke-linecap="round" stroke-linejoin="round"/>
<path d="M515.862 95.5484L465.393 50.8193L482.5 86.0705L515.862 95.5484Z" stroke="black" stroke-opacity="0.25" stroke-linecap="round" stroke-linejoin="round"/>
<path d="M44.6106 202.555L48.7641 172.73L24.0801 202.216L44.6106 202.555Z" stroke="black" stroke-opacity="0.25" stroke-linecap="round" stroke-linejoin="round"/>
<path d="M44.609 202.555L24.0785 202.216L14.1641 243.183L44.609 202.555Z" stroke="black" stroke-opacity="0.25" stroke-linecap="round" stroke-linejoin="round"/>
<path d="M332.216 25.0949L329.67 8.7627L291.959 18.4445L332.216 25.0949Z" stroke="black" stroke-opacity="0.25" stroke-linecap="round" stroke-linejoin="round"/>
<path d="M592.901 322.617L606.345 285.419L589.119 253.665L592.901 322.617Z" stroke="black" stroke-opacity="0.25" stroke-linecap="round" stroke-linejoin="round"/>
<path d="M598.029 369.847L607.552 338.827L592.9 322.617L598.029 369.847Z" stroke="black" stroke-opacity="0.25" stroke-linecap="round" stroke-linejoin="round"/>
<path d="M583.916 399.892L598.029 369.847L592.9 322.617L583.916 399.892Z" stroke="black" stroke-opacity="0.25" stroke-linecap="round" stroke-linejoin="round"/>
<path d="M607.552 338.827L606.344 285.419L592.9 322.617L607.552 338.827Z" stroke="black" stroke-opacity="0.25" stroke-linecap="round" stroke-linejoin="round"/>
<path d="M33.9942 389.912L20.0039 359.357L23.0761 405.49L33.9942 389.912Z" stroke="black" stroke-opacity="0.25" stroke-linecap="round" stroke-linejoin="round"/>
<path d="M589.118 253.665L595.626 232.632L569.555 187.467L589.118 253.665Z" stroke="black" stroke-opacity="0.25" stroke-linecap="round" stroke-linejoin="round"/>
<path d="M606.345 285.419L595.627 232.632L589.119 253.665L606.345 285.419Z" stroke="black" stroke-opacity="0.25" stroke-linecap="round" stroke-linejoin="round"/>
<path d="M185.949 49.4731L214.089 23.2346L171.873 34.8708L185.949 49.4731Z" stroke="black" stroke-opacity="0.25" stroke-linecap="round" stroke-linejoin="round"/>
<path d="M185.948 49.4729L171.872 34.8706L149.277 55.7847L185.948 49.4729Z" stroke="black" stroke-opacity="0.25" stroke-linecap="round" stroke-linejoin="round"/>
<path d="M235.676 30.3665L214.089 23.2346L185.949 49.4731L235.676 30.3665Z" stroke="black" stroke-opacity="0.25" stroke-linecap="round" stroke-linejoin="round"/>
<path d="M185.95 49.4731L149.279 55.7849L137.916 74.9201L185.95 49.4731Z" stroke="black" stroke-opacity="0.25" stroke-linecap="round" stroke-linejoin="round"/>
<path d="M235.675 30.3663L246.459 13.1243L214.088 23.2345L235.675 30.3663Z" stroke="black" stroke-opacity="0.25" stroke-linecap="round" stroke-linejoin="round"/>
<path d="M291.959 18.4446L246.459 13.1243L235.676 30.3663L291.959 18.4446Z" stroke="black" stroke-opacity="0.25" stroke-linecap="round" stroke-linejoin="round"/>
<path d="M21.8073 280.095L14.1655 243.183L5.78516 296.317L21.8073 280.095Z" stroke="black" stroke-opacity="0.25" stroke-linecap="round" stroke-linejoin="round"/>
<path d="M21.8073 280.095L5.78516 296.317L10.5506 327.994L21.8073 280.095Z" stroke="black" stroke-opacity="0.25" stroke-linecap="round" stroke-linejoin="round"/>
<path d="M569.555 187.467L553.121 132.322L526.486 119.417L569.555 187.467Z" stroke="black" stroke-opacity="0.25" stroke-linecap="round" stroke-linejoin="round"/>
<path d="M595.626 232.632L591.097 202.334L569.555 187.467L595.626 232.632Z" stroke="black" stroke-opacity="0.25" stroke-linecap="round" stroke-linejoin="round"/>
<path d="M591.098 202.334L553.121 132.322L569.555 187.467L591.098 202.334Z" stroke="black" stroke-opacity="0.25" stroke-linecap="round" stroke-linejoin="round"/>
<path d="M137.916 74.9201L149.278 55.7849L127.148 63.3982L137.916 74.9201Z" stroke="black" stroke-opacity="0.25" stroke-linecap="round" stroke-linejoin="round"/>
<path d="M137.915 74.9201L127.148 63.3982L88.7676 103.301L137.915 74.9201Z" stroke="black" stroke-opacity="0.25" stroke-linecap="round" stroke-linejoin="round"/>
<path d="M553.12 132.322L515.861 95.5486L526.486 119.417L553.12 132.322Z" stroke="black" stroke-opacity="0.25" stroke-linecap="round" stroke-linejoin="round"/>
<path d="M291.96 18.4446L329.672 8.76279L275.049 5.76807L291.96 18.4446Z" stroke="black" stroke-opacity="0.25" stroke-linecap="round" stroke-linejoin="round"/>
<path d="M291.959 18.4446L275.048 5.76807L246.459 13.1243L291.959 18.4446Z" stroke="black" stroke-opacity="0.25" stroke-linecap="round" stroke-linejoin="round"/>
<path d="M575.223 443.352L598.03 369.847L583.917 399.892L575.223 443.352Z" stroke="black" stroke-opacity="0.25" stroke-linecap="round" stroke-linejoin="round"/>
<path d="M425.335 40.7175L409.822 22.3982L387.852 20.0808L425.335 40.7175Z" stroke="black" stroke-opacity="0.25" stroke-linecap="round" stroke-linejoin="round"/>
<path d="M465.392 50.8195L409.822 22.3982L425.334 40.7174L465.392 50.8195Z" stroke="black" stroke-opacity="0.25" stroke-linecap="round" stroke-linejoin="round"/>
<path d="M20.0026 359.357L10.5493 327.994L3.98047 345.077L20.0026 359.357Z" stroke="black" stroke-opacity="0.25" stroke-linecap="round" stroke-linejoin="round"/>
<path d="M20.0026 359.357L3.98047 345.077L23.0749 405.49L20.0026 359.357Z" stroke="black" stroke-opacity="0.25" stroke-linecap="round" stroke-linejoin="round"/>
<path d="M48.7631 172.73L77.572 127.564L40.3828 163.876L48.7631 172.73Z" stroke="black" stroke-opacity="0.25" stroke-linecap="round" stroke-linejoin="round"/>
<path d="M48.7641 172.73L40.3838 163.876L24.0801 202.216L48.7641 172.73Z" stroke="black" stroke-opacity="0.25" stroke-linecap="round" stroke-linejoin="round"/>
<path d="M77.572 127.564L72.7331 113.195L40.3828 163.876L77.572 127.564Z" stroke="black" stroke-opacity="0.25" stroke-linecap="round" stroke-linejoin="round"/>
<path d="M77.5713 127.564L88.7668 103.301L72.7324 113.195L77.5713 127.564Z" stroke="black" stroke-opacity="0.25" stroke-linecap="round" stroke-linejoin="round"/>
<path d="M603.37 386.563L607.552 338.827L598.029 369.847L603.37 386.563Z" stroke="black" stroke-opacity="0.25" stroke-linecap="round" stroke-linejoin="round"/>
<path d="M575.223 443.352L603.371 386.563L598.03 369.847L575.223 443.352Z" stroke="black" stroke-opacity="0.25" stroke-linecap="round" stroke-linejoin="round"/>
<path d="M515.862 95.5484L501.953 75.0341L465.393 50.8193L515.862 95.5484Z" stroke="black" stroke-opacity="0.25" stroke-linecap="round" stroke-linejoin="round"/>
<path d="M553.12 132.321L501.953 75.0342L515.862 95.5484L553.12 132.321Z" stroke="black" stroke-opacity="0.25" stroke-linecap="round" stroke-linejoin="round"/>
<path d="M606.343 285.419L608.159 249.368L595.625 232.632L606.343 285.419Z" stroke="black" stroke-opacity="0.25" stroke-linecap="round" stroke-linejoin="round"/>
<path d="M608.16 249.369L591.098 202.334L595.626 232.632L608.16 249.369Z" stroke="black" stroke-opacity="0.25" stroke-linecap="round" stroke-linejoin="round"/>
<path d="M149.278 55.7847L171.873 34.8706L127.148 63.398L149.278 55.7847Z" stroke="black" stroke-opacity="0.25" stroke-linecap="round" stroke-linejoin="round"/>
<path d="M10.5493 327.994L5.78382 296.317L3.98047 345.077L10.5493 327.994Z" stroke="black" stroke-opacity="0.25" stroke-linecap="round" stroke-linejoin="round"/>
<path d="M387.852 20.0807L409.823 22.3981L353.629 7.19604L387.852 20.0807Z" stroke="black" stroke-opacity="0.25" stroke-linecap="round" stroke-linejoin="round"/>
<path d="M387.853 20.0807L353.63 7.19604L329.672 8.76276L387.853 20.0807Z" stroke="black" stroke-opacity="0.25" stroke-linecap="round" stroke-linejoin="round"/>
<path d="M607.551 338.827L614.169 318.386L606.344 285.419L607.551 338.827Z" stroke="black" stroke-opacity="0.25" stroke-linecap="round" stroke-linejoin="round"/>
<path d="M614.169 318.386L608.159 249.369L606.344 285.419L614.169 318.386Z" stroke="black" stroke-opacity="0.25" stroke-linecap="round" stroke-linejoin="round"/>
<path d="M574.141 459.631L603.37 386.563L575.222 443.352L574.141 459.631Z" stroke="black" stroke-opacity="0.25" stroke-linecap="round" stroke-linejoin="round"/>
<path d="M214.089 23.2345L246.46 13.1243L201.078 21.1455L214.089 23.2345Z" stroke="black" stroke-opacity="0.25" stroke-linecap="round" stroke-linejoin="round"/>
<path d="M214.089 23.2345L201.078 21.1455L171.873 34.8706L214.089 23.2345Z" stroke="black" stroke-opacity="0.25" stroke-linecap="round" stroke-linejoin="round"/>
<path d="M88.7668 103.301L127.147 63.3982L72.7324 113.195L88.7668 103.301Z" stroke="black" stroke-opacity="0.25" stroke-linecap="round" stroke-linejoin="round"/>
<path d="M353.629 7.19605L324.816 1.79004L329.672 8.76276L353.629 7.19605Z" stroke="black" stroke-opacity="0.25" stroke-linecap="round" stroke-linejoin="round"/>
<path d="M329.672 8.76276L324.817 1.79004L275.049 5.76805L329.672 8.76276Z" stroke="black" stroke-opacity="0.25" stroke-linecap="round" stroke-linejoin="round"/>
<path d="M14.1657 243.183L24.0801 202.216L10.5508 234.024L14.1657 243.183Z" stroke="black" stroke-opacity="0.25" stroke-linecap="round" stroke-linejoin="round"/>
<path d="M5.7848 296.317L14.1651 243.183L2.16992 286.909L5.7848 296.317Z" stroke="black" stroke-opacity="0.25" stroke-linecap="round" stroke-linejoin="round"/>
<path d="M14.1651 243.183L10.5502 234.024L2.16992 286.909L14.1651 243.183Z" stroke="black" stroke-opacity="0.25" stroke-linecap="round" stroke-linejoin="round"/>
<path d="M23.076 405.49L14.0918 393.103L23.435 422.397L23.076 405.49Z" stroke="black" stroke-opacity="0.25" stroke-linecap="round" stroke-linejoin="round"/>
<path d="M23.0749 405.49L3.98047 345.077L14.0907 393.103L23.0749 405.49Z" stroke="black" stroke-opacity="0.25" stroke-linecap="round" stroke-linejoin="round"/>
<path d="M603.369 386.563L614.169 318.386L607.551 338.827L603.369 386.563Z" stroke="black" stroke-opacity="0.25" stroke-linecap="round" stroke-linejoin="round"/>
<path d="M246.46 13.1243L257.611 5.45801L201.078 21.1456L246.46 13.1243Z" stroke="black" stroke-opacity="0.25" stroke-linecap="round" stroke-linejoin="round"/>
<path d="M275.048 5.76809L257.61 5.45801L246.459 13.1243L275.048 5.76809Z" stroke="black" stroke-opacity="0.25" stroke-linecap="round" stroke-linejoin="round"/>
<path d="M553.12 132.321L524.638 92.0519L501.953 75.0342L553.12 132.321Z" stroke="black" stroke-opacity="0.25" stroke-linecap="round" stroke-linejoin="round"/>
<path d="M582.089 173.705L568.756 147.197L553.121 132.322L582.089 173.705Z" stroke="black" stroke-opacity="0.25" stroke-linecap="round" stroke-linejoin="round"/>
<path d="M591.098 202.334L582.089 173.705L553.121 132.322L591.098 202.334Z" stroke="black" stroke-opacity="0.25" stroke-linecap="round" stroke-linejoin="round"/>
<path d="M568.756 147.197L524.639 92.052L553.121 132.322L568.756 147.197Z" stroke="black" stroke-opacity="0.25" stroke-linecap="round" stroke-linejoin="round"/>
<path d="M465.392 50.8194L475.653 52.1086L425.779 25.2214L465.392 50.8194Z" stroke="black" stroke-opacity="0.25" stroke-linecap="round" stroke-linejoin="round"/>
<path d="M501.953 75.0341L475.654 52.1086L465.393 50.8193L501.953 75.0341Z" stroke="black" stroke-opacity="0.25" stroke-linecap="round" stroke-linejoin="round"/>
<path d="M465.392 50.8195L425.779 25.2216L409.822 22.3982L465.392 50.8195Z" stroke="black" stroke-opacity="0.25" stroke-linecap="round" stroke-linejoin="round"/>
<path d="M24.0801 202.216L20.0041 204.387L10.5508 234.024L24.0801 202.216Z" stroke="black" stroke-opacity="0.25" stroke-linecap="round" stroke-linejoin="round"/>
<path d="M24.0798 202.216L40.3835 163.876L20.0039 204.387L24.0798 202.216Z" stroke="black" stroke-opacity="0.25" stroke-linecap="round" stroke-linejoin="round"/>
<path d="M5.7848 296.317L2.16992 286.909L3.98144 345.077L5.7848 296.317Z" stroke="black" stroke-opacity="0.25" stroke-linecap="round" stroke-linejoin="round"/>
<path d="M608.159 249.369L582.088 173.705L591.097 202.334L608.159 249.369Z" stroke="black" stroke-opacity="0.25" stroke-linecap="round" stroke-linejoin="round"/>
<path d="M524.639 92.0518L475.654 52.1086L501.954 75.0342L524.639 92.0518Z" stroke="black" stroke-opacity="0.25" stroke-linecap="round" stroke-linejoin="round"/>
<path d="M409.823 22.3981L389.643 12.6632L353.629 7.19604L409.823 22.3981Z" stroke="black" stroke-opacity="0.25" stroke-linecap="round" stroke-linejoin="round"/>
<path d="M425.779 25.2216L389.643 12.6633L409.822 22.3982L425.779 25.2216Z" stroke="black" stroke-opacity="0.25" stroke-linecap="round" stroke-linejoin="round"/>
<path d="M275.047 5.76805L324.815 1.79004L257.609 5.45796L275.047 5.76805Z" stroke="black" stroke-opacity="0.25" stroke-linecap="round" stroke-linejoin="round"/>
<path d="M40.3828 163.876L72.7331 113.195L41.5905 156.765L40.3828 163.876Z" stroke="black" stroke-opacity="0.25" stroke-linecap="round" stroke-linejoin="round"/>
<path d="M40.3835 163.876L41.5912 156.765L20.0039 204.387L40.3835 163.876Z" stroke="black" stroke-opacity="0.25" stroke-linecap="round" stroke-linejoin="round"/>
<path d="M353.629 7.19605L389.644 12.6632L324.816 1.79004L353.629 7.19605Z" stroke="black" stroke-opacity="0.25" stroke-linecap="round" stroke-linejoin="round"/>
<path d="M127.148 63.398L171.873 34.8706L142.11 51.1661L127.148 63.398Z" stroke="black" stroke-opacity="0.25" stroke-linecap="round" stroke-linejoin="round"/>
<path d="M127.148 63.3981L142.109 51.1663L116.385 70.942L127.148 63.3981Z" stroke="black" stroke-opacity="0.25" stroke-linecap="round" stroke-linejoin="round"/>
<path d="M127.147 63.3982L116.384 70.9421L72.7324 113.195L127.147 63.3982Z" stroke="black" stroke-opacity="0.25" stroke-linecap="round" stroke-linejoin="round"/>
<path d="M608.159 249.369L589.289 190.335L582.088 173.705L608.159 249.369Z" stroke="black" stroke-opacity="0.25" stroke-linecap="round" stroke-linejoin="round"/>
<path d="M589.29 190.335L568.756 147.197L582.089 173.705L589.29 190.335Z" stroke="black" stroke-opacity="0.25" stroke-linecap="round" stroke-linejoin="round"/>
<path d="M201.078 21.1455L197.463 23.1529L171.873 34.8706L201.078 21.1455Z" stroke="black" stroke-opacity="0.25" stroke-linecap="round" stroke-linejoin="round"/>
<path d="M171.873 34.8708L197.463 23.1531L142.109 51.1664L171.873 34.8708Z" stroke="black" stroke-opacity="0.25" stroke-linecap="round" stroke-linejoin="round"/>
<path d="M596.936 403.678L609.943 351.568L603.37 386.563L596.936 403.678Z" stroke="black" stroke-opacity="0.25" stroke-linecap="round" stroke-linejoin="round"/>
<path d="M603.369 386.563L609.942 351.569L614.169 318.386L603.369 386.563Z" stroke="black" stroke-opacity="0.25" stroke-linecap="round" stroke-linejoin="round"/>
<path d="M587.744 432.638L596.936 403.678L603.371 386.563L587.744 432.638Z" stroke="black" stroke-opacity="0.25" stroke-linecap="round" stroke-linejoin="round"/>
<path d="M574.141 459.631L587.743 432.638L603.37 386.563L574.141 459.631Z" stroke="black" stroke-opacity="0.25" stroke-linecap="round" stroke-linejoin="round"/>
<path d="M72.7324 113.194L116.384 70.9419L91.1618 94.2183L72.7324 113.194Z" stroke="black" stroke-opacity="0.25" stroke-linecap="round" stroke-linejoin="round"/>
<path d="M72.734 113.195L91.1634 94.2185L59.3965 132.158L72.734 113.195Z" stroke="black" stroke-opacity="0.25" stroke-linecap="round" stroke-linejoin="round"/>
<path d="M72.7325 113.195L59.395 132.158L41.5898 156.765L72.7325 113.195Z" stroke="black" stroke-opacity="0.25" stroke-linecap="round" stroke-linejoin="round"/>
<path d="M614.17 318.386L613.566 298.002L608.16 249.369L614.17 318.386Z" stroke="black" stroke-opacity="0.25" stroke-linecap="round" stroke-linejoin="round"/>
<path d="M609.943 351.569L613.566 298.002L614.17 318.386L609.943 351.569Z" stroke="black" stroke-opacity="0.25" stroke-linecap="round" stroke-linejoin="round"/>
<path d="M201.078 21.1456L257.61 5.45801L197.463 23.153L201.078 21.1456Z" stroke="black" stroke-opacity="0.25" stroke-linecap="round" stroke-linejoin="round"/>
<path d="M613.566 298.002L608.744 266.672L608.16 249.369L613.566 298.002Z" stroke="black" stroke-opacity="0.25" stroke-linecap="round" stroke-linejoin="round"/>
<path d="M608.743 266.672L589.289 190.335L608.159 249.369L608.743 266.672Z" stroke="black" stroke-opacity="0.25" stroke-linecap="round" stroke-linejoin="round"/>
<path d="M3.98144 345.077L2.16992 286.909L5.18912 320.136L3.98144 345.077Z" stroke="black" stroke-opacity="0.25" stroke-linecap="round" stroke-linejoin="round"/>
<path d="M3.98047 345.077L9.38647 362.47L14.0907 393.103L3.98047 345.077Z" stroke="black" stroke-opacity="0.25" stroke-linecap="round" stroke-linejoin="round"/>
<path d="M3.98047 345.077L5.18815 320.136L9.38647 362.47L3.98047 345.077Z" stroke="black" stroke-opacity="0.25" stroke-linecap="round" stroke-linejoin="round"/>
<path d="M425.779 25.2216L442.98 36.5558L389.643 12.6633L425.779 25.2216Z" stroke="black" stroke-opacity="0.25" stroke-linecap="round" stroke-linejoin="round"/>
<path d="M475.653 52.1086L442.981 36.5557L425.779 25.2214L475.653 52.1086Z" stroke="black" stroke-opacity="0.25" stroke-linecap="round" stroke-linejoin="round"/>
<path d="M10.5502 234.024L15.9806 236.011L8.17969 277.57L10.5502 234.024Z" stroke="black" stroke-opacity="0.25" stroke-linecap="round" stroke-linejoin="round"/>
<path d="M10.5508 234.024L20.0041 204.387L15.9813 236.011L10.5508 234.024Z" stroke="black" stroke-opacity="0.25" stroke-linecap="round" stroke-linejoin="round"/>
<path d="M2.16992 286.909L10.5502 234.024L8.17977 277.57L2.16992 286.909Z" stroke="black" stroke-opacity="0.25" stroke-linecap="round" stroke-linejoin="round"/>
<path d="M324.816 1.79004L357.876 8.25684L303.229 3.25884L324.816 1.79004Z" stroke="black" stroke-opacity="0.25" stroke-linecap="round" stroke-linejoin="round"/>
<path d="M389.644 12.6632L357.877 8.25684L324.816 1.79004L389.644 12.6632Z" stroke="black" stroke-opacity="0.25" stroke-linecap="round" stroke-linejoin="round"/>
<path d="M324.815 1.79004L303.228 3.25884L257.609 5.45796L324.815 1.79004Z" stroke="black" stroke-opacity="0.25" stroke-linecap="round" stroke-linejoin="round"/>
<path d="M23.435 422.397L14.0918 393.103L28.8369 409.288L23.435 422.397Z" stroke="black" stroke-opacity="0.25" stroke-linecap="round" stroke-linejoin="round"/>
<path d="M568.756 147.197L551.314 123.231L524.639 92.052L568.756 147.197Z" stroke="black" stroke-opacity="0.25" stroke-linecap="round" stroke-linejoin="round"/>
<path d="M589.289 190.335L551.312 123.231L568.755 147.197L589.289 190.335Z" stroke="black" stroke-opacity="0.25" stroke-linecap="round" stroke-linejoin="round"/>
</svg>
