<svg width="423" height="163" viewBox="0 0 423 163" fill="none" xmlns="http://www.w3.org/2000/svg">
<path d="M219.277 436.777C339.399 436.777 436.777 339.399 436.777 219.277C436.777 99.155 339.399 1.77698 219.277 1.77698C99.1554 1.77698 1.77734 99.155 1.77734 219.277C1.77734 339.399 99.1554 436.777 219.277 436.777Z" stroke="white" stroke-width="3.55392" stroke-linecap="round" stroke-linejoin="round"/>
<path d="M272.08 198.91L238.321 155.048L237.373 181.647L272.08 198.91Z" stroke="white" stroke-width="0.710784" stroke-linecap="round" stroke-linejoin="round"/>
<path d="M237.373 181.647L238.321 155.048L199.766 168.118L237.373 181.647Z" stroke="white" stroke-width="0.710784" stroke-linecap="round" stroke-linejoin="round"/>
<path d="M238.321 155.048L212.105 128.971L199.766 168.118L238.321 155.048Z" stroke="white" stroke-width="0.710784" stroke-linecap="round" stroke-linejoin="round"/>
<path d="M199.767 168.118L212.106 128.971L159.135 133.817L199.767 168.118Z" stroke="white" stroke-width="0.710784" stroke-linecap="round" stroke-linejoin="round"/>
<path d="M199.767 168.118L161.031 159.267L163.841 185.66L199.767 168.118Z" stroke="white" stroke-width="0.710784" stroke-linecap="round" stroke-linejoin="round"/>
<path d="M199.767 168.118L159.135 133.817L161.031 159.267L199.767 168.118Z" stroke="white" stroke-width="0.710784" stroke-linecap="round" stroke-linejoin="round"/>
<path d="M308.304 193.545L288.999 161.59L272.08 198.91L308.304 193.545Z" stroke="white" stroke-width="0.710784" stroke-linecap="round" stroke-linejoin="round"/>
<path d="M272.081 198.91L289 161.59L238.322 155.048L272.081 198.91Z" stroke="white" stroke-width="0.710784" stroke-linecap="round" stroke-linejoin="round"/>
<path d="M163.841 185.66L161.031 159.267L123.047 154.752L163.841 185.66Z" stroke="white" stroke-width="0.710784" stroke-linecap="round" stroke-linejoin="round"/>
<path d="M163.841 185.66L123.047 154.752L132.17 206.549L163.841 185.66Z" stroke="white" stroke-width="0.710784" stroke-linecap="round" stroke-linejoin="round"/>
<path d="M289 161.59L252.634 118.108L238.322 155.048L289 161.59Z" stroke="white" stroke-width="0.710784" stroke-linecap="round" stroke-linejoin="round"/>
<path d="M238.321 155.048L252.633 118.108L212.105 128.971L238.321 155.048Z" stroke="white" stroke-width="0.710784" stroke-linecap="round" stroke-linejoin="round"/>
<path d="M161.031 159.267L159.134 133.817L123.047 154.752L161.031 159.267Z" stroke="white" stroke-width="0.710784" stroke-linecap="round" stroke-linejoin="round"/>
<path d="M132.17 206.549L123.047 154.752L91.8574 179.619L132.17 206.549Z" stroke="white" stroke-width="0.710784" stroke-linecap="round" stroke-linejoin="round"/>
<path d="M212.106 128.971L171.312 96.3141L159.135 133.817L212.106 128.971Z" stroke="white" stroke-width="0.710784" stroke-linecap="round" stroke-linejoin="round"/>
<path d="M212.107 128.971L212 104.788L171.312 96.3141L212.107 128.971Z" stroke="white" stroke-width="0.710784" stroke-linecap="round" stroke-linejoin="round"/>
<path d="M252.633 118.108L211.998 104.788L212.105 128.971L252.633 118.108Z" stroke="#E25319" stroke-width="0.710784" stroke-linecap="round" stroke-linejoin="round"/>
<path d="M326.224 158.438L291.305 136.215L289 161.59L326.224 158.438Z" stroke="white" stroke-width="0.710784" stroke-linecap="round" stroke-linejoin="round"/>
<path d="M288.999 161.59L291.304 136.215L252.633 118.108L288.999 161.59Z" stroke="white" stroke-width="0.710784" stroke-linecap="round" stroke-linejoin="round"/>
<path d="M308.305 193.545L326.224 158.438L289 161.59L308.305 193.545Z" stroke="white" stroke-width="0.710784" stroke-linecap="round" stroke-linejoin="round"/>
<path d="M349.166 209.579L326.224 158.438L308.305 193.545L349.166 209.579Z" stroke="white" stroke-width="0.710784" stroke-linecap="round" stroke-linejoin="round"/>
<path d="M159.135 133.817L171.313 96.3141L132.49 115.048L159.135 133.817Z" stroke="white" stroke-width="0.710784" stroke-linecap="round" stroke-linejoin="round"/>
<path d="M159.134 133.817L132.489 115.048L123.047 154.752L159.134 133.817Z" stroke="white" stroke-width="0.710784" stroke-linecap="round" stroke-linejoin="round"/>
<path d="M292.464 112.145L266.248 85.3666L252.633 118.108L292.464 112.145Z" stroke="white" stroke-width="0.710784" stroke-linecap="round" stroke-linejoin="round"/>
<path d="M252.633 118.108L266.248 85.3665L211.998 82.4056L252.633 118.108Z" stroke="white" stroke-width="0.710784" stroke-linecap="round" stroke-linejoin="round"/>
<path d="M291.304 136.215L292.464 112.145L252.633 118.108L291.304 136.215Z" stroke="white" stroke-width="0.710784" stroke-linecap="round" stroke-linejoin="round"/>
<path d="M252.633 118.108L211.998 82.4056V104.788L252.633 118.108Z" stroke="white" stroke-width="0.710784" stroke-linecap="round" stroke-linejoin="round"/>
<path d="M326.224 158.438L292.465 112.145L291.305 136.215L326.224 158.438Z" stroke="white" stroke-width="0.710784" stroke-linecap="round" stroke-linejoin="round"/>
<path d="M212 104.788V82.4056L171.312 96.314L212 104.788Z" stroke="white" stroke-width="0.710784" stroke-linecap="round" stroke-linejoin="round"/>
<path d="M123.045 154.752L87.6855 154.836L91.8557 179.619L123.045 154.752Z" stroke="white" stroke-width="0.710784" stroke-linecap="round" stroke-linejoin="round"/>
<path d="M123.047 154.752L132.49 115.048L85.5879 131.068L123.047 154.752Z" stroke="white" stroke-width="0.710784" stroke-linecap="round" stroke-linejoin="round"/>
<path d="M123.047 154.752L85.5879 131.068L87.6875 154.836L123.047 154.752Z" stroke="#E25319" stroke-width="0.710784" stroke-linecap="round" stroke-linejoin="round"/>
<path d="M360.323 159.783L341.02 126.431L326.225 158.438L360.323 159.783Z" stroke="white" stroke-width="0.710784" stroke-linecap="round" stroke-linejoin="round"/>
<path d="M326.224 158.438L341.02 126.431L292.465 112.145L326.224 158.438Z" stroke="white" stroke-width="0.710784" stroke-linecap="round" stroke-linejoin="round"/>
<path d="M355.825 184.407L360.323 159.784L326.225 158.438L355.825 184.407Z" stroke="white" stroke-width="0.710784" stroke-linecap="round" stroke-linejoin="round"/>
<path d="M349.167 209.579L355.825 184.407L326.225 158.438L349.167 209.579Z" stroke="white" stroke-width="0.710784" stroke-linecap="round" stroke-linejoin="round"/>
<path d="M341.02 126.431L317.521 96.024L292.465 112.145L341.02 126.431Z" stroke="white" stroke-width="0.710784" stroke-linecap="round" stroke-linejoin="round"/>
<path d="M292.464 112.145L317.52 96.0241L266.248 85.3666L292.464 112.145Z" stroke="white" stroke-width="0.710784" stroke-linecap="round" stroke-linejoin="round"/>
<path d="M171.313 96.3141L132.49 92.6659V115.048L171.313 96.3141Z" stroke="white" stroke-width="0.710784" stroke-linecap="round" stroke-linejoin="round"/>
<path d="M171.31 96.314L185.355 63.6368L146.205 69.1903L171.31 96.314Z" stroke="white" stroke-width="0.710784" stroke-linecap="round" stroke-linejoin="round"/>
<path d="M212 82.4057L185.357 63.6368L171.312 96.314L212 82.4057Z" stroke="white" stroke-width="0.710784" stroke-linecap="round" stroke-linejoin="round"/>
<path d="M171.313 96.314L146.207 69.1903L132.49 92.6658L171.313 96.314Z" stroke="white" stroke-width="0.710784" stroke-linecap="round" stroke-linejoin="round"/>
<path d="M91.8572 179.619L56.7266 158.835L66.9114 207.207L91.8572 179.619Z" stroke="white" stroke-width="0.710784" stroke-linecap="round" stroke-linejoin="round"/>
<path d="M91.8572 179.619L87.687 154.836L56.7266 158.835L91.8572 179.619Z" stroke="white" stroke-width="0.710784" stroke-linecap="round" stroke-linejoin="round"/>
<path d="M132.49 115.048L96.3933 103.845L85.5879 131.068L132.49 115.048Z" stroke="white" stroke-width="0.710784" stroke-linecap="round" stroke-linejoin="round"/>
<path d="M132.489 115.048V92.6659L96.3926 103.845L132.489 115.048Z" stroke="white" stroke-width="0.710784" stroke-linecap="round" stroke-linejoin="round"/>
<path d="M211.998 82.4057L238.962 62.6654L185.355 63.6369L211.998 82.4057Z" stroke="white" stroke-width="0.710784" stroke-linecap="round" stroke-linejoin="round"/>
<path d="M266.248 85.3666L238.962 62.6654L211.998 82.4057L266.248 85.3666Z" stroke="white" stroke-width="0.710784" stroke-linecap="round" stroke-linejoin="round"/>
<path d="M385.535 188.63L360.322 159.783L355.824 184.407L385.535 188.63Z" stroke="white" stroke-width="0.710784" stroke-linecap="round" stroke-linejoin="round"/>
<path d="M266.249 85.3666L277.687 57.8369L238.963 62.6654L266.249 85.3666Z" stroke="white" stroke-width="0.710784" stroke-linecap="round" stroke-linejoin="round"/>
<path d="M317.52 96.0241L277.686 57.8369L266.248 85.3666L317.52 96.0241Z" stroke="white" stroke-width="0.710784" stroke-linecap="round" stroke-linejoin="round"/>
<path d="M87.687 154.836L85.5874 131.068L56.7266 158.835L87.687 154.836Z" stroke="white" stroke-width="0.710784" stroke-linecap="round" stroke-linejoin="round"/>
<path d="M66.9111 207.207L56.7263 158.835L34.6602 189.566L66.9111 207.207Z" stroke="white" stroke-width="0.710784" stroke-linecap="round" stroke-linejoin="round"/>
<path d="M132.489 92.6658L146.206 69.1903L109.912 79.3229L132.489 92.6658Z" stroke="white" stroke-width="0.710784" stroke-linecap="round" stroke-linejoin="round"/>
<path d="M132.489 92.6659L109.912 79.323L96.3926 103.845L132.489 92.6659Z" stroke="white" stroke-width="0.710784" stroke-linecap="round" stroke-linejoin="round"/>
<path d="M341.02 126.431L351.277 98.1701L317.521 96.024L341.02 126.431Z" stroke="white" stroke-width="0.710784" stroke-linecap="round" stroke-linejoin="round"/>
<path d="M360.322 159.783L372.85 141.316L341.02 126.431L360.322 159.783Z" stroke="white" stroke-width="0.710784" stroke-linecap="round" stroke-linejoin="round"/>
<path d="M372.85 141.316L351.277 98.17L341.02 126.431L372.85 141.316Z" stroke="white" stroke-width="0.710784" stroke-linecap="round" stroke-linejoin="round"/>
<path d="M385.535 188.63L372.85 141.316L360.322 159.783L385.535 188.63Z" stroke="white" stroke-width="0.710784" stroke-linecap="round" stroke-linejoin="round"/>
<path d="M277.687 57.8369L238.322 44.8971L238.963 62.6654L277.687 57.8369Z" stroke="white" stroke-width="0.710784" stroke-linecap="round" stroke-linejoin="round"/>
<path d="M238.962 62.6654L199.766 37.157L185.355 63.6369L238.962 62.6654Z" stroke="white" stroke-width="0.710784" stroke-linecap="round" stroke-linejoin="round"/>
<path d="M238.962 62.6654L238.321 44.8971L199.766 37.157L238.962 62.6654Z" stroke="white" stroke-width="0.710784" stroke-linecap="round" stroke-linejoin="round"/>
<path d="M351.276 98.17L315.963 75.5819L317.52 96.024L351.276 98.17Z" stroke="white" stroke-width="0.710784" stroke-linecap="round" stroke-linejoin="round"/>
<path d="M317.522 96.0241L315.965 75.582L277.688 57.8369L317.522 96.0241Z" stroke="white" stroke-width="0.710784" stroke-linecap="round" stroke-linejoin="round"/>
<path d="M185.355 63.6369L161.03 49.1166L146.205 69.1904L185.355 63.6369Z" stroke="white" stroke-width="0.710784" stroke-linecap="round" stroke-linejoin="round"/>
<path d="M185.356 63.6369L199.767 37.157L161.031 49.1166L185.356 63.6369Z" stroke="white" stroke-width="0.710784" stroke-linecap="round" stroke-linejoin="round"/>
<path d="M85.5874 131.068L65.1076 119.108L56.7266 158.835L85.5874 131.068Z" stroke="white" stroke-width="0.710784" stroke-linecap="round" stroke-linejoin="round"/>
<path d="M85.5872 131.068L96.3926 103.845L65.1074 119.108L85.5872 131.068Z" stroke="white" stroke-width="0.710784" stroke-linecap="round" stroke-linejoin="round"/>
<path d="M146.206 69.1904L161.031 49.1166L113.375 61.024L146.206 69.1904Z" stroke="white" stroke-width="0.710784" stroke-linecap="round" stroke-linejoin="round"/>
<path d="M146.206 69.1903L113.375 61.0239L109.912 79.3229L146.206 69.1903Z" stroke="white" stroke-width="0.710784" stroke-linecap="round" stroke-linejoin="round"/>
<path d="M96.3921 103.845L109.912 79.323L67.5312 98.3035L96.3921 103.845Z" stroke="white" stroke-width="0.710784" stroke-linecap="round" stroke-linejoin="round"/>
<path d="M96.3926 103.845L67.5318 98.3035L65.1074 119.108L96.3926 103.845Z" stroke="white" stroke-width="0.710784" stroke-linecap="round" stroke-linejoin="round"/>
<path d="M409.469 196.37L398.623 159.696L385.535 188.63L409.469 196.37Z" stroke="white" stroke-width="0.710784" stroke-linecap="round" stroke-linejoin="round"/>
<path d="M385.534 188.63L398.622 159.696L372.85 141.316L385.534 188.63Z" stroke="white" stroke-width="0.710784" stroke-linecap="round" stroke-linejoin="round"/>
<path d="M277.686 57.8369L237.373 29.8751L238.321 44.8971L277.686 57.8369Z" stroke="white" stroke-width="0.710784" stroke-linecap="round" stroke-linejoin="round"/>
<path d="M277.686 57.8368L272.08 27.5289L237.373 29.875L277.686 57.8368Z" stroke="white" stroke-width="0.710784" stroke-linecap="round" stroke-linejoin="round"/>
<path d="M315.965 75.582L312.876 57.4048L277.688 57.8369L315.965 75.582Z" stroke="white" stroke-width="0.710784" stroke-linecap="round" stroke-linejoin="round"/>
<path d="M312.874 57.4047L272.08 27.5289L277.686 57.8368L312.874 57.4047Z" stroke="white" stroke-width="0.710784" stroke-linecap="round" stroke-linejoin="round"/>
<path d="M372.85 141.316L381.896 124.859L351.277 98.17L372.85 141.316Z" stroke="#E25319" stroke-width="0.710784" stroke-linecap="round" stroke-linejoin="round"/>
<path d="M398.622 159.696L381.895 124.859L372.85 141.316L398.622 159.696Z" stroke="white" stroke-width="0.710784" stroke-linecap="round" stroke-linejoin="round"/>
<path d="M56.7273 158.835L31.709 166.355L34.6612 189.566L56.7273 158.835Z" stroke="white" stroke-width="0.710784" stroke-linecap="round" stroke-linejoin="round"/>
<path d="M56.7273 158.835L65.1083 119.108L31.709 143.973L56.7273 158.835Z" stroke="white" stroke-width="0.710784" stroke-linecap="round" stroke-linejoin="round"/>
<path d="M56.7273 158.835L31.709 143.973V166.355L56.7273 158.835Z" stroke="white" stroke-width="0.710784" stroke-linecap="round" stroke-linejoin="round"/>
<path d="M351.277 98.1701L312.875 57.4048L315.964 75.582L351.277 98.1701Z" stroke="white" stroke-width="0.710784" stroke-linecap="round" stroke-linejoin="round"/>
<path d="M238.321 44.8971L237.373 29.8751L199.766 37.157L238.321 44.8971Z" stroke="white" stroke-width="0.710784" stroke-linecap="round" stroke-linejoin="round"/>
<path d="M109.912 79.3229L113.374 61.0239L81.5586 74.0797L109.912 79.3229Z" stroke="white" stroke-width="0.710784" stroke-linecap="round" stroke-linejoin="round"/>
<path d="M109.912 79.3229L81.5585 74.0797L67.5312 98.3034L109.912 79.3229Z" stroke="white" stroke-width="0.710784" stroke-linecap="round" stroke-linejoin="round"/>
<path d="M351.277 98.1701L342.954 61.1777L312.875 57.4048L351.277 98.1701Z" stroke="white" stroke-width="0.710784" stroke-linecap="round" stroke-linejoin="round"/>
<path d="M381.896 124.859L379.323 103.961L351.277 98.17L381.896 124.859Z" stroke="white" stroke-width="0.710784" stroke-linecap="round" stroke-linejoin="round"/>
<path d="M379.322 103.961L342.953 61.1777L351.276 98.1701L379.322 103.961Z" stroke="white" stroke-width="0.710784" stroke-linecap="round" stroke-linejoin="round"/>
<path d="M161.031 49.1166L163.841 33.8887L132.17 35.1647L161.031 49.1166Z" stroke="white" stroke-width="0.710784" stroke-linecap="round" stroke-linejoin="round"/>
<path d="M161.031 49.1166L132.17 35.1647L113.375 61.024L161.031 49.1166Z" stroke="white" stroke-width="0.710784" stroke-linecap="round" stroke-linejoin="round"/>
<path d="M199.767 37.157L163.841 33.8887L161.031 49.1166L199.767 37.157Z" stroke="#E25319" stroke-width="0.710784" stroke-linecap="round" stroke-linejoin="round"/>
<path d="M199.767 37.1569L207.521 13.1101L167.516 21.5839L199.767 37.1569Z" stroke="white" stroke-width="0.710784" stroke-linecap="round" stroke-linejoin="round"/>
<path d="M199.765 37.157L167.514 21.584L163.84 33.8887L199.765 37.157Z" stroke="white" stroke-width="0.710784" stroke-linecap="round" stroke-linejoin="round"/>
<path d="M237.373 29.875L207.52 13.1101L199.766 37.1569L237.373 29.875Z" stroke="white" stroke-width="0.710784" stroke-linecap="round" stroke-linejoin="round"/>
<path d="M65.1073 119.108L67.5317 98.3035L34.6602 122.774L65.1073 119.108Z" stroke="white" stroke-width="0.710784" stroke-linecap="round" stroke-linejoin="round"/>
<path d="M65.1083 119.108L34.6612 122.774L31.709 143.973L65.1083 119.108Z" stroke="white" stroke-width="0.710784" stroke-linecap="round" stroke-linejoin="round"/>
<path d="M312.874 57.4047L308.304 41.7737L272.08 27.5289L312.874 57.4047Z" stroke="white" stroke-width="0.710784" stroke-linecap="round" stroke-linejoin="round"/>
<path d="M342.954 61.1777L308.305 41.7738L312.875 57.4048L342.954 61.1777Z" stroke="white" stroke-width="0.710784" stroke-linecap="round" stroke-linejoin="round"/>
<path d="M404.831 133.249L379.322 103.961L381.895 124.859L404.831 133.249Z" stroke="white" stroke-width="0.710784" stroke-linecap="round" stroke-linejoin="round"/>
<path d="M398.622 159.696L404.831 133.248L381.895 124.859L398.622 159.696Z" stroke="white" stroke-width="0.710784" stroke-linecap="round" stroke-linejoin="round"/>
<path d="M409.469 196.37L418.737 180.301L398.623 159.696L409.469 196.37Z" stroke="white" stroke-width="0.710784" stroke-linecap="round" stroke-linejoin="round"/>
<path d="M418.737 180.301L404.832 133.248L398.623 159.696L418.737 180.301Z" stroke="white" stroke-width="0.710784" stroke-linecap="round" stroke-linejoin="round"/>
<path d="M113.376 61.024L132.171 35.1647L98.0293 53.252L113.376 61.024Z" stroke="white" stroke-width="0.710784" stroke-linecap="round" stroke-linejoin="round"/>
<path d="M113.374 61.024L98.0277 53.252L81.5586 74.0798L113.374 61.024Z" stroke="white" stroke-width="0.710784" stroke-linecap="round" stroke-linejoin="round"/>
<path d="M272.08 27.529L236.135 17.8372L237.373 29.8751L272.08 27.529Z" stroke="white" stroke-width="0.710784" stroke-linecap="round" stroke-linejoin="round"/>
<path d="M237.372 29.875L236.134 17.8371L207.52 13.1101L237.372 29.875Z" stroke="white" stroke-width="0.710784" stroke-linecap="round" stroke-linejoin="round"/>
<path d="M163.841 33.8887L167.515 21.584L132.17 35.1647L163.841 33.8887Z" stroke="white" stroke-width="0.710784" stroke-linecap="round" stroke-linejoin="round"/>
<path d="M67.5313 98.3034L81.5586 74.0797L55.1367 90.6706L67.5313 98.3034Z" stroke="white" stroke-width="0.710784" stroke-linecap="round" stroke-linejoin="round"/>
<path d="M67.5317 98.3034L55.1371 90.6707L34.6602 122.774L67.5317 98.3034Z" stroke="white" stroke-width="0.710784" stroke-linecap="round" stroke-linejoin="round"/>
<path d="M31.7082 166.355V143.973L10.0684 172.851L31.7082 166.355Z" stroke="#E25319" stroke-width="0.710784" stroke-linecap="round" stroke-linejoin="round"/>
<path d="M379.322 103.961L374.218 84.8794L342.953 61.1777L379.322 103.961Z" stroke="white" stroke-width="0.710784" stroke-linecap="round" stroke-linejoin="round"/>
<path d="M404.831 133.248L374.219 84.8794L379.323 103.961L404.831 133.248Z" stroke="white" stroke-width="0.710784" stroke-linecap="round" stroke-linejoin="round"/>
<path d="M308.304 41.7737L302.321 28.9412L272.08 27.5289L308.304 41.7737Z" stroke="#E25319" stroke-width="0.710784" stroke-linecap="round" stroke-linejoin="round"/>
<path d="M342.952 61.1777L302.32 28.9413L308.303 41.7738L342.952 61.1777Z" stroke="white" stroke-width="0.710784" stroke-linecap="round" stroke-linejoin="round"/>
<path d="M272.081 27.529L234.326 6.22852L236.136 17.8372L272.081 27.529Z" stroke="white" stroke-width="0.710784" stroke-linecap="round" stroke-linejoin="round"/>
<path d="M272.081 27.529L275.68 14.2731L234.326 6.22852L272.081 27.529Z" stroke="white" stroke-width="0.710784" stroke-linecap="round" stroke-linejoin="round"/>
<path d="M302.321 28.9413L275.679 14.2731L272.08 27.529L302.321 28.9413Z" stroke="white" stroke-width="0.710784" stroke-linecap="round" stroke-linejoin="round"/>
<path d="M81.56 74.0798L98.0291 53.252L63.0957 73.4244L81.56 74.0798Z" stroke="#E25319" stroke-width="0.710784" stroke-linecap="round" stroke-linejoin="round"/>
<path d="M81.5586 74.0798L63.0943 73.4244L55.1367 90.6707L81.5586 74.0798Z" stroke="white" stroke-width="0.710784" stroke-linecap="round" stroke-linejoin="round"/>
<path d="M342.952 61.1777L330.793 36.1217L302.32 28.9413L342.952 61.1777Z" stroke="white" stroke-width="0.710784" stroke-linecap="round" stroke-linejoin="round"/>
<path d="M374.218 84.8794L366.666 67.9144L342.953 61.1777L374.218 84.8794Z" stroke="white" stroke-width="0.710784" stroke-linecap="round" stroke-linejoin="round"/>
<path d="M366.668 67.9144L330.795 36.1217L342.955 61.1777L366.668 67.9144Z" stroke="white" stroke-width="0.710784" stroke-linecap="round" stroke-linejoin="round"/>
<path d="M31.708 143.973L34.6602 122.774L17.1152 143.732L31.708 143.973Z" stroke="white" stroke-width="0.710784" stroke-linecap="round" stroke-linejoin="round"/>
<path d="M31.7082 143.973L17.1154 143.732L10.0684 172.851L31.7082 143.973Z" stroke="white" stroke-width="0.710784" stroke-linecap="round" stroke-linejoin="round"/>
<path d="M236.134 17.8372L234.324 6.22852L207.52 13.1102L236.134 17.8372Z" stroke="white" stroke-width="0.710784" stroke-linecap="round" stroke-linejoin="round"/>
<path d="M418.736 180.301L423.361 165.351L404.83 133.248L418.736 180.301Z" stroke="white" stroke-width="0.710784" stroke-linecap="round" stroke-linejoin="round"/>
<path d="M132.171 35.1647L152.172 16.5148L122.166 24.7856L132.171 35.1647Z" stroke="white" stroke-width="0.710784" stroke-linecap="round" stroke-linejoin="round"/>
<path d="M132.169 35.1646L122.164 24.7855L106.104 39.6509L132.169 35.1646Z" stroke="white" stroke-width="0.710784" stroke-linecap="round" stroke-linejoin="round"/>
<path d="M167.515 21.584L152.171 16.5148L132.17 35.1647L167.515 21.584Z" stroke="white" stroke-width="0.710784" stroke-linecap="round" stroke-linejoin="round"/>
<path d="M132.171 35.1647L106.106 39.651L98.0293 53.252L132.171 35.1647Z" stroke="white" stroke-width="0.710784" stroke-linecap="round" stroke-linejoin="round"/>
<path d="M167.514 21.5839L175.179 9.32849L152.17 16.5147L167.514 21.5839Z" stroke="white" stroke-width="0.710784" stroke-linecap="round" stroke-linejoin="round"/>
<path d="M207.521 13.1101L175.18 9.32849L167.516 21.5839L207.521 13.1101Z" stroke="white" stroke-width="0.710784" stroke-linecap="round" stroke-linejoin="round"/>
<path d="M404.831 133.248L393.15 94.0521L374.219 84.8794L404.831 133.248Z" stroke="white" stroke-width="0.710784" stroke-linecap="round" stroke-linejoin="round"/>
<path d="M423.361 165.351L420.142 143.816L404.83 133.248L423.361 165.351Z" stroke="white" stroke-width="0.710784" stroke-linecap="round" stroke-linejoin="round"/>
<path d="M420.144 143.816L393.15 94.0521L404.832 133.249L420.144 143.816Z" stroke="white" stroke-width="0.710784" stroke-linecap="round" stroke-linejoin="round"/>
<path d="M98.0281 53.252L106.105 39.651L90.375 45.0624L98.0281 53.252Z" stroke="white" stroke-width="0.710784" stroke-linecap="round" stroke-linejoin="round"/>
<path d="M98.0291 53.252L90.376 45.0624L63.0957 73.4244L98.0291 53.252Z" stroke="white" stroke-width="0.710784" stroke-linecap="round" stroke-linejoin="round"/>
<path d="M393.149 94.0521L366.666 67.9144L374.218 84.8794L393.149 94.0521Z" stroke="white" stroke-width="0.710784" stroke-linecap="round" stroke-linejoin="round"/>
<path d="M207.521 13.1101L234.325 6.22845L195.5 4.09985L207.521 13.1101Z" stroke="white" stroke-width="0.710784" stroke-linecap="round" stroke-linejoin="round"/>
<path d="M207.52 13.1101L195.5 4.09985L175.18 9.32855L207.52 13.1101Z" stroke="white" stroke-width="0.710784" stroke-linecap="round" stroke-linejoin="round"/>
<path d="M302.322 28.9413L291.296 15.9203L275.68 14.2731L302.322 28.9413Z" stroke="white" stroke-width="0.710784" stroke-linecap="round" stroke-linejoin="round"/>
<path d="M330.793 36.1217L291.295 15.9203L302.321 28.9413L330.793 36.1217Z" stroke="white" stroke-width="0.710784" stroke-linecap="round" stroke-linejoin="round"/>
<path d="M34.6597 122.774L55.1366 90.6707L28.7031 116.481L34.6597 122.774Z" stroke="white" stroke-width="0.710784" stroke-linecap="round" stroke-linejoin="round"/>
<path d="M34.6602 122.774L28.7036 116.481L17.1152 143.732L34.6602 122.774Z" stroke="white" stroke-width="0.710784" stroke-linecap="round" stroke-linejoin="round"/>
<path d="M55.1366 90.6707L51.6972 80.4569L28.7031 116.481L55.1366 90.6707Z" stroke="white" stroke-width="0.710784" stroke-linecap="round" stroke-linejoin="round"/>
<path d="M55.1367 90.6707L63.0943 73.4244L51.6973 80.4569L55.1367 90.6707Z" stroke="white" stroke-width="0.710784" stroke-linecap="round" stroke-linejoin="round"/>
<path d="M366.668 67.9144L356.782 53.3332L330.795 36.1217L366.668 67.9144Z" stroke="white" stroke-width="0.710784" stroke-linecap="round" stroke-linejoin="round"/>
<path d="M393.15 94.052L356.781 53.3331L366.667 67.9143L393.15 94.052Z" stroke="white" stroke-width="0.710784" stroke-linecap="round" stroke-linejoin="round"/>
<path d="M432.27 177.247L420.143 143.816L423.362 165.351L432.27 177.247Z" stroke="white" stroke-width="0.710784" stroke-linecap="round" stroke-linejoin="round"/>
<path d="M106.105 39.6509L122.165 24.7855L90.375 45.0623L106.105 39.6509Z" stroke="white" stroke-width="0.710784" stroke-linecap="round" stroke-linejoin="round"/>
<path d="M275.679 14.2731L291.295 15.9203L251.354 5.11487L275.679 14.2731Z" stroke="white" stroke-width="0.710784" stroke-linecap="round" stroke-linejoin="round"/>
<path d="M275.68 14.2731L251.355 5.11487L234.326 6.22847L275.68 14.2731Z" stroke="white" stroke-width="0.710784" stroke-linecap="round" stroke-linejoin="round"/>
<path d="M152.172 16.5147L175.181 9.32849L142.924 15.0299L152.172 16.5147Z" stroke="white" stroke-width="0.710784" stroke-linecap="round" stroke-linejoin="round"/>
<path d="M152.172 16.5148L142.924 15.03L122.166 24.7856L152.172 16.5148Z" stroke="white" stroke-width="0.710784" stroke-linecap="round" stroke-linejoin="round"/>
<path d="M63.0943 73.4244L90.3746 45.0624L51.6973 80.4569L63.0943 73.4244Z" stroke="white" stroke-width="0.710784" stroke-linecap="round" stroke-linejoin="round"/>
<path d="M251.355 5.11484L230.875 1.27234L234.326 6.22844L251.355 5.11484Z" stroke="white" stroke-width="0.710784" stroke-linecap="round" stroke-linejoin="round"/>
<path d="M234.325 6.22844L230.874 1.27234L195.5 4.09984L234.325 6.22844Z" stroke="white" stroke-width="0.710784" stroke-linecap="round" stroke-linejoin="round"/>
<path d="M10.0694 172.851L17.1164 143.732L7.5 166.34L10.0694 172.851Z" stroke="white" stroke-width="0.710784" stroke-linecap="round" stroke-linejoin="round"/>
<path d="M175.181 9.32862L183.106 3.87952L142.924 15.03L175.181 9.32862Z" stroke="white" stroke-width="0.710784" stroke-linecap="round" stroke-linejoin="round"/>
<path d="M195.5 4.09992L183.105 3.87952L175.18 9.32862L195.5 4.09992Z" stroke="white" stroke-width="0.710784" stroke-linecap="round" stroke-linejoin="round"/>
<path d="M393.15 94.052L372.905 65.429L356.781 53.3331L393.15 94.052Z" stroke="white" stroke-width="0.710784" stroke-linecap="round" stroke-linejoin="round"/>
<path d="M413.74 123.467L404.263 104.626L393.15 94.0521L413.74 123.467Z" stroke="white" stroke-width="0.710784" stroke-linecap="round" stroke-linejoin="round"/>
<path d="M420.144 143.816L413.74 123.467L393.15 94.0521L420.144 143.816Z" stroke="white" stroke-width="0.710784" stroke-linecap="round" stroke-linejoin="round"/>
<path d="M404.264 104.625L372.906 65.4291L393.151 94.0521L404.264 104.625Z" stroke="white" stroke-width="0.710784" stroke-linecap="round" stroke-linejoin="round"/>
<path d="M330.793 36.1217L338.086 37.0381L302.637 17.9271L330.793 36.1217Z" stroke="white" stroke-width="0.710784" stroke-linecap="round" stroke-linejoin="round"/>
<path d="M356.782 53.3332L338.088 37.0381L330.795 36.1217L356.782 53.3332Z" stroke="white" stroke-width="0.710784" stroke-linecap="round" stroke-linejoin="round"/>
<path d="M330.793 36.1217L302.637 17.9271L291.295 15.9203L330.793 36.1217Z" stroke="white" stroke-width="0.710784" stroke-linecap="round" stroke-linejoin="round"/>
<path d="M17.1164 143.732L14.2193 145.275L7.5 166.34L17.1164 143.732Z" stroke="white" stroke-width="0.710784" stroke-linecap="round" stroke-linejoin="round"/>
<path d="M17.1159 143.732L28.7043 116.481L14.2188 145.275L17.1159 143.732Z" stroke="white" stroke-width="0.710784" stroke-linecap="round" stroke-linejoin="round"/>
<path d="M432.271 177.247L413.74 123.467L420.143 143.816L432.271 177.247Z" stroke="white" stroke-width="0.710784" stroke-linecap="round" stroke-linejoin="round"/>
<path d="M372.905 65.4291L338.088 37.0381L356.781 53.3332L372.905 65.4291Z" stroke="white" stroke-width="0.710784" stroke-linecap="round" stroke-linejoin="round"/>
<path d="M291.295 15.9203L276.952 9.00087L251.354 5.11487L291.295 15.9203Z" stroke="white" stroke-width="0.710784" stroke-linecap="round" stroke-linejoin="round"/>
<path d="M302.638 17.9271L276.953 9.00085L291.297 15.9203L302.638 17.9271Z" stroke="white" stroke-width="0.710784" stroke-linecap="round" stroke-linejoin="round"/>
<path d="M195.5 4.09984L230.874 1.27234L183.105 3.87944L195.5 4.09984Z" stroke="white" stroke-width="0.710784" stroke-linecap="round" stroke-linejoin="round"/>
<path d="M28.7031 116.481L51.6972 80.4569L29.5615 111.426L28.7031 116.481Z" stroke="white" stroke-width="0.710784" stroke-linecap="round" stroke-linejoin="round"/>
<path d="M28.7043 116.481L29.5627 111.426L14.2188 145.275L28.7043 116.481Z" stroke="white" stroke-width="0.710784" stroke-linecap="round" stroke-linejoin="round"/>
<path d="M251.355 5.11484L276.953 9.00084L230.875 1.27234L251.355 5.11484Z" stroke="white" stroke-width="0.710784" stroke-linecap="round" stroke-linejoin="round"/>
<path d="M90.375 45.0623L122.165 24.7855L101.009 36.3681L90.375 45.0623Z" stroke="white" stroke-width="0.710784" stroke-linecap="round" stroke-linejoin="round"/>
<path d="M90.3748 45.0624L101.009 36.3682L82.7246 50.4245L90.3748 45.0624Z" stroke="white" stroke-width="0.710784" stroke-linecap="round" stroke-linejoin="round"/>
<path d="M90.3746 45.0624L82.7244 50.4245L51.6973 80.4569L90.3746 45.0624Z" stroke="white" stroke-width="0.710784" stroke-linecap="round" stroke-linejoin="round"/>
<path d="M432.271 177.247L418.859 135.287L413.74 123.467L432.271 177.247Z" stroke="white" stroke-width="0.710784" stroke-linecap="round" stroke-linejoin="round"/>
<path d="M418.859 135.287L404.264 104.625L413.741 123.467L418.859 135.287Z" stroke="white" stroke-width="0.710784" stroke-linecap="round" stroke-linejoin="round"/>
<path d="M142.924 15.03L140.355 16.4568L122.166 24.7856L142.924 15.03Z" stroke="white" stroke-width="0.710784" stroke-linecap="round" stroke-linejoin="round"/>
<path d="M122.165 24.7856L140.354 16.4568L101.01 36.3682L122.165 24.7856Z" stroke="white" stroke-width="0.710784" stroke-linecap="round" stroke-linejoin="round"/>
<path d="M51.6973 80.4568L82.7244 50.4244L64.7966 66.9689L51.6973 80.4568Z" stroke="white" stroke-width="0.710784" stroke-linecap="round" stroke-linejoin="round"/>
<path d="M51.6989 80.4569L64.7981 66.969L42.2188 93.9361L51.6989 80.4569Z" stroke="white" stroke-width="0.710784" stroke-linecap="round" stroke-linejoin="round"/>
<path d="M51.6982 80.4569L42.2181 93.9361L29.5625 111.426L51.6982 80.4569Z" stroke="white" stroke-width="0.710784" stroke-linecap="round" stroke-linejoin="round"/>
<path d="M142.923 15.03L183.105 3.87952L140.354 16.4568L142.923 15.03Z" stroke="white" stroke-width="0.710784" stroke-linecap="round" stroke-linejoin="round"/>
<path d="M432.685 189.546L418.857 135.287L432.27 177.247L432.685 189.546Z" stroke="white" stroke-width="0.710784" stroke-linecap="round" stroke-linejoin="round"/>
<path d="M302.638 17.9271L314.865 25.9833L276.953 9.00085L302.638 17.9271Z" stroke="white" stroke-width="0.710784" stroke-linecap="round" stroke-linejoin="round"/>
<path d="M338.086 37.0381L314.863 25.9833L302.637 17.9271L338.086 37.0381Z" stroke="white" stroke-width="0.710784" stroke-linecap="round" stroke-linejoin="round"/>
<path d="M7.5 166.34L14.2193 145.275L11.3599 167.753L7.5 166.34Z" stroke="white" stroke-width="0.710784" stroke-linecap="round" stroke-linejoin="round"/>
<path d="M230.875 1.27234L254.374 5.86884L215.531 2.31634L230.875 1.27234Z" stroke="white" stroke-width="0.710784" stroke-linecap="round" stroke-linejoin="round"/>
<path d="M276.953 9.00084L254.374 5.86884L230.875 1.27234L276.953 9.00084Z" stroke="white" stroke-width="0.710784" stroke-linecap="round" stroke-linejoin="round"/>
<path d="M230.874 1.27234L215.53 2.31634L183.105 3.87944L230.874 1.27234Z" stroke="white" stroke-width="0.710784" stroke-linecap="round" stroke-linejoin="round"/>
<path d="M404.264 104.625L391.866 87.5909L372.906 65.4291L404.264 104.625Z" stroke="white" stroke-width="0.710784" stroke-linecap="round" stroke-linejoin="round"/>
<path d="M418.858 135.287L391.865 87.5908L404.263 104.625L418.858 135.287Z" stroke="white" stroke-width="0.710784" stroke-linecap="round" stroke-linejoin="round"/>
</svg>
