<svg width="1279" height="393" viewBox="0 0 1279 393" fill="none" xmlns="http://www.w3.org/2000/svg">
<path d="M177.547 115.31L158.197 90.8999L141.147 65.7399L126.487 39.8999L114.277 13.4999L104.557 -13.3801L97.3673 -40.6301L92.7773 -68.1401L90.7773 -95.8201L91.3873 -123.55L94.6173 -151.25L100.457 -178.78L108.887 -206.04L119.887 -232.95L133.407 -259.39L149.407 -285.26L167.817 -310.45L188.587 -334.89L211.617 -358.45L236.837 -381.07L264.157 -402.64L293.457 -423.09L324.627 -442.34L357.557 -460.3L392.107 -476.92L428.147 -492.12L465.557 -505.85L504.147 -518.07L543.817 -528.7L584.377 -537.72L625.677 -545.1L667.567 -550.79L709.857 -554.79L752.397 -557.07L795.027 -557.64L837.567 -556.48L879.837 -553.6L921.677 -549.02L962.927 -542.75L1003.44 -534.83L1043.01 -525.27L1081.51 -514.13L1118.77 -501.44L1154.66 -487.25L1189.01 -471.64L1221.69 -454.66L1252.59 -436.37L1281.55 -416.86L1308.47 -396.2L1333.24 -374.47L1355.75 -351.77L1375.92 -328.19L1393.65 -303.82L1408.87 -278.76L1421.52 -253.12L1431.56 -226.99L1438.92 -200.5L1443.58 -173.73L1445.51 -146.82L1444.7 -119.86L1441.15 -92.9601L1434.88 -66.2501L1425.9 -39.8102L1414.23 -13.7802L1399.94 11.7499" stroke="#E25319" stroke-width="3.13" stroke-linecap="round" stroke-linejoin="round"/>
<path d="M363.858 275.13L337.948 258.49L313.588 240.8L290.888 222.13L269.938 202.54L250.838 182.11L233.648 160.91L218.458 139.02L205.338 116.52L194.338 93.49L185.518 70.02L178.918 46.2L174.558 22.13L172.488 -2.12L172.688 -26.45L175.208 -50.75L180.008 -74.95L187.098 -98.95L196.458 -122.65L208.028 -145.96L221.808 -168.8L237.728 -191.07L255.738 -212.69L275.768 -233.57L297.758 -253.63L321.608 -272.81L347.228 -291L374.558 -308.15L403.448 -324.19L433.808 -339.04L465.528 -352.67L498.478 -365.01L532.528 -376.01L567.568 -385.63L603.428 -393.82L639.988 -400.55L677.098 -405.81L714.628 -409.57L752.398 -411.8L790.288 -412.51L828.138 -411.68L865.808 -409.32L903.128 -405.44L939.958 -400.06L976.148 -393.18L1011.56 -384.85L1046.04 -375.09L1079.46 -363.94L1111.68 -351.44L1142.57 -337.66L1171.99 -322.63L1199.84 -306.42L1225.99 -289.09L1250.33 -270.72L1272.77 -251.37L1293.21 -231.13L1311.58 -210.08L1327.77 -188.3L1341.73 -165.87L1353.4 -142.9L1362.71 -119.48L1369.63 -95.6899L1374.13 -71.64L1376.18 -47.4301L1375.77 -23.16L1372.88 1.08997L1367.53 25.1899L1359.73 49.0699L1349.51 72.61L1336.9 95.71L1321.95 118.28L1304.69 140.24L1285.21 161.49L1263.58 181.91" stroke="#E25319" stroke-width="3.13" stroke-linecap="round" stroke-linejoin="round"/>
<path d="M752.399 208.05L753.869 208.11L755.329 208.28L756.739 208.57L758.119 208.98L759.409 209.48L760.619 210.1L761.729 210.82L762.729 211.63L763.599 212.53L764.319 213.51L764.889 214.56L765.289 215.67L765.519 216.84L765.559 218.05L765.389 219.3L765.029 220.56L764.459 221.84L763.699 223.12L762.699 224.38L761.509 225.62L760.089 226.83L758.469 227.98L756.649 229.07L754.629 230.1L752.399 231.03L750.009 231.87L747.429 232.6L744.679 233.22L741.789 233.71L738.759 234.07L735.609 234.27L732.349 234.33L728.999 234.22L725.589 233.94L722.119 233.49L718.639 232.87L715.129 232.06L711.639 231.07L708.179 229.89L704.779 228.53L701.469 226.98L698.249 225.25L695.159 223.33L692.219 221.23L689.449 218.96L686.869 216.53L684.489 213.94L682.359 211.19L680.469 208.31L678.879 205.28L677.559 202.14L676.539 198.89L675.859 195.55L675.499 192.13V188.63L675.859 185.1L676.589 181.52L677.699 177.92L679.189 174.32L681.059 170.75L683.329 167.19L685.989 163.7L689.039 160.28L692.469 156.94L696.279 153.71L700.449 150.6L704.999 147.64L709.879 144.84L715.109 142.21L720.639 139.78L726.479 137.55L732.599 135.56L738.969 133.8L745.579 132.29L752.399 131.05L759.409 130.09L766.559 129.42L773.849 129.04L781.229 128.97L788.669 129.22L796.139 129.77L803.609 130.65L811.039 131.86L818.409 133.39L825.659 135.24L832.769 137.42L839.699 139.91L846.429 142.72L852.909 145.84L859.099 149.26L864.979 152.96L870.519 156.95L875.669 161.2L880.419 165.7L884.719 170.44L888.559 175.39L891.909 180.54L894.739 185.88L897.029 191.38L898.759 197.01L899.909 202.75L900.479 208.59L900.429 214.49L899.759 220.44L898.459 226.39L896.529 232.34L893.969 238.25L890.769 244.09L886.939 249.84L882.479 255.46L877.399 260.94L871.699 266.24L865.409 271.34L858.559 276.22L851.129 280.83L843.169 285.17L834.709 289.21L825.749 292.92L816.349 296.28L806.529 299.27L796.319 301.87L785.759 304.06L774.899 305.83L763.759 307.16L752.399 308.03L740.869 308.44L729.209 308.37L717.439 307.83L705.649 306.79L693.869 305.26L682.149 303.23L670.539 300.72L659.089 297.7L647.859 294.19L636.879 290.21L626.219 285.75L615.919 280.83L606.029 275.46L596.589 269.66L587.659 263.43L579.269 256.81L571.479 249.81L564.299 242.45L557.799 234.77L551.999 226.78L546.939 218.51L542.649 210L539.149 201.28L536.469 192.36L534.639 183.3L533.659 174.13L533.549 164.87L534.339 155.56L536.019 146.25L538.599 136.97L542.069 127.75L546.449 118.64L551.709 109.67L557.849 100.88L564.849 92.3099L572.699 83.9799L581.369 75.9498L590.839 68.2399L601.059 60.8799L612.029 53.9199L623.689 47.3799L635.999 41.2899L648.939 35.6898L662.439 30.5898L676.449 26.0199L690.929 22.0099L705.829 18.5898L721.069 15.7499L736.619 13.5399L752.399 11.9498L768.369 10.9899L784.429 10.6898L800.539 11.0499L816.639 12.0698L832.649 13.7399L848.499 16.0698L864.149 19.0698L879.489 22.7098L894.489 26.9799L909.089 31.8899L923.199 37.3999L936.759 43.5099L949.729 50.1898L962.029 57.4199L973.609 65.1699L984.429 73.4199L994.409 82.1399L1003.53 91.2899L1011.73 100.84L1018.96 110.74L1025.2 120.97L1030.4 131.48L1034.53 142.24L1037.57 153.19L1039.5 164.3L1040.29 175.51L1039.93 186.78L1038.42 198.07L1035.75 209.33L1031.9 220.5L1026.91 231.54L1020.77 242.42L1013.5 253.07L1005.11 263.44L995.639 273.5L985.099 283.19L973.529 292.48L960.979 301.32L947.469 309.66L933.079 317.48L917.829 324.72L901.779 331.36L884.989 337.36L867.539 342.69L849.459 347.31L830.849 351.21L811.759 354.36L792.279 356.73L772.459 358.32L752.399 359.1L732.179 359.06L711.869 358.2L691.549 356.51L671.309 353.98L651.229 350.63L631.389 346.45L611.879 341.45L592.769 335.64L574.139 329.04L556.079 321.68L538.669 313.56L521.949 304.72L506.049 295.17L490.989 284.96L476.859 274.12L463.729 262.68L451.649 250.68L440.679 238.17L430.859 225.19L422.259 211.78L414.919 198L408.859 183.9L404.119 169.52L400.749 154.93L398.769 140.17L398.159 125.31L398.969 110.4L401.199 95.4899L404.839 80.6599L409.909 65.9398L416.369 51.3999L424.219 37.0999L433.429 23.0999L443.979 9.45984L455.839 -3.78015L468.969 -16.5602L483.319 -28.8201L498.839 -40.5201L515.479 -51.6101L533.169 -62.0402L551.869 -71.7601L571.489 -80.7401L591.969 -88.9302L613.219 -96.3102L635.179 -102.83L657.739 -108.47L680.849 -113.19L704.379 -116.99L728.269 -119.84L752.399 -121.72L776.699 -122.62L801.059 -122.54L825.379 -121.46L849.579 -119.4L873.529 -116.36L897.169 -112.34L920.379 -107.35L943.059 -101.41L965.129 -94.5502L986.489 -86.7802L1007.05 -78.1501L1026.73 -68.6602L1045.44 -58.3701L1063.1 -47.3002L1079.62 -35.5101L1094.95 -23.0302L1109.02 -9.92017L1121.74 3.7699L1133.07 17.9899L1142.96 32.6898L1151.35 47.8099L1158.2 63.2799L1163.48 79.0299L1167.16 95.0199L1169.2 111.17L1169.6 127.42L1168.34 143.7L1165.42 159.94L1160.84 176.07L1154.61 192.04L1146.74 207.76L1137.25 223.18L1126.19 238.22L1113.57 252.83L1099.44 266.92L1083.86 280.47L1066.86 293.39L1048.53 305.62L1028.9 317.12L1008.08 327.83L986.129 337.7L963.119 346.69L939.139 354.75L914.289 361.83L888.679 367.92L862.359 372.96L835.479 376.94L808.119 379.84L780.389 381.61L752.399 382.27L724.269 381.79L696.099 380.16L667.999 377.39L640.089 373.48L612.489 368.42L585.289 362.25L558.609 354.97L532.579 346.59L507.279 337.16L482.819 326.69L459.309 315.22L436.849 302.79L415.529 289.44L395.429 275.22L376.659 260.17L359.279 244.35L343.379 227.82L329.019 210.63L316.279 192.86L305.209 174.55L295.849 155.79L288.269 136.63L282.489 117.16L278.549 97.4498L276.479 77.5698L276.289 57.5898L277.969 37.5999L281.559 17.6599L287.029 -2.14014L294.379 -21.7201L303.579 -41.0201L314.589 -59.9501L327.409 -78.4401L341.969 -96.4202L358.229 -113.81L376.129 -130.56L395.609 -146.58L416.579 -161.82L438.989 -176.22L462.749 -189.71L487.749 -202.24L513.929 -213.76L541.169 -224.23L569.359 -233.6L598.409 -241.82L628.209 -248.87L658.609 -254.72L689.529 -259.34L720.839 -262.7L752.399 -264.8L784.109 -265.62L815.819 -265.16L847.419 -263.4L878.779 -260.38L909.769 -256.08L940.269 -250.52L970.149 -243.73L999.289 -235.73L1027.58 -226.55L1054.9 -216.22L1081.13 -204.78L1106.16 -192.29L1129.89 -178.78L1152.23 -164.31L1173.06 -148.93L1192.32 -132.7L1209.9 -115.7L1225.75 -97.9901L1239.78 -79.6301L1251.94 -60.7101L1262.17 -41.3002L1270.41 -21.4601L1276.63 -1.31018L1280.79 19.0999L1282.88 39.6799V60.3398L1280.76 80.9999L1276.55 101.57L1270.24 121.96L1261.85 142.1L1251.41 161.89L1238.95 181.27L1224.51 200.13L1208.15 218.39L1189.92 236.01L1169.88 252.87L1148.11 268.92L1124.69 284.08L1099.71 298.29L1073.26 311.48" stroke="#E25319" stroke-width="3.13" stroke-linecap="round" stroke-linejoin="round"/>
<path d="M1170.47 264.1L1144.56 280.75L1117.2 296.28L1088.51 310.66L1058.59 323.83L1027.6 335.75L995.619 346.36L962.819 355.65L929.319 363.58L895.239 370.13L860.729 375.29L825.939 379.03L790.989 381.36L756.029 382.27L721.179 381.76L686.599 379.86L652.429 376.56L618.769 371.89L585.789 365.89L553.589 358.59L522.319 350.01L492.069 340.2L462.989 329.22L435.159 317.1L408.719 303.9" stroke="white" stroke-width="6.25" stroke-linecap="round" stroke-linejoin="round"/>
<path d="M1350.22 96.52L1330.87 120.92L1309.29 144.47L1285.57 167.07L1259.81 188.65L1232.12 209.13L1202.61 228.42L1171.4 246.47L1138.63 263.2L1104.42 278.56L1068.9 292.5L1032.23 304.95L994.559 315.89L956.019 325.27L916.799 333.08L877.019 339.27L836.859 343.85L796.469 346.79L756.019 348.08L715.659 347.75L675.559 345.79L635.879 342.21L596.759 337.05L558.349 330.32L520.829 322.08L484.329 312.33L448.979 301.15L414.939 288.59L382.319 274.69L351.269 259.51L321.869 243.14L294.279 225.63L268.569 207.06L244.859 187.53L223.219 167.1" stroke="white" stroke-width="6.25" stroke-linecap="round" stroke-linejoin="round"/>
<path d="M1449.7 -75.49L1436.73 -46.72L1421.08 -18.55L1402.84 8.93005L1382.06 35.59L1358.83 61.34L1333.25 86.1L1305.42 109.76L1275.46 132.23L1243.49 153.44L1209.65 173.3L1174.04 191.75L1136.84 208.71L1098.19 224.12L1058.22 237.94L1017.13 250.11L975.059 260.59L932.169 269.34L888.659 276.34L844.679 281.56L800.409 285L756.019 286.64L711.699 286.48L667.609 284.55L623.939 280.83L580.859 275.37L538.529 268.17L497.099 259.3L456.779 248.77L417.689 236.65L379.989 222.99L343.829 207.84L309.349 191.27L276.699 173.36L245.979 154.18L217.319 133.82L190.839 112.35L166.619 89.88L144.769 66.49L125.369 42.29L108.489 17.36L94.1992 -8.17004" stroke="white" stroke-width="6.25" stroke-linecap="round" stroke-linejoin="round"/>
<path d="M1501 -273.59L1496.44 -242.46L1488.96 -211.58L1478.58 -181.07L1465.36 -151.04L1449.34 -121.61L1430.59 -92.8899L1409.18 -64.9899L1385.21 -38.0099L1358.75 -12.0698L1329.92 12.7601L1298.85 36.3701L1265.65 58.6802L1230.45 79.5901L1193.4 99.0502L1154.63 116.96L1114.32 133.26L1072.6 147.9L1029.66 160.83L985.667 172L940.777 181.37L895.197 188.9L849.087 194.58L802.637 198.38L756.027 200.3L709.437 200.34L663.067 198.49L617.087 194.78L571.687 189.22L527.047 181.84L483.337 172.68L440.727 161.78L399.387 149.17L359.487 134.94L321.187 119.13L284.617 101.8L249.937 83.0402L217.287 62.9302L186.777 41.5502L158.547 18.9801L132.687 -4.66992L109.307 -29.3099L88.497 -54.8398L70.337 -81.1399L54.907 -108.11L42.257 -135.64L32.427 -163.62L25.457 -191.92" stroke="white" stroke-width="6.25" stroke-linecap="round" stroke-linejoin="round"/>
<path d="M1496.44 -479.93L1501 -448.8L1502.62 -417.54L1501.29 -386.27L1497.01 -355.11L1489.81 -324.17L1479.7 -293.58L1466.73 -263.44L1450.95 -233.89L1432.41 -205.03L1411.2 -176.96L1387.4 -149.79L1361.08 -123.64L1332.38 -98.5999L1301.38 -74.7599L1268.22 -52.2199L1233.02 -31.06L1195.94 -11.3499L1157.11 6.83002L1116.68 23.3901L1074.82 38.3001L1031.68 51.5001L987.439 62.9201L942.289 72.5401L896.379 80.33L849.919 86.2401L803.069 90.2601L756.029 92.3801L708.969 92.6L662.089 90.9301L615.579 87.36L569.619 81.9201L524.369 74.6401L480.049 65.5401L436.799 54.6801L394.809 42.09L354.229 27.83L315.249 11.95L277.999 -5.4599L242.629 -24.3499L209.299 -44.6299L178.109 -66.2099L149.209 -89.0099L122.689 -112.93L98.6886 -137.87L77.2686 -163.73L58.5486 -190.4L42.5586 -217.79L29.3986 -245.76L19.1086 -274.2L11.7286 -302.99L7.28859 -332.03L5.80859 -361.2" stroke="white" stroke-width="6.25" stroke-linecap="round" stroke-linejoin="round"/>
<path d="M756.03 386C1170.12 386 1505.81 50.2136 1505.81 -364C1505.81 -778.214 1170.12 -1114 756.03 -1114C341.938 -1114 6.25 -778.214 6.25 -364C6.25 50.2136 341.938 386 756.03 386Z" stroke="white" stroke-width="12.5" stroke-linecap="round" stroke-linejoin="round"/>
</svg>
