<svg width="322" height="265" viewBox="0 0 322 265" fill="none" xmlns="http://www.w3.org/2000/svg">
<path d="M8.15105 48.3729L6.64169 38.0689L6.10547 27.7218L6.5457 17.3714L7.95907 7.05748L10.3456 -3.18367L13.692 -13.3089L17.9818 -23.2853L23.2082 -33.0663L29.3417 -42.6223L36.3622 -51.9102L44.2433 -60.9034L52.9519 -69.5591L62.4549 -77.8473L72.7159 -85.7384L83.6886 -93.1991L95.3398 -100.206L107.613 -106.727L120.466 -112.745L133.848 -118.226L147.707 -123.161L161.987 -127.53L176.627 -131.31L191.571 -134.495L206.771 -137.073L222.149 -139.029L237.653 -140.36L253.227 -141.062L268.804 -141.135L284.321 -140.582L299.716 -139.4L314.928 -137.599L329.906 -135.19L344.576 -132.178L358.892 -128.583L372.791 -124.416L386.223 -119.696L399.125 -114.439L411.455 -108.673L423.162 -102.424L434.194 -95.7114L444.518 -88.5684L454.084 -81.0216L462.859 -73.1041L470.806 -64.8456L477.893 -56.2893L484.093 -47.4615L489.385 -38.3954L493.741 -29.1374L497.147 -19.7237L499.587 -10.1909L501.06 -0.58199L501.55 9.07327" stroke="#E25319" stroke-width="3.13" stroke-linecap="round" stroke-linejoin="round"/>
<path d="M27.9148 113.163L23.6217 103.64L20.2322 93.9549L17.7597 84.1474L16.2139 74.2505L15.6016 64.3073L15.9292 54.3508L17.1937 44.4175L19.3981 34.5504L22.5228 24.7892L26.5676 15.1637L31.5127 5.71364L37.3416 -3.52124L44.0245 -12.5079L51.5482 -21.2132L59.8728 -29.6041L68.9753 -37.6474L78.8159 -45.31L89.355 -52.5622L100.553 -59.3841L112.366 -65.7393L124.752 -71.6079L137.654 -76.9702L151.03 -81.8061L164.823 -86.0892L178.98 -89.8129L193.445 -92.9608L208.157 -95.5161L223.069 -97.4756L238.11 -98.8294L253.226 -99.5708L268.36 -99.7065L283.45 -99.2266L298.428 -98.1409L313.25 -96.4495L327.844 -94.1623L342.156 -91.2892L356.134 -87.8435L369.715 -83.8384L382.846 -79.2905L395.484 -74.2195L407.565 -68.6455L419.051 -62.5915L429.885 -56.0841L440.036 -49.1496L449.456 -41.8179L458.109 -34.1156L465.96 -26.0756L472.974 -17.7311L479.127 -9.11847L484.394 -0.270842L488.749 8.77539L492.179 17.9838L494.668 27.3147L496.2 36.7317L496.776 46.1949L496.389 55.6648L495.045 65.0983L492.738 74.469" stroke="#E25319" stroke-width="3.13" stroke-linecap="round" stroke-linejoin="round"/>
<path d="M62.9513 168.652L56.5465 160.572L50.9029 152.244L46.0505 143.691L42.009 134.953L38.7916 126.055L36.4118 117.036L34.8925 107.93L34.2305 98.7677L34.4324 89.5891L35.5015 80.4204L37.4345 71.3079L40.2249 62.2849L43.8659 53.3777L48.341 44.626L53.637 36.0631L59.7307 27.7252L66.6056 19.6355L74.2285 11.8372L82.5763 4.34995L91.6193 -2.78973L101.318 -9.55868L111.635 -15.9304L122.535 -21.8752L133.971 -27.3764L145.9 -32.4076L158.283 -36.9522L171.056 -40.9971L184.187 -44.5156L197.612 -47.5012L211.282 -49.944L225.148 -51.8274L239.146 -53.1514L253.227 -53.9061L267.337 -54.0947L281.418 -53.7108L295.409 -52.7575L309.258 -51.2415L322.912 -49.1661L336.321 -46.5446L349.419 -43.3803L362.162 -39.6929L374.495 -35.4925L386.375 -30.7956L397.745 -25.6287L408.562 -20.0083L418.79 -13.9544L428.375 -7.49654L437.286 -0.658086L445.485 6.53456L452.936 14.0482L459.612 21.8532L465.48 29.9197L470.518 38.2146L474.705 46.7014L478.029 55.3504L480.465 64.1186L482.007 72.9795L482.646 81.8867L482.378 90.8105L481.203 99.7144L479.128 108.555L476.155 117.307L472.292 125.923L467.562 134.373" stroke="#E25319" stroke-width="3.13" stroke-linecap="round" stroke-linejoin="round"/>
<path d="M124.621 221.552L116.045 216.044L107.981 210.189L100.468 204.009L93.5333 197.525L87.2112 190.762L81.5213 183.745L76.4934 176.5L72.1507 169.052L68.5097 161.429L65.5903 153.661L63.4057 145.776L61.9625 137.809L61.2773 129.782L61.3435 121.729L62.1777 113.686L63.7665 105.675L66.1133 97.7315L69.2114 89.8868L73.0411 82.1712L77.6023 74.6111L82.8718 67.2398L88.8331 60.0836L95.463 53.1723L102.742 46.5324L110.636 40.1838L119.116 34.1629L128.163 28.4863L137.725 23.1771L147.774 18.2617L158.274 13.7502L169.18 9.66562L180.451 6.02462L192.049 2.8404L203.918 0.129506L216.02 -2.09812L228.303 -3.83918L240.726 -5.08374L253.228 -5.82187L265.769 -6.05688L278.297 -5.78215L290.766 -5.00099L303.119 -3.71671L315.31 -1.93593L327.289 0.341351L339.01 3.09859L350.422 6.32913L361.484 10.0198L372.149 14.1573L382.374 18.7185L392.112 23.6934L401.33 29.0589L409.986 34.7951L418.042 40.8756L425.47 47.2805L432.236 53.9799L438.316 60.9475L443.675 68.1566L448.296 75.581L452.159 83.184L455.24 90.9361L457.531 98.8106L459.02 106.771L459.699 114.785L459.563 122.818L458.606 130.845L456.836 138.822L454.254 146.726L450.871 154.518L446.697 162.164L441.749 169.635L436.036 176.903L429.588 183.937L422.428 190.696" stroke="#E25319" stroke-width="3.13" stroke-linecap="round" stroke-linejoin="round"/>
<path d="M253.225 199.349L253.712 199.368L254.195 199.425L254.662 199.521L255.119 199.656L255.546 199.822L255.946 200.027L256.313 200.265L256.644 200.533L256.932 200.831L257.171 201.156L257.359 201.503L257.492 201.871L257.568 202.258L257.581 202.659L257.525 203.072L257.406 203.489L257.217 203.913L256.966 204.337L256.635 204.754L256.241 205.164L255.771 205.565L255.234 205.945L254.632 206.306L253.963 206.647L253.225 206.955L252.434 207.233L251.58 207.475L250.67 207.68L249.713 207.842L248.71 207.961L247.668 208.027L246.589 208.047L245.48 208.011L244.351 207.918L243.203 207.769L242.051 207.564L240.889 207.296L239.734 206.968L238.588 206.578L237.463 206.127L236.367 205.614L235.302 205.042L234.279 204.406L233.306 203.711L232.389 202.96L231.535 202.155L230.747 201.298L230.042 200.388L229.416 199.435L228.89 198.432L228.453 197.392L228.116 196.317L227.89 195.211L227.771 194.079V192.92L227.89 191.752L228.132 190.567L228.5 189.375L228.993 188.184L229.612 187.002L230.363 185.824L231.244 184.669L232.253 183.537L233.388 182.431L234.649 181.362L236.03 180.333L237.536 179.353L239.151 178.426L240.882 177.555L242.713 176.751L244.646 176.013L246.671 175.354L248.78 174.772L250.968 174.272L253.225 173.862L255.546 173.544L257.912 173.322L260.325 173.196L262.768 173.173L265.231 173.256L267.703 173.438L270.176 173.729L272.635 174.13L275.075 174.636L277.474 175.248L279.828 175.97L282.122 176.794L284.349 177.724L286.494 178.757L288.543 179.889L290.489 181.114L292.323 182.434L294.028 183.841L295.6 185.331L297.023 186.9L298.294 188.538L299.403 190.243L300.34 192.01L301.098 193.831L301.67 195.694L302.051 197.594L302.24 199.527L302.223 201.48L302.001 203.45L301.571 205.419L300.932 207.388L300.085 209.345L299.026 211.278L297.758 213.181L296.282 215.041L294.6 216.855L292.714 218.609L290.632 220.297L288.364 221.913L285.905 223.439L283.27 224.875L280.47 226.212L277.504 227.44L274.393 228.553L271.142 229.542L267.763 230.403L264.267 231.128L260.673 231.714L256.985 232.154L253.225 232.442L249.409 232.578L245.549 232.554L241.653 232.376L237.751 232.031L233.852 231.525L229.972 230.853L226.13 230.022L222.34 229.023L218.622 227.861L214.988 226.543L211.46 225.067L208.05 223.439L204.777 221.661L201.652 219.741L198.696 217.679L195.919 215.488L193.341 213.171L190.964 210.735L188.813 208.193L186.893 205.548L185.218 202.811L183.798 199.994L182.639 197.108L181.752 194.155L181.147 191.156L180.822 188.121L180.786 185.056L181.047 181.974L181.603 178.893L182.457 175.821L183.606 172.769L185.056 169.754L186.797 166.785L188.829 163.875L191.146 161.039L193.745 158.281L196.614 155.623L199.749 153.071L203.132 150.635L206.763 148.331L210.622 146.167L214.697 144.151L218.98 142.297L223.448 140.609L228.086 139.097L232.879 137.769L237.811 136.637L242.855 135.697L248.002 134.966L253.225 134.439L258.511 134.122L263.827 134.022L269.16 134.142L274.489 134.479L279.788 135.032L285.034 135.803L290.214 136.796L295.292 138.001L300.257 139.414L305.09 141.04L309.76 142.863L314.248 144.886L318.541 147.097L322.613 149.49L326.446 152.055L330.027 154.786L333.331 157.672L336.349 160.701L339.063 163.862L341.457 167.139L343.522 170.525L345.243 174.004L346.61 177.565L347.617 181.19L348.255 184.867L348.517 188.578L348.398 192.308L347.898 196.045L347.014 199.772L345.74 203.469L344.088 207.124L342.056 210.725L339.649 214.25L336.872 217.683L333.738 221.012L330.249 224.22L326.419 227.295L322.265 230.221L317.793 232.981L313.03 235.57L307.983 237.966L302.67 240.164L297.113 242.15L291.337 243.914L285.352 245.444L279.192 246.734L272.873 247.777L266.425 248.562L259.865 249.088L253.225 249.346L246.532 249.333L239.81 249.048L233.084 248.489L226.384 247.651L219.738 246.542L213.171 245.159L206.713 243.504L200.388 241.581L194.221 239.396L188.243 236.96L182.481 234.272L176.946 231.346L171.683 228.185L166.699 224.806L162.021 221.218L157.675 217.431L153.677 213.459L150.046 209.318L146.795 205.022L143.949 200.583L141.519 196.022L139.513 191.355L137.945 186.595L136.829 181.766L136.174 176.88L135.972 171.962L136.24 167.026L136.978 162.091L138.183 157.182L139.861 152.31L141.999 147.497L144.598 142.764L147.646 138.13L151.138 133.615L155.064 129.233L159.41 125.003L164.16 120.945L169.297 117.072L174.805 113.401L180.66 109.949L186.85 106.731L193.344 103.759L200.123 101.048L207.157 98.6053L214.425 96.4472L221.893 94.5804L229.542 93.0181L237.331 91.7603L245.238 90.8169L253.225 90.1946L261.269 89.8967L269.332 89.9232L277.382 90.2807L285.392 90.9625L293.319 91.9688L301.144 93.2994L308.827 94.9511L316.334 96.9172L323.639 99.1879L330.709 101.76L337.514 104.616L344.028 107.757L350.221 111.163L356.067 114.828L361.535 118.73L366.609 122.861L371.266 127.2L375.477 131.732L379.227 136.439L382.501 141.304L385.278 146.309L387.545 151.43L389.293 156.643L390.511 161.936L391.186 167.281L391.318 172.66L390.901 178.049L389.935 183.424L388.419 188.763L386.357 194.049L383.752 199.253L380.611 204.357L376.95 209.335L372.773 214.171L368.095 218.834L362.939 223.319L357.312 227.596L351.244 231.644L344.747 235.451L337.855 238.996L330.59 242.263L322.974 245.238L315.036 247.906L306.811 250.25L298.334 252.265L289.622 253.934L280.725 255.251L271.669 256.211L262.49 256.797L253.225 257.015L243.914 256.856L234.59 256.317L225.289 255.4L216.051 254.106L206.915 252.431L197.912 250.389L189.081 247.979L180.465 245.205L172.09 242.084L163.994 238.618L156.212 234.822L148.778 230.707L141.721 226.289L135.068 221.582L128.855 216.6L123.102 211.364L117.84 205.892L113.086 200.202L108.869 194.321L105.205 188.26L102.107 182.05L99.5982 175.708L97.685 169.264L96.3809 162.74L95.6957 156.16L95.6328 149.546L96.1889 142.93L97.3772 136.329L99.1877 129.776L101.621 123.295L104.666 116.906L108.31 110.641L112.554 104.52L117.373 98.5689L122.755 92.8128L128.68 87.2686L135.128 81.966L142.069 76.9215L149.487 72.1551L157.351 67.6899L165.626 63.5425L174.292 59.7294L183.308 56.2638L192.639 53.1623L202.255 50.4415L212.118 48.108L222.181 46.1716L232.415 44.6424L242.779 43.5303L253.225 42.8351L263.721 42.5637L274.217 42.716L284.677 43.2985L295.057 44.2982L305.315 45.7215L315.41 47.5618L325.3 49.8093L334.946 52.4573L344.31 55.4959L353.353 58.9151L362.035 62.7017L370.32 66.8359L378.174 71.3077L385.569 76.0973L392.464 81.1881L398.839 86.5603L404.658 92.1873L409.904 98.0493L414.548 104.126L418.573 110.389L421.959 116.814L424.687 123.381L426.745 130.05L428.122 136.806L428.814 143.618V150.456L428.112 157.295L426.719 164.104L424.63 170.853L421.853 177.519L418.398 184.07L414.273 190.484L409.494 196.727L404.078 202.771L398.044 208.603L391.411 214.184L384.205 219.496L376.453 224.514L368.185 229.218L359.43 233.584" stroke="#E25319" stroke-width="3.13" stroke-linecap="round" stroke-linejoin="round"/>
<path d="M391.608 217.901L383.032 223.412L373.976 228.553L364.479 233.313L354.576 237.672L344.318 241.617L333.733 245.129L322.876 248.204L311.787 250.829L300.507 252.997L289.084 254.705L277.569 255.943L266 256.714L254.428 257.015L242.893 256.847L231.447 256.218L220.137 255.125L208.995 253.58L198.079 251.594L187.421 249.177L177.07 246.337L167.058 243.09L157.432 239.456L148.22 235.444L139.469 231.075" stroke="white" stroke-width="6.25" stroke-linecap="round" stroke-linejoin="round"/>
<path d="M451.103 162.432L444.699 170.509L437.556 178.304L429.704 185.784L421.178 192.927L412.012 199.706L402.245 206.091L391.914 212.066L381.067 217.603L369.744 222.687L357.986 227.302L345.849 231.422L333.38 235.044L320.623 238.148L307.641 240.733L294.474 242.782L281.181 244.298L267.812 245.272L254.423 245.698L241.064 245.589L227.791 244.941L214.657 243.755L201.708 242.048L188.994 239.82L176.575 237.092L164.494 233.865L152.793 230.165L141.526 226.007L130.729 221.406L120.451 216.382L110.72 210.963L101.587 205.168L93.0773 199.021L85.2292 192.556L78.0664 185.794" stroke="white" stroke-width="6.25" stroke-linecap="round" stroke-linejoin="round"/>
<path d="M484.034 105.497L479.741 115.02L474.561 124.344L468.523 133.44L461.645 142.264L453.956 150.788L445.489 158.983L436.277 166.815L426.36 174.252L415.778 181.273L404.577 187.846L392.79 193.953L380.477 199.567L367.684 204.668L354.454 209.242L340.853 213.27L326.928 216.739L312.731 219.636L298.33 221.953L283.772 223.68L269.119 224.819L254.426 225.362L239.756 225.309L225.162 224.67L210.707 223.439L196.448 221.631L182.436 219.248L168.723 216.312L155.377 212.827L142.438 208.815L129.96 204.294L117.991 199.279L106.578 193.794L95.7708 187.866L85.6025 181.518L76.116 174.778L67.3511 167.672L59.3343 160.234L52.1019 152.492L45.6805 144.482L40.0933 136.23L35.3633 127.78" stroke="white" stroke-width="6.25" stroke-linecap="round" stroke-linejoin="round"/>
<path d="M501.013 39.9258L499.504 50.2298L497.028 60.4511L493.592 70.5499L489.216 80.4898L483.914 90.2312L477.707 99.7375L470.621 108.972L462.687 117.903L453.928 126.489L444.386 134.708L434.101 142.523L423.112 149.907L411.461 156.828L399.197 163.27L386.365 169.198L373.022 174.593L359.213 179.439L345 183.719L330.439 187.416L315.58 190.518L300.493 193.01L285.231 194.89L269.856 196.148L254.428 196.783L239.007 196.797L223.658 196.184L208.439 194.956L193.411 193.116L178.636 190.673L164.168 187.641L150.064 184.033L136.38 179.859L123.173 175.149L110.496 169.916L98.3913 164.18L86.9123 157.97L76.1051 151.314L66.0063 144.237L56.6622 136.766L48.1025 128.938L40.3637 120.782L33.4756 112.332L27.4647 103.627L22.3573 94.6997L18.1702 85.5872L14.9164 76.3258L12.6094 66.9585" stroke="white" stroke-width="6.25" stroke-linecap="round" stroke-linejoin="round"/>
<path d="M499.504 -28.3728L501.013 -18.0688L501.55 -7.72171L501.109 2.62865L499.693 12.9426L497.309 23.1837L493.963 33.3091L489.67 43.2854L484.447 53.0664L478.31 62.6191L471.29 71.9103L463.412 80.9035L454.7 89.5592L445.2 97.8474L434.939 105.738L423.963 113.199L412.312 120.203L400.039 126.727L387.186 132.745L373.803 138.226L359.948 143.161L345.668 147.531L331.025 151.311L316.08 154.495L300.884 157.073L285.506 159.029L269.999 160.36L254.428 161.062L238.851 161.135L223.334 160.582L207.939 159.4L192.727 157.6L177.749 155.19L163.079 152.178L148.763 148.583L134.864 144.416L121.432 139.696L108.53 134.439L96.2004 128.677L84.4929 122.424L73.4607 115.711L63.1368 108.569L53.5709 101.022L44.7928 93.1042L36.8488 84.8491L29.7587 76.2894L23.5624 67.4616L18.2697 58.3955L13.9138 49.1375L10.5078 39.7238L8.06499 30.1943L6.59535 20.5821L6.10547 10.9268" stroke="white" stroke-width="6.25" stroke-linecap="round" stroke-linejoin="round"/>
<path d="M479.74 -93.1628L484.03 -83.64L487.423 -73.9549L489.895 -64.1474L491.441 -54.2505L492.054 -44.3072L491.726 -34.3508L490.458 -24.4175L488.257 -14.5503L485.129 -4.78915L481.084 4.83633L476.142 14.2864L470.313 23.5213L463.627 32.5079L456.107 41.2132L447.779 49.6041L438.677 57.644L428.839 65.31L418.3 72.5622L407.099 79.3841L395.286 85.7393L382.903 91.608L370.001 96.9702L356.625 101.806L342.832 106.089L328.675 109.813L314.211 112.961L299.494 115.516L284.586 117.476L269.542 118.829L254.429 119.574L239.295 119.707L224.205 119.227L209.224 118.141L194.405 116.45L179.811 114.162L165.499 111.289L151.521 107.844L137.94 103.838L124.806 99.2905L112.172 94.2195L100.09 88.6455L88.6043 82.5916L77.7674 76.0841L67.6156 69.1496L58.1987 61.818L49.5463 54.1156L41.695 46.0756L34.6811 37.7311L28.5278 29.1185L23.2616 20.2709L18.9057 11.2246L15.4765 2.0162L12.9874 -7.31469L11.4515 -16.7316L10.8789 -26.1949L11.2662 -35.6648L12.61 -45.1016L14.9171 -54.469" stroke="white" stroke-width="6.25" stroke-linecap="round" stroke-linejoin="round"/>
<path d="M444.699 -148.652L451.107 -140.572L456.748 -132.244L461.6 -123.691L465.645 -114.953L468.862 -106.055L471.239 -97.0355L472.761 -87.9297L473.423 -78.7676L473.222 -69.589L472.149 -60.4203L470.216 -51.3111L467.426 -42.2848L463.788 -33.3775L459.313 -24.6259L454.014 -16.0629L447.923 -7.72505L441.048 0.364593L433.425 8.16295L425.078 15.6502L416.035 22.7898L406.336 29.5588L396.019 35.9305L385.119 41.8753L373.683 47.3765L361.751 52.4077L349.371 56.9523L336.595 60.9972L323.467 64.5157L310.042 67.5013L296.372 69.9441L282.506 71.8275L268.508 73.1515L254.427 73.9062L240.317 74.0948L226.236 73.7109L212.245 72.7576L198.392 71.2416L184.738 69.1662L171.333 66.5447L158.232 63.3804L145.492 59.693L133.155 55.4926L121.279 50.7957L109.909 45.6288L99.0889 40.0085L88.8643 33.9545L79.2786 27.4967L70.3681 20.6582L62.1692 13.4656L54.7184 5.95187L48.0421 -1.85311L42.1735 -9.91958L37.1357 -18.2144L32.9452 -26.7013L29.6253 -35.3503L27.1891 -44.1185L25.6467 -52.9794L25.0078 -61.8866L25.2726 -70.8103L26.4477 -79.7142L28.5263 -88.5553L31.4987 -97.3069L35.3582 -105.926L40.0915 -114.373" stroke="white" stroke-width="6.25" stroke-linecap="round" stroke-linejoin="round"/>
<path d="M383.032 -201.552L391.608 -196.044L399.671 -190.189L407.188 -184.009L414.122 -177.525L420.445 -170.762L426.134 -163.745L431.162 -156.5L435.505 -149.052L439.146 -141.429L442.065 -133.661L444.25 -125.776L445.693 -117.809L446.378 -109.782L446.309 -101.729L445.478 -93.6857L443.889 -85.6755L441.543 -77.7315L438.444 -69.8868L434.615 -62.1712L430.054 -54.6112L424.784 -47.2398L418.823 -40.0836L412.193 -33.1723L404.914 -26.5324L397.02 -20.1872L388.536 -14.163L379.493 -8.48631L369.931 -3.17708L359.878 1.73826L349.382 6.24979L338.476 10.3343L327.205 13.9753L315.607 17.1596L303.737 19.8704L291.636 22.0981L279.353 23.8392L266.93 25.0837L254.428 25.8252L241.887 26.0568L229.358 25.7821L216.889 25.0009L204.537 23.7167L192.346 21.9359L180.367 19.6586L168.646 16.9014L157.233 13.6708L146.168 9.98017L135.507 5.84267L125.282 1.28148L115.544 -3.69344L106.326 -9.05896L97.6699 -14.7952L89.6134 -20.8757L82.1824 -27.2805L75.4168 -33.9799L69.3396 -40.9475L63.9807 -48.1567L59.36 -55.581L55.4972 -63.1841L52.4156 -70.9361L50.1218 -78.8106L48.6356 -86.7711L47.957 -94.7846L48.0927 -102.818L49.0493 -110.845L50.8202 -118.825L53.3987 -126.726L56.7848 -134.518L60.9554 -142.164L65.9072 -149.635L71.6202 -156.903L78.0681 -163.937L85.2276 -170.696" stroke="white" stroke-width="6.25" stroke-linecap="round" stroke-linejoin="round"/>
<path d="M254.427 258.25C391.492 258.25 502.604 147.105 502.604 10C502.604 -127.105 391.492 -238.25 254.427 -238.25C117.363 -238.25 6.25 -127.105 6.25 10C6.25 147.105 117.363 258.25 254.427 258.25Z" stroke="white" stroke-width="12.5" stroke-linecap="round" stroke-linejoin="round"/>
</svg>
