<svg preserveAspectRatio="none" width="100%" height="100%" overflow="visible" style="display: block;" viewBox="0 0 2000 2000" fill="none" xmlns="http://www.w3.org/2000/svg">
<g id="Circular element 25">
<path id="Vector" d="M582.14 371.9L608.06 355.25L635.42 339.72L664.11 325.34L694.02 312.17L725.02 300.25L757 289.64L789.79 280.35L823.3 272.42L857.38 265.87L891.88 260.71L926.68 256.97L961.63 254.64L996.59 253.73L1031.44 254.24L1066.01 256.14L1100.19 259.44L1133.85 264.11L1166.83 270.11L1199.03 277.41L1230.3 285.99L1260.55 295.8L1289.63 306.78L1317.46 318.9L1343.9 332.1" stroke="var(--stroke-0, #E25319)" stroke-width="3.13" stroke-linecap="round" stroke-linejoin="round"/>
<path id="Vector_2" d="M402.39 539.48L421.75 515.08L443.33 491.53L467.05 468.93L492.81 447.35L520.49 426.87L550.01 407.58L581.22 389.53L613.99 372.8L648.2 357.44L683.72 343.5L720.38 331.05L758.06 320.11L796.59 310.73L835.82 302.92L875.6 296.73L915.76 292.15L956.14 289.21L996.6 287.92L1036.96 288.25L1077.06 290.21L1116.74 293.79L1155.86 298.95L1194.26 305.68L1231.79 313.92L1268.29 323.67L1303.64 334.85L1337.68 347.42L1370.29 361.31L1401.35 376.49L1430.75 392.86L1458.34 410.37L1484.05 428.94L1507.76 448.48L1529.4 468.9" stroke="var(--stroke-0, #E25319)" stroke-width="3.13" stroke-linecap="round" stroke-linejoin="round"/>
<path id="Vector_3" d="M302.92 711.49L315.89 682.72L331.53 654.55L349.78 627.07L370.56 600.41L393.79 574.66L419.37 549.9L447.19 526.24L477.15 503.77L509.12 482.56L542.97 462.7L578.57 444.25L615.78 427.29L654.43 411.88L694.4 398.06L735.48 385.89L777.56 375.41L820.45 366.66L863.96 359.66L907.94 354.44L952.21 351L996.6 349.36L1040.92 349.52L1085 351.45L1128.68 355.17L1171.76 360.63L1214.09 367.82L1255.51 376.7L1295.84 387.23L1334.93 399.35L1372.63 413.01L1408.79 428.16L1443.27 444.73L1475.92 462.64L1506.63 481.82L1535.3 502.18L1561.78 523.65L1585.99 546.12L1607.85 569.51L1627.25 593.71L1644.13 618.64L1658.42 644.17" stroke="var(--stroke-0, #E25319)" stroke-width="3.13" stroke-linecap="round" stroke-linejoin="round"/>
<path id="Vector_4" d="M251.62 909.59L256.17 878.46L263.66 847.58L274.04 817.07L287.25 787.04L303.28 757.61L322.03 728.89L343.44 700.99L367.41 674.01L393.87 648.07L422.69 623.24L453.77 599.63L486.97 577.32L522.16 556.41L559.21 536.96L597.99 519.04L638.3 502.74L680.01 488.1L722.96 475.17L766.95 464L811.84 454.63L857.42 447.1L903.53 441.43L949.98 437.62L996.59 435.7L1043.18 435.66L1089.55 437.51L1135.53 441.22L1180.92 446.77L1225.57 454.16L1269.28 463.32L1311.88 474.22L1353.22 486.83L1393.12 501.06L1431.43 516.87L1468 534.2L1502.67 552.96L1535.33 573.07L1565.84 594.46L1594.07 617.02L1619.93 640.67L1643.31 665.31L1664.12 690.84L1682.28 717.14L1697.71 744.11L1710.36 771.64L1720.19 799.62L1727.15 827.92" stroke="var(--stroke-0, #E25319)" stroke-width="3.13" stroke-linecap="round" stroke-linejoin="round"/>
<path id="Vector_5" d="M256.18 1115.93L251.62 1084.8L250 1053.54L251.33 1022.27L255.6 991.11L262.81 960.17L272.92 929.58L285.88 899.44L301.67 869.89L320.2 841.02L341.41 812.96L365.22 785.79L391.53 759.64L420.24 734.6L451.24 710.76L484.39 688.22L519.59 667.05L556.67 647.35L595.5 629.17L635.93 612.61L677.8 597.7L720.94 584.5L765.17 573.08L810.32 563.46L856.24 555.67L902.7 549.76L949.54 545.74L996.59 543.62L1043.65 543.4L1090.53 545.07L1137.04 548.64L1183 554.08L1228.25 561.36L1272.57 570.46L1315.82 581.32L1357.81 593.91L1398.39 608.17L1437.37 624.05L1474.62 641.47L1509.99 660.35L1543.32 680.63L1574.51 702.21L1603.41 725.01L1629.92 748.93L1653.93 773.88L1675.34 799.73L1694.07 826.4L1710.06 853.79L1723.22 881.76L1733.51 910.2L1740.88 939L1745.33 968.03L1746.81 997.2" stroke="var(--stroke-0, #E25319)" stroke-width="3.13" stroke-linecap="round" stroke-linejoin="round"/>
<path id="Vector_6" d="M315.89 1311.67L302.92 1282.9L292.68 1253.64L285.21 1224.01L280.54 1194.11L278.69 1164.07L279.68 1133.99L283.5 1103.98L290.16 1074.17L299.6 1044.68L311.82 1015.6L326.76 987.05L344.37 959.15L364.56 932L387.29 905.7L412.44 880.35L439.94 856.05L469.67 832.9L501.51 810.99L535.34 790.38L571.03 771.18L608.45 753.45L647.43 737.25L687.84 722.64L729.51 709.7L772.28 698.45L815.98 688.94L860.43 681.22L905.48 675.3L950.92 671.21L996.59 668.97L1042.31 668.56L1087.9 670.01L1133.15 673.29L1177.93 678.4L1222.02 685.31L1265.26 693.99L1307.49 704.4L1348.52 716.5L1388.19 730.24L1426.37 745.56L1462.87 762.4L1497.57 780.69L1530.3 800.35L1560.97 821.3L1589.43 843.45L1615.57 866.72L1639.29 891.01L1660.48 916.22L1679.07 942.24L1694.98 968.97L1708.14 996.3L1718.5 1024.12L1726.02 1052.31L1730.65 1080.76L1732.39 1109.35L1731.22 1137.96L1727.16 1166.46L1720.19 1194.77" stroke="var(--stroke-0, #E25319)" stroke-width="3.13" stroke-linecap="round" stroke-linejoin="round"/>
<path id="Vector_7" d="M421.74 1479.31L402.39 1454.9L385.34 1429.74L370.68 1403.9L358.47 1377.5L348.75 1350.62L341.56 1323.37L336.97 1295.86L334.97 1268.18L335.58 1240.45L338.81 1212.75L344.65 1185.22L353.08 1157.96L364.08 1131.05L377.6 1104.61L393.6 1078.74L412.01 1053.55L432.78 1029.11L455.81 1005.55L481.03 982.93L508.35 961.36L537.65 940.91L568.82 921.66L601.75 903.7L636.3 887.08L672.34 871.88L709.75 858.15L748.34 845.93L788.01 835.3L828.57 826.28L869.87 818.9L911.76 813.21L954.05 809.21L996.59 806.93L1039.22 806.36L1081.76 807.52L1124.03 810.4L1165.87 814.98L1207.12 821.25L1247.63 829.17L1287.2 838.73L1325.7 849.87L1362.96 862.56L1398.85 876.75L1433.2 892.36L1465.88 909.34L1496.78 927.63L1525.74 947.14L1552.66 967.8L1577.43 989.53L1599.94 1012.23L1620.11 1035.81L1637.84 1060.18L1653.06 1085.24L1665.71 1110.88L1675.75 1137.01L1683.11 1163.5L1687.77 1190.27L1689.7 1217.18L1688.89 1244.14L1685.34 1271.04L1679.07 1297.75L1670.09 1324.19L1658.42 1350.22L1644.13 1375.75" stroke="var(--stroke-0, #E25319)" stroke-width="3.13" stroke-linecap="round" stroke-linejoin="round"/>
<path id="Vector_8" d="M608.05 1639.13L582.14 1622.49L557.78 1604.8L535.08 1586.13L514.13 1566.54L495.03 1546.11L477.84 1524.91L462.65 1503.02L449.53 1480.52L438.53 1457.49L429.71 1434.02L423.11 1410.2L418.75 1386.13L416.68 1361.88L416.88 1337.55L419.4 1313.25L424.2 1289.05L431.29 1265.05L440.65 1241.35L452.22 1218.04L466 1195.2L481.92 1172.93L499.93 1151.31L519.96 1130.43L541.95 1110.37L565.8 1091.19L591.42 1073L618.75 1055.85L647.64 1039.81L678 1024.96L709.72 1011.33L742.67 998.99L776.72 987.99L811.76 978.37L847.62 970.18L884.18 963.45L921.29 958.19L958.82 954.43L996.59 952.2L1034.48 951.49L1072.33 952.32L1110 954.68L1147.32 958.56L1184.15 963.94L1220.34 970.82L1255.75 979.15L1290.23 988.91L1323.65 1000.06L1355.87 1012.56L1386.76 1026.34L1416.18 1041.37L1444.03 1057.58L1470.18 1074.91L1494.52 1093.28L1516.96 1112.63L1537.4 1132.87L1555.77 1153.92L1571.96 1175.7L1585.92 1198.13L1597.59 1221.1L1606.9 1244.52L1613.82 1268.31L1618.32 1292.36L1620.37 1316.57L1619.96 1340.84L1617.07 1365.09L1611.72 1389.19L1603.92 1413.07L1593.7 1436.61L1581.09 1459.71L1566.14 1482.28L1548.88 1504.24L1529.4 1525.49L1507.77 1545.91" stroke="var(--stroke-0, #E25319)" stroke-width="3.13" stroke-linecap="round" stroke-linejoin="round"/>
<path id="Vector_9" d="M996.59 1572.05L998.06 1572.11L999.52 1572.28L1000.93 1572.57L1002.31 1572.98L1003.6 1573.48L1004.81 1574.1L1005.92 1574.82L1006.92 1575.63L1007.79 1576.53L1008.51 1577.51L1009.08 1578.56L1009.48 1579.67L1009.71 1580.84L1009.75 1582.05L1009.58 1583.3L1009.22 1584.56L1008.65 1585.84L1007.89 1587.12L1006.89 1588.38L1005.7 1589.62L1004.28 1590.83L1002.66 1591.98L1000.84 1593.07L998.82 1594.1L996.59 1595.03L994.2 1595.87L991.62 1596.6L988.87 1597.22L985.98 1597.71L982.95 1598.07L979.8 1598.27L976.54 1598.33L973.19 1598.22L969.78 1597.94L966.31 1597.49L962.83 1596.87L959.32 1596.06L955.83 1595.07L952.37 1593.89L948.97 1592.53L945.66 1590.98L942.44 1589.25L939.35 1587.33L936.41 1585.23L933.64 1582.96L931.06 1580.53L928.68 1577.94L926.55 1575.19L924.66 1572.31L923.07 1569.28L921.75 1566.14L920.73 1562.89L920.05 1559.55L919.69 1556.13V1552.63L920.05 1549.1L920.78 1545.52L921.89 1541.92L923.38 1538.32L925.25 1534.75L927.52 1531.19L930.18 1527.7L933.23 1524.28L936.66 1520.94L940.47 1517.71L944.64 1514.6L949.19 1511.64L954.07 1508.84L959.3 1506.21L964.83 1503.78L970.67 1501.55L976.79 1499.56L983.16 1497.8L989.77 1496.29L996.59 1495.05L1003.6 1494.09L1010.75 1493.42L1018.04 1493.04L1025.42 1492.97L1032.86 1493.22L1040.33 1493.77L1047.8 1494.65L1055.23 1495.86L1062.6 1497.39L1069.85 1499.24L1076.96 1501.42L1083.89 1503.91L1090.62 1506.72L1097.1 1509.84L1103.29 1513.26L1109.17 1516.96L1114.71 1520.95L1119.86 1525.2L1124.61 1529.7L1128.91 1534.44L1132.75 1539.39L1136.1 1544.54L1138.93 1549.88L1141.22 1555.38L1142.95 1561.01L1144.1 1566.75L1144.67 1572.59L1144.62 1578.49L1143.95 1584.44L1142.65 1590.39L1140.72 1596.34L1138.16 1602.25L1134.96 1608.09L1131.13 1613.84L1126.67 1619.46L1121.59 1624.94L1115.89 1630.24L1109.6 1635.34L1102.75 1640.22L1095.32 1644.83L1087.36 1649.17L1078.9 1653.21L1069.94 1656.92L1060.54 1660.28L1050.72 1663.27L1040.51 1665.87L1029.95 1668.06L1019.09 1669.83L1007.95 1671.16L996.59 1672.03L985.06 1672.44L973.4 1672.37L961.63 1671.83L949.84 1670.79L938.06 1669.26L926.34 1667.23L914.73 1664.72L903.28 1661.7L892.05 1658.19L881.07 1654.21L870.41 1649.75L860.11 1644.83L850.22 1639.46L840.78 1633.66L831.85 1627.43L823.46 1620.81L815.67 1613.81L808.49 1606.45L801.99 1598.77L796.19 1590.78L791.13 1582.51L786.84 1574L783.34 1565.28L780.66 1556.36L778.83 1547.3L777.85 1538.13L777.74 1528.87L778.53 1519.56L780.21 1510.25L782.79 1500.97L786.26 1491.75L790.64 1482.64L795.9 1473.67L802.04 1464.88L809.04 1456.31L816.89 1447.98L825.56 1439.95L835.03 1432.24L845.25 1424.88L856.22 1417.92L867.88 1411.38L880.19 1405.29L893.13 1399.69L906.63 1394.59L920.64 1390.02L935.12 1386.01L950.02 1382.59L965.26 1379.75L980.81 1377.54L996.59 1375.95L1012.56 1374.99L1028.62 1374.69L1044.73 1375.05L1060.83 1376.07L1076.84 1377.74L1092.69 1380.07L1108.34 1383.07L1123.68 1386.71L1138.68 1390.98L1153.28 1395.89L1167.39 1401.4L1180.95 1407.51L1193.92 1414.19L1206.22 1421.42L1217.8 1429.17L1228.62 1437.42L1238.6 1446.14L1247.72 1455.29L1255.92 1464.84L1263.15 1474.74L1269.39 1484.97L1274.59 1495.48L1278.72 1506.24L1281.76 1517.19L1283.69 1528.3L1284.48 1539.51L1284.12 1550.78L1282.61 1562.07L1279.94 1573.33L1276.09 1584.5L1271.1 1595.54L1264.96 1606.42L1257.69 1617.07L1249.3 1627.44L1239.83 1637.5L1229.29 1647.19L1217.72 1656.48L1205.17 1665.32L1191.66 1673.66L1177.27 1681.48L1162.02 1688.72L1145.97 1695.36L1129.18 1701.36L1111.73 1706.69L1093.65 1711.31L1075.04 1715.21L1055.95 1718.36L1036.47 1720.73L1016.65 1722.32L996.59 1723.1L976.37 1723.06L956.06 1722.2L935.74 1720.51L915.5 1717.98L895.42 1714.63L875.58 1710.45L856.07 1705.45L836.96 1699.64L818.33 1693.04L800.27 1685.68L782.86 1677.56L766.14 1668.72L750.24 1659.17L735.18 1648.96L721.05 1638.12L707.92 1626.68L695.84 1614.68L684.87 1602.17L675.05 1589.19L666.45 1575.78L659.11 1562L653.05 1547.9L648.31 1533.52L644.94 1518.93L642.96 1504.17L642.35 1489.31L643.16 1474.4L645.39 1459.49L649.03 1444.66L654.1 1429.94L660.56 1415.4L668.41 1401.1L677.62 1387.1L688.17 1373.46L700.03 1360.22L713.16 1347.44L727.51 1335.18L743.03 1323.48L759.67 1312.39L777.36 1301.96L796.06 1292.24L815.68 1283.26L836.16 1275.07L857.41 1267.69L879.37 1261.17L901.93 1255.53L925.04 1250.81L948.57 1247.01L972.46 1244.16L996.59 1242.28L1020.89 1241.38L1045.25 1241.46L1069.57 1242.54L1093.77 1244.6L1117.72 1247.64L1141.36 1251.66L1164.57 1256.65L1187.25 1262.59L1209.32 1269.45L1230.68 1277.22L1251.24 1285.85L1270.92 1295.34L1289.63 1305.63L1307.29 1316.7L1323.81 1328.49L1339.14 1340.97L1353.21 1354.08L1365.93 1367.77L1377.26 1381.99L1387.15 1396.69L1395.54 1411.81L1402.39 1427.28L1407.67 1443.03L1411.35 1459.02L1413.39 1475.17L1413.79 1491.42L1412.53 1507.7L1409.61 1523.94L1405.03 1540.07L1398.8 1556.04L1390.93 1571.76L1381.44 1587.18L1370.38 1602.22L1357.76 1616.83L1343.63 1630.92L1328.05 1644.47L1311.05 1657.39L1292.72 1669.62L1273.09 1681.12L1252.27 1691.83L1230.32 1701.7L1207.31 1710.69L1183.33 1718.75L1158.48 1725.83L1132.87 1731.92L1106.55 1736.96L1079.67 1740.94L1052.31 1743.84L1024.58 1745.61L996.59 1746.27L968.46 1745.79L940.29 1744.16L912.19 1741.39L884.28 1737.48L856.68 1732.42L829.48 1726.25L802.8 1718.97L776.77 1710.59L751.47 1701.16L727.01 1690.69L703.5 1679.22L681.04 1666.79L659.72 1653.44L639.62 1639.22L620.85 1624.17L603.47 1608.35L587.57 1591.82L573.21 1574.63L560.47 1556.86L549.4 1538.55L540.04 1519.79L532.46 1500.63L526.68 1481.16L522.74 1461.45L520.67 1441.57L520.48 1421.59L522.16 1401.6L525.75 1381.66L531.22 1361.86L538.57 1342.28L547.77 1322.98L558.78 1304.05L571.6 1285.56L586.16 1267.58L602.42 1250.19L620.32 1233.44L639.8 1217.42L660.77 1202.18L683.18 1187.78L706.94 1174.29L731.94 1161.76L758.12 1150.24L785.36 1139.77L813.55 1130.4L842.6 1122.18L872.4 1115.13L902.8 1109.28L933.72 1104.66L965.03 1101.3L996.59 1099.2L1028.3 1098.38L1060.01 1098.84L1091.61 1100.6L1122.97 1103.62L1153.96 1107.92L1184.46 1113.48L1214.34 1120.27L1243.48 1128.27L1271.77 1137.45L1299.09 1147.78L1325.32 1159.22L1350.35 1171.71L1374.08 1185.22L1396.42 1199.69L1417.25 1215.07L1436.51 1231.3L1454.09 1248.3L1469.94 1266.01L1483.97 1284.37L1496.13 1303.29L1506.36 1322.7L1514.6 1342.54L1520.82 1362.69L1524.98 1383.1L1527.07 1403.68V1424.34L1524.95 1445L1520.74 1465.57L1514.43 1485.96L1506.04 1506.1L1495.6 1525.89L1483.14 1545.27L1468.7 1564.13L1452.34 1582.39L1434.11 1600.01L1414.07 1616.87L1392.3 1632.92L1368.88 1648.08L1343.9 1662.29L1317.45 1675.48" stroke="var(--stroke-0, #E25319)" stroke-width="3.13" stroke-linecap="round" stroke-linejoin="round"/>
<path id="Vector_10" d="M1414.66 1628.1L1388.75 1644.75L1361.39 1660.28L1332.7 1674.66L1302.78 1687.83L1271.79 1699.75L1239.81 1710.36L1207.01 1719.65L1173.51 1727.58L1139.43 1734.13L1104.92 1739.29L1070.13 1743.03L1035.18 1745.36L1000.22 1746.27L965.37 1745.76L930.79 1743.86L896.62 1740.56L862.96 1735.89L829.98 1729.89L797.78 1722.59L766.51 1714.01L736.26 1704.2L707.18 1693.22L679.35 1681.1L652.91 1667.9" stroke="var(--stroke-0, white)" stroke-width="6.25" stroke-linecap="round" stroke-linejoin="round"/>
<path id="Vector_11" d="M1594.41 1460.52L1575.06 1484.92L1553.48 1508.47L1529.76 1531.07L1504 1552.65L1476.31 1573.13L1446.8 1592.42L1415.59 1610.47L1382.82 1627.2L1348.61 1642.56L1313.09 1656.5L1276.42 1668.95L1238.75 1679.89L1200.21 1689.27L1160.99 1697.08L1121.21 1703.27L1081.05 1707.85L1040.66 1710.79L1000.21 1712.08L959.85 1711.75L919.75 1709.79L880.07 1706.21L840.95 1701.05L802.54 1694.32L765.02 1686.08L728.52 1676.33L693.17 1665.15L659.13 1652.59L626.51 1638.69L595.46 1623.51L566.06 1607.14L538.47 1589.63L512.76 1571.06L489.05 1551.53L467.41 1531.1" stroke="var(--stroke-0, white)" stroke-width="6.25" stroke-linecap="round" stroke-linejoin="round"/>
<path id="Vector_12" d="M1693.89 1288.51L1680.92 1317.28L1665.27 1345.45L1647.03 1372.93L1626.25 1399.59L1603.02 1425.34L1577.44 1450.1L1549.61 1473.76L1519.65 1496.23L1487.68 1517.44L1453.84 1537.3L1418.23 1555.75L1381.03 1572.71L1342.38 1588.12L1302.41 1601.94L1261.32 1614.11L1219.25 1624.59L1176.36 1633.34L1132.85 1640.34L1088.87 1645.56L1044.6 1649L1000.21 1650.64L955.89 1650.48L911.8 1648.55L868.13 1644.83L825.05 1639.37L782.72 1632.17L741.29 1623.3L700.97 1612.77L661.88 1600.65L624.18 1586.99L588.02 1571.84L553.54 1555.27L520.89 1537.36L490.17 1518.18L461.51 1497.82L435.03 1476.35L410.81 1453.88L388.96 1430.49L369.56 1406.29L352.68 1381.36L338.39 1355.83" stroke="var(--stroke-0, white)" stroke-width="6.25" stroke-linecap="round" stroke-linejoin="round"/>
<path id="Vector_13" d="M1745.19 1090.41L1740.63 1121.54L1733.15 1152.42L1722.77 1182.93L1709.55 1212.96L1693.53 1242.39L1674.78 1271.11L1653.37 1299.01L1629.4 1325.99L1602.94 1351.93L1574.11 1376.76L1543.04 1400.37L1509.84 1422.68L1474.64 1443.59L1437.59 1463.05L1398.82 1480.96L1358.51 1497.26L1316.79 1511.9L1273.85 1524.83L1229.86 1536L1184.97 1545.37L1139.39 1552.9L1093.28 1558.58L1046.83 1562.38L1000.22 1564.3L953.63 1564.34L907.26 1562.49L861.28 1558.78L815.88 1553.22L771.24 1545.84L727.53 1536.68L684.92 1525.78L643.58 1513.17L603.68 1498.94L565.38 1483.13L528.81 1465.8L494.13 1447.04L461.48 1426.93L430.97 1405.55L402.74 1382.98L376.88 1359.33L353.5 1334.69L332.69 1309.16L314.53 1282.86L299.1 1255.89L286.45 1228.36L276.62 1200.38L269.65 1172.08" stroke="var(--stroke-0, white)" stroke-width="6.25" stroke-linecap="round" stroke-linejoin="round"/>
<path id="Vector_14" d="M1740.63 884.07L1745.19 915.2L1746.81 946.46L1745.48 977.73L1741.2 1008.89L1734 1039.83L1723.89 1070.42L1710.92 1100.56L1695.14 1130.11L1676.6 1158.97L1655.39 1187.04L1631.59 1214.21L1605.27 1240.36L1576.57 1265.4L1545.57 1289.24L1512.41 1311.78L1477.21 1332.94L1440.13 1352.65L1401.3 1370.83L1360.87 1387.39L1319.01 1402.3L1275.87 1415.5L1231.63 1426.92L1186.48 1436.54L1140.57 1444.33L1094.11 1450.24L1047.26 1454.26L1000.22 1456.38L953.16 1456.6L906.28 1454.93L859.77 1451.36L813.81 1445.92L768.56 1438.64L724.24 1429.54L680.99 1418.68L639 1406.09L598.42 1391.83L559.44 1375.95L522.19 1358.54L486.82 1339.65L453.49 1319.37L422.3 1297.79L393.4 1274.99L366.88 1251.07L342.88 1226.13L321.46 1200.27L302.74 1173.6L286.75 1146.21L273.59 1118.24L263.3 1089.8L255.92 1061.01L251.48 1031.97L250 1002.8" stroke="var(--stroke-0, white)" stroke-width="6.25" stroke-linecap="round" stroke-linejoin="round"/>
<path id="Vector_15" d="M1680.92 688.33L1693.88 717.1L1704.13 746.36L1711.6 775.99L1716.27 805.89L1718.12 835.93L1717.13 866.01L1713.3 896.02L1706.65 925.83L1697.2 955.32L1684.98 984.4L1670.05 1012.95L1652.44 1040.85L1632.24 1068L1609.52 1094.3L1584.36 1119.65L1556.86 1143.94L1527.14 1167.1L1495.3 1189.01L1461.46 1209.62L1425.77 1228.82L1388.36 1246.55L1349.38 1262.75L1308.97 1277.36L1267.3 1290.3L1224.53 1301.55L1180.83 1311.06L1136.37 1318.78L1091.33 1324.7L1045.88 1328.79L1000.22 1331.04L954.5 1331.44L908.91 1329.99L863.65 1326.71L818.88 1321.6L774.79 1314.69L731.55 1306.01L689.32 1295.6L648.29 1283.5L608.61 1269.76L570.44 1254.44L533.94 1237.6L499.24 1219.31L466.5 1199.65L435.83 1178.7L407.38 1156.55L381.24 1133.28L357.52 1108.99L336.33 1083.78L317.74 1057.76L301.83 1031.03L288.67 1003.7L278.31 975.88L270.79 947.69L266.15 919.24L264.42 890.65L265.59 862.04L269.65 833.53L276.62 805.23" stroke="var(--stroke-0, white)" stroke-width="6.25" stroke-linecap="round" stroke-linejoin="round"/>
<path id="Vector_16" d="M1575.06 520.69L1594.42 545.1L1611.46 570.26L1626.12 596.1L1638.34 622.5L1648.06 649.38L1655.24 676.63L1659.84 704.14L1661.84 731.82L1661.23 759.55L1657.99 787.25L1652.15 814.77L1643.72 842.04L1632.73 868.95L1619.21 895.39L1603.2 921.26L1584.8 946.45L1564.03 970.89L1541 994.45L1515.78 1017.07L1488.46 1038.64L1459.16 1059.09L1427.99 1078.34L1395.06 1096.3L1360.51 1112.92L1324.46 1128.12L1287.06 1141.85L1248.46 1154.07L1208.8 1164.7L1168.24 1173.72L1126.94 1181.1L1085.05 1186.79L1042.76 1190.79L1000.22 1193.07L957.59 1193.64L915.05 1192.48L872.78 1189.6L830.93 1185.02L789.68 1178.75L749.18 1170.83L709.6 1161.27L671.11 1150.13L633.84 1137.44L597.96 1123.25L563.61 1107.64L530.92 1090.66L500.03 1072.37L471.07 1052.86L444.15 1032.2L419.38 1010.47L396.87 987.77L376.7 964.19L358.97 939.82L343.75 914.76L331.09 889.12L321.06 862.99L313.7 836.5L309.04 809.73L307.11 782.82L307.91 755.86L311.46 728.96L317.74 702.25L326.72 675.81L338.38 649.77L352.68 624.25" stroke="var(--stroke-0, white)" stroke-width="6.25" stroke-linecap="round" stroke-linejoin="round"/>
<path id="Vector_17" d="M1388.75 360.87L1414.66 377.51L1439.02 395.2L1461.73 413.87L1482.68 433.46L1501.78 453.89L1518.97 475.09L1534.16 496.98L1547.28 519.48L1558.28 542.51L1567.1 565.98L1573.7 589.8L1578.06 613.87L1580.13 638.12L1579.92 662.45L1577.41 686.75L1572.61 710.95L1565.52 734.95L1556.16 758.65L1544.59 781.96L1530.81 804.8L1514.89 827.07L1496.88 848.69L1476.85 869.57L1454.86 889.63L1431.01 908.8L1405.38 927L1378.06 944.15L1349.17 960.19L1318.8 975.04L1287.09 988.67L1254.14 1001.01L1220.09 1012.01L1185.05 1021.63L1149.19 1029.82L1112.63 1036.55L1075.52 1041.81L1037.99 1045.57L1000.22 1047.81L962.33 1048.51L924.48 1047.68L886.81 1045.32L849.49 1041.44L812.66 1036.06L776.47 1029.18L741.06 1020.85L706.58 1011.09L673.15 999.94L640.94 987.44L610.05 973.66L580.63 958.63L552.78 942.42L526.63 925.09L502.29 906.72L479.84 887.37L459.4 867.13L441.04 846.08L424.85 824.3L410.89 801.87L399.22 778.9L389.91 755.48L382.98 731.69L378.49 707.64L376.44 683.43L376.85 659.16L379.74 634.91L385.09 610.8L392.88 586.93L403.11 563.39L415.71 540.29L430.67 517.72L447.93 495.76L467.41 474.51L489.04 454.09" stroke="var(--stroke-0, white)" stroke-width="6.25" stroke-linecap="round" stroke-linejoin="round"/>
<path id="Vector_18" d="M1000.22 427.95L998.75 427.89L997.28 427.72L995.87 427.43L994.5 427.02L993.21 426.52L991.99 425.9L990.88 425.18L989.88 424.37L989.02 423.47L988.29 422.49L987.73 421.44L987.32 420.33L987.1 419.16L987.06 417.95L987.23 416.7L987.59 415.44L988.15 414.16L988.92 412.88L989.91 411.62L991.11 410.38L992.52 409.17L994.14 408.02L995.97 406.93L997.99 405.9L1000.22 404.97L1002.61 404.13L1005.19 403.4L1007.94 402.78L1010.83 402.29L1013.86 401.93L1017.01 401.73L1020.27 401.67L1023.62 401.78L1027.03 402.06L1030.5 402.51L1033.98 403.13L1037.49 403.94L1040.98 404.93L1044.43 406.11L1047.84 407.47L1051.15 409.02L1054.37 410.75L1057.46 412.67L1060.4 414.77L1063.17 417.04L1065.75 419.47L1068.13 422.06L1070.26 424.81L1072.14 427.69L1073.74 430.72L1075.06 433.86L1076.08 437.11L1076.76 440.45L1077.12 443.87V447.37L1076.75 450.9L1076.02 454.48L1074.92 458.07L1073.43 461.68L1071.55 465.25L1069.29 468.81L1066.62 472.3L1063.58 475.73L1060.15 479.06L1056.33 482.29L1052.16 485.4L1047.62 488.36L1042.73 491.17L1037.51 493.79L1031.98 496.23L1026.14 498.45L1020.02 500.44L1013.64 502.2L1007.03 503.71L1000.22 504.95L993.21 505.91L986.06 506.58L978.77 506.96L971.39 507.03L963.95 506.78L956.48 506.23L949.01 505.35L941.58 504.14L934.21 502.61L926.96 500.76L919.85 498.58L912.91 496.09L906.18 493.28L899.71 490.16L893.51 486.74L887.64 483.04L882.1 479.05L876.95 474.8L872.2 470.3L867.9 465.56L864.05 460.61L860.7 455.46L857.88 450.12L855.59 444.62L853.86 438.99L852.71 433.25L852.14 427.41L852.19 421.51L852.86 415.56L854.15 409.61L856.09 403.67L858.64 397.75L861.85 391.91L865.68 386.17L870.14 380.54L875.22 375.06L880.91 369.76L887.2 364.66L894.06 359.78L901.49 355.17L909.44 350.83L917.91 346.79L926.86 343.08L936.27 339.73L946.09 336.73L956.3 334.13L966.86 331.94L977.72 330.17L988.86 328.84L1000.22 327.97L1011.75 327.56L1023.41 327.63L1035.18 328.17L1046.97 329.21L1058.75 330.74L1070.46 332.77L1082.08 335.28L1093.53 338.3L1104.76 341.81L1115.73 345.79L1126.4 350.25L1136.7 355.17L1146.59 360.54L1156.03 366.34L1164.96 372.57L1173.35 379.19L1181.14 386.19L1188.32 393.55L1194.82 401.23L1200.61 409.23L1205.68 417.49L1209.97 426L1213.47 434.73L1216.15 443.64L1217.98 452.7L1218.96 461.87L1219.06 471.13L1218.28 480.44L1216.6 489.75L1214.02 499.03L1210.54 508.25L1206.16 517.36L1200.9 526.33L1194.77 535.12L1187.77 543.7L1179.92 552.02L1171.25 560.05L1161.78 567.76L1151.55 575.12L1140.59 582.08L1128.92 588.62L1116.62 594.71L1103.68 600.31L1090.18 605.41L1076.17 609.98L1061.68 613.99L1046.79 617.41L1031.54 620.25L1016 622.46L1000.22 624.05L984.25 625.01L968.19 625.31L952.07 624.95L935.98 623.93L919.97 622.26L904.12 619.93L888.47 616.93L873.13 613.29L858.12 609.02L843.53 604.11L829.42 598.6L815.86 592.49L802.89 585.81L790.58 578.58L779 570.83L768.19 562.58L758.2 553.86L749.09 544.71L740.89 535.16L733.66 525.26L727.42 515.03L722.21 504.52L718.09 493.76L715.04 482.81L713.12 471.7L712.33 460.49L712.69 449.22L714.2 437.93L716.87 426.67L720.71 415.5L725.71 404.46L731.85 393.58L739.12 382.93L747.51 372.56L756.98 362.5L767.52 352.81L779.09 343.52L791.64 334.68L805.14 326.34L819.54 318.52L834.79 311.28L850.84 304.64L867.63 298.64L885.08 293.31L903.15 288.69L921.77 284.79L940.86 281.64L960.34 279.27L980.16 277.68L1000.22 276.9L1020.43 276.94L1040.75 277.8L1061.06 279.49L1081.31 282.02L1101.39 285.37L1121.23 289.55L1140.74 294.55L1159.85 300.36L1178.48 306.96L1196.53 314.32L1213.95 322.44L1230.66 331.28L1246.57 340.83L1261.63 351.04L1275.76 361.88L1288.89 373.32L1300.97 385.32L1311.94 397.83L1321.76 410.81L1330.36 424.22L1337.7 438L1343.76 452.1L1348.5 466.48L1351.87 481.07L1353.85 495.83L1354.46 510.69L1353.64 525.6L1351.41 540.51L1347.77 555.34L1342.71 570.06L1336.25 584.6L1328.4 598.9L1319.18 612.9L1308.63 626.54L1296.77 639.78L1283.65 652.56L1269.3 664.82L1253.78 676.52L1237.14 687.61L1219.44 698.04L1200.75 707.76L1181.13 716.74L1160.65 724.93L1139.39 732.31L1117.44 738.83L1094.88 744.47L1071.77 749.2L1048.24 752.99L1024.35 755.84L1000.22 757.72L975.92 758.62L951.56 758.54L927.24 757.46L903.04 755.4L879.09 752.36L855.45 748.34L832.24 743.35L809.56 737.41L787.49 730.55L766.13 722.78L745.57 714.15L725.89 704.66L707.18 694.37L689.52 683.3L673 671.51L657.66 659.03L643.6 645.92L630.88 632.23L619.55 618.01L609.66 603.31L601.26 588.2L594.41 572.73L589.13 556.97L585.46 540.98L583.42 524.83L583.01 508.58L584.28 492.3L587.2 476.06L591.78 459.93L598.01 443.96L605.88 428.24L615.36 412.82L626.43 397.78L639.05 383.17L653.17 369.07L668.76 355.53L685.75 342.61L704.09 330.38L723.71 318.88L744.54 308.17L766.49 298.3L789.5 289.31L813.48 281.25L838.32 274.17L863.94 268.08L890.25 263.04L917.13 259.06L944.49 256.17L972.22 254.39L1000.22 253.73L1028.35 254.21L1056.52 255.84L1084.62 258.61L1112.53 262.52L1140.13 267.57L1167.33 273.75L1194 281.03L1220.04 289.41L1245.34 298.84L1269.8 309.31L1293.3 320.78L1315.77 333.21L1337.09 346.56L1357.19 360.78L1375.96 375.83L1393.33 391.65L1409.24 408.18L1423.59 425.37L1436.34 443.14L1447.41 461.45L1456.76 480.21L1464.35 499.37L1470.13 518.84L1474.07 538.55L1476.14 558.43L1476.33 578.41L1474.65 598.4L1471.06 618.34L1465.59 638.14L1458.24 657.73L1449.04 677.02L1438.02 695.95L1425.21 714.44L1410.64 732.42L1394.39 749.81L1376.49 766.56L1357.01 782.58L1336.04 797.82L1313.63 812.22L1289.87 825.71L1264.86 838.24L1238.69 849.76L1211.45 860.23L1183.25 869.6L1154.21 877.82L1124.41 884.87L1094 890.73L1063.09 895.34L1031.77 898.7L1000.22 900.8L968.51 901.62L936.79 901.16L905.2 899.4L873.84 896.38L842.84 892.08L812.35 886.52L782.47 879.73L753.32 871.73L725.03 862.55L697.72 852.23L671.49 840.78L646.46 828.29L622.73 814.78L600.39 800.31L579.55 784.93L560.3 768.7L542.71 751.7L526.87 733.99L512.83 715.63L500.67 696.71L490.45 677.3L482.21 657.46L475.99 637.31L471.82 616.9L469.73 596.32L469.74 575.66L471.85 555L476.07 534.43L482.38 514.04L490.77 493.9L501.21 474.11L513.67 454.73L528.11 435.87L544.47 417.61L562.7 399.99L582.74 383.13L604.51 367.08L627.93 351.92L652.9 337.71L679.35 324.52" stroke="var(--stroke-0, white)" stroke-width="6.25" stroke-linecap="round" stroke-linejoin="round"/>
<path id="Vector_19" d="M1000.22 1750C1414.31 1750 1750 1414.21 1750 1000C1750 585.786 1414.31 250 1000.22 250C586.128 250 250.44 585.786 250.44 1000C250.44 1414.21 586.128 1750 1000.22 1750Z" stroke="var(--stroke-0, white)" stroke-width="12.5" stroke-linecap="round" stroke-linejoin="round"/>
</g>
</svg>
