<svg preserveAspectRatio="none" width="100%" height="100%" overflow="visible" style="display: block;" viewBox="0 0 655 1115.35" fill="none" xmlns="http://www.w3.org/2000/svg">
<g id="dots">
<ellipse id="Ellipse" opacity="0.358096" cx="3.55206" cy="3.55206" rx="3.55206" ry="3.55206" fill="var(--fill-0, #FF4500)"/>
<ellipse id="Ellipse_2" opacity="0.421502" cx="57.5444" cy="3.55206" rx="3.55206" ry="3.55206" fill="var(--fill-0, #611C00)"/>
<ellipse id="Ellipse_3" opacity="0.26917" cx="111.537" cy="3.55206" rx="3.55206" ry="3.55206" fill="var(--fill-0, #FF4500)"/>
<ellipse id="Ellipse_4" opacity="0.310647" cx="165.525" cy="3.55206" rx="3.55206" ry="3.55206" fill="var(--fill-0, #FF4500)"/>
<ellipse id="Ellipse_5" opacity="0.767534" cx="219.517" cy="3.55206" rx="3.55206" ry="3.55206" fill="var(--fill-0, #1A0800)"/>
<ellipse id="Ellipse_6" opacity="0.498881" cx="273.51" cy="3.55206" rx="3.55206" ry="3.55206" fill="var(--fill-0, #611C00)"/>
<ellipse id="Ellipse_7" opacity="0.556908" cx="327.498" cy="3.55206" rx="3.55206" ry="3.55206" fill="var(--fill-0, #1A0800)"/>
<ellipse id="Ellipse_8" opacity="0.293168" cx="381.49" cy="3.55206" rx="3.55206" ry="3.55206" fill="var(--fill-0, #FF4500)"/>
<ellipse id="Ellipse_9" opacity="0.478954" cx="435.479" cy="3.55206" rx="3.55206" ry="3.55206" fill="var(--fill-0, #611C00)"/>
<ellipse id="Ellipse_10" opacity="0.785967" cx="489.479" cy="3.55206" rx="3.55206" ry="3.55206" fill="var(--fill-0, #1A0800)"/>
<ellipse id="Ellipse_11" opacity="0.490474" cx="543.467" cy="3.55206" rx="3.55206" ry="3.55206" fill="var(--fill-0, #611C00)"/>
<ellipse id="Ellipse_12" opacity="0.459083" cx="597.46" cy="3.55206" rx="3.55206" ry="3.55206" fill="var(--fill-0, #611C00)"/>
<ellipse id="Ellipse_13" opacity="0.642814" cx="651.448" cy="3.55206" rx="3.55206" ry="3.55206" fill="var(--fill-0, #1A0800)"/>
<ellipse id="Ellipse_14" opacity="0.427265" cx="3.55206" cy="77.4348" rx="3.55206" ry="3.55206" fill="var(--fill-0, #611C00)"/>
<ellipse id="Ellipse_15" opacity="0.261618" cx="57.5444" cy="77.4349" rx="3.55206" ry="3.55206" fill="var(--fill-0, #FF4500)"/>
<ellipse id="Ellipse_16" opacity="0.491023" cx="111.537" cy="77.4349" rx="3.55206" ry="3.55206" fill="var(--fill-0, #611C00)"/>
<ellipse id="Ellipse_17" opacity="0.338151" cx="165.525" cy="77.4349" rx="3.55206" ry="3.55206" fill="var(--fill-0, #FF4500)"/>
<ellipse id="Ellipse_18" opacity="0.38284" cx="219.517" cy="77.4349" rx="3.55206" ry="3.55206" fill="var(--fill-0, #611C00)"/>
<ellipse id="Ellipse_19" opacity="0.337679" cx="273.51" cy="77.4349" rx="3.55206" ry="3.55206" fill="var(--fill-0, #FF4500)"/>
<ellipse id="Ellipse_20" opacity="0.377108" cx="327.498" cy="77.4349" rx="3.55206" ry="3.55206" fill="var(--fill-0, #611C00)"/>
<ellipse id="Ellipse_21" opacity="0.64159" cx="381.49" cy="77.4349" rx="3.55206" ry="3.55206" fill="var(--fill-0, #1A0800)"/>
<ellipse id="Ellipse_22" opacity="0.3368" cx="435.479" cy="77.4349" rx="3.55206" ry="3.55206" fill="var(--fill-0, #FF4500)"/>
<ellipse id="Ellipse_23" opacity="0.299109" cx="489.479" cy="77.4349" rx="3.55206" ry="3.55206" fill="var(--fill-0, #FF4500)"/>
<ellipse id="Ellipse_24" opacity="0.464234" cx="543.467" cy="77.4349" rx="3.55206" ry="3.55206" fill="var(--fill-0, #611C00)"/>
<ellipse id="Ellipse_25" opacity="0.710417" cx="597.46" cy="77.4349" rx="3.55206" ry="3.55206" fill="var(--fill-0, #1A0800)"/>
<ellipse id="Ellipse_26" opacity="0.593976" cx="651.448" cy="77.4348" rx="3.55206" ry="3.55206" fill="var(--fill-0, #1A0800)"/>
<ellipse id="Ellipse_27" opacity="0.754026" cx="3.55206" cy="151.317" rx="3.55206" ry="3.55206" fill="var(--fill-0, #1A0800)"/>
<ellipse id="Ellipse_28" opacity="0.59594" cx="57.5444" cy="151.317" rx="3.55206" ry="3.55206" fill="var(--fill-0, #1A0800)"/>
<ellipse id="Ellipse_29" opacity="0.775113" cx="111.537" cy="151.317" rx="3.55206" ry="3.55206" fill="var(--fill-0, #1A0800)"/>
<ellipse id="Ellipse_30" opacity="0.43192" cx="165.525" cy="151.317" rx="3.55206" ry="3.55206" fill="var(--fill-0, #611C00)"/>
<ellipse id="Ellipse_31" opacity="0.482163" cx="219.517" cy="151.317" rx="3.55206" ry="3.55206" fill="var(--fill-0, #611C00)"/>
<ellipse id="Ellipse_32" opacity="0.757195" cx="273.51" cy="151.317" rx="3.55206" ry="3.55206" fill="var(--fill-0, #1A0800)"/>
<ellipse id="Ellipse_33" opacity="0.68169" cx="327.498" cy="151.317" rx="3.55206" ry="3.55206" fill="var(--fill-0, #1A0800)"/>
<ellipse id="Ellipse_34" opacity="0.590503" cx="381.49" cy="151.317" rx="3.55206" ry="3.55206" fill="var(--fill-0, #1A0800)"/>
<ellipse id="Ellipse_35" opacity="0.349708" cx="435.479" cy="151.317" rx="3.55206" ry="3.55206" fill="var(--fill-0, #FF4500)"/>
<ellipse id="Ellipse_36" opacity="0.522515" cx="489.479" cy="151.317" rx="3.55206" ry="3.55206" fill="var(--fill-0, #1A0800)"/>
<ellipse id="Ellipse_37" opacity="0.562503" cx="543.467" cy="151.317" rx="3.55206" ry="3.55206" fill="var(--fill-0, #1A0800)"/>
<ellipse id="Ellipse_38" opacity="0.664151" cx="597.46" cy="151.317" rx="3.55206" ry="3.55206" fill="var(--fill-0, #1A0800)"/>
<ellipse id="Ellipse_39" opacity="0.722014" cx="651.448" cy="151.317" rx="3.55206" ry="3.55206" fill="var(--fill-0, #1A0800)"/>
<ellipse id="Ellipse_40" opacity="0.365679" cx="3.55206" cy="225.201" rx="3.55206" ry="3.55206" fill="var(--fill-0, #611C00)"/>
<ellipse id="Ellipse_41" opacity="0.596058" cx="57.5444" cy="225.201" rx="3.55206" ry="3.55206" fill="var(--fill-0, #1A0800)"/>
<ellipse id="Ellipse_42" opacity="0.394962" cx="111.537" cy="225.201" rx="3.55206" ry="3.55206" fill="var(--fill-0, #611C00)"/>
<ellipse id="Ellipse_43" opacity="0.488534" cx="165.525" cy="225.201" rx="3.55206" ry="3.55206" fill="var(--fill-0, #611C00)"/>
<ellipse id="Ellipse_44" opacity="0.252237" cx="219.517" cy="225.201" rx="3.55206" ry="3.55206" fill="var(--fill-0, #FF4500)"/>
<ellipse id="Ellipse_45" opacity="0.660526" cx="273.51" cy="225.201" rx="3.55206" ry="3.55206" fill="var(--fill-0, #1A0800)"/>
<ellipse id="Ellipse_46" opacity="0.262814" cx="327.498" cy="225.201" rx="3.55206" ry="3.55206" fill="var(--fill-0, #FF4500)"/>
<ellipse id="Ellipse_47" opacity="0.459141" cx="381.49" cy="225.201" rx="3.55206" ry="3.55206" fill="var(--fill-0, #611C00)"/>
<ellipse id="Ellipse_48" opacity="0.797461" cx="435.479" cy="225.201" rx="3.55206" ry="3.55206" fill="var(--fill-0, #1A0800)"/>
<ellipse id="Ellipse_49" opacity="0.734081" cx="489.479" cy="225.201" rx="3.55206" ry="3.55206" fill="var(--fill-0, #1A0800)"/>
<ellipse id="Ellipse_50" opacity="0.463743" cx="543.467" cy="225.201" rx="3.55206" ry="3.55206" fill="var(--fill-0, #611C00)"/>
<ellipse id="Ellipse_51" opacity="0.401363" cx="597.46" cy="225.201" rx="3.55206" ry="3.55206" fill="var(--fill-0, #611C00)"/>
<ellipse id="Ellipse_52" opacity="0.602789" cx="651.448" cy="225.201" rx="3.55206" ry="3.55206" fill="var(--fill-0, #1A0800)"/>
<ellipse id="Ellipse_53" opacity="0.573616" cx="3.55206" cy="299.083" rx="3.55206" ry="3.55206" fill="var(--fill-0, #1A0800)"/>
<ellipse id="Ellipse_54" opacity="0.69812" cx="57.5444" cy="299.083" rx="3.55206" ry="3.55206" fill="var(--fill-0, #1A0800)"/>
<ellipse id="Ellipse_55" opacity="0.527096" cx="111.537" cy="299.083" rx="3.55206" ry="3.55206" fill="var(--fill-0, #1A0800)"/>
<ellipse id="Ellipse_56" opacity="0.566461" cx="165.525" cy="299.083" rx="3.55206" ry="3.55206" fill="var(--fill-0, #1A0800)"/>
<ellipse id="Ellipse_57" opacity="0.722903" cx="219.517" cy="299.083" rx="3.55206" ry="3.55206" fill="var(--fill-0, #1A0800)"/>
<ellipse id="Ellipse_58" opacity="0.438783" cx="273.51" cy="299.083" rx="3.55206" ry="3.55206" fill="var(--fill-0, #611C00)"/>
<ellipse id="Ellipse_59" opacity="0.53475" cx="327.498" cy="299.083" rx="3.55206" ry="3.55206" fill="var(--fill-0, #1A0800)"/>
<ellipse id="Ellipse_60" opacity="0.679318" cx="381.49" cy="299.083" rx="3.55206" ry="3.55206" fill="var(--fill-0, #1A0800)"/>
<ellipse id="Ellipse_61" opacity="0.514699" cx="435.479" cy="299.083" rx="3.55206" ry="3.55206" fill="var(--fill-0, #1A0800)"/>
<ellipse id="Ellipse_62" opacity="0.759183" cx="489.479" cy="299.083" rx="3.55206" ry="3.55206" fill="var(--fill-0, #1A0800)"/>
<ellipse id="Ellipse_63" opacity="0.688579" cx="543.467" cy="299.083" rx="3.55206" ry="3.55206" fill="var(--fill-0, #1A0800)"/>
<ellipse id="Ellipse_64" opacity="0.53916" cx="597.46" cy="299.083" rx="3.55206" ry="3.55206" fill="var(--fill-0, #1A0800)"/>
<ellipse id="Ellipse_65" opacity="0.533705" cx="651.448" cy="299.083" rx="3.55206" ry="3.55206" fill="var(--fill-0, #1A0800)"/>
<ellipse id="Ellipse_66" opacity="0.287252" cx="3.55206" cy="372.966" rx="3.55206" ry="3.55206" fill="var(--fill-0, #FF4500)"/>
<ellipse id="Ellipse_67" opacity="0.421148" cx="57.5444" cy="372.966" rx="3.55206" ry="3.55206" fill="var(--fill-0, #611C00)"/>
<ellipse id="Ellipse_68" opacity="0.754479" cx="111.537" cy="372.966" rx="3.55206" ry="3.55206" fill="var(--fill-0, #1A0800)"/>
<ellipse id="Ellipse_69" opacity="0.279698" cx="165.525" cy="372.966" rx="3.55206" ry="3.55206" fill="var(--fill-0, #FF4500)"/>
<ellipse id="Ellipse_70" opacity="0.511811" cx="219.517" cy="372.966" rx="3.55206" ry="3.55206" fill="var(--fill-0, #611C00)"/>
<ellipse id="Ellipse_71" opacity="0.605682" cx="273.51" cy="372.966" rx="3.55206" ry="3.55206" fill="var(--fill-0, #1A0800)"/>
<ellipse id="Ellipse_72" opacity="0.687629" cx="327.498" cy="372.966" rx="3.55206" ry="3.55206" fill="var(--fill-0, #1A0800)"/>
<ellipse id="Ellipse_73" opacity="0.397884" cx="381.49" cy="372.966" rx="3.55206" ry="3.55206" fill="var(--fill-0, #611C00)"/>
<ellipse id="Ellipse_74" opacity="0.537822" cx="435.479" cy="372.966" rx="3.55206" ry="3.55206" fill="var(--fill-0, #1A0800)"/>
<ellipse id="Ellipse_75" opacity="0.500937" cx="489.479" cy="372.966" rx="3.55206" ry="3.55206" fill="var(--fill-0, #611C00)"/>
<ellipse id="Ellipse_76" opacity="0.78101" cx="543.467" cy="372.966" rx="3.55206" ry="3.55206" fill="var(--fill-0, #1A0800)"/>
<ellipse id="Ellipse_77" opacity="0.532054" cx="597.46" cy="372.966" rx="3.55206" ry="3.55206" fill="var(--fill-0, #1A0800)"/>
<ellipse id="Ellipse_78" opacity="0.743653" cx="651.448" cy="372.966" rx="3.55206" ry="3.55206" fill="var(--fill-0, #1A0800)"/>
<ellipse id="Ellipse_79" opacity="0.674263" cx="3.55206" cy="446.849" rx="3.55206" ry="3.55206" fill="var(--fill-0, #1A0800)"/>
<ellipse id="Ellipse_80" opacity="0.436942" cx="57.5444" cy="446.849" rx="3.55206" ry="3.55206" fill="var(--fill-0, #611C00)"/>
<ellipse id="Ellipse_81" opacity="0.54691" cx="111.537" cy="446.849" rx="3.55206" ry="3.55206" fill="var(--fill-0, #1A0800)"/>
<ellipse id="Ellipse_82" opacity="0.406447" cx="165.525" cy="446.849" rx="3.55206" ry="3.55206" fill="var(--fill-0, #611C00)"/>
<ellipse id="Ellipse_83" opacity="0.488524" cx="219.517" cy="446.849" rx="3.55206" ry="3.55206" fill="var(--fill-0, #611C00)"/>
<ellipse id="Ellipse_84" opacity="0.478815" cx="273.51" cy="446.849" rx="3.55206" ry="3.55206" fill="var(--fill-0, #611C00)"/>
<ellipse id="Ellipse_85" opacity="0.716957" cx="327.498" cy="446.849" rx="3.55206" ry="3.55206" fill="var(--fill-0, #1A0800)"/>
<ellipse id="Ellipse_86" opacity="0.555694" cx="381.49" cy="446.849" rx="3.55206" ry="3.55206" fill="var(--fill-0, #1A0800)"/>
<ellipse id="Ellipse_87" opacity="0.251282" cx="435.479" cy="446.849" rx="3.55206" ry="3.55206" fill="var(--fill-0, #FF4500)"/>
<ellipse id="Ellipse_88" opacity="0.502632" cx="489.479" cy="446.849" rx="3.55206" ry="3.55206" fill="var(--fill-0, #611C00)"/>
<ellipse id="Ellipse_89" opacity="0.56623" cx="543.467" cy="446.849" rx="3.55206" ry="3.55206" fill="var(--fill-0, #1A0800)"/>
<ellipse id="Ellipse_90" opacity="0.342875" cx="597.46" cy="446.849" rx="3.55206" ry="3.55206" fill="var(--fill-0, #FF4500)"/>
<ellipse id="Ellipse_91" opacity="0.27952" cx="651.448" cy="446.849" rx="3.55206" ry="3.55206" fill="var(--fill-0, #FF4500)"/>
<ellipse id="Ellipse_92" opacity="0.463098" cx="3.55206" cy="520.732" rx="3.55206" ry="3.55206" fill="var(--fill-0, #611C00)"/>
<ellipse id="Ellipse_93" opacity="0.591615" cx="57.5444" cy="520.732" rx="3.55206" ry="3.55206" fill="var(--fill-0, #1A0800)"/>
<ellipse id="Ellipse_94" opacity="0.313013" cx="111.537" cy="520.732" rx="3.55206" ry="3.55206" fill="var(--fill-0, #FF4500)"/>
<ellipse id="Ellipse_95" opacity="0.363535" cx="165.525" cy="520.732" rx="3.55206" ry="3.55206" fill="var(--fill-0, #611C00)"/>
<ellipse id="Ellipse_96" opacity="0.623197" cx="219.517" cy="520.732" rx="3.55206" ry="3.55206" fill="var(--fill-0, #1A0800)"/>
<ellipse id="Ellipse_97" opacity="0.379444" cx="273.51" cy="520.732" rx="3.55206" ry="3.55206" fill="var(--fill-0, #611C00)"/>
<ellipse id="Ellipse_98" opacity="0.329198" cx="327.498" cy="520.732" rx="3.55206" ry="3.55206" fill="var(--fill-0, #FF4500)"/>
<ellipse id="Ellipse_99" opacity="0.35171" cx="381.49" cy="520.732" rx="3.55206" ry="3.55206" fill="var(--fill-0, #FF4500)"/>
<ellipse id="Ellipse_100" opacity="0.316488" cx="435.479" cy="520.732" rx="3.55206" ry="3.55206" fill="var(--fill-0, #FF4500)"/>
<ellipse id="Ellipse_101" opacity="0.579499" cx="489.479" cy="520.732" rx="3.55206" ry="3.55206" fill="var(--fill-0, #1A0800)"/>
<ellipse id="Ellipse_102" opacity="0.798465" cx="543.467" cy="520.732" rx="3.55206" ry="3.55206" fill="var(--fill-0, #1A0800)"/>
<ellipse id="Ellipse_103" opacity="0.485882" cx="597.46" cy="520.732" rx="3.55206" ry="3.55206" fill="var(--fill-0, #611C00)"/>
<ellipse id="Ellipse_104" opacity="0.633923" cx="651.448" cy="520.732" rx="3.55206" ry="3.55206" fill="var(--fill-0, #1A0800)"/>
<ellipse id="Ellipse_105" opacity="0.708021" cx="3.55206" cy="594.615" rx="3.55206" ry="3.55206" fill="var(--fill-0, #1A0800)"/>
<ellipse id="Ellipse_106" opacity="0.473912" cx="57.5444" cy="594.615" rx="3.55206" ry="3.55206" fill="var(--fill-0, #611C00)"/>
<ellipse id="Ellipse_107" opacity="0.73007" cx="111.537" cy="594.615" rx="3.55206" ry="3.55206" fill="var(--fill-0, #1A0800)"/>
<ellipse id="Ellipse_108" opacity="0.574393" cx="165.525" cy="594.615" rx="3.55206" ry="3.55206" fill="var(--fill-0, #1A0800)"/>
<ellipse id="Ellipse_109" opacity="0.636544" cx="219.517" cy="594.615" rx="3.55206" ry="3.55206" fill="var(--fill-0, #1A0800)"/>
<ellipse id="Ellipse_110" opacity="0.791717" cx="273.51" cy="594.615" rx="3.55206" ry="3.55206" fill="var(--fill-0, #1A0800)"/>
<ellipse id="Ellipse_111" opacity="0.483101" cx="327.498" cy="594.615" rx="3.55206" ry="3.55206" fill="var(--fill-0, #611C00)"/>
<ellipse id="Ellipse_112" opacity="0.333879" cx="381.49" cy="594.615" rx="3.55206" ry="3.55206" fill="var(--fill-0, #FF4500)"/>
<ellipse id="Ellipse_113" opacity="0.415208" cx="435.479" cy="594.615" rx="3.55206" ry="3.55206" fill="var(--fill-0, #611C00)"/>
<ellipse id="Ellipse_114" opacity="0.378796" cx="489.479" cy="594.615" rx="3.55206" ry="3.55206" fill="var(--fill-0, #611C00)"/>
<ellipse id="Ellipse_115" opacity="0.439909" cx="543.467" cy="594.615" rx="3.55206" ry="3.55206" fill="var(--fill-0, #611C00)"/>
<ellipse id="Ellipse_116" opacity="0.641046" cx="597.46" cy="594.615" rx="3.55206" ry="3.55206" fill="var(--fill-0, #1A0800)"/>
<ellipse id="Ellipse_117" opacity="0.719499" cx="651.448" cy="594.615" rx="3.55206" ry="3.55206" fill="var(--fill-0, #1A0800)"/>
<ellipse id="Ellipse_118" opacity="0.471473" cx="3.55206" cy="668.498" rx="3.55206" ry="3.55206" fill="var(--fill-0, #611C00)"/>
<ellipse id="Ellipse_119" opacity="0.308327" cx="57.5444" cy="668.498" rx="3.55206" ry="3.55206" fill="var(--fill-0, #FF4500)"/>
<ellipse id="Ellipse_120" opacity="0.406044" cx="111.537" cy="668.498" rx="3.55206" ry="3.55206" fill="var(--fill-0, #611C00)"/>
<ellipse id="Ellipse_121" opacity="0.576738" cx="165.525" cy="668.498" rx="3.55206" ry="3.55206" fill="var(--fill-0, #1A0800)"/>
<ellipse id="Ellipse_122" opacity="0.33551" cx="219.517" cy="668.498" rx="3.55206" ry="3.55206" fill="var(--fill-0, #FF4500)"/>
<ellipse id="Ellipse_123" opacity="0.338567" cx="273.51" cy="668.498" rx="3.55206" ry="3.55206" fill="var(--fill-0, #FF4500)"/>
<ellipse id="Ellipse_124" opacity="0.706215" cx="327.498" cy="668.498" rx="3.55206" ry="3.55206" fill="var(--fill-0, #1A0800)"/>
<ellipse id="Ellipse_125" opacity="0.495184" cx="381.49" cy="668.498" rx="3.55206" ry="3.55206" fill="var(--fill-0, #611C00)"/>
<ellipse id="Ellipse_126" opacity="0.715777" cx="435.479" cy="668.498" rx="3.55206" ry="3.55206" fill="var(--fill-0, #1A0800)"/>
<ellipse id="Ellipse_127" opacity="0.780535" cx="489.479" cy="668.498" rx="3.55206" ry="3.55206" fill="var(--fill-0, #1A0800)"/>
<ellipse id="Ellipse_128" opacity="0.399291" cx="543.467" cy="668.498" rx="3.55206" ry="3.55206" fill="var(--fill-0, #611C00)"/>
<ellipse id="Ellipse_129" opacity="0.377639" cx="597.46" cy="668.498" rx="3.55206" ry="3.55206" fill="var(--fill-0, #611C00)"/>
<ellipse id="Ellipse_130" opacity="0.538575" cx="651.448" cy="668.498" rx="3.55206" ry="3.55206" fill="var(--fill-0, #1A0800)"/>
<ellipse id="Ellipse_131" opacity="0.576382" cx="3.55206" cy="742.38" rx="3.55206" ry="3.55206" fill="var(--fill-0, #1A0800)"/>
<ellipse id="Ellipse_132" opacity="0.744269" cx="57.5444" cy="742.38" rx="3.55206" ry="3.55206" fill="var(--fill-0, #1A0800)"/>
<ellipse id="Ellipse_133" opacity="0.51543" cx="111.537" cy="742.38" rx="3.55206" ry="3.55206" fill="var(--fill-0, #1A0800)"/>
<ellipse id="Ellipse_134" opacity="0.667304" cx="165.525" cy="742.38" rx="3.55206" ry="3.55206" fill="var(--fill-0, #1A0800)"/>
<ellipse id="Ellipse_135" opacity="0.751404" cx="219.517" cy="742.38" rx="3.55206" ry="3.55206" fill="var(--fill-0, #1A0800)"/>
<ellipse id="Ellipse_136" opacity="0.293971" cx="273.51" cy="742.38" rx="3.55206" ry="3.55206" fill="var(--fill-0, #FF4500)"/>
<ellipse id="Ellipse_137" opacity="0.768729" cx="327.498" cy="742.38" rx="3.55206" ry="3.55206" fill="var(--fill-0, #1A0800)"/>
<ellipse id="Ellipse_138" opacity="0.59454" cx="381.49" cy="742.38" rx="3.55206" ry="3.55206" fill="var(--fill-0, #1A0800)"/>
<ellipse id="Ellipse_139" opacity="0.670828" cx="435.479" cy="742.38" rx="3.55206" ry="3.55206" fill="var(--fill-0, #1A0800)"/>
<ellipse id="Ellipse_140" opacity="0.368708" cx="489.479" cy="742.38" rx="3.55206" ry="3.55206" fill="var(--fill-0, #611C00)"/>
<ellipse id="Ellipse_141" opacity="0.371089" cx="543.467" cy="742.38" rx="3.55206" ry="3.55206" fill="var(--fill-0, #611C00)"/>
<ellipse id="Ellipse_142" opacity="0.272721" cx="597.46" cy="742.38" rx="3.55206" ry="3.55206" fill="var(--fill-0, #FF4500)"/>
<ellipse id="Ellipse_143" opacity="0.376935" cx="651.448" cy="742.38" rx="3.55206" ry="3.55206" fill="var(--fill-0, #611C00)"/>
<ellipse id="Ellipse_144" opacity="0.399645" cx="3.55206" cy="816.263" rx="3.55206" ry="3.55206" fill="var(--fill-0, #611C00)"/>
<ellipse id="Ellipse_145" opacity="0.653259" cx="57.5444" cy="816.263" rx="3.55206" ry="3.55206" fill="var(--fill-0, #1A0800)"/>
<ellipse id="Ellipse_146" opacity="0.459625" cx="111.537" cy="816.263" rx="3.55206" ry="3.55206" fill="var(--fill-0, #611C00)"/>
<ellipse id="Ellipse_147" opacity="0.68446" cx="165.525" cy="816.263" rx="3.55206" ry="3.55206" fill="var(--fill-0, #1A0800)"/>
<ellipse id="Ellipse_148" opacity="0.411532" cx="219.517" cy="816.263" rx="3.55206" ry="3.55206" fill="var(--fill-0, #611C00)"/>
<ellipse id="Ellipse_149" opacity="0.604401" cx="273.51" cy="816.263" rx="3.55206" ry="3.55206" fill="var(--fill-0, #1A0800)"/>
<ellipse id="Ellipse_150" opacity="0.484222" cx="327.498" cy="816.263" rx="3.55206" ry="3.55206" fill="var(--fill-0, #611C00)"/>
<ellipse id="Ellipse_151" opacity="0.492288" cx="381.49" cy="816.263" rx="3.55206" ry="3.55206" fill="var(--fill-0, #611C00)"/>
<ellipse id="Ellipse_152" opacity="0.476231" cx="435.479" cy="816.263" rx="3.55206" ry="3.55206" fill="var(--fill-0, #611C00)"/>
<ellipse id="Ellipse_153" opacity="0.692588" cx="489.479" cy="816.263" rx="3.55206" ry="3.55206" fill="var(--fill-0, #1A0800)"/>
<ellipse id="Ellipse_154" opacity="0.325469" cx="543.467" cy="816.263" rx="3.55206" ry="3.55206" fill="var(--fill-0, #FF4500)"/>
<ellipse id="Ellipse_155" opacity="0.313887" cx="597.46" cy="816.263" rx="3.55206" ry="3.55206" fill="var(--fill-0, #FF4500)"/>
<ellipse id="Ellipse_156" opacity="0.781273" cx="651.448" cy="816.263" rx="3.55206" ry="3.55206" fill="var(--fill-0, #1A0800)"/>
<ellipse id="Ellipse_157" opacity="0.303624" cx="3.55206" cy="890.146" rx="3.55206" ry="3.55206" fill="var(--fill-0, #FF4500)"/>
<ellipse id="Ellipse_158" opacity="0.265055" cx="57.5444" cy="890.146" rx="3.55206" ry="3.55206" fill="var(--fill-0, #FF4500)"/>
<ellipse id="Ellipse_159" opacity="0.40066" cx="111.537" cy="890.146" rx="3.55206" ry="3.55206" fill="var(--fill-0, #611C00)"/>
<ellipse id="Ellipse_160" opacity="0.402735" cx="165.525" cy="890.146" rx="3.55206" ry="3.55206" fill="var(--fill-0, #611C00)"/>
<ellipse id="Ellipse_161" opacity="0.445837" cx="219.517" cy="890.146" rx="3.55206" ry="3.55206" fill="var(--fill-0, #611C00)"/>
<ellipse id="Ellipse_162" opacity="0.542421" cx="273.51" cy="890.146" rx="3.55206" ry="3.55206" fill="var(--fill-0, #1A0800)"/>
<ellipse id="Ellipse_163" opacity="0.301537" cx="327.498" cy="890.146" rx="3.55206" ry="3.55206" fill="var(--fill-0, #FF4500)"/>
<ellipse id="Ellipse_164" opacity="0.326661" cx="381.49" cy="890.146" rx="3.55206" ry="3.55206" fill="var(--fill-0, #FF4500)"/>
<ellipse id="Ellipse_165" opacity="0.632441" cx="435.479" cy="890.146" rx="3.55206" ry="3.55206" fill="var(--fill-0, #1A0800)"/>
<ellipse id="Ellipse_166" opacity="0.678449" cx="489.479" cy="890.146" rx="3.55206" ry="3.55206" fill="var(--fill-0, #1A0800)"/>
<ellipse id="Ellipse_167" opacity="0.735522" cx="543.467" cy="890.146" rx="3.55206" ry="3.55206" fill="var(--fill-0, #1A0800)"/>
<ellipse id="Ellipse_168" opacity="0.421711" cx="597.46" cy="890.146" rx="3.55206" ry="3.55206" fill="var(--fill-0, #611C00)"/>
<ellipse id="Ellipse_169" opacity="0.641771" cx="651.448" cy="890.146" rx="3.55206" ry="3.55206" fill="var(--fill-0, #1A0800)"/>
<ellipse id="Ellipse_170" opacity="0.762579" cx="3.55206" cy="964.029" rx="3.55206" ry="3.55206" fill="var(--fill-0, #1A0800)"/>
<ellipse id="Ellipse_171" opacity="0.649653" cx="57.5444" cy="964.029" rx="3.55206" ry="3.55206" fill="var(--fill-0, #1A0800)"/>
<ellipse id="Ellipse_172" opacity="0.69526" cx="111.537" cy="964.029" rx="3.55206" ry="3.55206" fill="var(--fill-0, #1A0800)"/>
<ellipse id="Ellipse_173" opacity="0.693856" cx="165.525" cy="964.029" rx="3.55206" ry="3.55206" fill="var(--fill-0, #1A0800)"/>
<ellipse id="Ellipse_174" opacity="0.663423" cx="219.517" cy="964.029" rx="3.55206" ry="3.55206" fill="var(--fill-0, #1A0800)"/>
<ellipse id="Ellipse_175" opacity="0.297938" cx="273.51" cy="964.029" rx="3.55206" ry="3.55206" fill="var(--fill-0, #FF4500)"/>
<ellipse id="Ellipse_176" opacity="0.777896" cx="327.498" cy="964.029" rx="3.55206" ry="3.55206" fill="var(--fill-0, #1A0800)"/>
<ellipse id="Ellipse_177" opacity="0.53464" cx="381.49" cy="964.029" rx="3.55206" ry="3.55206" fill="var(--fill-0, #1A0800)"/>
<ellipse id="Ellipse_178" opacity="0.627711" cx="435.479" cy="964.029" rx="3.55206" ry="3.55206" fill="var(--fill-0, #1A0800)"/>
<ellipse id="Ellipse_179" opacity="0.388858" cx="489.479" cy="964.029" rx="3.55206" ry="3.55206" fill="var(--fill-0, #611C00)"/>
<ellipse id="Ellipse_180" opacity="0.509022" cx="543.467" cy="964.029" rx="3.55206" ry="3.55206" fill="var(--fill-0, #611C00)"/>
<ellipse id="Ellipse_181" opacity="0.577105" cx="597.46" cy="964.029" rx="3.55206" ry="3.55206" fill="var(--fill-0, #1A0800)"/>
<ellipse id="Ellipse_182" opacity="0.581426" cx="651.448" cy="964.029" rx="3.55206" ry="3.55206" fill="var(--fill-0, #1A0800)"/>
<ellipse id="Ellipse_183" opacity="0.575232" cx="3.55206" cy="1037.91" rx="3.55206" ry="3.55206" fill="var(--fill-0, #1A0800)"/>
<ellipse id="Ellipse_184" opacity="0.423907" cx="57.5444" cy="1037.91" rx="3.55206" ry="3.55206" fill="var(--fill-0, #611C00)"/>
<ellipse id="Ellipse_185" opacity="0.45672" cx="111.537" cy="1037.91" rx="3.55206" ry="3.55206" fill="var(--fill-0, #611C00)"/>
<ellipse id="Ellipse_186" opacity="0.662243" cx="165.525" cy="1037.91" rx="3.55206" ry="3.55206" fill="var(--fill-0, #1A0800)"/>
<ellipse id="Ellipse_187" opacity="0.661472" cx="219.517" cy="1037.91" rx="3.55206" ry="3.55206" fill="var(--fill-0, #1A0800)"/>
<ellipse id="Ellipse_188" opacity="0.782344" cx="273.51" cy="1037.91" rx="3.55206" ry="3.55206" fill="var(--fill-0, #1A0800)"/>
<ellipse id="Ellipse_189" opacity="0.485948" cx="327.498" cy="1037.91" rx="3.55206" ry="3.55206" fill="var(--fill-0, #611C00)"/>
<ellipse id="Ellipse_190" opacity="0.760533" cx="381.49" cy="1037.91" rx="3.55206" ry="3.55206" fill="var(--fill-0, #1A0800)"/>
<ellipse id="Ellipse_191" opacity="0.575727" cx="435.479" cy="1037.91" rx="3.55206" ry="3.55206" fill="var(--fill-0, #1A0800)"/>
<ellipse id="Ellipse_192" opacity="0.401747" cx="489.479" cy="1037.91" rx="3.55206" ry="3.55206" fill="var(--fill-0, #611C00)"/>
<ellipse id="Ellipse_193" opacity="0.650782" cx="543.467" cy="1037.91" rx="3.55206" ry="3.55206" fill="var(--fill-0, #1A0800)"/>
<ellipse id="Ellipse_194" opacity="0.550486" cx="597.46" cy="1037.91" rx="3.55206" ry="3.55206" fill="var(--fill-0, #1A0800)"/>
<ellipse id="Ellipse_195" opacity="0.480659" cx="651.448" cy="1037.91" rx="3.55206" ry="3.55206" fill="var(--fill-0, #611C00)"/>
<ellipse id="Ellipse_196" opacity="0.259449" cx="3.55206" cy="1111.79" rx="3.55206" ry="3.55206" fill="var(--fill-0, #FF4500)"/>
<ellipse id="Ellipse_197" opacity="0.637447" cx="57.5444" cy="1111.79" rx="3.55206" ry="3.55206" fill="var(--fill-0, #1A0800)"/>
<ellipse id="Ellipse_198" opacity="0.276354" cx="111.537" cy="1111.79" rx="3.55206" ry="3.55206" fill="var(--fill-0, #FF4500)"/>
<ellipse id="Ellipse_199" opacity="0.381876" cx="165.525" cy="1111.79" rx="3.55206" ry="3.55206" fill="var(--fill-0, #611C00)"/>
<ellipse id="Ellipse_200" opacity="0.374422" cx="219.517" cy="1111.79" rx="3.55206" ry="3.55206" fill="var(--fill-0, #611C00)"/>
<ellipse id="Ellipse_201" opacity="0.408892" cx="273.51" cy="1111.79" rx="3.55206" ry="3.55206" fill="var(--fill-0, #611C00)"/>
<ellipse id="Ellipse_202" opacity="0.60667" cx="327.498" cy="1111.79" rx="3.55206" ry="3.55206" fill="var(--fill-0, #1A0800)"/>
<ellipse id="Ellipse_203" opacity="0.330702" cx="381.49" cy="1111.79" rx="3.55206" ry="3.55206" fill="var(--fill-0, #FF4500)"/>
<ellipse id="Ellipse_204" opacity="0.443349" cx="435.479" cy="1111.79" rx="3.55206" ry="3.55206" fill="var(--fill-0, #611C00)"/>
<ellipse id="Ellipse_205" opacity="0.470732" cx="489.479" cy="1111.79" rx="3.55206" ry="3.55206" fill="var(--fill-0, #611C00)"/>
<ellipse id="Ellipse_206" opacity="0.665041" cx="543.467" cy="1111.79" rx="3.55206" ry="3.55206" fill="var(--fill-0, #1A0800)"/>
<ellipse id="Ellipse_207" opacity="0.306321" cx="597.46" cy="1111.79" rx="3.55206" ry="3.55206" fill="var(--fill-0, #FF4500)"/>
<ellipse id="Ellipse_208" opacity="0.792278" cx="651.448" cy="1111.79" rx="3.55206" ry="3.55206" fill="var(--fill-0, #1A0800)"/>
</g>
</svg>
