<svg preserveAspectRatio="none" width="100%" height="100%" overflow="visible" style="display: block;" viewBox="0 0 40 40" fill="none" xmlns="http://www.w3.org/2000/svg">
<g id="call">
<g id="call_2">
<path id="Vector" d="M36.6167 30.55C36.6167 31.15 36.4833 31.7667 36.2 32.3667C35.9167 32.9667 35.55 33.5333 35.0667 34.0667C34.25 34.9667 33.35 35.6167 32.3333 36.0333C31.3333 36.45 30.25 36.6667 29.0833 36.6667C27.3833 36.6667 25.5667 36.2667 23.65 35.45C21.7333 34.6333 19.8167 33.5333 17.9167 32.15C16 30.75 14.1833 29.2 12.45 27.4833C10.7333 25.75 9.18333 23.9333 7.8 22.0333C6.43333 20.1333 5.33333 18.2333 4.53333 16.35C3.73333 14.45 3.33333 12.6333 3.33333 10.9C3.33333 9.76667 3.53333 8.68333 3.93333 7.68333C4.33333 6.66667 4.96667 5.73333 5.85 4.9C6.91667 3.85 8.08333 3.33333 9.31667 3.33333C9.78333 3.33333 10.25 3.43333 10.6667 3.63333C11.1 3.83333 11.4833 4.13333 11.7833 4.56667L15.65 10.0167C15.95 10.4333 16.1667 10.8167 16.3167 11.1833C16.4667 11.5333 16.55 11.8833 16.55 12.2C16.55 12.6 16.4333 13 16.2 13.3833C15.9833 13.7667 15.6667 14.1667 15.2667 14.5667L14 15.8833C13.8167 16.0667 13.7333 16.2833 13.7333 16.55C13.7333 16.6833 13.75 16.8 13.7833 16.9333C13.8333 17.0667 13.8833 17.1667 13.9167 17.2667C14.2167 17.8167 14.7333 18.5333 15.4667 19.4C16.2167 20.2667 17.0167 21.15 17.8833 22.0333C18.7833 22.9167 19.65 23.7333 20.5333 24.4833C21.4 25.2167 22.1167 25.7167 22.6833 26.0167C22.7667 26.05 22.8667 26.1 22.9833 26.15C23.1167 26.2 23.25 26.2167 23.4 26.2167C23.6833 26.2167 23.9 26.1167 24.0833 25.9333L25.35 24.6833C25.7667 24.2667 26.1667 23.95 26.55 23.75C26.9333 23.5167 27.3167 23.4 27.7333 23.4C28.05 23.4 28.3833 23.4667 28.75 23.6167C29.1167 23.7667 29.5 23.9833 29.9167 24.2667L35.4333 28.1833C35.8667 28.4833 36.1667 28.8333 36.35 29.25C36.5167 29.6667 36.6167 30.0833 36.6167 30.55Z" stroke="var(--stroke-0, #FF4500)" stroke-miterlimit="10"/>
</g>
<path id="Vector_2" opacity="0" d="M39.5 0.5V39.5H0.5V0.5H39.5Z" stroke="var(--stroke-0, #FF4500)"/>
</g>
</svg>
