<svg preserveAspectRatio="none" width="100%" height="100%" overflow="visible" style="display: block;" viewBox="0 0 40 40" fill="none" xmlns="http://www.w3.org/2000/svg">
<g id="user-square">
<path id="Vector" d="M30.2333 36.0333C28.7667 36.4667 27.0333 36.6667 25 36.6667H15C12.9667 36.6667 11.2333 36.4667 9.76667 36.0333C10.1333 31.7 14.5833 28.2833 20 28.2833C25.4167 28.2833 29.8667 31.7 30.2333 36.0333Z" stroke="var(--stroke-0, #767676)" stroke-linecap="round" stroke-linejoin="round"/>
<path id="Vector_2" d="M25 3.33333H15C6.66667 3.33333 3.33333 6.66667 3.33333 15V25C3.33333 31.3 5.23333 34.75 9.76667 36.0333C10.1333 31.7 14.5833 28.2833 20 28.2833C25.4167 28.2833 29.8667 31.7 30.2333 36.0333C34.7667 34.75 36.6667 31.3 36.6667 25V15C36.6667 6.66667 33.3333 3.33333 25 3.33333ZM20 23.6166C16.7 23.6166 14.0333 20.9334 14.0333 17.6334C14.0333 14.3334 16.7 11.6667 20 11.6667C23.3 11.6667 25.9667 14.3334 25.9667 17.6334C25.9667 20.9334 23.3 23.6166 20 23.6166Z" stroke="var(--stroke-0, #767676)" stroke-width="1.5" stroke-linecap="round" stroke-linejoin="round"/>
<path id="Vector_3" d="M25.9667 17.6334C25.9667 20.9334 23.3 23.6166 20 23.6166C16.7 23.6166 14.0333 20.9334 14.0333 17.6334C14.0333 14.3334 16.7 11.6667 20 11.6667C23.3 11.6667 25.9667 14.3334 25.9667 17.6334Z" stroke="var(--stroke-0, #FF4500)" stroke-width="1.5" stroke-linecap="round" stroke-linejoin="round"/>
<path id="Vector_4" opacity="0" d="M39.5 0.5V39.5H0.5V0.5H39.5Z" stroke="var(--stroke-0, #FF4500)"/>
</g>
</svg>
