<svg preserveAspectRatio="none" width="100%" height="100%" overflow="visible" style="display: block;" viewBox="0 0 40 40" fill="none" xmlns="http://www.w3.org/2000/svg">
<g id="hierarchy">
<path id="Vector" d="M8.33333 15V26.6667" stroke="var(--stroke-0, #767676)" stroke-linecap="round" stroke-linejoin="round"/>
<path id="Vector_2" d="M8.75 14.1667C11.7415 14.1667 14.1667 11.7415 14.1667 8.75C14.1667 5.75846 11.7415 3.33333 8.75 3.33333C5.75846 3.33333 3.33333 5.75846 3.33333 8.75C3.33333 11.7415 5.75846 14.1667 8.75 14.1667Z" stroke="var(--stroke-0, #FF4500)" stroke-width="1.5" stroke-linecap="round" stroke-linejoin="round"/>
<path id="Vector_3" d="M8.33333 36.6667C11.0948 36.6667 13.3333 34.4281 13.3333 31.6667C13.3333 28.9052 11.0948 26.6667 8.33333 26.6667C5.57191 26.6667 3.33333 28.9052 3.33333 31.6667C3.33333 34.4281 5.57191 36.6667 8.33333 36.6667Z" stroke="var(--stroke-0, #FF4500)" stroke-width="1.5" stroke-linecap="round" stroke-linejoin="round"/>
<path id="Vector_4" d="M31.6667 36.6667C34.4281 36.6667 36.6667 34.4281 36.6667 31.6667C36.6667 28.9052 34.4281 26.6667 31.6667 26.6667C28.9052 26.6667 26.6667 28.9052 26.6667 31.6667C26.6667 34.4281 28.9052 36.6667 31.6667 36.6667Z" stroke="var(--stroke-0, #FF4500)" stroke-width="1.5" stroke-linecap="round" stroke-linejoin="round"/>
<path id="Vector_5" d="M8.55 15C9.3 17.9167 11.9667 20.0833 15.1167 20.0667L20.8333 20.05C25.2 20.0333 28.9167 22.8333 30.2833 26.7333" stroke="var(--stroke-0, #767676)" stroke-width="1.5" stroke-linecap="round" stroke-linejoin="round"/>
<g id="Vector_6" opacity="0">
</g>
</g>
</svg>
