<svg width="720" height="400" viewBox="0 0 720 400" fill="none" xmlns="http://www.w3.org/2000/svg">
<path d="M279 699.75C461.668 699.75 609.75 551.668 609.75 369C609.75 186.332 461.668 38.25 279 38.25C96.3318 38.25 -51.75 186.332 -51.75 369C-51.75 551.668 96.3318 699.75 279 699.75Z" stroke="black" stroke-opacity="0.1" stroke-width="5" stroke-linecap="round" stroke-linejoin="round"/>
<path d="M234.949 395.398L249.63 420.134L279.001 419.309V369L234.949 395.398Z" stroke="black" stroke-opacity="0.1" stroke-width="1.25" stroke-miterlimit="10"/>
<path d="M234.947 342.602L220.262 369L234.947 395.398L278.999 369L234.947 342.602Z" stroke="black" stroke-opacity="0.1" stroke-width="1.25" stroke-miterlimit="10"/>
<path d="M279.001 318.691L249.63 317.862L234.949 342.602L279.001 369V318.691Z" stroke="black" stroke-opacity="0.1" stroke-width="1.25" stroke-miterlimit="10"/>
<path d="M323.051 395.398L337.737 369L323.051 342.602L279 369L323.051 395.398Z" stroke="black" stroke-opacity="0.1" stroke-width="1.25" stroke-miterlimit="10"/>
<path d="M279 419.309L308.371 420.134L323.051 395.398L279 369V419.309Z" stroke="black" stroke-opacity="0.1" stroke-width="1.25" stroke-miterlimit="10"/>
<path d="M279 318.691V369L323.051 342.602L308.371 317.862L279 318.691Z" stroke="black" stroke-opacity="0.1" stroke-width="1.25" stroke-miterlimit="10"/>
<path d="M278.998 318.691V270.586L235.617 292.711L249.628 317.862L278.998 318.691Z" stroke="black" stroke-opacity="0.1" stroke-width="1.25" stroke-miterlimit="10"/>
<path d="M279 318.691L308.371 317.862L322.381 292.711L279 270.586V318.691Z" stroke="black" stroke-opacity="0.1" stroke-width="1.25" stroke-miterlimit="10"/>
<path d="M234.948 395.398L191.668 422.052L235.618 445.289L249.629 420.134L234.948 395.398Z" stroke="black" stroke-opacity="0.1" stroke-width="1.25" stroke-miterlimit="10"/>
<path d="M220.265 369H190.898L191.67 422.052L234.95 395.398L220.265 369Z" stroke="black" stroke-opacity="0.1" stroke-width="1.25" stroke-miterlimit="10"/>
<path d="M234.95 342.602L191.67 315.948L190.898 369H220.265L234.95 342.602Z" stroke="black" stroke-opacity="0.1" stroke-width="1.25" stroke-miterlimit="10"/>
<path d="M249.629 317.862L235.618 292.711L191.668 315.948L234.948 342.602L249.629 317.862Z" stroke="black" stroke-opacity="0.1" stroke-width="1.25" stroke-miterlimit="10"/>
<path d="M323.051 395.398L366.335 422.052L367.107 369H337.736L323.051 395.398Z" stroke="black" stroke-opacity="0.1" stroke-width="1.25" stroke-miterlimit="10"/>
<path d="M323.051 342.602L337.736 369H367.107L366.335 315.948L323.051 342.602Z" stroke="black" stroke-opacity="0.1" stroke-width="1.25" stroke-miterlimit="10"/>
<path d="M308.371 420.134L322.382 445.289L366.336 422.052L323.052 395.398L308.371 420.134Z" stroke="black" stroke-opacity="0.1" stroke-width="1.25" stroke-miterlimit="10"/>
<path d="M323.052 342.602L366.336 315.948L322.382 292.711L308.371 317.862L323.052 342.602Z" stroke="black" stroke-opacity="0.1" stroke-width="1.25" stroke-miterlimit="10"/>
<path d="M235.618 292.711L222.944 268.386L194.967 267.588L191.668 315.948L235.618 292.711Z" stroke="black" stroke-opacity="0.1" stroke-width="1.25" stroke-miterlimit="10"/>
<path d="M238.301 246.698L222.945 268.386L235.62 292.711L279.001 270.586L238.301 246.698Z" stroke="black" stroke-opacity="0.1" stroke-width="1.25" stroke-miterlimit="10"/>
<path d="M322.383 292.711L366.337 315.948L363.034 267.588L335.057 268.386L322.383 292.711Z" stroke="black" stroke-opacity="0.1" stroke-width="1.25" stroke-miterlimit="10"/>
<path d="M322.381 292.711L335.056 268.386L319.7 246.698L279 270.586L322.381 292.711Z" stroke="black" stroke-opacity="0.1" stroke-width="1.25" stroke-miterlimit="10"/>
<path d="M190.896 369L191.667 315.948L147.559 342.218L161.525 369H190.896Z" stroke="black" stroke-opacity="0.1" stroke-width="1.25" stroke-miterlimit="10"/>
<path d="M190.896 369H161.525L147.559 395.782L191.667 422.052L190.896 369Z" stroke="black" stroke-opacity="0.1" stroke-width="1.25" stroke-miterlimit="10"/>
<path d="M367.108 369H396.474L410.44 342.218L366.336 315.948L367.108 369Z" stroke="black" stroke-opacity="0.1" stroke-width="1.25" stroke-miterlimit="10"/>
<path d="M367.108 369L366.336 422.052L410.44 395.782L396.474 369H367.108Z" stroke="black" stroke-opacity="0.1" stroke-width="1.25" stroke-miterlimit="10"/>
<path d="M279.001 229.609L252.316 227.801L238.301 246.697L279.001 270.586V229.609Z" stroke="black" stroke-opacity="0.1" stroke-width="1.25" stroke-miterlimit="10"/>
<path d="M319.7 246.697L305.685 227.801L279 229.609V270.586L319.7 246.697Z" stroke="black" stroke-opacity="0.1" stroke-width="1.25" stroke-miterlimit="10"/>
<path d="M147.56 395.782L135.031 421.673L151.106 447.216L191.669 422.052L147.56 395.782Z" stroke="black" stroke-opacity="0.1" stroke-width="1.25" stroke-miterlimit="10"/>
<path d="M151.106 290.784L135.031 316.322L147.56 342.218L191.669 315.948L151.106 290.784Z" stroke="black" stroke-opacity="0.1" stroke-width="1.25" stroke-miterlimit="10"/>
<path d="M194.967 267.588L167.083 266.847L151.105 290.784L191.669 315.948L194.967 267.588Z" stroke="black" stroke-opacity="0.1" stroke-width="1.25" stroke-miterlimit="10"/>
<path d="M406.895 447.216L422.969 421.673L410.44 395.782L366.336 422.052L406.895 447.216Z" stroke="black" stroke-opacity="0.1" stroke-width="1.25" stroke-miterlimit="10"/>
<path d="M410.44 342.218L422.969 316.322L406.895 290.784L366.336 315.948L410.44 342.218Z" stroke="black" stroke-opacity="0.1" stroke-width="1.25" stroke-miterlimit="10"/>
<path d="M406.893 290.784L390.916 266.847L363.031 267.588L366.334 315.948L406.893 290.784Z" stroke="black" stroke-opacity="0.1" stroke-width="1.25" stroke-miterlimit="10"/>
<path d="M238.301 246.697L200.455 222.041L194.969 267.588L222.946 268.386L238.301 246.697Z" stroke="black" stroke-opacity="0.1" stroke-width="1.25" stroke-miterlimit="10"/>
<path d="M335.055 268.386L363.032 267.588L357.546 222.041L319.699 246.697L335.055 268.386Z" stroke="black" stroke-opacity="0.1" stroke-width="1.25" stroke-miterlimit="10"/>
<path d="M147.56 342.218L105.824 369L147.56 395.782L161.527 369L147.56 342.218Z" stroke="black" stroke-opacity="0.1" stroke-width="1.25" stroke-miterlimit="10"/>
<path d="M396.473 369L410.439 395.782L452.175 369L410.439 342.218L396.473 369Z" stroke="black" stroke-opacity="0.1" stroke-width="1.25" stroke-miterlimit="10"/>
<path d="M252.315 227.801L241.519 206.443L200.453 222.041L238.3 246.697L252.315 227.801Z" stroke="black" stroke-opacity="0.1" stroke-width="1.25" stroke-miterlimit="10"/>
<path d="M319.699 246.697L357.545 222.041L316.479 206.443L305.684 227.801L319.699 246.697Z" stroke="black" stroke-opacity="0.1" stroke-width="1.25" stroke-miterlimit="10"/>
<path d="M194.966 267.588L200.452 222.041L156.59 243.042L167.081 266.847L194.966 267.588Z" stroke="black" stroke-opacity="0.1" stroke-width="1.25" stroke-miterlimit="10"/>
<path d="M363.033 267.588L390.917 266.847L401.409 243.042L357.547 222.041L363.033 267.588Z" stroke="black" stroke-opacity="0.1" stroke-width="1.25" stroke-miterlimit="10"/>
<path d="M147.56 395.782L105.824 369L108.395 420.817L135.032 421.673L147.56 395.782Z" stroke="black" stroke-opacity="0.1" stroke-width="1.25" stroke-miterlimit="10"/>
<path d="M147.56 342.218L135.032 316.323L108.395 317.182L105.824 369L147.56 342.218Z" stroke="black" stroke-opacity="0.1" stroke-width="1.25" stroke-miterlimit="10"/>
<path d="M410.441 395.782L422.97 421.673L449.607 420.817L452.178 369L410.441 395.782Z" stroke="black" stroke-opacity="0.1" stroke-width="1.25" stroke-miterlimit="10"/>
<path d="M410.441 342.218L452.178 369L449.607 317.182L422.97 316.323L410.441 342.218Z" stroke="black" stroke-opacity="0.1" stroke-width="1.25" stroke-miterlimit="10"/>
<path d="M279 229.609V194.673L241.52 206.443L252.315 227.801L279 229.609Z" stroke="black" stroke-opacity="0.1" stroke-width="1.25" stroke-miterlimit="10"/>
<path d="M279 229.609L305.685 227.801L316.481 206.443L279 194.673V229.609Z" stroke="black" stroke-opacity="0.1" stroke-width="1.25" stroke-miterlimit="10"/>
<path d="M151.105 290.784L113.625 266.794L108.395 317.182L135.031 316.323L151.105 290.784Z" stroke="black" stroke-opacity="0.1" stroke-width="1.25" stroke-miterlimit="10"/>
<path d="M167.083 266.847L156.592 243.042L113.625 266.794L151.106 290.784L167.083 266.847Z" stroke="black" stroke-opacity="0.1" stroke-width="1.25" stroke-miterlimit="10"/>
<path d="M422.969 316.323L449.605 317.182L444.371 266.794L406.895 290.784L422.969 316.323Z" stroke="black" stroke-opacity="0.1" stroke-width="1.25" stroke-miterlimit="10"/>
<path d="M406.895 290.784L444.372 266.794L401.409 243.042L390.918 266.847L406.895 290.784Z" stroke="black" stroke-opacity="0.1" stroke-width="1.25" stroke-miterlimit="10"/>
<path d="M168.153 197.394L148.93 219.329L156.59 243.042L200.452 222.041L168.153 197.394Z" stroke="black" stroke-opacity="0.1" stroke-width="1.25" stroke-miterlimit="10"/>
<path d="M213.147 180.843L188.306 177.685L168.156 197.394L200.455 222.041L213.147 180.843Z" stroke="black" stroke-opacity="0.1" stroke-width="1.25" stroke-miterlimit="10"/>
<path d="M241.519 206.443L235.821 184.622L213.145 180.843L200.453 222.041L241.519 206.443Z" stroke="black" stroke-opacity="0.1" stroke-width="1.25" stroke-miterlimit="10"/>
<path d="M401.409 243.042L409.069 219.329L389.846 197.394L357.547 222.041L401.409 243.042Z" stroke="black" stroke-opacity="0.1" stroke-width="1.25" stroke-miterlimit="10"/>
<path d="M389.846 197.394L369.697 177.685L344.855 180.843L357.547 222.041L389.846 197.394Z" stroke="black" stroke-opacity="0.1" stroke-width="1.25" stroke-miterlimit="10"/>
<path d="M316.48 206.443L357.546 222.041L344.854 180.843L322.178 184.622L316.48 206.443Z" stroke="black" stroke-opacity="0.1" stroke-width="1.25" stroke-miterlimit="10"/>
<path d="M255.833 168.962L235.82 184.622L241.518 206.443L278.999 194.673L255.833 168.962Z" stroke="black" stroke-opacity="0.1" stroke-width="1.25" stroke-miterlimit="10"/>
<path d="M316.481 206.443L322.178 184.622L302.166 168.962L279 194.673L316.481 206.443Z" stroke="black" stroke-opacity="0.1" stroke-width="1.25" stroke-miterlimit="10"/>
<path d="M302.167 168.962L279.002 157.933L255.836 168.962L279.002 194.673L302.167 168.962Z" stroke="black" stroke-opacity="0.1" stroke-width="1.25" stroke-miterlimit="10"/>
<path d="M71.5273 394.124L84.3428 420.015L108.395 420.818L105.824 369L71.5273 394.124Z" stroke="black" stroke-opacity="0.1" stroke-width="1.25" stroke-miterlimit="10"/>
<path d="M71.5262 343.876L60.1484 369L71.5262 394.124L105.823 369L71.5262 343.876Z" stroke="black" stroke-opacity="0.1" stroke-width="1.25" stroke-miterlimit="10"/>
<path d="M108.395 317.182L84.3428 317.981L71.5273 343.876L105.824 369L108.395 317.182Z" stroke="black" stroke-opacity="0.1" stroke-width="1.25" stroke-miterlimit="10"/>
<path d="M486.472 394.124L497.85 369L486.472 343.876L452.176 369L486.472 394.124Z" stroke="black" stroke-opacity="0.1" stroke-width="1.25" stroke-miterlimit="10"/>
<path d="M449.605 420.818L473.658 420.015L486.473 394.124L452.176 369L449.605 420.818Z" stroke="black" stroke-opacity="0.1" stroke-width="1.25" stroke-miterlimit="10"/>
<path d="M449.605 317.182L452.176 369L486.473 343.876L473.658 317.981L449.605 317.182Z" stroke="black" stroke-opacity="0.1" stroke-width="1.25" stroke-miterlimit="10"/>
<path d="M156.592 243.042L148.931 219.329L123.883 219.505L113.625 266.794L156.592 243.042Z" stroke="black" stroke-opacity="0.1" stroke-width="1.25" stroke-miterlimit="10"/>
<path d="M401.41 243.042L444.372 266.794L434.124 219.505L409.07 219.329L401.41 243.042Z" stroke="black" stroke-opacity="0.1" stroke-width="1.25" stroke-miterlimit="10"/>
<path d="M108.394 317.182L113.624 266.794L75.1953 293.346L84.3416 317.981L108.394 317.182Z" stroke="black" stroke-opacity="0.1" stroke-width="1.25" stroke-miterlimit="10"/>
<path d="M449.606 317.182L473.658 317.981L482.809 293.346L444.371 266.794L449.606 317.182Z" stroke="black" stroke-opacity="0.1" stroke-width="1.25" stroke-miterlimit="10"/>
<path d="M255.833 168.962L230.454 143.495L213.145 180.843L235.821 184.622L255.833 168.962Z" stroke="black" stroke-opacity="0.1" stroke-width="1.25" stroke-miterlimit="10"/>
<path d="M322.177 184.622L344.853 180.843L327.544 143.495L302.164 168.962L322.177 184.622Z" stroke="black" stroke-opacity="0.1" stroke-width="1.25" stroke-miterlimit="10"/>
<path d="M81.1678 245.904L66.1914 270.463L75.1966 293.346L113.625 266.794L81.1678 245.904Z" stroke="black" stroke-opacity="0.1" stroke-width="1.25" stroke-miterlimit="10"/>
<path d="M123.883 219.505L98.733 221.287L81.168 245.904L113.626 266.794L123.883 219.505Z" stroke="black" stroke-opacity="0.1" stroke-width="1.25" stroke-miterlimit="10"/>
<path d="M482.809 293.346L491.809 270.463L476.833 245.904L444.371 266.794L482.809 293.346Z" stroke="black" stroke-opacity="0.1" stroke-width="1.25" stroke-miterlimit="10"/>
<path d="M476.832 245.904L459.267 221.287L434.121 219.505L444.37 266.794L476.832 245.904Z" stroke="black" stroke-opacity="0.1" stroke-width="1.25" stroke-miterlimit="10"/>
<path d="M168.155 197.394L137.691 174.638L123.883 219.505L148.932 219.329L168.155 197.394Z" stroke="black" stroke-opacity="0.1" stroke-width="1.25" stroke-miterlimit="10"/>
<path d="M409.067 219.329L434.12 219.505L420.308 174.638L389.844 197.394L409.067 219.329Z" stroke="black" stroke-opacity="0.1" stroke-width="1.25" stroke-miterlimit="10"/>
<path d="M213.147 180.843L230.456 143.495L183.684 156.742L188.305 177.685L213.147 180.843Z" stroke="black" stroke-opacity="0.1" stroke-width="1.25" stroke-miterlimit="10"/>
<path d="M344.856 180.843L369.698 177.685L374.319 156.742L327.547 143.495L344.856 180.843Z" stroke="black" stroke-opacity="0.1" stroke-width="1.25" stroke-miterlimit="10"/>
<path d="M302.166 168.962L327.545 143.495L279 140.147V157.933L302.166 168.962Z" stroke="black" stroke-opacity="0.1" stroke-width="1.25" stroke-miterlimit="10"/>
<path d="M278.998 157.933V140.147L230.453 143.495L255.833 168.962L278.998 157.933Z" stroke="black" stroke-opacity="0.1" stroke-width="1.25" stroke-miterlimit="10"/>
<path d="M84.3441 317.981L75.1978 293.346L41.2188 320.455L71.5287 343.876L84.3441 317.981Z" stroke="black" stroke-opacity="0.1" stroke-width="1.25" stroke-miterlimit="10"/>
<path d="M71.5287 394.124L41.2188 417.545L75.1978 444.654L84.3441 420.015L71.5287 394.124Z" stroke="black" stroke-opacity="0.1" stroke-width="1.25" stroke-miterlimit="10"/>
<path d="M473.656 420.015L482.807 444.654L516.782 417.545L486.472 394.124L473.656 420.015Z" stroke="black" stroke-opacity="0.1" stroke-width="1.25" stroke-miterlimit="10"/>
<path d="M486.472 343.876L516.782 320.455L482.807 293.346L473.656 317.981L486.472 343.876Z" stroke="black" stroke-opacity="0.1" stroke-width="1.25" stroke-miterlimit="10"/>
<path d="M188.305 177.685L183.683 156.742L137.691 174.638L168.156 197.394L188.305 177.685Z" stroke="black" stroke-opacity="0.1" stroke-width="1.25" stroke-miterlimit="10"/>
<path d="M389.845 197.394L420.309 174.638L374.317 156.742L369.695 177.685L389.845 197.394Z" stroke="black" stroke-opacity="0.1" stroke-width="1.25" stroke-miterlimit="10"/>
<path d="M60.1488 369H40.4141L41.2167 417.545L71.5266 394.124L60.1488 369Z" stroke="black" stroke-opacity="0.1" stroke-width="1.25" stroke-miterlimit="10"/>
<path d="M71.5266 343.876L41.2167 320.455L40.4141 369H60.1488L71.5266 343.876Z" stroke="black" stroke-opacity="0.1" stroke-width="1.25" stroke-miterlimit="10"/>
<path d="M486.473 394.124L516.783 417.545L517.585 369H497.85L486.473 394.124Z" stroke="black" stroke-opacity="0.1" stroke-width="1.25" stroke-miterlimit="10"/>
<path d="M486.473 343.876L497.85 369H517.585L516.783 320.455L486.473 343.876Z" stroke="black" stroke-opacity="0.1" stroke-width="1.25" stroke-miterlimit="10"/>
<path d="M123.882 219.505L137.69 174.638L93.1094 199.66L98.7321 221.287L123.882 219.505Z" stroke="black" stroke-opacity="0.1" stroke-width="1.25" stroke-miterlimit="10"/>
<path d="M434.121 219.505L459.267 221.287L464.894 199.66L420.309 174.638L434.121 219.505Z" stroke="black" stroke-opacity="0.1" stroke-width="1.25" stroke-miterlimit="10"/>
<path d="M75.1978 293.347L66.1926 270.463L44.7159 273.682L41.2188 320.455L75.1978 293.347Z" stroke="black" stroke-opacity="0.1" stroke-width="1.25" stroke-miterlimit="10"/>
<path d="M482.809 293.347L516.783 320.455L513.282 273.682L491.809 270.463L482.809 293.347Z" stroke="black" stroke-opacity="0.1" stroke-width="1.25" stroke-miterlimit="10"/>
<path d="M278.998 140.147V121.634L253.875 113.361L230.453 143.495L278.998 140.147Z" stroke="black" stroke-opacity="0.1" stroke-width="1.25" stroke-miterlimit="10"/>
<path d="M327.545 143.495L304.124 113.361L279 121.634V140.147L327.545 143.495Z" stroke="black" stroke-opacity="0.1" stroke-width="1.25" stroke-miterlimit="10"/>
<path d="M203.348 120.633L180.465 136.778L183.684 156.742L230.457 143.495L203.348 120.633Z" stroke="black" stroke-opacity="0.1" stroke-width="1.25" stroke-miterlimit="10"/>
<path d="M253.877 113.361L227.982 107.412L203.348 120.633L230.456 143.495L253.877 113.361Z" stroke="black" stroke-opacity="0.1" stroke-width="1.25" stroke-miterlimit="10"/>
<path d="M354.655 120.633L330.021 107.412L304.125 113.361L327.547 143.495L354.655 120.633Z" stroke="black" stroke-opacity="0.1" stroke-width="1.25" stroke-miterlimit="10"/>
<path d="M374.319 156.742L377.539 136.778L354.655 120.633L327.547 143.495L374.319 156.742Z" stroke="black" stroke-opacity="0.1" stroke-width="1.25" stroke-miterlimit="10"/>
<path d="M183.683 156.742L180.464 136.778L155.905 135.667L137.691 174.638L183.683 156.742Z" stroke="black" stroke-opacity="0.1" stroke-width="1.25" stroke-miterlimit="10"/>
<path d="M374.316 156.742L420.308 174.638L402.095 135.667L377.536 136.778L374.316 156.742Z" stroke="black" stroke-opacity="0.1" stroke-width="1.25" stroke-miterlimit="10"/>
<path d="M81.1679 245.904L51.8502 227.69L44.7148 273.682L66.1915 270.463L81.1679 245.904Z" stroke="black" stroke-opacity="0.1" stroke-width="1.25" stroke-miterlimit="10"/>
<path d="M98.7343 221.287L93.1115 199.66L51.8516 227.69L81.1692 245.904L98.7343 221.287Z" stroke="black" stroke-opacity="0.1" stroke-width="1.25" stroke-miterlimit="10"/>
<path d="M491.808 270.463L513.281 273.682L506.154 227.69L476.832 245.904L491.808 270.463Z" stroke="black" stroke-opacity="0.1" stroke-width="1.25" stroke-miterlimit="10"/>
<path d="M476.831 245.904L506.153 227.69L464.893 199.66L459.266 221.287L476.831 245.904Z" stroke="black" stroke-opacity="0.1" stroke-width="1.25" stroke-miterlimit="10"/>
<path d="M40.4163 369L41.2189 320.455L15.9805 345.834L23.8479 369H40.4163Z" stroke="black" stroke-opacity="0.1" stroke-width="1.25" stroke-miterlimit="10"/>
<path d="M40.4163 369H23.8479L15.9805 392.166L41.2189 417.545L40.4163 369Z" stroke="black" stroke-opacity="0.1" stroke-width="1.25" stroke-miterlimit="10"/>
<path d="M517.584 369H534.152L542.02 345.834L516.781 320.455L517.584 369Z" stroke="black" stroke-opacity="0.1" stroke-width="1.25" stroke-miterlimit="10"/>
<path d="M517.584 369L516.781 417.545L542.02 392.166L534.152 369H517.584Z" stroke="black" stroke-opacity="0.1" stroke-width="1.25" stroke-miterlimit="10"/>
<path d="M109.662 156.328L88.9258 178.925L93.1109 199.66L137.692 174.638L109.662 156.328Z" stroke="black" stroke-opacity="0.1" stroke-width="1.25" stroke-miterlimit="10"/>
<path d="M155.903 135.667L131.287 136.055L109.66 156.328L137.69 174.638L155.903 135.667Z" stroke="black" stroke-opacity="0.1" stroke-width="1.25" stroke-miterlimit="10"/>
<path d="M464.894 199.66L469.074 178.925L448.334 156.328L420.309 174.638L464.894 199.66Z" stroke="black" stroke-opacity="0.1" stroke-width="1.25" stroke-miterlimit="10"/>
<path d="M448.336 156.328L426.714 136.055L402.098 135.667L420.311 174.638L448.336 156.328Z" stroke="black" stroke-opacity="0.1" stroke-width="1.25" stroke-miterlimit="10"/>
<path d="M15.9775 392.166L7.35156 412.178L15.2587 434.855L41.216 417.545L15.9775 392.166Z" stroke="black" stroke-opacity="0.1" stroke-width="1.25" stroke-miterlimit="10"/>
<path d="M542.739 434.855L550.646 412.178L542.02 392.166L516.781 417.545L542.739 434.855Z" stroke="black" stroke-opacity="0.1" stroke-width="1.25" stroke-miterlimit="10"/>
<path d="M15.2587 303.146L7.35156 325.822L15.9775 345.834L41.216 320.455L15.2587 303.146Z" stroke="black" stroke-opacity="0.1" stroke-width="1.25" stroke-miterlimit="10"/>
<path d="M44.7161 273.682L25.5061 278.304L15.2617 303.145L41.219 320.455L44.7161 273.682Z" stroke="black" stroke-opacity="0.1" stroke-width="1.25" stroke-miterlimit="10"/>
<path d="M542.02 345.834L550.646 325.822L542.739 303.146L516.781 320.455L542.02 345.834Z" stroke="black" stroke-opacity="0.1" stroke-width="1.25" stroke-miterlimit="10"/>
<path d="M542.74 303.145L532.496 278.304L513.281 273.682L516.783 320.455L542.74 303.145Z" stroke="black" stroke-opacity="0.1" stroke-width="1.25" stroke-miterlimit="10"/>
<path d="M278.999 121.634L304.123 113.361L278.999 87.3069L253.875 113.361L278.999 121.634Z" stroke="black" stroke-opacity="0.1" stroke-width="1.25" stroke-miterlimit="10"/>
<path d="M203.345 120.633L176.793 101.419L155.902 135.667L180.462 136.778L203.345 120.633Z" stroke="black" stroke-opacity="0.1" stroke-width="1.25" stroke-miterlimit="10"/>
<path d="M377.536 136.778L402.095 135.667L381.205 101.419L354.652 120.633L377.536 136.778Z" stroke="black" stroke-opacity="0.1" stroke-width="1.25" stroke-miterlimit="10"/>
<path d="M93.1115 199.66L88.9264 178.925L66.3296 183.11L51.8516 227.69L93.1115 199.66Z" stroke="black" stroke-opacity="0.1" stroke-width="1.25" stroke-miterlimit="10"/>
<path d="M464.895 199.66L506.154 227.69L491.676 183.11L469.075 178.925L464.895 199.66Z" stroke="black" stroke-opacity="0.1" stroke-width="1.25" stroke-miterlimit="10"/>
<path d="M44.7136 273.682L51.849 227.69L19.5898 258.155L25.5037 278.304L44.7136 273.682Z" stroke="black" stroke-opacity="0.1" stroke-width="1.25" stroke-miterlimit="10"/>
<path d="M513.283 273.682L532.497 278.304L538.411 258.155L506.156 227.69L513.283 273.682Z" stroke="black" stroke-opacity="0.1" stroke-width="1.25" stroke-miterlimit="10"/>
<path d="M15.9804 345.834L-3.06641 369L15.9804 392.166L23.8478 369L15.9804 345.834Z" stroke="black" stroke-opacity="0.1" stroke-width="1.25" stroke-miterlimit="10"/>
<path d="M534.152 369L542.02 392.166L561.067 369L542.02 345.834L534.152 369Z" stroke="black" stroke-opacity="0.1" stroke-width="1.25" stroke-miterlimit="10"/>
<path d="M253.877 113.361L279.001 87.3069L227.184 91.6155L227.982 107.412L253.877 113.361Z" stroke="black" stroke-opacity="0.1" stroke-width="1.25" stroke-miterlimit="10"/>
<path d="M330.019 107.412L330.818 91.6155L279 87.3069L304.124 113.361L330.019 107.412Z" stroke="black" stroke-opacity="0.1" stroke-width="1.25" stroke-miterlimit="10"/>
<path d="M227.98 107.412L227.182 91.6155L176.793 101.419L203.346 120.633L227.98 107.412Z" stroke="black" stroke-opacity="0.1" stroke-width="1.25" stroke-miterlimit="10"/>
<path d="M354.654 120.633L381.206 101.419L330.818 91.6155L330.02 107.412L354.654 120.633Z" stroke="black" stroke-opacity="0.1" stroke-width="1.25" stroke-miterlimit="10"/>
<path d="M15.9782 392.166L-3.06855 369L-7.1875 406.481L7.35227 412.178L15.9782 392.166Z" stroke="black" stroke-opacity="0.1" stroke-width="1.25" stroke-miterlimit="10"/>
<path d="M542.02 392.166L550.645 412.178L565.19 406.481L561.066 369L542.02 392.166Z" stroke="black" stroke-opacity="0.1" stroke-width="1.25" stroke-miterlimit="10"/>
<path d="M15.9782 345.834L7.35227 325.822L-7.1875 331.519L-3.06855 369L15.9782 345.834Z" stroke="black" stroke-opacity="0.1" stroke-width="1.25" stroke-miterlimit="10"/>
<path d="M542.02 345.834L561.066 369L565.19 331.519L550.645 325.822L542.02 345.834Z" stroke="black" stroke-opacity="0.1" stroke-width="1.25" stroke-miterlimit="10"/>
<path d="M155.902 135.667L176.792 101.419L129.504 119.354L131.286 136.055L155.902 135.667Z" stroke="black" stroke-opacity="0.1" stroke-width="1.25" stroke-miterlimit="10"/>
<path d="M402.097 135.667L426.714 136.055L428.491 119.354L381.207 101.419L402.097 135.667Z" stroke="black" stroke-opacity="0.1" stroke-width="1.25" stroke-miterlimit="10"/>
<path d="M29.3539 213.883L15.1758 238.931L19.5902 258.155L51.8493 227.69L29.3539 213.883Z" stroke="black" stroke-opacity="0.1" stroke-width="1.25" stroke-miterlimit="10"/>
<path d="M66.3289 183.11L46.0561 188.732L29.3555 213.883L51.8509 227.69L66.3289 183.11Z" stroke="black" stroke-opacity="0.1" stroke-width="1.25" stroke-miterlimit="10"/>
<path d="M538.411 258.155L542.825 238.931L528.647 213.883L506.156 227.69L538.411 258.155Z" stroke="black" stroke-opacity="0.1" stroke-width="1.25" stroke-miterlimit="10"/>
<path d="M528.645 213.883L511.944 188.732L491.676 183.11L506.154 227.69L528.645 213.883Z" stroke="black" stroke-opacity="0.1" stroke-width="1.25" stroke-miterlimit="10"/>
<path d="M25.5043 278.304L19.5905 258.155L-7.32812 290.453L15.2599 303.145L25.5043 278.304Z" stroke="black" stroke-opacity="0.1" stroke-width="1.25" stroke-miterlimit="10"/>
<path d="M542.741 303.145L565.333 290.453L538.41 258.155L532.496 278.304L542.741 303.145Z" stroke="black" stroke-opacity="0.1" stroke-width="1.25" stroke-miterlimit="10"/>
<path d="M109.661 156.328L84.6385 141.85L66.3281 183.11L88.925 178.925L109.661 156.328Z" stroke="black" stroke-opacity="0.1" stroke-width="1.25" stroke-miterlimit="10"/>
<path d="M469.076 178.925L491.677 183.11L473.358 141.85L448.336 156.328L469.076 178.925Z" stroke="black" stroke-opacity="0.1" stroke-width="1.25" stroke-miterlimit="10"/>
<path d="M15.2599 303.145L-7.32812 290.453L-7.18702 331.519L7.35275 325.822L15.2599 303.145Z" stroke="black" stroke-opacity="0.1" stroke-width="1.25" stroke-miterlimit="10"/>
<path d="M550.645 325.822L565.19 331.519L565.331 290.453L542.738 303.145L550.645 325.822Z" stroke="black" stroke-opacity="0.1" stroke-width="1.25" stroke-miterlimit="10"/>
<path d="M131.286 136.055L129.504 119.354L84.6367 141.85L109.659 156.328L131.286 136.055Z" stroke="black" stroke-opacity="0.1" stroke-width="1.25" stroke-miterlimit="10"/>
<path d="M448.337 156.328L473.359 141.85L428.492 119.354L426.715 136.055L448.337 156.328Z" stroke="black" stroke-opacity="0.1" stroke-width="1.25" stroke-miterlimit="10"/>
<path d="M565.19 406.481L577.33 395.685L579.496 369H561.066L565.19 406.481Z" stroke="black" stroke-opacity="0.1" stroke-width="1.25" stroke-miterlimit="10"/>
<path d="M561.066 369H579.496L577.33 342.315L565.19 331.519L561.066 369Z" stroke="black" stroke-opacity="0.1" stroke-width="1.25" stroke-miterlimit="10"/>
<path d="M279.002 87.3068L252.22 68.2203L226.324 77.3182L227.184 91.6154L279.002 87.3068Z" stroke="black" stroke-opacity="0.1" stroke-width="1.25" stroke-miterlimit="10"/>
<path d="M330.817 91.6154L331.673 77.3182L305.782 68.2203L279 87.3068L330.817 91.6154Z" stroke="black" stroke-opacity="0.1" stroke-width="1.25" stroke-miterlimit="10"/>
<path d="M305.783 68.2204L279.001 61.451L252.219 68.2204L279.001 87.3069L305.783 68.2204Z" stroke="black" stroke-opacity="0.1" stroke-width="1.25" stroke-miterlimit="10"/>
<path d="M19.5905 258.155L15.1761 238.931L-0.457351 246.592L-7.32812 290.453L19.5905 258.155Z" stroke="black" stroke-opacity="0.1" stroke-width="1.25" stroke-miterlimit="10"/>
<path d="M538.41 258.155L565.333 290.453L558.458 246.592L542.825 238.931L538.41 258.155Z" stroke="black" stroke-opacity="0.1" stroke-width="1.25" stroke-miterlimit="10"/>
<path d="M227.182 91.6155L226.322 77.3182L200.788 75.2985L176.793 101.419L227.182 91.6155Z" stroke="black" stroke-opacity="0.1" stroke-width="1.25" stroke-miterlimit="10"/>
<path d="M381.205 101.419L357.21 75.2985L331.672 77.3182L330.816 91.6155L381.205 101.419Z" stroke="black" stroke-opacity="0.1" stroke-width="1.25" stroke-miterlimit="10"/>
<path d="M66.3288 183.11L84.6391 141.85L45.668 171.167L46.0561 188.732L66.3288 183.11Z" stroke="black" stroke-opacity="0.1" stroke-width="1.25" stroke-miterlimit="10"/>
<path d="M491.679 183.11L511.947 188.732L512.335 171.167L473.359 141.85L491.679 183.11Z" stroke="black" stroke-opacity="0.1" stroke-width="1.25" stroke-miterlimit="10"/>
<path d="M153.041 89.5427L129.328 105.176L129.505 119.354L176.793 101.419L153.041 89.5427Z" stroke="black" stroke-opacity="0.1" stroke-width="1.25" stroke-miterlimit="10"/>
<path d="M200.79 75.2985L176.848 75.81L153.043 89.5428L176.795 101.419L200.79 75.2985Z" stroke="black" stroke-opacity="0.1" stroke-width="1.25" stroke-miterlimit="10"/>
<path d="M404.958 89.5428L381.153 75.81L357.211 75.2985L381.206 101.419L404.958 89.5428Z" stroke="black" stroke-opacity="0.1" stroke-width="1.25" stroke-miterlimit="10"/>
<path d="M428.491 119.354L428.672 105.176L404.959 89.5427L381.207 101.419L428.491 119.354Z" stroke="black" stroke-opacity="0.1" stroke-width="1.25" stroke-miterlimit="10"/>
<path d="M565.191 406.481L565.333 447.547L583.444 409.7L577.332 395.685L565.191 406.481Z" stroke="black" stroke-opacity="0.1" stroke-width="1.25" stroke-miterlimit="10"/>
<path d="M565.191 331.519L577.332 342.315L583.444 328.3L565.333 290.453L565.191 331.519Z" stroke="black" stroke-opacity="0.1" stroke-width="1.25" stroke-miterlimit="10"/>
<path d="M129.504 119.354L129.328 105.176L107.392 109.591L84.6367 141.85L129.504 119.354Z" stroke="black" stroke-opacity="0.1" stroke-width="1.25" stroke-miterlimit="10"/>
<path d="M428.488 119.354L473.356 141.85L450.604 109.591L428.669 105.176L428.488 119.354Z" stroke="black" stroke-opacity="0.1" stroke-width="1.25" stroke-miterlimit="10"/>
<path d="M29.3546 213.883L11.4191 203.625L-0.457031 246.592L15.1764 238.931L29.3546 213.883Z" stroke="black" stroke-opacity="0.1" stroke-width="1.25" stroke-miterlimit="10"/>
<path d="M542.823 238.931L558.456 246.592L546.58 203.625L528.645 213.883L542.823 238.931Z" stroke="black" stroke-opacity="0.1" stroke-width="1.25" stroke-miterlimit="10"/>
<path d="M46.0541 188.732L45.666 171.167L11.418 203.625L29.3534 213.883L46.0541 188.732Z" stroke="black" stroke-opacity="0.1" stroke-width="1.25" stroke-miterlimit="10"/>
<path d="M528.646 213.883L546.581 203.625L512.333 171.167L511.945 188.732L528.646 213.883Z" stroke="black" stroke-opacity="0.1" stroke-width="1.25" stroke-miterlimit="10"/>
<path d="M-0.455752 246.592L-14.1885 257.083L-23.7891 284.967L-7.32653 290.453L-0.455752 246.592Z" stroke="black" stroke-opacity="0.1" stroke-width="1.25" stroke-miterlimit="10"/>
<path d="M583.444 328.3L588.546 312.945L581.786 284.968L565.332 290.454L583.444 328.3Z" stroke="black" stroke-opacity="0.1" stroke-width="1.25" stroke-miterlimit="10"/>
<path d="M581.786 284.967L572.194 257.083L558.457 246.592L565.332 290.453L581.786 284.967Z" stroke="black" stroke-opacity="0.1" stroke-width="1.25" stroke-miterlimit="10"/>
<path d="M226.323 77.3181L252.218 68.2203L225.948 54.514L200.789 75.2984L226.323 77.3181Z" stroke="black" stroke-opacity="0.1" stroke-width="1.25" stroke-miterlimit="10"/>
<path d="M331.672 77.3181L357.211 75.2984L332.052 54.514L305.781 68.2203L331.672 77.3181Z" stroke="black" stroke-opacity="0.1" stroke-width="1.25" stroke-miterlimit="10"/>
<path d="M66.7434 134.714L46.7793 156.191L45.668 171.167L84.6391 141.85L66.7434 134.714Z" stroke="black" stroke-opacity="0.1" stroke-width="1.25" stroke-miterlimit="10"/>
<path d="M107.394 109.591L87.6853 115.504L66.7422 134.714L84.638 141.85L107.394 109.591Z" stroke="black" stroke-opacity="0.1" stroke-width="1.25" stroke-miterlimit="10"/>
<path d="M512.335 171.167L511.224 156.191L491.264 134.714L473.359 141.85L512.335 171.167Z" stroke="black" stroke-opacity="0.1" stroke-width="1.25" stroke-miterlimit="10"/>
<path d="M491.261 134.714L470.305 115.504L450.605 109.591L473.357 141.85L491.261 134.714Z" stroke="black" stroke-opacity="0.1" stroke-width="1.25" stroke-miterlimit="10"/>
<path d="M577.332 395.685L583.444 409.7L595.334 369H579.497L577.332 395.685Z" stroke="black" stroke-opacity="0.1" stroke-width="1.25" stroke-miterlimit="10"/>
<path d="M577.332 342.315L579.497 369H595.334L583.444 328.3L577.332 342.315Z" stroke="black" stroke-opacity="0.1" stroke-width="1.25" stroke-miterlimit="10"/>
<path d="M305.782 68.2204L332.052 54.5141L279 51.6697V61.4511L305.782 68.2204Z" stroke="black" stroke-opacity="0.1" stroke-width="1.25" stroke-miterlimit="10"/>
<path d="M279.002 61.4511V51.6697L225.949 54.5141L252.22 68.2204L279.002 61.4511Z" stroke="black" stroke-opacity="0.1" stroke-width="1.25" stroke-miterlimit="10"/>
<path d="M153.042 89.5426L132.042 82.6719L107.395 109.591L129.33 105.176L153.042 89.5426Z" stroke="black" stroke-opacity="0.1" stroke-width="1.25" stroke-miterlimit="10"/>
<path d="M428.67 105.176L450.605 109.591L425.957 82.6719L404.957 89.5426L428.67 105.176Z" stroke="black" stroke-opacity="0.1" stroke-width="1.25" stroke-miterlimit="10"/>
<path d="M200.79 75.2984L225.949 54.514L177.589 66.2094L176.848 75.8099L200.79 75.2984Z" stroke="black" stroke-opacity="0.1" stroke-width="1.25" stroke-miterlimit="10"/>
<path d="M381.152 75.8099L380.411 66.2094L332.051 54.514L357.21 75.2984L381.152 75.8099Z" stroke="black" stroke-opacity="0.1" stroke-width="1.25" stroke-miterlimit="10"/>
<path d="M-0.45883 246.592L11.4173 203.625L-14.7031 241.106L-14.1916 257.083L-0.45883 246.592Z" stroke="black" stroke-opacity="0.1" stroke-width="1.25" stroke-miterlimit="10"/>
<path d="M558.458 246.592L572.195 257.083L572.702 241.106L546.582 203.625L558.458 246.592Z" stroke="black" stroke-opacity="0.1" stroke-width="1.25" stroke-miterlimit="10"/>
<path d="M45.666 171.167L46.7774 156.191L30.6323 165.196L11.418 203.625L45.666 171.167Z" stroke="black" stroke-opacity="0.1" stroke-width="1.25" stroke-miterlimit="10"/>
<path d="M512.334 171.167L546.582 203.625L527.368 165.196L511.223 156.191L512.334 171.167Z" stroke="black" stroke-opacity="0.1" stroke-width="1.25" stroke-miterlimit="10"/>
<path d="M176.849 75.8099L177.589 66.2094L132.043 82.6719L153.043 89.5427L176.849 75.8099Z" stroke="black" stroke-opacity="0.1" stroke-width="1.25" stroke-miterlimit="10"/>
<path d="M404.96 89.5427L425.961 82.6719L380.414 66.2094L381.155 75.8099L404.96 89.5427Z" stroke="black" stroke-opacity="0.1" stroke-width="1.25" stroke-miterlimit="10"/>
<path d="M583.445 409.7L588.548 425.056L597.319 412.381L595.335 369L583.445 409.7Z" stroke="black" stroke-opacity="0.1" stroke-width="1.25" stroke-miterlimit="10"/>
<path d="M583.445 328.3L595.335 369L597.319 325.619L588.548 312.945L583.445 328.3Z" stroke="black" stroke-opacity="0.1" stroke-width="1.25" stroke-miterlimit="10"/>
<path d="M107.392 109.591L132.039 82.6719L90.8456 105.26L87.6836 115.504L107.392 109.591Z" stroke="black" stroke-opacity="0.1" stroke-width="1.25" stroke-miterlimit="10"/>
<path d="M450.605 109.591L470.304 115.504L467.151 105.26L425.957 82.6719L450.605 109.591Z" stroke="black" stroke-opacity="0.1" stroke-width="1.25" stroke-miterlimit="10"/>
<path d="M1.61388 198.395L-12.6834 225.031L-14.7031 241.106L11.4173 203.625L1.61388 198.395Z" stroke="black" stroke-opacity="0.1" stroke-width="1.25" stroke-miterlimit="10"/>
<path d="M30.635 165.196L17.4138 174.343L1.61719 198.395L11.4206 203.625L30.635 165.196Z" stroke="black" stroke-opacity="0.1" stroke-width="1.25" stroke-miterlimit="10"/>
<path d="M572.702 241.106L570.678 225.031L556.39 198.395L546.582 203.625L572.702 241.106Z" stroke="black" stroke-opacity="0.1" stroke-width="1.25" stroke-miterlimit="10"/>
<path d="M556.389 198.395L540.593 174.343L527.367 165.196L546.582 203.625L556.389 198.395Z" stroke="black" stroke-opacity="0.1" stroke-width="1.25" stroke-miterlimit="10"/>
<path d="M581.787 284.967L593.491 281.664L572.702 241.106L572.195 257.083L581.787 284.967Z" stroke="black" stroke-opacity="0.1" stroke-width="1.25" stroke-miterlimit="10"/>
<path d="M588.546 312.945L597.317 325.619L593.489 281.664L581.785 284.968L588.546 312.945Z" stroke="black" stroke-opacity="0.1" stroke-width="1.25" stroke-miterlimit="10"/>
<path d="M66.7419 134.714L53.4943 131.217L30.6328 165.196L46.7778 156.191L66.7419 134.714Z" stroke="black" stroke-opacity="0.1" stroke-width="1.25" stroke-miterlimit="10"/>
<path d="M511.221 156.191L527.366 165.196L504.509 131.217L491.262 134.714L511.221 156.191Z" stroke="black" stroke-opacity="0.1" stroke-width="1.25" stroke-miterlimit="10"/>
<path d="M597.317 412.381L603.72 398.366L605.206 369H595.332L597.317 412.381Z" stroke="black" stroke-opacity="0.1" stroke-width="1.25" stroke-miterlimit="10"/>
<path d="M597.317 325.619L595.332 369H605.206L603.72 339.629L597.317 325.619Z" stroke="black" stroke-opacity="0.1" stroke-width="1.25" stroke-miterlimit="10"/>
<path d="M87.6868 115.504L90.8488 105.26L53.4961 131.217L66.7437 134.714L87.6868 115.504Z" stroke="black" stroke-opacity="0.1" stroke-width="1.25" stroke-miterlimit="10"/>
<path d="M491.262 134.714L504.509 131.217L467.152 105.26L470.306 115.504L491.262 134.714Z" stroke="black" stroke-opacity="0.1" stroke-width="1.25" stroke-miterlimit="10"/>
<path d="M279.002 51.6696V44.7635L252.603 43.2773L225.949 54.514L279.002 51.6696Z" stroke="black" stroke-opacity="0.1" stroke-width="1.25" stroke-miterlimit="10"/>
<path d="M332.052 54.514L305.398 43.2773L279 44.7635V51.6696L332.052 54.514Z" stroke="black" stroke-opacity="0.1" stroke-width="1.25" stroke-miterlimit="10"/>
<path d="M225.946 54.5141L202.71 50.6818L178.384 59.4488L177.586 66.2094L225.946 54.5141Z" stroke="black" stroke-opacity="0.1" stroke-width="1.25" stroke-miterlimit="10"/>
<path d="M252.601 43.2773L227.861 44.2784L202.711 50.6817L225.947 54.514L252.601 43.2773Z" stroke="black" stroke-opacity="0.1" stroke-width="1.25" stroke-miterlimit="10"/>
<path d="M380.411 66.2094L379.613 59.4488L355.287 50.6818L332.051 54.5141L380.411 66.2094Z" stroke="black" stroke-opacity="0.1" stroke-width="1.25" stroke-miterlimit="10"/>
<path d="M355.289 50.6817L330.134 44.2784L305.398 43.2773L332.053 54.514L355.289 50.6817Z" stroke="black" stroke-opacity="0.1" stroke-width="1.25" stroke-miterlimit="10"/>
<path d="M177.589 66.2094L178.388 59.4489L156.699 64.56L132.043 82.6719L177.589 66.2094Z" stroke="black" stroke-opacity="0.1" stroke-width="1.25" stroke-miterlimit="10"/>
<path d="M425.958 82.6719L401.302 64.56L379.613 59.4489L380.411 66.2094L425.958 82.6719Z" stroke="black" stroke-opacity="0.1" stroke-width="1.25" stroke-miterlimit="10"/>
<path d="M116.443 82.813L94.6226 97.3528L90.8477 105.26L132.041 82.6719L116.443 82.813Z" stroke="black" stroke-opacity="0.1" stroke-width="1.25" stroke-miterlimit="10"/>
<path d="M156.696 64.5601L137.799 70.6679L116.441 82.813L132.04 82.6719L156.696 64.5601Z" stroke="black" stroke-opacity="0.1" stroke-width="1.25" stroke-miterlimit="10"/>
<path d="M441.555 82.813L420.198 70.6679L401.301 64.5601L425.957 82.6719L441.555 82.813Z" stroke="black" stroke-opacity="0.1" stroke-width="1.25" stroke-miterlimit="10"/>
<path d="M467.151 105.26L463.376 97.3528L441.555 82.813L425.957 82.6719L467.151 105.26Z" stroke="black" stroke-opacity="0.1" stroke-width="1.25" stroke-miterlimit="10"/>
<path d="M572.7 241.106L593.489 281.664L579.778 237.56L570.676 225.031L572.7 241.106Z" stroke="black" stroke-opacity="0.1" stroke-width="1.25" stroke-miterlimit="10"/>
<path d="M597.32 412.381L593.492 456.331L604.729 413.052L603.723 398.366L597.32 412.381Z" stroke="black" stroke-opacity="0.1" stroke-width="1.25" stroke-miterlimit="10"/>
<path d="M597.32 325.619L603.723 339.629L604.729 324.949L593.492 281.664L597.32 325.619Z" stroke="black" stroke-opacity="0.1" stroke-width="1.25" stroke-miterlimit="10"/>
<path d="M30.6313 165.196L53.4928 131.217L23.3593 161.527L17.4102 174.343L30.6313 165.196Z" stroke="black" stroke-opacity="0.1" stroke-width="1.25" stroke-miterlimit="10"/>
<path d="M527.365 165.196L540.59 174.343L534.641 161.527L504.508 131.217L527.365 165.196Z" stroke="black" stroke-opacity="0.1" stroke-width="1.25" stroke-miterlimit="10"/>
<path d="M90.8488 105.26L94.6237 97.3528L78.9639 105.979L53.4961 131.217L90.8488 105.26Z" stroke="black" stroke-opacity="0.1" stroke-width="1.25" stroke-miterlimit="10"/>
<path d="M467.154 105.26L504.511 131.217L479.034 105.979L463.379 97.3528L467.154 105.26Z" stroke="black" stroke-opacity="0.1" stroke-width="1.25" stroke-miterlimit="10"/>
<path d="M279 44.7636L305.398 43.2774L279 38.25L252.602 43.2774L279 44.7636Z" stroke="black" stroke-opacity="0.1" stroke-width="1.25" stroke-miterlimit="10"/>
<path d="M178.388 59.4488L202.713 50.6818L180.588 52.6707L156.699 64.56L178.388 59.4488Z" stroke="black" stroke-opacity="0.1" stroke-width="1.25" stroke-miterlimit="10"/>
<path d="M379.615 59.4488L401.303 64.56L377.414 52.6707L355.289 50.6818L379.615 59.4488Z" stroke="black" stroke-opacity="0.1" stroke-width="1.25" stroke-miterlimit="10"/>
<path d="M604.729 324.948L603.234 310.263L596.332 280.893L593.492 281.664L604.729 324.948Z" stroke="black" stroke-opacity="0.1" stroke-width="1.25" stroke-miterlimit="10"/>
<path d="M596.332 280.893L586.551 251.526L579.781 237.56L593.492 281.664L596.332 280.893Z" stroke="black" stroke-opacity="0.1" stroke-width="1.25" stroke-miterlimit="10"/>
<path d="M1.61381 198.395L-2.69477 195.824L-21.7812 237.56L-12.6834 225.031L1.61381 198.395Z" stroke="black" stroke-opacity="0.1" stroke-width="1.25" stroke-miterlimit="10"/>
<path d="M570.679 225.031L579.781 237.56L560.699 195.824L556.391 198.395L570.679 225.031Z" stroke="black" stroke-opacity="0.1" stroke-width="1.25" stroke-miterlimit="10"/>
<path d="M17.4138 174.343L23.3629 161.527L-2.69141 195.824L1.61717 198.395L17.4138 174.343Z" stroke="black" stroke-opacity="0.1" stroke-width="1.25" stroke-miterlimit="10"/>
<path d="M556.39 198.395L560.699 195.824L534.645 161.527L540.594 174.343L556.39 198.395Z" stroke="black" stroke-opacity="0.1" stroke-width="1.25" stroke-miterlimit="10"/>
<path d="M605.209 369L603.723 398.366L604.728 413.051L609.747 369H605.209Z" stroke="black" stroke-opacity="0.1" stroke-width="1.25" stroke-miterlimit="10"/>
<path d="M605.209 369H609.747L604.728 324.948L603.723 339.629L605.209 369Z" stroke="black" stroke-opacity="0.1" stroke-width="1.25" stroke-miterlimit="10"/>
<path d="M534.641 161.527L526.364 150.149L507.846 130.41L504.508 131.217L534.641 161.527Z" stroke="black" stroke-opacity="0.1" stroke-width="1.25" stroke-miterlimit="10"/>
<path d="M507.846 130.41L490.065 113.846L479.031 105.979L504.508 131.217L507.846 130.41Z" stroke="black" stroke-opacity="0.1" stroke-width="1.25" stroke-miterlimit="10"/>
<path d="M50.1457 130.41L31.6325 150.149L23.3594 161.527L53.4929 131.217L50.1457 130.41Z" stroke="black" stroke-opacity="0.1" stroke-width="1.25" stroke-miterlimit="10"/>
<path d="M78.9634 105.979L67.9384 113.846L50.1484 130.41L53.4956 131.217L78.9634 105.979Z" stroke="black" stroke-opacity="0.1" stroke-width="1.25" stroke-miterlimit="10"/>
<path d="M252.603 43.2774L279.002 38.25L228.697 42.7879L227.863 44.2785L252.603 43.2774Z" stroke="black" stroke-opacity="0.1" stroke-width="1.25" stroke-miterlimit="10"/>
<path d="M330.134 44.2785L329.309 42.7879L279 38.25L305.398 43.2774L330.134 44.2785Z" stroke="black" stroke-opacity="0.1" stroke-width="1.25" stroke-miterlimit="10"/>
<path d="M227.861 44.2784L228.695 42.7878L180.586 52.6707L202.711 50.6817L227.861 44.2784Z" stroke="black" stroke-opacity="0.1" stroke-width="1.25" stroke-miterlimit="10"/>
<path d="M355.288 50.6817L377.413 52.6707L329.309 42.7878L330.133 44.2784L355.288 50.6817Z" stroke="black" stroke-opacity="0.1" stroke-width="1.25" stroke-miterlimit="10"/>
<path d="M116.442 82.813L104.671 86.9319L78.9609 105.979L94.6208 97.3528L116.442 82.813Z" stroke="black" stroke-opacity="0.1" stroke-width="1.25" stroke-miterlimit="10"/>
<path d="M463.379 97.3528L479.035 105.979L453.329 86.9319L441.559 82.813L463.379 97.3528Z" stroke="black" stroke-opacity="0.1" stroke-width="1.25" stroke-miterlimit="10"/>
<path d="M156.698 64.56L180.587 52.6707L139.609 68.4981L137.801 70.6679L156.698 64.56Z" stroke="black" stroke-opacity="0.1" stroke-width="1.25" stroke-miterlimit="10"/>
<path d="M420.2 70.6679L418.392 68.4981L377.414 52.6707L401.303 64.56L420.2 70.6679Z" stroke="black" stroke-opacity="0.1" stroke-width="1.25" stroke-miterlimit="10"/>
<path d="M137.8 70.6679L139.608 68.4982L104.672 86.932L116.442 82.813L137.8 70.6679Z" stroke="black" stroke-opacity="0.1" stroke-width="1.25" stroke-miterlimit="10"/>
<path d="M441.556 82.813L453.327 86.932L418.391 68.4982L420.199 70.6679L441.556 82.813Z" stroke="black" stroke-opacity="0.1" stroke-width="1.25" stroke-miterlimit="10"/>
<path d="M279 699.75C461.668 699.75 609.75 551.668 609.75 369C609.75 186.332 461.668 38.25 279 38.25C96.3318 38.25 -51.75 186.332 -51.75 369C-51.75 551.668 96.3318 699.75 279 699.75Z" stroke="#FF4500" stroke-width="10" stroke-miterlimit="10"/>
</svg>
