<svg width="1440" height="1321" viewBox="0 0 1440 1321" fill="none" xmlns="http://www.w3.org/2000/svg">
<g opacity="0.2">
<ellipse opacity="0.427265" cx="396.552" cy="64.4349" rx="3.55206" ry="3.55206" fill="black" fill-opacity="0.5"/>
<ellipse opacity="0.261618" cx="450.544" cy="64.4349" rx="3.55206" ry="3.55206" fill="#FF4500"/>
<ellipse opacity="0.491023" cx="504.536" cy="64.4349" rx="3.55206" ry="3.55206" fill="black" fill-opacity="0.5"/>
<ellipse opacity="0.338151" cx="558.525" cy="64.4349" rx="3.55206" ry="3.55206" fill="#FF4500"/>
<ellipse opacity="0.38284" cx="612.517" cy="64.4349" rx="3.55206" ry="3.55206" fill="black" fill-opacity="0.5"/>
<ellipse opacity="0.337679" cx="666.509" cy="64.4349" rx="3.55206" ry="3.55206" fill="#FF4500"/>
<ellipse opacity="0.377108" cx="720.497" cy="64.4349" rx="3.55206" ry="3.55206" fill="black" fill-opacity="0.5"/>
<ellipse opacity="0.64159" cx="774.49" cy="64.4349" rx="3.55206" ry="3.55206" fill="black" fill-opacity="0.25"/>
<ellipse opacity="0.3368" cx="828.478" cy="64.4349" rx="3.55206" ry="3.55206" fill="#FF4500"/>
<ellipse opacity="0.299109" cx="882.478" cy="64.4349" rx="3.55206" ry="3.55206" fill="#FF4500"/>
<ellipse opacity="0.464234" cx="936.466" cy="64.4349" rx="3.55206" ry="3.55206" fill="black" fill-opacity="0.5"/>
<ellipse opacity="0.710417" cx="990.458" cy="64.4349" rx="3.55206" ry="3.55206" fill="black" fill-opacity="0.25"/>
<ellipse opacity="0.593976" cx="1044.45" cy="64.4349" rx="3.55206" ry="3.55206" fill="black" fill-opacity="0.25"/>
<ellipse opacity="0.754026" cx="396.552" cy="138.317" rx="3.55206" ry="3.55206" fill="black" fill-opacity="0.25"/>
<ellipse opacity="0.59594" cx="450.544" cy="138.317" rx="3.55206" ry="3.55206" fill="black" fill-opacity="0.25"/>
<ellipse opacity="0.775113" cx="504.536" cy="138.317" rx="3.55206" ry="3.55206" fill="black" fill-opacity="0.25"/>
<ellipse opacity="0.43192" cx="558.525" cy="138.317" rx="3.55206" ry="3.55206" fill="black" fill-opacity="0.5"/>
<ellipse opacity="0.482163" cx="612.517" cy="138.317" rx="3.55206" ry="3.55206" fill="black" fill-opacity="0.5"/>
<ellipse opacity="0.757195" cx="666.509" cy="138.317" rx="3.55206" ry="3.55206" fill="black" fill-opacity="0.25"/>
<ellipse opacity="0.68169" cx="720.497" cy="138.317" rx="3.55206" ry="3.55206" fill="black" fill-opacity="0.25"/>
<ellipse opacity="0.590503" cx="774.49" cy="138.317" rx="3.55206" ry="3.55206" fill="black" fill-opacity="0.25"/>
<ellipse opacity="0.349708" cx="828.478" cy="138.317" rx="3.55206" ry="3.55206" fill="#FF4500"/>
<ellipse opacity="0.522515" cx="882.478" cy="138.317" rx="3.55206" ry="3.55206" fill="black" fill-opacity="0.25"/>
<ellipse opacity="0.562503" cx="936.466" cy="138.317" rx="3.55206" ry="3.55206" fill="black" fill-opacity="0.25"/>
<ellipse opacity="0.664151" cx="990.458" cy="138.317" rx="3.55206" ry="3.55206" fill="black" fill-opacity="0.25"/>
<ellipse opacity="0.722014" cx="1044.45" cy="138.317" rx="3.55206" ry="3.55206" fill="black" fill-opacity="0.25"/>
<ellipse opacity="0.365679" cx="396.552" cy="212.201" rx="3.55206" ry="3.55206" fill="black" fill-opacity="0.5"/>
<ellipse opacity="0.596058" cx="450.544" cy="212.201" rx="3.55206" ry="3.55206" fill="black" fill-opacity="0.25"/>
<ellipse opacity="0.394962" cx="504.536" cy="212.201" rx="3.55206" ry="3.55206" fill="black" fill-opacity="0.5"/>
<ellipse opacity="0.488534" cx="558.525" cy="212.201" rx="3.55206" ry="3.55206" fill="black" fill-opacity="0.5"/>
<ellipse opacity="0.252237" cx="612.517" cy="212.201" rx="3.55206" ry="3.55206" fill="#FF4500"/>
<ellipse opacity="0.660526" cx="666.509" cy="212.201" rx="3.55206" ry="3.55206" fill="black" fill-opacity="0.25"/>
<ellipse opacity="0.262814" cx="720.497" cy="212.201" rx="3.55206" ry="3.55206" fill="#FF4500"/>
<ellipse opacity="0.459141" cx="774.49" cy="212.201" rx="3.55206" ry="3.55206" fill="black" fill-opacity="0.5"/>
<ellipse opacity="0.797461" cx="828.478" cy="212.201" rx="3.55206" ry="3.55206" fill="black" fill-opacity="0.25"/>
<ellipse opacity="0.734081" cx="882.478" cy="212.201" rx="3.55206" ry="3.55206" fill="black" fill-opacity="0.25"/>
<ellipse opacity="0.463743" cx="936.466" cy="212.201" rx="3.55206" ry="3.55206" fill="black" fill-opacity="0.5"/>
<ellipse opacity="0.401363" cx="990.458" cy="212.201" rx="3.55206" ry="3.55206" fill="black" fill-opacity="0.5"/>
<ellipse opacity="0.602789" cx="1044.45" cy="212.201" rx="3.55206" ry="3.55206" fill="black" fill-opacity="0.25"/>
<ellipse opacity="0.573616" cx="396.552" cy="286.083" rx="3.55206" ry="3.55206" fill="black" fill-opacity="0.25"/>
<ellipse opacity="0.69812" cx="450.544" cy="286.083" rx="3.55206" ry="3.55206" fill="black" fill-opacity="0.25"/>
<ellipse opacity="0.527096" cx="504.536" cy="286.083" rx="3.55206" ry="3.55206" fill="black" fill-opacity="0.25"/>
<ellipse opacity="0.566461" cx="558.525" cy="286.083" rx="3.55206" ry="3.55206" fill="black" fill-opacity="0.25"/>
<ellipse opacity="0.722903" cx="612.517" cy="286.083" rx="3.55206" ry="3.55206" fill="black" fill-opacity="0.25"/>
<ellipse opacity="0.438783" cx="666.509" cy="286.083" rx="3.55206" ry="3.55206" fill="black" fill-opacity="0.5"/>
<ellipse opacity="0.53475" cx="720.497" cy="286.083" rx="3.55206" ry="3.55206" fill="black" fill-opacity="0.25"/>
<ellipse opacity="0.679318" cx="774.49" cy="286.083" rx="3.55206" ry="3.55206" fill="black" fill-opacity="0.25"/>
<ellipse opacity="0.514699" cx="828.478" cy="286.083" rx="3.55206" ry="3.55206" fill="black" fill-opacity="0.25"/>
<ellipse opacity="0.759183" cx="882.478" cy="286.083" rx="3.55206" ry="3.55206" fill="black" fill-opacity="0.25"/>
<ellipse opacity="0.688579" cx="936.466" cy="286.083" rx="3.55206" ry="3.55206" fill="black" fill-opacity="0.25"/>
<ellipse opacity="0.53916" cx="990.458" cy="286.083" rx="3.55206" ry="3.55206" fill="black" fill-opacity="0.25"/>
<ellipse opacity="0.533705" cx="1044.45" cy="286.083" rx="3.55206" ry="3.55206" fill="black" fill-opacity="0.25"/>
<ellipse opacity="0.287252" cx="396.552" cy="359.966" rx="3.55206" ry="3.55206" fill="#FF4500"/>
<ellipse opacity="0.421148" cx="450.544" cy="359.966" rx="3.55206" ry="3.55206" fill="black" fill-opacity="0.5"/>
<ellipse opacity="0.754479" cx="504.536" cy="359.966" rx="3.55206" ry="3.55206" fill="black" fill-opacity="0.25"/>
<ellipse opacity="0.279698" cx="558.525" cy="359.966" rx="3.55206" ry="3.55206" fill="#FF4500"/>
<ellipse opacity="0.511811" cx="612.517" cy="359.966" rx="3.55206" ry="3.55206" fill="black" fill-opacity="0.5"/>
<ellipse opacity="0.605682" cx="666.509" cy="359.966" rx="3.55206" ry="3.55206" fill="black" fill-opacity="0.25"/>
<ellipse opacity="0.687629" cx="720.497" cy="359.966" rx="3.55206" ry="3.55206" fill="black" fill-opacity="0.25"/>
<ellipse opacity="0.397884" cx="774.49" cy="359.966" rx="3.55206" ry="3.55206" fill="black" fill-opacity="0.5"/>
<ellipse opacity="0.537822" cx="828.478" cy="359.966" rx="3.55206" ry="3.55206" fill="black" fill-opacity="0.25"/>
<ellipse opacity="0.500937" cx="882.478" cy="359.966" rx="3.55206" ry="3.55206" fill="black" fill-opacity="0.5"/>
<ellipse opacity="0.78101" cx="936.466" cy="359.966" rx="3.55206" ry="3.55206" fill="black" fill-opacity="0.25"/>
<ellipse opacity="0.532054" cx="990.458" cy="359.966" rx="3.55206" ry="3.55206" fill="black" fill-opacity="0.25"/>
<ellipse opacity="0.743653" cx="1044.45" cy="359.966" rx="3.55206" ry="3.55206" fill="black" fill-opacity="0.25"/>
<ellipse opacity="0.674263" cx="396.552" cy="433.849" rx="3.55206" ry="3.55206" fill="black" fill-opacity="0.25"/>
<ellipse opacity="0.436942" cx="450.544" cy="433.849" rx="3.55206" ry="3.55206" fill="black" fill-opacity="0.5"/>
<ellipse opacity="0.54691" cx="504.536" cy="433.849" rx="3.55206" ry="3.55206" fill="black" fill-opacity="0.25"/>
<ellipse opacity="0.406447" cx="558.525" cy="433.849" rx="3.55206" ry="3.55206" fill="black" fill-opacity="0.5"/>
<ellipse opacity="0.488524" cx="612.517" cy="433.849" rx="3.55206" ry="3.55206" fill="black" fill-opacity="0.5"/>
<ellipse opacity="0.478815" cx="666.509" cy="433.849" rx="3.55206" ry="3.55206" fill="black" fill-opacity="0.5"/>
<ellipse opacity="0.716957" cx="720.497" cy="433.849" rx="3.55206" ry="3.55206" fill="black" fill-opacity="0.25"/>
<ellipse opacity="0.555694" cx="774.49" cy="433.849" rx="3.55206" ry="3.55206" fill="black" fill-opacity="0.25"/>
<ellipse opacity="0.251282" cx="828.478" cy="433.849" rx="3.55206" ry="3.55206" fill="#FF4500"/>
<ellipse opacity="0.502632" cx="882.478" cy="433.849" rx="3.55206" ry="3.55206" fill="black" fill-opacity="0.5"/>
<ellipse opacity="0.56623" cx="936.466" cy="433.849" rx="3.55206" ry="3.55206" fill="black" fill-opacity="0.25"/>
<ellipse opacity="0.342875" cx="990.458" cy="433.849" rx="3.55206" ry="3.55206" fill="#FF4500"/>
<ellipse opacity="0.27952" cx="1044.45" cy="433.849" rx="3.55206" ry="3.55206" fill="#FF4500"/>
<ellipse opacity="0.463098" cx="396.552" cy="507.732" rx="3.55206" ry="3.55206" fill="black" fill-opacity="0.5"/>
<ellipse opacity="0.591615" cx="450.544" cy="507.732" rx="3.55206" ry="3.55206" fill="black" fill-opacity="0.25"/>
<ellipse opacity="0.313013" cx="504.536" cy="507.732" rx="3.55206" ry="3.55206" fill="#FF4500"/>
<ellipse opacity="0.363535" cx="558.525" cy="507.732" rx="3.55206" ry="3.55206" fill="black" fill-opacity="0.5"/>
<ellipse opacity="0.623197" cx="612.517" cy="507.732" rx="3.55206" ry="3.55206" fill="black" fill-opacity="0.25"/>
<ellipse opacity="0.379444" cx="666.509" cy="507.732" rx="3.55206" ry="3.55206" fill="black" fill-opacity="0.5"/>
<ellipse opacity="0.329198" cx="720.497" cy="507.732" rx="3.55206" ry="3.55206" fill="#FF4500"/>
<ellipse opacity="0.35171" cx="774.49" cy="507.732" rx="3.55206" ry="3.55206" fill="#FF4500"/>
<ellipse opacity="0.316488" cx="828.478" cy="507.732" rx="3.55206" ry="3.55206" fill="#FF4500"/>
<ellipse opacity="0.579499" cx="882.478" cy="507.732" rx="3.55206" ry="3.55206" fill="black" fill-opacity="0.25"/>
<ellipse opacity="0.798465" cx="936.466" cy="507.732" rx="3.55206" ry="3.55206" fill="black" fill-opacity="0.25"/>
<ellipse opacity="0.485882" cx="990.458" cy="507.732" rx="3.55206" ry="3.55206" fill="black" fill-opacity="0.5"/>
<ellipse opacity="0.633923" cx="1044.45" cy="507.732" rx="3.55206" ry="3.55206" fill="black" fill-opacity="0.25"/>
<ellipse opacity="0.708021" cx="396.552" cy="581.615" rx="3.55206" ry="3.55206" fill="black" fill-opacity="0.25"/>
<ellipse opacity="0.473912" cx="450.544" cy="581.615" rx="3.55206" ry="3.55206" fill="black" fill-opacity="0.5"/>
<ellipse opacity="0.73007" cx="504.536" cy="581.615" rx="3.55206" ry="3.55206" fill="black" fill-opacity="0.25"/>
<ellipse opacity="0.574393" cx="558.525" cy="581.615" rx="3.55206" ry="3.55206" fill="black" fill-opacity="0.25"/>
<ellipse opacity="0.636544" cx="612.517" cy="581.615" rx="3.55206" ry="3.55206" fill="black" fill-opacity="0.25"/>
<ellipse opacity="0.791717" cx="666.509" cy="581.615" rx="3.55206" ry="3.55206" fill="black" fill-opacity="0.25"/>
<ellipse opacity="0.483101" cx="720.497" cy="581.615" rx="3.55206" ry="3.55206" fill="black" fill-opacity="0.5"/>
<ellipse opacity="0.333879" cx="774.49" cy="581.615" rx="3.55206" ry="3.55206" fill="#FF4500"/>
<ellipse opacity="0.415208" cx="828.478" cy="581.615" rx="3.55206" ry="3.55206" fill="black" fill-opacity="0.5"/>
<ellipse opacity="0.378796" cx="882.478" cy="581.615" rx="3.55206" ry="3.55206" fill="black" fill-opacity="0.5"/>
<ellipse opacity="0.439909" cx="936.466" cy="581.615" rx="3.55206" ry="3.55206" fill="black" fill-opacity="0.5"/>
<ellipse opacity="0.641046" cx="990.458" cy="581.615" rx="3.55206" ry="3.55206" fill="black" fill-opacity="0.25"/>
<ellipse opacity="0.719499" cx="1044.45" cy="581.615" rx="3.55206" ry="3.55206" fill="black" fill-opacity="0.25"/>
<ellipse opacity="0.471473" cx="396.552" cy="655.498" rx="3.55206" ry="3.55206" fill="black" fill-opacity="0.5"/>
<ellipse opacity="0.308327" cx="450.544" cy="655.498" rx="3.55206" ry="3.55206" fill="#FF4500"/>
<ellipse opacity="0.406044" cx="504.536" cy="655.498" rx="3.55206" ry="3.55206" fill="black" fill-opacity="0.5"/>
<ellipse opacity="0.576738" cx="558.525" cy="655.498" rx="3.55206" ry="3.55206" fill="black" fill-opacity="0.25"/>
<ellipse opacity="0.33551" cx="612.517" cy="655.498" rx="3.55206" ry="3.55206" fill="#FF4500"/>
<ellipse opacity="0.338567" cx="666.509" cy="655.498" rx="3.55206" ry="3.55206" fill="#FF4500"/>
<ellipse opacity="0.706215" cx="720.497" cy="655.498" rx="3.55206" ry="3.55206" fill="black" fill-opacity="0.25"/>
<ellipse opacity="0.495184" cx="774.49" cy="655.498" rx="3.55206" ry="3.55206" fill="black" fill-opacity="0.5"/>
<ellipse opacity="0.715777" cx="828.478" cy="655.498" rx="3.55206" ry="3.55206" fill="black" fill-opacity="0.25"/>
<ellipse opacity="0.780535" cx="882.478" cy="655.498" rx="3.55206" ry="3.55206" fill="black" fill-opacity="0.25"/>
<ellipse opacity="0.399291" cx="936.466" cy="655.498" rx="3.55206" ry="3.55206" fill="black" fill-opacity="0.5"/>
<ellipse opacity="0.377639" cx="990.458" cy="655.498" rx="3.55206" ry="3.55206" fill="black" fill-opacity="0.5"/>
<ellipse opacity="0.538575" cx="1044.45" cy="655.498" rx="3.55206" ry="3.55206" fill="black" fill-opacity="0.25"/>
<ellipse opacity="0.576382" cx="396.552" cy="729.38" rx="3.55206" ry="3.55206" fill="black" fill-opacity="0.25"/>
<ellipse opacity="0.744269" cx="450.544" cy="729.38" rx="3.55206" ry="3.55206" fill="black" fill-opacity="0.25"/>
<ellipse opacity="0.51543" cx="504.536" cy="729.38" rx="3.55206" ry="3.55206" fill="black" fill-opacity="0.25"/>
<ellipse opacity="0.667304" cx="558.525" cy="729.38" rx="3.55206" ry="3.55206" fill="black" fill-opacity="0.25"/>
<ellipse opacity="0.751404" cx="612.517" cy="729.38" rx="3.55206" ry="3.55206" fill="black" fill-opacity="0.25"/>
<ellipse opacity="0.293971" cx="666.509" cy="729.38" rx="3.55206" ry="3.55206" fill="#FF4500"/>
<ellipse opacity="0.768729" cx="720.497" cy="729.38" rx="3.55206" ry="3.55206" fill="black" fill-opacity="0.25"/>
<ellipse opacity="0.59454" cx="774.49" cy="729.38" rx="3.55206" ry="3.55206" fill="black" fill-opacity="0.25"/>
<ellipse opacity="0.670828" cx="828.478" cy="729.38" rx="3.55206" ry="3.55206" fill="black" fill-opacity="0.25"/>
<ellipse opacity="0.368708" cx="882.478" cy="729.38" rx="3.55206" ry="3.55206" fill="black" fill-opacity="0.5"/>
<ellipse opacity="0.371089" cx="936.466" cy="729.38" rx="3.55206" ry="3.55206" fill="black" fill-opacity="0.5"/>
<ellipse opacity="0.272721" cx="990.458" cy="729.38" rx="3.55206" ry="3.55206" fill="#FF4500"/>
<ellipse opacity="0.376935" cx="1044.45" cy="729.38" rx="3.55206" ry="3.55206" fill="black" fill-opacity="0.5"/>
<ellipse opacity="0.399645" cx="396.552" cy="803.263" rx="3.55206" ry="3.55206" fill="black" fill-opacity="0.5"/>
<ellipse opacity="0.653259" cx="450.544" cy="803.263" rx="3.55206" ry="3.55206" fill="black" fill-opacity="0.25"/>
<ellipse opacity="0.459625" cx="504.536" cy="803.263" rx="3.55206" ry="3.55206" fill="black" fill-opacity="0.5"/>
<ellipse opacity="0.68446" cx="558.525" cy="803.263" rx="3.55206" ry="3.55206" fill="black" fill-opacity="0.25"/>
<ellipse opacity="0.411532" cx="612.517" cy="803.263" rx="3.55206" ry="3.55206" fill="black" fill-opacity="0.5"/>
<ellipse opacity="0.604401" cx="666.509" cy="803.263" rx="3.55206" ry="3.55206" fill="black" fill-opacity="0.25"/>
<ellipse opacity="0.484222" cx="720.497" cy="803.263" rx="3.55206" ry="3.55206" fill="black" fill-opacity="0.5"/>
<ellipse opacity="0.492288" cx="774.49" cy="803.263" rx="3.55206" ry="3.55206" fill="black" fill-opacity="0.5"/>
<ellipse opacity="0.476231" cx="828.478" cy="803.263" rx="3.55206" ry="3.55206" fill="black" fill-opacity="0.5"/>
<ellipse opacity="0.692588" cx="882.478" cy="803.263" rx="3.55206" ry="3.55206" fill="black" fill-opacity="0.25"/>
<ellipse opacity="0.325469" cx="936.466" cy="803.263" rx="3.55206" ry="3.55206" fill="#FF4500"/>
<ellipse opacity="0.313887" cx="990.458" cy="803.263" rx="3.55206" ry="3.55206" fill="#FF4500"/>
<ellipse opacity="0.781273" cx="1044.45" cy="803.263" rx="3.55206" ry="3.55206" fill="black" fill-opacity="0.25"/>
<ellipse opacity="0.303624" cx="396.552" cy="877.146" rx="3.55206" ry="3.55206" fill="#FF4500"/>
<ellipse opacity="0.265055" cx="450.544" cy="877.146" rx="3.55206" ry="3.55206" fill="#FF4500"/>
<ellipse opacity="0.40066" cx="504.536" cy="877.146" rx="3.55206" ry="3.55206" fill="black" fill-opacity="0.5"/>
<ellipse opacity="0.402735" cx="558.525" cy="877.146" rx="3.55206" ry="3.55206" fill="black" fill-opacity="0.5"/>
<ellipse opacity="0.445837" cx="612.517" cy="877.146" rx="3.55206" ry="3.55206" fill="black" fill-opacity="0.5"/>
<ellipse opacity="0.542421" cx="666.509" cy="877.146" rx="3.55206" ry="3.55206" fill="black" fill-opacity="0.25"/>
<ellipse opacity="0.301537" cx="720.497" cy="877.146" rx="3.55206" ry="3.55206" fill="#FF4500"/>
<ellipse opacity="0.326661" cx="774.49" cy="877.146" rx="3.55206" ry="3.55206" fill="#FF4500"/>
<ellipse opacity="0.632441" cx="828.478" cy="877.146" rx="3.55206" ry="3.55206" fill="black" fill-opacity="0.25"/>
<ellipse opacity="0.678449" cx="882.478" cy="877.146" rx="3.55206" ry="3.55206" fill="black" fill-opacity="0.25"/>
<ellipse opacity="0.735522" cx="936.466" cy="877.146" rx="3.55206" ry="3.55206" fill="black" fill-opacity="0.25"/>
<ellipse opacity="0.421711" cx="990.458" cy="877.146" rx="3.55206" ry="3.55206" fill="black" fill-opacity="0.5"/>
<ellipse opacity="0.641771" cx="1044.45" cy="877.146" rx="3.55206" ry="3.55206" fill="black" fill-opacity="0.25"/>
<ellipse opacity="0.762579" cx="396.552" cy="951.029" rx="3.55206" ry="3.55206" fill="black" fill-opacity="0.25"/>
<ellipse opacity="0.649653" cx="450.544" cy="951.029" rx="3.55206" ry="3.55206" fill="black" fill-opacity="0.25"/>
<ellipse opacity="0.69526" cx="504.536" cy="951.029" rx="3.55206" ry="3.55206" fill="black" fill-opacity="0.25"/>
<ellipse opacity="0.693856" cx="558.525" cy="951.029" rx="3.55206" ry="3.55206" fill="black" fill-opacity="0.25"/>
<ellipse opacity="0.663423" cx="612.517" cy="951.029" rx="3.55206" ry="3.55206" fill="black" fill-opacity="0.25"/>
<ellipse opacity="0.297938" cx="666.509" cy="951.029" rx="3.55206" ry="3.55206" fill="#FF4500"/>
<ellipse opacity="0.777896" cx="720.497" cy="951.029" rx="3.55206" ry="3.55206" fill="black" fill-opacity="0.25"/>
<ellipse opacity="0.53464" cx="774.49" cy="951.029" rx="3.55206" ry="3.55206" fill="black" fill-opacity="0.25"/>
<ellipse opacity="0.627711" cx="828.478" cy="951.029" rx="3.55206" ry="3.55206" fill="black" fill-opacity="0.25"/>
<ellipse opacity="0.388858" cx="882.478" cy="951.029" rx="3.55206" ry="3.55206" fill="black" fill-opacity="0.5"/>
<ellipse opacity="0.509022" cx="936.466" cy="951.029" rx="3.55206" ry="3.55206" fill="black" fill-opacity="0.5"/>
<ellipse opacity="0.577105" cx="990.458" cy="951.029" rx="3.55206" ry="3.55206" fill="black" fill-opacity="0.25"/>
<ellipse opacity="0.581426" cx="1044.45" cy="951.029" rx="3.55206" ry="3.55206" fill="black" fill-opacity="0.25"/>
<ellipse opacity="0.575232" cx="396.552" cy="1024.91" rx="3.55206" ry="3.55206" fill="black" fill-opacity="0.25"/>
<ellipse opacity="0.423907" cx="450.544" cy="1024.91" rx="3.55206" ry="3.55206" fill="black" fill-opacity="0.5"/>
<ellipse opacity="0.45672" cx="504.536" cy="1024.91" rx="3.55206" ry="3.55206" fill="black" fill-opacity="0.5"/>
<ellipse opacity="0.662243" cx="558.525" cy="1024.91" rx="3.55206" ry="3.55206" fill="black" fill-opacity="0.25"/>
<ellipse opacity="0.661472" cx="612.517" cy="1024.91" rx="3.55206" ry="3.55206" fill="black" fill-opacity="0.25"/>
<ellipse opacity="0.782344" cx="666.509" cy="1024.91" rx="3.55206" ry="3.55206" fill="black" fill-opacity="0.25"/>
<ellipse opacity="0.485948" cx="720.497" cy="1024.91" rx="3.55206" ry="3.55206" fill="black" fill-opacity="0.5"/>
<ellipse opacity="0.760533" cx="774.49" cy="1024.91" rx="3.55206" ry="3.55206" fill="black" fill-opacity="0.25"/>
<ellipse opacity="0.575727" cx="828.478" cy="1024.91" rx="3.55206" ry="3.55206" fill="black" fill-opacity="0.25"/>
<ellipse opacity="0.401747" cx="882.478" cy="1024.91" rx="3.55206" ry="3.55206" fill="black" fill-opacity="0.5"/>
<ellipse opacity="0.650782" cx="936.466" cy="1024.91" rx="3.55206" ry="3.55206" fill="black" fill-opacity="0.25"/>
<ellipse opacity="0.550486" cx="990.458" cy="1024.91" rx="3.55206" ry="3.55206" fill="black" fill-opacity="0.25"/>
<ellipse opacity="0.480659" cx="1044.45" cy="1024.91" rx="3.55206" ry="3.55206" fill="black" fill-opacity="0.5"/>
<ellipse opacity="0.259449" cx="396.552" cy="1098.79" rx="3.55206" ry="3.55206" fill="#FF4500"/>
<ellipse opacity="0.637447" cx="450.544" cy="1098.79" rx="3.55206" ry="3.55206" fill="black" fill-opacity="0.25"/>
<ellipse opacity="0.276354" cx="504.536" cy="1098.79" rx="3.55206" ry="3.55206" fill="#FF4500"/>
<ellipse opacity="0.381876" cx="558.525" cy="1098.79" rx="3.55206" ry="3.55206" fill="black" fill-opacity="0.5"/>
<ellipse opacity="0.374422" cx="612.517" cy="1098.79" rx="3.55206" ry="3.55206" fill="black" fill-opacity="0.5"/>
<ellipse opacity="0.408892" cx="666.509" cy="1098.79" rx="3.55206" ry="3.55206" fill="black" fill-opacity="0.5"/>
<ellipse opacity="0.60667" cx="720.497" cy="1098.79" rx="3.55206" ry="3.55206" fill="black" fill-opacity="0.25"/>
<ellipse opacity="0.330702" cx="774.49" cy="1098.79" rx="3.55206" ry="3.55206" fill="#FF4500"/>
<ellipse opacity="0.443349" cx="828.478" cy="1098.79" rx="3.55206" ry="3.55206" fill="black" fill-opacity="0.5"/>
<ellipse opacity="0.470732" cx="882.478" cy="1098.79" rx="3.55206" ry="3.55206" fill="black" fill-opacity="0.5"/>
<ellipse opacity="0.665041" cx="936.466" cy="1098.79" rx="3.55206" ry="3.55206" fill="black" fill-opacity="0.25"/>
<ellipse opacity="0.306321" cx="990.458" cy="1098.79" rx="3.55206" ry="3.55206" fill="#FF4500"/>
<ellipse opacity="0.792278" cx="1044.45" cy="1098.79" rx="3.55206" ry="3.55206" fill="black" fill-opacity="0.25"/>
<ellipse opacity="0.427265" cx="1106.55" cy="64.4349" rx="3.55206" ry="3.55206" fill="black" fill-opacity="0.5"/>
<ellipse opacity="0.261618" cx="1160.54" cy="64.4349" rx="3.55206" ry="3.55206" fill="#FF4500"/>
<ellipse opacity="0.491023" cx="1214.54" cy="64.4349" rx="3.55206" ry="3.55206" fill="black" fill-opacity="0.5"/>
<ellipse opacity="0.338151" cx="1268.52" cy="64.4349" rx="3.55206" ry="3.55206" fill="#FF4500"/>
<ellipse opacity="0.38284" cx="1322.52" cy="64.4349" rx="3.55206" ry="3.55206" fill="black" fill-opacity="0.5"/>
<ellipse opacity="0.337679" cx="1376.51" cy="64.4349" rx="3.55206" ry="3.55206" fill="#FF4500"/>
<ellipse opacity="0.377108" cx="1430.5" cy="64.4349" rx="3.55206" ry="3.55206" fill="black" fill-opacity="0.5"/>
<ellipse opacity="0.754026" cx="1106.55" cy="138.317" rx="3.55206" ry="3.55206" fill="black" fill-opacity="0.25"/>
<ellipse opacity="0.59594" cx="1160.54" cy="138.317" rx="3.55206" ry="3.55206" fill="black" fill-opacity="0.25"/>
<ellipse opacity="0.775113" cx="1214.54" cy="138.317" rx="3.55206" ry="3.55206" fill="black" fill-opacity="0.25"/>
<ellipse opacity="0.43192" cx="1268.52" cy="138.317" rx="3.55206" ry="3.55206" fill="black" fill-opacity="0.5"/>
<ellipse opacity="0.482163" cx="1322.52" cy="138.317" rx="3.55206" ry="3.55206" fill="black" fill-opacity="0.5"/>
<ellipse opacity="0.757195" cx="1376.51" cy="138.317" rx="3.55206" ry="3.55206" fill="black" fill-opacity="0.25"/>
<ellipse opacity="0.68169" cx="1430.5" cy="138.317" rx="3.55206" ry="3.55206" fill="black" fill-opacity="0.25"/>
<ellipse opacity="0.365679" cx="1106.55" cy="212.201" rx="3.55206" ry="3.55206" fill="black" fill-opacity="0.5"/>
<ellipse opacity="0.596058" cx="1160.54" cy="212.201" rx="3.55206" ry="3.55206" fill="black" fill-opacity="0.25"/>
<ellipse opacity="0.394962" cx="1214.54" cy="212.201" rx="3.55206" ry="3.55206" fill="black" fill-opacity="0.5"/>
<ellipse opacity="0.488534" cx="1268.52" cy="212.201" rx="3.55206" ry="3.55206" fill="black" fill-opacity="0.5"/>
<ellipse opacity="0.252237" cx="1322.52" cy="212.201" rx="3.55206" ry="3.55206" fill="#FF4500"/>
<ellipse opacity="0.660526" cx="1376.51" cy="212.201" rx="3.55206" ry="3.55206" fill="black" fill-opacity="0.25"/>
<ellipse opacity="0.262814" cx="1430.5" cy="212.201" rx="3.55206" ry="3.55206" fill="#FF4500"/>
<ellipse opacity="0.573616" cx="1106.55" cy="286.083" rx="3.55206" ry="3.55206" fill="black" fill-opacity="0.25"/>
<ellipse opacity="0.69812" cx="1160.54" cy="286.083" rx="3.55206" ry="3.55206" fill="black" fill-opacity="0.25"/>
<ellipse opacity="0.527096" cx="1214.54" cy="286.083" rx="3.55206" ry="3.55206" fill="black" fill-opacity="0.25"/>
<ellipse opacity="0.566461" cx="1268.52" cy="286.083" rx="3.55206" ry="3.55206" fill="black" fill-opacity="0.25"/>
<ellipse opacity="0.722903" cx="1322.52" cy="286.083" rx="3.55206" ry="3.55206" fill="black" fill-opacity="0.25"/>
<ellipse opacity="0.438783" cx="1376.51" cy="286.083" rx="3.55206" ry="3.55206" fill="black" fill-opacity="0.5"/>
<ellipse opacity="0.53475" cx="1430.5" cy="286.083" rx="3.55206" ry="3.55206" fill="black" fill-opacity="0.25"/>
<ellipse opacity="0.287252" cx="1106.55" cy="359.966" rx="3.55206" ry="3.55206" fill="#FF4500"/>
<ellipse opacity="0.421148" cx="1160.54" cy="359.966" rx="3.55206" ry="3.55206" fill="black" fill-opacity="0.5"/>
<ellipse opacity="0.754479" cx="1214.54" cy="359.966" rx="3.55206" ry="3.55206" fill="black" fill-opacity="0.25"/>
<ellipse opacity="0.279698" cx="1268.52" cy="359.966" rx="3.55206" ry="3.55206" fill="#FF4500"/>
<ellipse opacity="0.511811" cx="1322.52" cy="359.966" rx="3.55206" ry="3.55206" fill="black" fill-opacity="0.5"/>
<ellipse opacity="0.605682" cx="1376.51" cy="359.966" rx="3.55206" ry="3.55206" fill="black" fill-opacity="0.25"/>
<ellipse opacity="0.687629" cx="1430.5" cy="359.966" rx="3.55206" ry="3.55206" fill="black" fill-opacity="0.25"/>
<ellipse opacity="0.674263" cx="1106.55" cy="433.849" rx="3.55206" ry="3.55206" fill="black" fill-opacity="0.25"/>
<ellipse opacity="0.436942" cx="1160.54" cy="433.849" rx="3.55206" ry="3.55206" fill="black" fill-opacity="0.5"/>
<ellipse opacity="0.54691" cx="1214.54" cy="433.849" rx="3.55206" ry="3.55206" fill="black" fill-opacity="0.25"/>
<ellipse opacity="0.406447" cx="1268.52" cy="433.849" rx="3.55206" ry="3.55206" fill="black" fill-opacity="0.5"/>
<ellipse opacity="0.488524" cx="1322.52" cy="433.849" rx="3.55206" ry="3.55206" fill="black" fill-opacity="0.5"/>
<ellipse opacity="0.478815" cx="1376.51" cy="433.849" rx="3.55206" ry="3.55206" fill="black" fill-opacity="0.5"/>
<ellipse opacity="0.716957" cx="1430.5" cy="433.849" rx="3.55206" ry="3.55206" fill="black" fill-opacity="0.25"/>
<ellipse opacity="0.463098" cx="1106.55" cy="507.732" rx="3.55206" ry="3.55206" fill="black" fill-opacity="0.5"/>
<ellipse opacity="0.591615" cx="1160.54" cy="507.732" rx="3.55206" ry="3.55206" fill="black" fill-opacity="0.25"/>
<ellipse opacity="0.313013" cx="1214.54" cy="507.732" rx="3.55206" ry="3.55206" fill="#FF4500"/>
<ellipse opacity="0.363535" cx="1268.52" cy="507.732" rx="3.55206" ry="3.55206" fill="black" fill-opacity="0.5"/>
<ellipse opacity="0.623197" cx="1322.52" cy="507.732" rx="3.55206" ry="3.55206" fill="black" fill-opacity="0.25"/>
<ellipse opacity="0.379444" cx="1376.51" cy="507.732" rx="3.55206" ry="3.55206" fill="black" fill-opacity="0.5"/>
<ellipse opacity="0.329198" cx="1430.5" cy="507.732" rx="3.55206" ry="3.55206" fill="#FF4500"/>
<ellipse opacity="0.708021" cx="1106.55" cy="581.615" rx="3.55206" ry="3.55206" fill="black" fill-opacity="0.25"/>
<ellipse opacity="0.473912" cx="1160.54" cy="581.615" rx="3.55206" ry="3.55206" fill="black" fill-opacity="0.5"/>
<ellipse opacity="0.73007" cx="1214.54" cy="581.615" rx="3.55206" ry="3.55206" fill="black" fill-opacity="0.25"/>
<ellipse opacity="0.574393" cx="1268.52" cy="581.615" rx="3.55206" ry="3.55206" fill="black" fill-opacity="0.25"/>
<ellipse opacity="0.636544" cx="1322.52" cy="581.615" rx="3.55206" ry="3.55206" fill="black" fill-opacity="0.25"/>
<ellipse opacity="0.791717" cx="1376.51" cy="581.615" rx="3.55206" ry="3.55206" fill="black" fill-opacity="0.25"/>
<ellipse opacity="0.483101" cx="1430.5" cy="581.615" rx="3.55206" ry="3.55206" fill="black" fill-opacity="0.5"/>
<ellipse opacity="0.471473" cx="1106.55" cy="655.498" rx="3.55206" ry="3.55206" fill="black" fill-opacity="0.5"/>
<ellipse opacity="0.308327" cx="1160.54" cy="655.498" rx="3.55206" ry="3.55206" fill="#FF4500"/>
<ellipse opacity="0.406044" cx="1214.54" cy="655.498" rx="3.55206" ry="3.55206" fill="black" fill-opacity="0.5"/>
<ellipse opacity="0.576738" cx="1268.52" cy="655.498" rx="3.55206" ry="3.55206" fill="black" fill-opacity="0.25"/>
<ellipse opacity="0.33551" cx="1322.52" cy="655.498" rx="3.55206" ry="3.55206" fill="#FF4500"/>
<ellipse opacity="0.338567" cx="1376.51" cy="655.498" rx="3.55206" ry="3.55206" fill="#FF4500"/>
<ellipse opacity="0.706215" cx="1430.5" cy="655.498" rx="3.55206" ry="3.55206" fill="black" fill-opacity="0.25"/>
<ellipse opacity="0.576382" cx="1106.55" cy="729.38" rx="3.55206" ry="3.55206" fill="black" fill-opacity="0.25"/>
<ellipse opacity="0.744269" cx="1160.54" cy="729.38" rx="3.55206" ry="3.55206" fill="black" fill-opacity="0.25"/>
<ellipse opacity="0.51543" cx="1214.54" cy="729.38" rx="3.55206" ry="3.55206" fill="black" fill-opacity="0.25"/>
<ellipse opacity="0.667304" cx="1268.52" cy="729.38" rx="3.55206" ry="3.55206" fill="black" fill-opacity="0.25"/>
<ellipse opacity="0.751404" cx="1322.52" cy="729.38" rx="3.55206" ry="3.55206" fill="black" fill-opacity="0.25"/>
<ellipse opacity="0.293971" cx="1376.51" cy="729.38" rx="3.55206" ry="3.55206" fill="#FF4500"/>
<ellipse opacity="0.768729" cx="1430.5" cy="729.38" rx="3.55206" ry="3.55206" fill="black" fill-opacity="0.25"/>
<ellipse opacity="0.399645" cx="1106.55" cy="803.263" rx="3.55206" ry="3.55206" fill="black" fill-opacity="0.5"/>
<ellipse opacity="0.653259" cx="1160.54" cy="803.263" rx="3.55206" ry="3.55206" fill="black" fill-opacity="0.25"/>
<ellipse opacity="0.459625" cx="1214.54" cy="803.263" rx="3.55206" ry="3.55206" fill="black" fill-opacity="0.5"/>
<ellipse opacity="0.68446" cx="1268.52" cy="803.263" rx="3.55206" ry="3.55206" fill="black" fill-opacity="0.25"/>
<ellipse opacity="0.411532" cx="1322.52" cy="803.263" rx="3.55206" ry="3.55206" fill="black" fill-opacity="0.5"/>
<ellipse opacity="0.604401" cx="1376.51" cy="803.263" rx="3.55206" ry="3.55206" fill="black" fill-opacity="0.25"/>
<ellipse opacity="0.484222" cx="1430.5" cy="803.263" rx="3.55206" ry="3.55206" fill="black" fill-opacity="0.5"/>
<ellipse opacity="0.303624" cx="1106.55" cy="877.146" rx="3.55206" ry="3.55206" fill="#FF4500"/>
<ellipse opacity="0.265055" cx="1160.54" cy="877.146" rx="3.55206" ry="3.55206" fill="#FF4500"/>
<ellipse opacity="0.40066" cx="1214.54" cy="877.146" rx="3.55206" ry="3.55206" fill="black" fill-opacity="0.5"/>
<ellipse opacity="0.402735" cx="1268.52" cy="877.146" rx="3.55206" ry="3.55206" fill="black" fill-opacity="0.5"/>
<ellipse opacity="0.445837" cx="1322.52" cy="877.146" rx="3.55206" ry="3.55206" fill="black" fill-opacity="0.5"/>
<ellipse opacity="0.542421" cx="1376.51" cy="877.146" rx="3.55206" ry="3.55206" fill="black" fill-opacity="0.25"/>
<ellipse opacity="0.301537" cx="1430.5" cy="877.146" rx="3.55206" ry="3.55206" fill="#FF4500"/>
<ellipse opacity="0.762579" cx="1106.55" cy="951.029" rx="3.55206" ry="3.55206" fill="black" fill-opacity="0.25"/>
<ellipse opacity="0.649653" cx="1160.54" cy="951.029" rx="3.55206" ry="3.55206" fill="black" fill-opacity="0.25"/>
<ellipse opacity="0.69526" cx="1214.54" cy="951.029" rx="3.55206" ry="3.55206" fill="black" fill-opacity="0.25"/>
<ellipse opacity="0.693856" cx="1268.52" cy="951.029" rx="3.55206" ry="3.55206" fill="black" fill-opacity="0.25"/>
<ellipse opacity="0.663423" cx="1322.52" cy="951.029" rx="3.55206" ry="3.55206" fill="black" fill-opacity="0.25"/>
<ellipse opacity="0.297938" cx="1376.51" cy="951.029" rx="3.55206" ry="3.55206" fill="#FF4500"/>
<ellipse opacity="0.777896" cx="1430.5" cy="951.029" rx="3.55206" ry="3.55206" fill="black" fill-opacity="0.25"/>
<ellipse opacity="0.575232" cx="1106.55" cy="1024.91" rx="3.55206" ry="3.55206" fill="black" fill-opacity="0.25"/>
<ellipse opacity="0.423907" cx="1160.54" cy="1024.91" rx="3.55206" ry="3.55206" fill="black" fill-opacity="0.5"/>
<ellipse opacity="0.45672" cx="1214.54" cy="1024.91" rx="3.55206" ry="3.55206" fill="black" fill-opacity="0.5"/>
<ellipse opacity="0.662243" cx="1268.52" cy="1024.91" rx="3.55206" ry="3.55206" fill="black" fill-opacity="0.25"/>
<ellipse opacity="0.661472" cx="1322.52" cy="1024.91" rx="3.55206" ry="3.55206" fill="black" fill-opacity="0.25"/>
<ellipse opacity="0.782344" cx="1376.51" cy="1024.91" rx="3.55206" ry="3.55206" fill="black" fill-opacity="0.25"/>
<ellipse opacity="0.485948" cx="1430.5" cy="1024.91" rx="3.55206" ry="3.55206" fill="black" fill-opacity="0.5"/>
<ellipse opacity="0.259449" cx="1106.55" cy="1098.79" rx="3.55206" ry="3.55206" fill="#FF4500"/>
<ellipse opacity="0.637447" cx="1160.54" cy="1098.79" rx="3.55206" ry="3.55206" fill="black" fill-opacity="0.25"/>
<ellipse opacity="0.276354" cx="1214.54" cy="1098.79" rx="3.55206" ry="3.55206" fill="#FF4500"/>
<ellipse opacity="0.381876" cx="1268.52" cy="1098.79" rx="3.55206" ry="3.55206" fill="black" fill-opacity="0.5"/>
<ellipse opacity="0.374422" cx="1322.52" cy="1098.79" rx="3.55206" ry="3.55206" fill="black" fill-opacity="0.5"/>
<ellipse opacity="0.408892" cx="1376.51" cy="1098.79" rx="3.55206" ry="3.55206" fill="black" fill-opacity="0.5"/>
<ellipse opacity="0.60667" cx="1430.5" cy="1098.79" rx="3.55206" ry="3.55206" fill="black" fill-opacity="0.25"/>
<ellipse opacity="0.377108" cx="10.4974" cy="64.4349" rx="3.55206" ry="3.55206" fill="black" fill-opacity="0.5"/>
<ellipse opacity="0.64159" cx="64.4896" cy="64.4349" rx="3.55206" ry="3.55206" fill="black" fill-opacity="0.25"/>
<ellipse opacity="0.3368" cx="118.478" cy="64.4349" rx="3.55206" ry="3.55206" fill="#FF4500"/>
<ellipse opacity="0.299109" cx="172.478" cy="64.4349" rx="3.55206" ry="3.55206" fill="#FF4500"/>
<ellipse opacity="0.464234" cx="226.466" cy="64.4349" rx="3.55206" ry="3.55206" fill="black" fill-opacity="0.5"/>
<ellipse opacity="0.710417" cx="280.458" cy="64.4349" rx="3.55206" ry="3.55206" fill="black" fill-opacity="0.25"/>
<ellipse opacity="0.593976" cx="334.447" cy="64.4349" rx="3.55206" ry="3.55206" fill="black" fill-opacity="0.25"/>
<ellipse opacity="0.68169" cx="10.4974" cy="138.317" rx="3.55206" ry="3.55206" fill="black" fill-opacity="0.25"/>
<ellipse opacity="0.590503" cx="64.4896" cy="138.317" rx="3.55206" ry="3.55206" fill="black" fill-opacity="0.25"/>
<ellipse opacity="0.349708" cx="118.478" cy="138.317" rx="3.55206" ry="3.55206" fill="#FF4500"/>
<ellipse opacity="0.522515" cx="172.478" cy="138.317" rx="3.55206" ry="3.55206" fill="black" fill-opacity="0.25"/>
<ellipse opacity="0.562503" cx="226.466" cy="138.317" rx="3.55206" ry="3.55206" fill="black" fill-opacity="0.25"/>
<ellipse opacity="0.664151" cx="280.458" cy="138.317" rx="3.55206" ry="3.55206" fill="black" fill-opacity="0.25"/>
<ellipse opacity="0.722014" cx="334.447" cy="138.317" rx="3.55206" ry="3.55206" fill="black" fill-opacity="0.25"/>
<ellipse opacity="0.262814" cx="10.4974" cy="212.201" rx="3.55206" ry="3.55206" fill="#FF4500"/>
<ellipse opacity="0.459141" cx="64.4896" cy="212.201" rx="3.55206" ry="3.55206" fill="black" fill-opacity="0.5"/>
<ellipse opacity="0.797461" cx="118.478" cy="212.201" rx="3.55206" ry="3.55206" fill="black" fill-opacity="0.25"/>
<ellipse opacity="0.734081" cx="172.478" cy="212.201" rx="3.55206" ry="3.55206" fill="black" fill-opacity="0.25"/>
<ellipse opacity="0.463743" cx="226.466" cy="212.201" rx="3.55206" ry="3.55206" fill="black" fill-opacity="0.5"/>
<ellipse opacity="0.401363" cx="280.458" cy="212.201" rx="3.55206" ry="3.55206" fill="black" fill-opacity="0.5"/>
<ellipse opacity="0.602789" cx="334.447" cy="212.201" rx="3.55206" ry="3.55206" fill="black" fill-opacity="0.25"/>
<ellipse opacity="0.53475" cx="10.4974" cy="286.083" rx="3.55206" ry="3.55206" fill="black" fill-opacity="0.25"/>
<ellipse opacity="0.679318" cx="64.4896" cy="286.083" rx="3.55206" ry="3.55206" fill="black" fill-opacity="0.25"/>
<ellipse opacity="0.514699" cx="118.478" cy="286.083" rx="3.55206" ry="3.55206" fill="black" fill-opacity="0.25"/>
<ellipse opacity="0.759183" cx="172.478" cy="286.083" rx="3.55206" ry="3.55206" fill="black" fill-opacity="0.25"/>
<ellipse opacity="0.688579" cx="226.466" cy="286.083" rx="3.55206" ry="3.55206" fill="black" fill-opacity="0.25"/>
<ellipse opacity="0.53916" cx="280.458" cy="286.083" rx="3.55206" ry="3.55206" fill="black" fill-opacity="0.25"/>
<ellipse opacity="0.533705" cx="334.447" cy="286.083" rx="3.55206" ry="3.55206" fill="black" fill-opacity="0.25"/>
<ellipse opacity="0.687629" cx="10.4974" cy="359.966" rx="3.55206" ry="3.55206" fill="black" fill-opacity="0.25"/>
<ellipse opacity="0.397884" cx="64.4896" cy="359.966" rx="3.55206" ry="3.55206" fill="black" fill-opacity="0.5"/>
<ellipse opacity="0.537822" cx="118.478" cy="359.966" rx="3.55206" ry="3.55206" fill="black" fill-opacity="0.25"/>
<ellipse opacity="0.500937" cx="172.478" cy="359.966" rx="3.55206" ry="3.55206" fill="black" fill-opacity="0.5"/>
<ellipse opacity="0.78101" cx="226.466" cy="359.966" rx="3.55206" ry="3.55206" fill="black" fill-opacity="0.25"/>
<ellipse opacity="0.532054" cx="280.458" cy="359.966" rx="3.55206" ry="3.55206" fill="black" fill-opacity="0.25"/>
<ellipse opacity="0.743653" cx="334.447" cy="359.966" rx="3.55206" ry="3.55206" fill="black" fill-opacity="0.25"/>
<ellipse opacity="0.716957" cx="10.4974" cy="433.849" rx="3.55206" ry="3.55206" fill="black" fill-opacity="0.25"/>
<ellipse opacity="0.555694" cx="64.4896" cy="433.849" rx="3.55206" ry="3.55206" fill="black" fill-opacity="0.25"/>
<ellipse opacity="0.251282" cx="118.478" cy="433.849" rx="3.55206" ry="3.55206" fill="#FF4500"/>
<ellipse opacity="0.502632" cx="172.478" cy="433.849" rx="3.55206" ry="3.55206" fill="black" fill-opacity="0.5"/>
<ellipse opacity="0.56623" cx="226.466" cy="433.849" rx="3.55206" ry="3.55206" fill="black" fill-opacity="0.25"/>
<ellipse opacity="0.342875" cx="280.458" cy="433.849" rx="3.55206" ry="3.55206" fill="#FF4500"/>
<ellipse opacity="0.27952" cx="334.447" cy="433.849" rx="3.55206" ry="3.55206" fill="#FF4500"/>
<ellipse opacity="0.329198" cx="10.4974" cy="507.732" rx="3.55206" ry="3.55206" fill="#FF4500"/>
<ellipse opacity="0.35171" cx="64.4896" cy="507.732" rx="3.55206" ry="3.55206" fill="#FF4500"/>
<ellipse opacity="0.316488" cx="118.478" cy="507.732" rx="3.55206" ry="3.55206" fill="#FF4500"/>
<ellipse opacity="0.579499" cx="172.478" cy="507.732" rx="3.55206" ry="3.55206" fill="black" fill-opacity="0.25"/>
<ellipse opacity="0.798465" cx="226.466" cy="507.732" rx="3.55206" ry="3.55206" fill="black" fill-opacity="0.25"/>
<ellipse opacity="0.485882" cx="280.458" cy="507.732" rx="3.55206" ry="3.55206" fill="black" fill-opacity="0.5"/>
<ellipse opacity="0.633923" cx="334.447" cy="507.732" rx="3.55206" ry="3.55206" fill="black" fill-opacity="0.25"/>
<ellipse opacity="0.483101" cx="10.4974" cy="581.615" rx="3.55206" ry="3.55206" fill="black" fill-opacity="0.5"/>
<ellipse opacity="0.333879" cx="64.4896" cy="581.615" rx="3.55206" ry="3.55206" fill="#FF4500"/>
<ellipse opacity="0.415208" cx="118.478" cy="581.615" rx="3.55206" ry="3.55206" fill="black" fill-opacity="0.5"/>
<ellipse opacity="0.378796" cx="172.478" cy="581.615" rx="3.55206" ry="3.55206" fill="black" fill-opacity="0.5"/>
<ellipse opacity="0.439909" cx="226.466" cy="581.615" rx="3.55206" ry="3.55206" fill="black" fill-opacity="0.5"/>
<ellipse opacity="0.641046" cx="280.458" cy="581.615" rx="3.55206" ry="3.55206" fill="black" fill-opacity="0.25"/>
<ellipse opacity="0.719499" cx="334.447" cy="581.615" rx="3.55206" ry="3.55206" fill="black" fill-opacity="0.25"/>
<ellipse opacity="0.706215" cx="10.4974" cy="655.498" rx="3.55206" ry="3.55206" fill="black" fill-opacity="0.25"/>
<ellipse opacity="0.495184" cx="64.4896" cy="655.498" rx="3.55206" ry="3.55206" fill="black" fill-opacity="0.5"/>
<ellipse opacity="0.715777" cx="118.478" cy="655.498" rx="3.55206" ry="3.55206" fill="black" fill-opacity="0.25"/>
<ellipse opacity="0.780535" cx="172.478" cy="655.498" rx="3.55206" ry="3.55206" fill="black" fill-opacity="0.25"/>
<ellipse opacity="0.399291" cx="226.466" cy="655.498" rx="3.55206" ry="3.55206" fill="black" fill-opacity="0.5"/>
<ellipse opacity="0.377639" cx="280.458" cy="655.498" rx="3.55206" ry="3.55206" fill="black" fill-opacity="0.5"/>
<ellipse opacity="0.538575" cx="334.447" cy="655.498" rx="3.55206" ry="3.55206" fill="black" fill-opacity="0.25"/>
<ellipse opacity="0.768729" cx="10.4974" cy="729.38" rx="3.55206" ry="3.55206" fill="black" fill-opacity="0.25"/>
<ellipse opacity="0.59454" cx="64.4896" cy="729.38" rx="3.55206" ry="3.55206" fill="black" fill-opacity="0.25"/>
<ellipse opacity="0.670828" cx="118.478" cy="729.38" rx="3.55206" ry="3.55206" fill="black" fill-opacity="0.25"/>
<ellipse opacity="0.368708" cx="172.478" cy="729.38" rx="3.55206" ry="3.55206" fill="black" fill-opacity="0.5"/>
<ellipse opacity="0.371089" cx="226.466" cy="729.38" rx="3.55206" ry="3.55206" fill="black" fill-opacity="0.5"/>
<ellipse opacity="0.272721" cx="280.458" cy="729.38" rx="3.55206" ry="3.55206" fill="#FF4500"/>
<ellipse opacity="0.376935" cx="334.447" cy="729.38" rx="3.55206" ry="3.55206" fill="black" fill-opacity="0.5"/>
<ellipse opacity="0.484222" cx="10.4974" cy="803.263" rx="3.55206" ry="3.55206" fill="black" fill-opacity="0.5"/>
<ellipse opacity="0.492288" cx="64.4896" cy="803.263" rx="3.55206" ry="3.55206" fill="black" fill-opacity="0.5"/>
<ellipse opacity="0.476231" cx="118.478" cy="803.263" rx="3.55206" ry="3.55206" fill="black" fill-opacity="0.5"/>
<ellipse opacity="0.692588" cx="172.478" cy="803.263" rx="3.55206" ry="3.55206" fill="black" fill-opacity="0.25"/>
<ellipse opacity="0.325469" cx="226.466" cy="803.263" rx="3.55206" ry="3.55206" fill="#FF4500"/>
<ellipse opacity="0.313887" cx="280.458" cy="803.263" rx="3.55206" ry="3.55206" fill="#FF4500"/>
<ellipse opacity="0.781273" cx="334.447" cy="803.263" rx="3.55206" ry="3.55206" fill="black" fill-opacity="0.25"/>
<ellipse opacity="0.301537" cx="10.4974" cy="877.146" rx="3.55206" ry="3.55206" fill="#FF4500"/>
<ellipse opacity="0.326661" cx="64.4896" cy="877.146" rx="3.55206" ry="3.55206" fill="#FF4500"/>
<ellipse opacity="0.632441" cx="118.478" cy="877.146" rx="3.55206" ry="3.55206" fill="black" fill-opacity="0.25"/>
<ellipse opacity="0.678449" cx="172.478" cy="877.146" rx="3.55206" ry="3.55206" fill="black" fill-opacity="0.25"/>
<ellipse opacity="0.735522" cx="226.466" cy="877.146" rx="3.55206" ry="3.55206" fill="black" fill-opacity="0.25"/>
<ellipse opacity="0.421711" cx="280.458" cy="877.146" rx="3.55206" ry="3.55206" fill="black" fill-opacity="0.5"/>
<ellipse opacity="0.641771" cx="334.447" cy="877.146" rx="3.55206" ry="3.55206" fill="black" fill-opacity="0.25"/>
<ellipse opacity="0.777896" cx="10.4974" cy="951.029" rx="3.55206" ry="3.55206" fill="black" fill-opacity="0.25"/>
<ellipse opacity="0.53464" cx="64.4896" cy="951.029" rx="3.55206" ry="3.55206" fill="black" fill-opacity="0.25"/>
<ellipse opacity="0.627711" cx="118.478" cy="951.029" rx="3.55206" ry="3.55206" fill="black" fill-opacity="0.25"/>
<ellipse opacity="0.388858" cx="172.478" cy="951.029" rx="3.55206" ry="3.55206" fill="black" fill-opacity="0.5"/>
<ellipse opacity="0.509022" cx="226.466" cy="951.029" rx="3.55206" ry="3.55206" fill="black" fill-opacity="0.5"/>
<ellipse opacity="0.577105" cx="280.458" cy="951.029" rx="3.55206" ry="3.55206" fill="black" fill-opacity="0.25"/>
<ellipse opacity="0.581426" cx="334.447" cy="951.029" rx="3.55206" ry="3.55206" fill="black" fill-opacity="0.25"/>
<ellipse opacity="0.485948" cx="10.4974" cy="1024.91" rx="3.55206" ry="3.55206" fill="black" fill-opacity="0.5"/>
<ellipse opacity="0.760533" cx="64.4896" cy="1024.91" rx="3.55206" ry="3.55206" fill="black" fill-opacity="0.25"/>
<ellipse opacity="0.575727" cx="118.478" cy="1024.91" rx="3.55206" ry="3.55206" fill="black" fill-opacity="0.25"/>
<ellipse opacity="0.401747" cx="172.478" cy="1024.91" rx="3.55206" ry="3.55206" fill="black" fill-opacity="0.5"/>
<ellipse opacity="0.650782" cx="226.466" cy="1024.91" rx="3.55206" ry="3.55206" fill="black" fill-opacity="0.25"/>
<ellipse opacity="0.550486" cx="280.458" cy="1024.91" rx="3.55206" ry="3.55206" fill="black" fill-opacity="0.25"/>
<ellipse opacity="0.480659" cx="334.447" cy="1024.91" rx="3.55206" ry="3.55206" fill="black" fill-opacity="0.5"/>
<ellipse opacity="0.60667" cx="10.4974" cy="1098.79" rx="3.55206" ry="3.55206" fill="black" fill-opacity="0.25"/>
<ellipse opacity="0.330702" cx="64.4896" cy="1098.79" rx="3.55206" ry="3.55206" fill="#FF4500"/>
<ellipse opacity="0.443349" cx="118.478" cy="1098.79" rx="3.55206" ry="3.55206" fill="black" fill-opacity="0.5"/>
<ellipse opacity="0.470732" cx="172.478" cy="1098.79" rx="3.55206" ry="3.55206" fill="black" fill-opacity="0.5"/>
<ellipse opacity="0.665041" cx="226.466" cy="1098.79" rx="3.55206" ry="3.55206" fill="black" fill-opacity="0.25"/>
<ellipse opacity="0.306321" cx="280.458" cy="1098.79" rx="3.55206" ry="3.55206" fill="#FF4500"/>
<ellipse opacity="0.792278" cx="334.447" cy="1098.79" rx="3.55206" ry="3.55206" fill="black" fill-opacity="0.25"/>
</g>
</svg>
