<svg width="1440" height="212" viewBox="0 0 1440 212" fill="none" xmlns="http://www.w3.org/2000/svg">
<path d="M-82.5 66.9301L-36.37 125L9.75 183.07" stroke="black" stroke-opacity="0.5" stroke-width="0.33" stroke-miterlimit="10"/>
<path d="M56.0014 177.12L2.35141 125L-51.3086 72.88" stroke="black" stroke-opacity="0.5" stroke-width="0.33" stroke-miterlimit="10"/>
<path d="M-19.2617 79.6801L41.0783 125L101.408 170.32" stroke="black" stroke-opacity="0.5" stroke-width="0.33" stroke-miterlimit="10"/>
<path d="M145.831 162.79L79.8008 125L13.8008 87.21" stroke="black" stroke-opacity="0.5" stroke-width="0.33" stroke-miterlimit="10"/>
<path d="M47.8906 95.36L118.531 125L189.171 154.64" stroke="black" stroke-opacity="0.5" stroke-width="0.33" stroke-miterlimit="10"/>
<path d="M231.358 146L157.258 125L83.1484 104" stroke="black" stroke-opacity="0.5" stroke-width="0.33" stroke-miterlimit="10"/>
<path d="M119.609 113L195.999 125L272.369 137" stroke="black" stroke-opacity="0.5" stroke-width="0.33" stroke-miterlimit="10"/>
<path d="M312.1 127.88L234.71 125L157.32 122.12" stroke="black" stroke-opacity="0.5" stroke-width="0.33" stroke-miterlimit="10"/>
<path d="M196.281 131.34L273.431 125L350.591 118.66" stroke="black" stroke-opacity="0.5" stroke-width="0.33" stroke-miterlimit="10"/>
<path d="M387.82 109.55L312.16 125L236.5 140.45" stroke="black" stroke-opacity="0.5" stroke-width="0.33" stroke-miterlimit="10"/>
<path d="M277.941 149.31L350.881 125L423.821 100.69" stroke="black" stroke-opacity="0.5" stroke-width="0.33" stroke-miterlimit="10"/>
<path d="M458.641 92.23L389.641 125L320.641 157.77" stroke="black" stroke-opacity="0.5" stroke-width="0.33" stroke-miterlimit="10"/>
<path d="M364.328 165.7L428.328 125L492.328 84.3" stroke="black" stroke-opacity="0.5" stroke-width="0.33" stroke-miterlimit="10"/>
<path d="M525.001 77L467.061 125L409.121 173" stroke="black" stroke-opacity="0.5" stroke-width="0.33" stroke-miterlimit="10"/>
<path d="M454.859 179.46L505.789 125C533.999 94.86 556.709 70.54 556.709 70.54" stroke="black" stroke-opacity="0.5" stroke-width="0.33" stroke-miterlimit="10"/>
<path d="M587.6 64.9301L544.51 125L501.43 185.07" stroke="black" stroke-opacity="0.5" stroke-width="0.33" stroke-miterlimit="10"/>
<path d="M548.691 189.69L583.241 125L617.781 60.3101" stroke="black" stroke-opacity="0.5" stroke-width="0.33" stroke-miterlimit="10"/>
<path d="M647.409 56.73C647.409 56.73 635.999 87.22 621.999 125L596.559 193.27" stroke="black" stroke-opacity="0.5" stroke-width="0.33" stroke-miterlimit="10"/>
<path d="M660.692 125C651.872 164.14 644.762 195.74 644.762 195.74C644.762 195.74 651.882 164.14 660.692 125ZM660.692 125C669.512 85.86 676.622 54.26 676.622 54.26C676.622 54.26 669.502 85.86 660.692 125Z" stroke="black" stroke-opacity="0.5" stroke-width="0.33" stroke-miterlimit="10"/>
<path d="M705.572 53C705.572 53 702.822 85.18 699.412 125.05C696.002 164.92 693.262 197.1 693.262 197.1C693.262 197.1 696.002 164.87 699.412 125C702.822 85.13 705.572 53 705.572 53Z" stroke="black" stroke-opacity="0.5" stroke-width="0.33" stroke-miterlimit="10"/>
<path d="M741.862 197.2C741.862 197.2 740.202 164.95 738.142 125C736.082 85.05 734.422 52.8 734.422 52.8" stroke="black" stroke-opacity="0.5" stroke-width="0.33" stroke-miterlimit="10"/>
<path d="M776.87 125C769.34 85.62 763.34 53.83 763.34 53.83C763.34 53.83 769.38 85.62 776.87 125ZM776.87 125L790.39 196.17" stroke="black" stroke-opacity="0.5" stroke-width="0.33" stroke-miterlimit="10"/>
<path d="M815.589 125C828.389 163.18 838.709 194 838.709 194C838.709 194 828.389 163.17 815.589 125ZM815.589 125L792.469 56" stroke="black" stroke-opacity="0.5" stroke-width="0.33" stroke-miterlimit="10"/>
<path d="M822 59.3199C822 59.3199 836.44 88.6599 854.34 125L886.68 190.68L854.32 125C836.42 88.6599 822 59.3199 822 59.3199Z" stroke="black" stroke-opacity="0.5" stroke-width="0.33" stroke-miterlimit="10"/>
<path d="M934.07 186.31C934.07 186.31 915.75 158.92 893.07 125L852.07 63.6899L893 125C915.75 158.92 934.07 186.31 934.07 186.31Z" stroke="black" stroke-opacity="0.5" stroke-width="0.33" stroke-miterlimit="10"/>
<path d="M882.711 69.0601L931.771 125L980.771 180.94" stroke="black" stroke-opacity="0.5" stroke-width="0.33" stroke-miterlimit="10"/>
<path d="M1026.78 174.66L970.491 125L914.211 75.34" stroke="black" stroke-opacity="0.5" stroke-width="0.33" stroke-miterlimit="10"/>
<path d="M946.621 82.4301L1009.22 125L1071.81 167.57" stroke="black" stroke-opacity="0.5" stroke-width="0.33" stroke-miterlimit="10"/>
<path d="M1115.83 159.79L1047.94 125L980.051 90.21" stroke="black" stroke-opacity="0.5" stroke-width="0.33" stroke-miterlimit="10"/>
<path d="M1014.59 98.5601L1086.67 125L1158.75 151.44" stroke="black" stroke-opacity="0.5" stroke-width="0.33" stroke-miterlimit="10"/>
<path d="M1200.5 142.67L1125.4 125L1050.29 107.33" stroke="black" stroke-opacity="0.5" stroke-width="0.33" stroke-miterlimit="10"/>
<path d="M1087.22 116.39L1164.12 125L1241.02 133.61" stroke="black" stroke-opacity="0.5" stroke-width="0.33" stroke-miterlimit="10"/>
<path d="M1280.3 124.41L1202.85 125L1125.4 125.59" stroke="black" stroke-opacity="0.5" stroke-width="0.33" stroke-miterlimit="10"/>
<path d="M1164.83 134.78L1241.57 125L1318.31 115.22" stroke="black" stroke-opacity="0.5" stroke-width="0.33" stroke-miterlimit="10"/>
<path d="M1355.08 106.18L1280.3 125L1205.52 143.82" stroke="black" stroke-opacity="0.5" stroke-width="0.33" stroke-miterlimit="10"/>
<path d="M1247.42 152.54L1319 125L1390.61 97.46" stroke="black" stroke-opacity="0.5" stroke-width="0.33" stroke-miterlimit="10"/>
<path d="M1425 89.1801L1357.75 125L1290.48 160.82" stroke="black" stroke-opacity="0.5" stroke-width="0.33" stroke-miterlimit="10"/>
<path d="M1334.64 168.52L1396.47 125L1458.31 81.48" stroke="black" stroke-opacity="0.5" stroke-width="0.33" stroke-miterlimit="10"/>
<path d="M1490.6 74.49L1435.2 125L1379.8 175.51" stroke="black" stroke-opacity="0.5" stroke-width="0.33" stroke-miterlimit="10"/>
<path d="M1425.86 181.68L1473.93 125L1522 68.3199" stroke="black" stroke-opacity="0.5" stroke-width="0.33" stroke-miterlimit="10"/>
<circle cx="9.75187" cy="183.07" r="4.955" fill="#FF4500"/>
<circle cx="56.0214" cy="177.12" r="4.955" fill="#FF4500"/>
<circle cx="101.408" cy="170.32" r="4.955" fill="#FF4500"/>
<circle cx="145.83" cy="162.79" r="4.955" fill="#FF4500"/>
<circle cx="13.7792" cy="87.21" r="4.955" fill="#FF4500"/>
<circle cx="47.8886" cy="95.36" r="4.955" fill="#FF4500"/>
<circle cx="189.17" cy="154.64" r="4.955" fill="#FF4500"/>
<circle cx="231.361" cy="146.01" r="4.955" fill="#FF4500"/>
<circle cx="83.1503" cy="103.99" r="4.955" fill="#FF4500"/>
<circle cx="119.611" cy="112.96" r="4.955" fill="#FF4500"/>
<circle cx="272.35" cy="137.04" r="4.955" fill="#FF4500"/>
<circle cx="312.1" cy="127.88" r="4.955" fill="#FF4500"/>
<circle cx="157.318" cy="122.12" r="4.955" fill="#FF4500"/>
<circle cx="196.279" cy="131.34" r="4.955" fill="#FF4500"/>
<circle cx="350.592" cy="118.66" r="4.955" fill="#FF4500"/>
<circle cx="387.818" cy="109.55" r="4.955" fill="#FF4500"/>
<circle cx="236.502" cy="140.45" r="4.955" fill="#FF4500"/>
<circle cx="277.939" cy="149.31" r="4.955" fill="#FF4500"/>
<circle cx="423.818" cy="100.69" r="4.955" fill="#FF4500"/>
<circle cx="458.639" cy="92.23" r="4.955" fill="#FF4500"/>
<circle cx="320.58" cy="157.77" r="4.955" fill="#FF4500"/>
<circle cx="364.33" cy="165.7" r="4.955" fill="#FF4500"/>
<circle cx="492.342" cy="84.3" r="4.955" fill="#FF4500"/>
<circle cx="525.002" cy="77.03" r="4.955" fill="#FF4500"/>
<circle cx="409.119" cy="172.97" r="4.955" fill="#FF4500"/>
<circle cx="454.861" cy="179.46" r="4.955" fill="#FF4500"/>
<circle cx="556.709" cy="70.54" r="4.955" fill="#FF4500"/>
<circle cx="587.6" cy="64.93" r="4.955" fill="#FF4500"/>
<circle cx="501.432" cy="185.07" r="4.955" fill="#FF4500"/>
<circle cx="548.689" cy="189.69" r="4.955" fill="#FF4500"/>
<circle cx="617.779" cy="60.31" r="4.955" fill="#FF4500"/>
<circle cx="647.408" cy="56.73" r="4.955" fill="#FF4500"/>
<circle cx="596.521" cy="193.27" r="4.955" fill="#FF4500"/>
<circle cx="644.76" cy="195.74" r="4.955" fill="#FF4500"/>
<circle cx="676.619" cy="54.2601" r="4.955" fill="#FF4500"/>
<circle cx="705.568" cy="52.95" r="4.955" fill="#FF4500"/>
<circle cx="693.26" cy="197.05" r="4.955" fill="#FF4500"/>
<circle cx="741.861" cy="197.2" r="4.955" fill="#FF4500"/>
<circle cx="734.42" cy="52.8" r="4.955" fill="#FF4500"/>
<circle cx="763.342" cy="53.83" r="4.955" fill="#FF4500"/>
<circle cx="790.389" cy="196.17" r="4.955" fill="#FF4500"/>
<circle cx="838.709" cy="193.99" r="4.955" fill="#FF4500"/>
<circle cx="792.471" cy="56.0101" r="4.955" fill="#FF4500"/>
<circle cx="821.978" cy="59.32" r="4.955" fill="#FF4500"/>
<circle cx="886.658" cy="190.68" r="4.955" fill="#FF4500"/>
<circle cx="934.068" cy="186.31" r="4.955" fill="#FF4500"/>
<circle cx="852.01" cy="63.69" r="4.955" fill="#FF4500"/>
<circle cx="882.709" cy="69.06" r="4.955" fill="#FF4500"/>
<circle cx="980.818" cy="180.94" r="4.955" fill="#FF4500"/>
<circle cx="1026.78" cy="174.66" r="4.955" fill="#FF4500"/>
<circle cx="914.209" cy="75.34" r="4.955" fill="#FF4500"/>
<circle cx="946.619" cy="82.43" r="4.955" fill="#FF4500"/>
<circle cx="1071.81" cy="167.57" r="4.955" fill="#FF4500"/>
<circle cx="1115.84" cy="159.79" r="4.955" fill="#FF4500"/>
<circle cx="980.049" cy="90.21" r="4.955" fill="#FF4500"/>
<circle cx="1014.59" cy="98.56" r="4.955" fill="#FF4500"/>
<circle cx="1158.75" cy="151.44" r="4.955" fill="#FF4500"/>
<circle cx="1200.5" cy="142.67" r="4.955" fill="#FF4500"/>
<circle cx="1050.29" cy="107.33" r="4.955" fill="#FF4500"/>
<circle cx="1087.22" cy="116.39" r="4.955" fill="#FF4500"/>
<circle cx="1241.02" cy="133.61" r="4.955" fill="#FF4500"/>
<circle cx="1280.3" cy="124.41" r="4.955" fill="#FF4500"/>
<circle cx="1125.4" cy="125.59" r="4.955" fill="#FF4500"/>
<circle cx="1164.83" cy="134.78" r="4.955" fill="#FF4500"/>
<circle cx="1318.31" cy="115.22" r="4.955" fill="#FF4500"/>
<circle cx="1355.08" cy="106.18" r="4.955" fill="#FF4500"/>
<circle cx="1205.52" cy="143.82" r="4.955" fill="#FF4500"/>
<circle cx="1247.42" cy="152.54" r="4.955" fill="#FF4500"/>
<circle cx="1390.63" cy="97.46" r="4.955" fill="#FF4500"/>
<circle cx="1425.02" cy="89.18" r="4.955" fill="#FF4500"/>
<circle cx="1290.48" cy="160.82" r="4.955" fill="#FF4500"/>
<circle cx="1334.64" cy="168.52" r="4.955" fill="#FF4500"/>
<circle cx="1379.8" cy="175.51" r="4.955" fill="#FF4500"/>
<circle cx="1425.86" cy="181.68" r="4.955" fill="#FF4500"/>
</svg>
